<svg width="800" height="921" viewBox="0 0 800 921" fill="none" xmlns="https://www.w3.org/2000/svg">
<path d="M0 30C0 13.4315 13.4315 0 30 0H770C786.569 0 800 13.4315 800 30V891C800 907.569 786.569 921 770 921H30C13.4315 921 0 907.569 0 891V30Z" fill="white"/>
<mask id="mask0_131_5166" style="mask-type:alpha" maskUnits="userSpaceOnUse" x="86" y="155" width="629" height="386">
<path d="M86 155H714.135V540.784H86V155Z" fill="#C4C4C4"/>
</mask>
<g mask="url(#mask0_131_5166)">
<mask id="mask1_131_5166" style="mask-type:alpha" maskUnits="userSpaceOnUse" x="77" y="146" width="639" height="404">
<path d="M77.834 163.383L705.751 146.838L715.912 532.488L87.9951 549.033L77.834 163.383Z" fill="#C4C4C4"/>
</mask>
<g mask="url(#mask1_131_5166)">
</g>
<g clip-path="url(#clip0_131_5166)">
<path d="M380.02 306.704C381.53 316.171 389.781 322.988 399.368 322.914C407.301 322.857 415.259 323.437 423.17 324.671C495.821 335.995 547.8 399.088 547.387 470.495C547.331 480.034 554.246 488.184 563.662 489.651L648.441 502.866C659.737 504.627 670.021 496.201 670.645 484.783C672.485 451.267 668.079 417.396 657.628 385.5C644.4 345.122 621.497 307.942 591.374 277.973C561.252 248.005 523.963 225.27 483.524 212.239C451.678 201.978 417.902 197.745 384.495 199.706C373.082 200.376 364.707 210.682 366.508 221.982L372.076 256.873L380.02 306.704Z" fill="#B16A3E"/>
<path d="M281.968 354.671L221.212 294.131C213.115 286.059 199.843 286.824 192.628 295.688C171.416 321.713 155.049 351.685 144.734 383.619C134.416 415.566 130.166 449.45 132.152 482.957C132.822 494.37 143.141 502.747 154.429 500.944L239.132 487.374C248.599 485.864 255.402 477.611 255.328 468.024C255.263 460.062 255.86 452.079 257.098 444.141C260.776 420.542 269.928 398.635 283.85 379.756C289.517 372.082 288.73 361.421 281.968 354.671Z" fill="#878B91"/>
<path d="M332.369 208.818C294.6 218.725 259.762 236.573 229.642 261.402C220.848 268.658 220.16 281.895 228.232 289.95L289.039 350.607C295.812 357.373 306.48 358.045 314.189 352.368C327.089 342.863 341.518 335.468 356.713 330.573C365.825 327.632 371.499 318.597 369.987 309.143L356.345 224.374C354.539 213.1 343.399 205.929 332.369 208.818Z" fill="#317062"/>
</g>
</g>
<path d="M552.727 96.3183C552.727 75.2571 569.8 58.1836 590.861 58.1836H698.332C719.393 58.1836 736.467 75.2571 736.467 96.3183V96.3183C736.467 117.38 719.393 134.453 698.332 134.453H590.861C569.8 134.453 552.727 117.38 552.727 96.3183V96.3183Z" fill="#B16A3E"/>
<path d="M602.516 87.802L606.607 100.662H606.764L610.863 87.802H614.83L608.996 104.728H604.384L598.541 87.802H602.516Z" fill="white"/>
<path d="M621.155 104.976C619.849 104.976 618.725 104.711 617.783 104.182C616.846 103.648 616.124 102.893 615.617 101.918C615.111 100.937 614.857 99.7772 614.857 98.4384C614.857 97.1326 615.111 95.9866 615.617 95.0004C616.124 94.0141 616.838 93.2455 617.758 92.6946C618.684 92.1436 619.769 91.8681 621.014 91.8681C621.852 91.8681 622.631 92.0031 623.353 92.2731C624.08 92.5375 624.714 92.937 625.254 93.4714C625.799 94.0059 626.224 94.678 626.527 95.488C626.83 96.2924 626.981 97.2345 626.981 98.3144V99.2813H616.262V97.0995H623.667C623.667 96.5926 623.557 96.1436 623.336 95.7524C623.116 95.3612 622.81 95.0555 622.419 94.8351C622.033 94.6092 621.584 94.4962 621.072 94.4962C620.538 94.4962 620.064 94.6202 619.651 94.8681C619.243 95.1105 618.923 95.4384 618.692 95.8516C618.46 96.2593 618.342 96.7139 618.336 97.2152V99.2896C618.336 99.9177 618.452 100.46 618.684 100.918C618.92 101.375 619.254 101.728 619.684 101.976C620.113 102.223 620.623 102.347 621.213 102.347C621.604 102.347 621.962 102.292 622.287 102.182C622.612 102.072 622.89 101.907 623.122 101.686C623.353 101.466 623.529 101.196 623.651 100.876L626.907 101.091C626.741 101.874 626.403 102.557 625.89 103.141C625.383 103.719 624.728 104.171 623.923 104.496C623.124 104.816 622.201 104.976 621.155 104.976Z" fill="white"/>
<path d="M629.279 104.728V92.0334H632.692V94.2483H632.824C633.055 93.4604 633.444 92.8654 633.989 92.4632C634.535 92.0555 635.163 91.8516 635.874 91.8516C636.05 91.8516 636.24 91.8626 636.444 91.8847C636.648 91.9067 636.827 91.937 636.981 91.9756V95.0995C636.816 95.0499 636.587 95.0059 636.295 94.9673C636.003 94.9287 635.736 94.9094 635.493 94.9094C634.976 94.9094 634.513 95.0224 634.105 95.2483C633.703 95.4687 633.383 95.7772 633.146 96.1739C632.915 96.5706 632.799 97.0279 632.799 97.5458V104.728H629.279Z" fill="white"/>
<path d="M644.188 104.728V92.0334H647.543V94.2731H647.692C647.956 93.5293 648.397 92.9425 649.014 92.5128C649.631 92.083 650.37 91.8681 651.229 91.8681C652.1 91.8681 652.841 92.0858 653.452 92.521C654.064 92.9508 654.471 93.5348 654.675 94.2731H654.808C655.067 93.5458 655.535 92.9645 656.213 92.5293C656.896 92.0885 657.703 91.8681 658.634 91.8681C659.819 91.8681 660.78 92.2455 661.518 93.0004C662.262 93.7497 662.634 94.813 662.634 96.1904V104.728H659.122V96.8847C659.122 96.1794 658.934 95.6505 658.56 95.2979C658.185 94.9453 657.717 94.769 657.155 94.769C656.516 94.769 656.017 94.9728 655.659 95.3805C655.301 95.7827 655.122 96.3144 655.122 96.9756V104.728H651.708V96.8103C651.708 96.1877 651.529 95.6918 651.171 95.3227C650.819 94.9535 650.353 94.769 649.774 94.769C649.383 94.769 649.031 94.8681 648.717 95.0665C648.408 95.2593 648.163 95.532 647.981 95.8847C647.799 96.2318 647.708 96.6395 647.708 97.1078V104.728H644.188Z" fill="white"/>
<path d="M669.035 104.967C668.225 104.967 667.503 104.827 666.87 104.546C666.236 104.259 665.735 103.838 665.365 103.281C665.002 102.719 664.82 102.02 664.82 101.182C664.82 100.477 664.949 99.8847 665.208 99.4053C665.467 98.926 665.82 98.5403 666.266 98.2483C666.713 97.9563 667.219 97.7359 667.787 97.5871C668.36 97.4384 668.96 97.3337 669.589 97.2731C670.327 97.1959 670.922 97.1243 671.374 97.0582C671.825 96.9866 672.153 96.8819 672.357 96.7442C672.561 96.6064 672.663 96.4026 672.663 96.1326V96.083C672.663 95.5596 672.498 95.1546 672.167 94.8681C671.842 94.5816 671.379 94.4384 670.779 94.4384C670.145 94.4384 669.641 94.5789 669.266 94.8599C668.892 95.1353 668.644 95.4824 668.522 95.9012L665.266 95.6367C665.432 94.8654 665.757 94.1987 666.241 93.6367C666.726 93.0692 667.352 92.634 668.117 92.3309C668.889 92.0224 669.781 91.8681 670.795 91.8681C671.5 91.8681 672.175 91.9508 672.82 92.1161C673.47 92.2813 674.046 92.5375 674.547 92.8847C675.054 93.2318 675.454 93.678 675.746 94.2235C676.038 94.7634 676.184 95.4108 676.184 96.1656V104.728H672.845V102.967H672.746C672.542 103.364 672.269 103.714 671.927 104.017C671.586 104.314 671.175 104.549 670.696 104.719C670.217 104.885 669.663 104.967 669.035 104.967ZM670.043 102.538C670.561 102.538 671.018 102.436 671.415 102.232C671.812 102.022 672.123 101.741 672.349 101.389C672.575 101.036 672.688 100.637 672.688 100.19V98.8433C672.578 98.915 672.426 98.9811 672.233 99.0417C672.046 99.0968 671.834 99.1491 671.597 99.1987C671.36 99.2428 671.123 99.2841 670.886 99.3227C670.649 99.3557 670.434 99.386 670.241 99.4136C669.828 99.4742 669.467 99.5706 669.159 99.7028C668.85 99.8351 668.611 100.014 668.44 100.24C668.269 100.46 668.184 100.736 668.184 101.066C668.184 101.546 668.357 101.912 668.704 102.166C669.057 102.414 669.503 102.538 670.043 102.538ZM669.663 90.397L671.415 86.6367H674.671L672.151 90.397H669.663Z" fill="white"/>
<path d="M689.477 95.6532L686.254 95.8516C686.199 95.5761 686.08 95.3282 685.898 95.1078C685.717 94.8819 685.477 94.7028 685.179 94.5706C684.887 94.4329 684.538 94.364 684.13 94.364C683.584 94.364 683.124 94.4797 682.75 94.7111C682.375 94.937 682.188 95.24 682.188 95.6202C682.188 95.9232 682.309 96.1794 682.551 96.3888C682.794 96.5982 683.21 96.7662 683.799 96.8929L686.097 97.3557C687.331 97.6092 688.251 98.0169 688.857 98.5789C689.463 99.1409 689.766 99.8791 689.766 100.794C689.766 101.626 689.521 102.356 689.031 102.984C688.546 103.612 687.879 104.102 687.031 104.455C686.188 104.802 685.215 104.976 684.113 104.976C682.433 104.976 681.094 104.626 680.097 103.926C679.105 103.221 678.524 102.262 678.353 101.05L681.816 100.868C681.92 101.381 682.174 101.772 682.576 102.042C682.978 102.306 683.493 102.438 684.122 102.438C684.739 102.438 685.235 102.32 685.609 102.083C685.989 101.841 686.182 101.529 686.188 101.149C686.182 100.83 686.047 100.568 685.783 100.364C685.518 100.155 685.111 99.9948 684.56 99.8847L682.361 99.4466C681.122 99.1987 680.199 98.7689 679.593 98.1574C678.992 97.5458 678.692 96.7662 678.692 95.8185C678.692 95.0031 678.912 94.3006 679.353 93.7111C679.799 93.1216 680.425 92.667 681.229 92.3475C682.039 92.0279 682.987 91.8681 684.072 91.8681C685.675 91.8681 686.937 92.207 687.857 92.8847C688.783 93.5623 689.323 94.4852 689.477 95.6532Z" fill="white"/>
<path d="M84.3627 639.999C84.3627 644.819 80.4554 648.726 75.6355 648.726C70.8155 648.726 66.9082 644.819 66.9082 639.999C66.9082 635.179 70.8155 631.271 75.6355 631.271C80.4554 631.271 84.3627 635.179 84.3627 639.999Z" fill="#B16A3E"/>
<path opacity="0.4" fill-rule="evenodd" clip-rule="evenodd" d="M736 689H67V686H736V689Z" fill="#EAEAEA"/>
<path d="M101.779 648V628.958H108.213C109.701 628.958 110.922 629.212 111.876 629.721C112.831 630.223 113.538 630.914 113.996 631.794C114.455 632.674 114.684 633.675 114.684 634.797C114.684 635.919 114.455 636.914 113.996 637.782C113.538 638.649 112.834 639.331 111.886 639.827C110.937 640.317 109.726 640.562 108.25 640.562H103.044V638.479H108.176C109.193 638.479 110.011 638.33 110.631 638.033C111.257 637.735 111.709 637.314 111.988 636.768C112.273 636.217 112.416 635.56 112.416 634.797C112.416 634.035 112.273 633.368 111.988 632.798C111.703 632.228 111.247 631.788 110.621 631.478C109.995 631.162 109.168 631.004 108.139 631.004H104.085V648H101.779ZM110.742 639.446L115.428 648H112.75L108.139 639.446H110.742Z" fill="#878B91"/>
<path d="M124.063 648.297C122.687 648.297 121.5 647.993 120.502 647.386C119.51 646.772 118.745 645.917 118.206 644.82C117.673 643.717 117.406 642.434 117.406 640.971C117.406 639.508 117.673 638.219 118.206 637.103C118.745 635.981 119.495 635.107 120.456 634.481C121.423 633.849 122.551 633.533 123.84 633.533C124.584 633.533 125.318 633.657 126.044 633.905C126.769 634.153 127.429 634.555 128.024 635.113C128.619 635.665 129.093 636.396 129.446 637.307C129.8 638.219 129.976 639.341 129.976 640.673V641.603H118.968V639.706H127.745C127.745 638.9 127.584 638.181 127.261 637.549C126.945 636.917 126.493 636.418 125.904 636.052C125.321 635.687 124.633 635.504 123.84 635.504C122.966 635.504 122.21 635.721 121.571 636.155C120.939 636.582 120.453 637.14 120.112 637.828C119.771 638.516 119.6 639.254 119.6 640.041V641.305C119.6 642.384 119.786 643.298 120.158 644.048C120.536 644.792 121.06 645.359 121.729 645.75C122.399 646.134 123.177 646.326 124.063 646.326C124.64 646.326 125.16 646.246 125.625 646.084C126.096 645.917 126.502 645.669 126.843 645.341C127.184 645.006 127.447 644.591 127.633 644.095L129.753 644.69C129.53 645.409 129.155 646.041 128.628 646.586C128.101 647.126 127.451 647.547 126.676 647.851C125.901 648.148 125.03 648.297 124.063 648.297Z" fill="#878B91"/>
<path d="M135.508 639.409V648H133.314V633.719H135.434V635.95H135.62C135.955 635.225 136.463 634.642 137.145 634.202C137.827 633.756 138.707 633.533 139.785 633.533C140.752 633.533 141.598 633.731 142.323 634.128C143.049 634.518 143.613 635.113 144.016 635.913C144.419 636.706 144.62 637.71 144.62 638.925V648H142.426V639.074C142.426 637.952 142.134 637.078 141.552 636.452C140.969 635.82 140.17 635.504 139.153 635.504C138.453 635.504 137.827 635.656 137.275 635.959C136.729 636.263 136.299 636.706 135.983 637.289C135.666 637.872 135.508 638.578 135.508 639.409Z" fill="#878B91"/>
<path d="M154.84 633.719V635.578H147.439V633.719H154.84ZM149.596 630.297H151.791V643.909C151.791 644.529 151.881 644.993 152.06 645.303C152.246 645.607 152.482 645.812 152.767 645.917C153.058 646.016 153.365 646.066 153.687 646.066C153.929 646.066 154.127 646.053 154.282 646.029C154.437 645.998 154.561 645.973 154.654 645.954L155.101 647.925C154.952 647.981 154.744 648.037 154.478 648.093C154.211 648.155 153.873 648.186 153.464 648.186C152.844 648.186 152.237 648.052 151.642 647.786C151.053 647.519 150.563 647.113 150.173 646.568C149.789 646.022 149.596 645.334 149.596 644.504V630.297Z" fill="#878B91"/>
<path d="M162.343 648.334C161.438 648.334 160.617 648.164 159.88 647.823C159.142 647.476 158.556 646.977 158.122 646.326C157.688 645.669 157.471 644.876 157.471 643.946C157.471 643.128 157.633 642.465 157.955 641.956C158.277 641.442 158.708 641.039 159.247 640.748C159.787 640.456 160.382 640.239 161.032 640.097C161.689 639.948 162.35 639.83 163.013 639.743C163.881 639.632 164.584 639.548 165.123 639.492C165.669 639.43 166.065 639.328 166.313 639.186C166.568 639.043 166.695 638.795 166.695 638.442V638.367C166.695 637.45 166.444 636.737 165.941 636.229C165.446 635.721 164.693 635.467 163.682 635.467C162.635 635.467 161.813 635.696 161.218 636.155C160.623 636.613 160.205 637.103 159.963 637.624L157.881 636.88C158.252 636.012 158.748 635.336 159.368 634.853C159.994 634.363 160.676 634.022 161.414 633.83C162.157 633.632 162.889 633.533 163.608 633.533C164.066 633.533 164.593 633.588 165.188 633.7C165.79 633.805 166.369 634.025 166.927 634.36C167.491 634.695 167.959 635.2 168.331 635.876C168.703 636.551 168.889 637.456 168.889 638.591V648H166.695V646.066H166.583C166.434 646.376 166.186 646.707 165.839 647.061C165.492 647.414 165.03 647.715 164.454 647.962C163.877 648.21 163.174 648.334 162.343 648.334ZM162.678 646.363C163.546 646.363 164.277 646.193 164.872 645.852C165.474 645.511 165.926 645.071 166.23 644.532C166.54 643.992 166.695 643.425 166.695 642.83V640.822C166.602 640.934 166.397 641.036 166.081 641.129C165.771 641.216 165.412 641.293 165.002 641.361C164.6 641.423 164.206 641.479 163.822 641.529C163.444 641.572 163.137 641.609 162.901 641.64C162.331 641.715 161.798 641.835 161.302 642.003C160.812 642.164 160.416 642.409 160.112 642.737C159.814 643.06 159.666 643.5 159.666 644.057C159.666 644.82 159.948 645.396 160.512 645.787C161.082 646.171 161.804 646.363 162.678 646.363Z" fill="#878B91"/>
<path d="M181.336 628.958L186.989 644.987H187.212L192.865 628.958H195.282L188.29 648H185.91L178.919 628.958H181.336Z" fill="#878B91"/>
<path d="M200.823 648.334C199.919 648.334 199.097 648.164 198.36 647.823C197.622 647.476 197.036 646.977 196.602 646.326C196.169 645.669 195.952 644.876 195.952 643.946C195.952 643.128 196.113 642.465 196.435 641.956C196.757 641.442 197.188 641.039 197.727 640.748C198.267 640.456 198.862 640.239 199.513 640.097C200.17 639.948 200.83 639.83 201.493 639.743C202.361 639.632 203.064 639.548 203.603 639.492C204.149 639.43 204.546 639.328 204.794 639.186C205.048 639.043 205.175 638.795 205.175 638.442V638.367C205.175 637.45 204.924 636.737 204.422 636.229C203.926 635.721 203.173 635.467 202.162 635.467C201.115 635.467 200.294 635.696 199.698 636.155C199.103 636.613 198.685 637.103 198.443 637.624L196.361 636.88C196.733 636.012 197.228 635.336 197.848 634.853C198.474 634.363 199.156 634.022 199.894 633.83C200.638 633.632 201.369 633.533 202.088 633.533C202.547 633.533 203.073 633.588 203.669 633.7C204.27 633.805 204.849 634.025 205.407 634.36C205.971 634.695 206.439 635.2 206.811 635.876C207.183 636.551 207.369 637.456 207.369 638.591V648H205.175V646.066H205.063C204.914 646.376 204.666 646.707 204.319 647.061C203.972 647.414 203.51 647.715 202.934 647.962C202.358 648.21 201.654 648.334 200.823 648.334ZM201.158 646.363C202.026 646.363 202.757 646.193 203.352 645.852C203.954 645.511 204.406 645.071 204.71 644.532C205.02 643.992 205.175 643.425 205.175 642.83V640.822C205.082 640.934 204.877 641.036 204.561 641.129C204.251 641.216 203.892 641.293 203.483 641.361C203.08 641.423 202.686 641.479 202.302 641.529C201.924 641.572 201.617 641.609 201.381 641.64C200.811 641.715 200.278 641.835 199.782 642.003C199.292 642.164 198.896 642.409 198.592 642.737C198.295 643.06 198.146 643.5 198.146 644.057C198.146 644.82 198.428 645.396 198.992 645.787C199.562 646.171 200.284 646.363 201.158 646.363Z" fill="#878B91"/>
<path d="M211.374 648V633.719H213.494V635.876H213.642C213.903 635.169 214.374 634.596 215.056 634.156C215.737 633.716 216.506 633.496 217.361 633.496C217.523 633.496 217.724 633.499 217.966 633.505C218.208 633.511 218.39 633.52 218.514 633.533V635.764C218.44 635.746 218.269 635.718 218.003 635.68C217.743 635.637 217.467 635.615 217.175 635.615C216.481 635.615 215.861 635.761 215.316 636.052C214.777 636.337 214.349 636.734 214.033 637.242C213.723 637.744 213.568 638.318 213.568 638.962V648H211.374Z" fill="#878B91"/>
<path d="M221.115 648V633.719H223.31V648H221.115ZM222.231 631.338C221.803 631.338 221.435 631.193 221.125 630.902C220.821 630.61 220.669 630.26 220.669 629.851C220.669 629.442 220.821 629.092 221.125 628.8C221.435 628.509 221.803 628.363 222.231 628.363C222.659 628.363 223.024 628.509 223.328 628.8C223.638 629.092 223.793 629.442 223.793 629.851C223.793 630.26 223.638 630.61 223.328 630.902C223.024 631.193 222.659 631.338 222.231 631.338Z" fill="#878B91"/>
<path d="M231.531 648.334C230.626 648.334 229.805 648.164 229.067 647.823C228.329 647.476 227.744 646.977 227.31 646.326C226.876 645.669 226.659 644.876 226.659 643.946C226.659 643.128 226.82 642.465 227.142 641.956C227.465 641.442 227.896 641.039 228.435 640.748C228.974 640.456 229.569 640.239 230.22 640.097C230.877 639.948 231.537 639.83 232.2 639.743C233.068 639.632 233.772 639.548 234.311 639.492C234.856 639.43 235.253 639.328 235.501 639.186C235.755 639.043 235.882 638.795 235.882 638.442V638.367C235.882 637.45 235.631 636.737 235.129 636.229C234.633 635.721 233.88 635.467 232.87 635.467C231.822 635.467 231.001 635.696 230.406 636.155C229.811 636.613 229.392 637.103 229.151 637.624L227.068 636.88C227.44 636.012 227.936 635.336 228.556 634.853C229.182 634.363 229.863 634.022 230.601 633.83C231.345 633.632 232.076 633.533 232.795 633.533C233.254 633.533 233.781 633.588 234.376 633.7C234.977 633.805 235.557 634.025 236.115 634.36C236.679 634.695 237.147 635.2 237.518 635.876C237.89 636.551 238.076 637.456 238.076 638.591V648H235.882V646.066H235.771C235.622 646.376 235.374 646.707 235.027 647.061C234.68 647.414 234.218 647.715 233.641 647.962C233.065 648.21 232.361 648.334 231.531 648.334ZM231.866 646.363C232.733 646.363 233.465 646.193 234.06 645.852C234.661 645.511 235.113 645.071 235.417 644.532C235.727 643.992 235.882 643.425 235.882 642.83V640.822C235.789 640.934 235.585 641.036 235.268 641.129C234.959 641.216 234.599 641.293 234.19 641.361C233.787 641.423 233.393 641.479 233.009 641.529C232.631 641.572 232.324 641.609 232.089 641.64C231.518 641.715 230.985 641.835 230.49 642.003C230 642.164 229.603 642.409 229.299 642.737C229.002 643.06 228.853 643.5 228.853 644.057C228.853 644.82 229.135 645.396 229.699 645.787C230.269 646.171 230.992 646.363 231.866 646.363Z" fill="#878B91"/>
<path d="M242.379 648V628.958H244.573V635.987H244.759C244.92 635.739 245.143 635.423 245.428 635.039C245.72 634.648 246.135 634.301 246.674 633.998C247.22 633.688 247.957 633.533 248.887 633.533C250.089 633.533 251.149 633.833 252.067 634.435C252.984 635.036 253.7 635.888 254.214 636.991C254.729 638.095 254.986 639.396 254.986 640.896C254.986 642.409 254.729 643.72 254.214 644.829C253.7 645.932 252.987 646.788 252.076 647.395C251.165 647.997 250.114 648.297 248.924 648.297C248.007 648.297 247.272 648.145 246.721 647.842C246.169 647.532 245.744 647.181 245.447 646.791C245.149 646.394 244.92 646.066 244.759 645.805H244.499V648H242.379ZM244.536 640.859C244.536 641.938 244.694 642.889 245.01 643.713C245.326 644.532 245.788 645.173 246.395 645.638C247.003 646.097 247.747 646.326 248.627 646.326C249.544 646.326 250.31 646.084 250.923 645.601C251.543 645.111 252.008 644.454 252.318 643.63C252.634 642.799 252.792 641.876 252.792 640.859C252.792 639.855 252.637 638.95 252.327 638.144C252.023 637.332 251.562 636.691 250.942 636.22C250.328 635.742 249.556 635.504 248.627 635.504C247.734 635.504 246.984 635.73 246.377 636.182C245.769 636.629 245.311 637.255 245.001 638.061C244.691 638.86 244.536 639.793 244.536 640.859Z" fill="#878B91"/>
<path d="M260.537 628.958V648H258.343V628.958H260.537Z" fill="#878B91"/>
<path d="M270.543 648.297C269.167 648.297 267.98 647.993 266.982 647.386C265.991 646.772 265.225 645.917 264.686 644.82C264.153 643.717 263.886 642.434 263.886 640.971C263.886 639.508 264.153 638.219 264.686 637.103C265.225 635.981 265.975 635.107 266.936 634.481C267.903 633.849 269.031 633.533 270.32 633.533C271.064 633.533 271.798 633.657 272.524 633.905C273.249 634.153 273.909 634.555 274.504 635.113C275.099 635.665 275.573 636.396 275.927 637.307C276.28 638.219 276.456 639.341 276.456 640.673V641.603H265.448V639.706H274.225C274.225 638.9 274.064 638.181 273.742 637.549C273.425 636.917 272.973 636.418 272.384 636.052C271.802 635.687 271.113 635.504 270.32 635.504C269.446 635.504 268.69 635.721 268.052 636.155C267.419 636.582 266.933 637.14 266.592 637.828C266.251 638.516 266.08 639.254 266.08 640.041V641.305C266.08 642.384 266.266 643.298 266.638 644.048C267.016 644.792 267.54 645.359 268.21 645.75C268.879 646.134 269.657 646.326 270.543 646.326C271.12 646.326 271.64 646.246 272.105 646.084C272.576 645.917 272.982 645.669 273.323 645.341C273.664 645.006 273.928 644.591 274.113 644.095L276.233 644.69C276.01 645.409 275.635 646.041 275.108 646.586C274.581 647.126 273.931 647.547 273.156 647.851C272.381 648.148 271.51 648.297 270.543 648.297Z" fill="#878B91"/>
<path d="M637.129 648.001V646.327L643.414 639.447C644.152 638.641 644.759 637.941 645.236 637.346C645.714 636.745 646.067 636.181 646.296 635.654C646.532 635.121 646.65 634.563 646.65 633.98C646.65 633.311 646.488 632.731 646.166 632.242C645.85 631.752 645.416 631.374 644.864 631.107C644.313 630.841 643.693 630.707 643.005 630.707C642.274 630.707 641.635 630.859 641.09 631.163C640.55 631.461 640.132 631.879 639.834 632.418C639.543 632.957 639.397 633.59 639.397 634.315H637.203C637.203 633.199 637.461 632.22 637.975 631.377C638.489 630.534 639.19 629.877 640.076 629.406C640.969 628.935 641.97 628.699 643.079 628.699C644.195 628.699 645.184 628.935 646.045 629.406C646.907 629.877 647.582 630.512 648.072 631.312C648.562 632.111 648.807 633.001 648.807 633.98C648.807 634.681 648.68 635.366 648.425 636.035C648.177 636.698 647.744 637.439 647.124 638.257C646.51 639.069 645.658 640.061 644.567 641.232L640.29 645.807V645.955H649.141V648.001H637.129Z" fill="#878B91"/>
<path d="M652.981 648.001V646.327L659.266 639.447C660.004 638.641 660.611 637.941 661.089 637.346C661.566 636.745 661.919 636.181 662.149 635.654C662.384 635.121 662.502 634.563 662.502 633.98C662.502 633.311 662.341 632.731 662.018 632.242C661.702 631.752 661.268 631.374 660.717 631.107C660.165 630.841 659.545 630.707 658.857 630.707C658.126 630.707 657.487 630.859 656.942 631.163C656.403 631.461 655.984 631.879 655.687 632.418C655.395 632.957 655.25 633.59 655.25 634.315H653.056C653.056 633.199 653.313 632.22 653.827 631.377C654.342 630.534 655.042 629.877 655.928 629.406C656.821 628.935 657.822 628.699 658.932 628.699C660.047 628.699 661.036 628.935 661.897 629.406C662.759 629.877 663.435 630.512 663.924 631.312C664.414 632.111 664.659 633.001 664.659 633.98C664.659 634.681 664.532 635.366 664.278 636.035C664.03 636.698 663.596 637.439 662.976 638.257C662.362 639.069 661.51 640.061 660.419 641.232L656.142 645.807V645.955H664.994V648.001H652.981Z" fill="#878B91"/>
<path d="M672.143 645.398L671.995 646.402C671.889 647.108 671.728 647.865 671.511 648.67C671.3 649.476 671.08 650.235 670.851 650.948C670.622 651.661 670.433 652.228 670.284 652.65H668.61C668.691 652.253 668.796 651.729 668.926 651.078C669.057 650.428 669.187 649.699 669.317 648.893C669.453 648.094 669.565 647.276 669.652 646.439L669.763 645.398H672.143Z" fill="#878B91"/>
<path d="M681.889 648.261C680.662 648.261 679.568 648.05 678.607 647.629C677.653 647.207 676.894 646.622 676.33 645.872C675.772 645.116 675.468 644.238 675.418 643.241H677.761C677.811 643.854 678.022 644.384 678.394 644.83C678.766 645.27 679.252 645.611 679.853 645.853C680.455 646.095 681.121 646.216 681.852 646.216C682.67 646.216 683.396 646.073 684.028 645.788C684.66 645.503 685.156 645.106 685.516 644.598C685.875 644.09 686.055 643.501 686.055 642.831C686.055 642.131 685.881 641.514 685.534 640.981C685.187 640.442 684.679 640.02 684.009 639.717C683.34 639.413 682.522 639.261 681.555 639.261H680.03V637.216H681.555C682.311 637.216 682.974 637.079 683.544 636.807C684.121 636.534 684.57 636.15 684.893 635.654C685.221 635.158 685.385 634.575 685.385 633.906C685.385 633.261 685.243 632.7 684.958 632.223C684.673 631.746 684.27 631.374 683.749 631.107C683.235 630.841 682.627 630.707 681.927 630.707C681.27 630.707 680.65 630.828 680.067 631.07C679.491 631.306 679.02 631.65 678.654 632.102C678.288 632.548 678.09 633.088 678.059 633.72H675.828C675.865 632.722 676.165 631.848 676.729 631.098C677.293 630.342 678.031 629.753 678.942 629.331C679.86 628.91 680.867 628.699 681.964 628.699C683.142 628.699 684.152 628.938 684.995 629.415C685.838 629.886 686.486 630.509 686.938 631.284C687.391 632.059 687.617 632.896 687.617 633.794C687.617 634.867 687.335 635.781 686.771 636.537C686.213 637.293 685.454 637.817 684.493 638.108V638.257C685.695 638.455 686.634 638.967 687.31 639.791C687.986 640.609 688.323 641.623 688.323 642.831C688.323 643.867 688.041 644.796 687.477 645.621C686.919 646.439 686.157 647.084 685.19 647.555C684.223 648.026 683.123 648.261 681.889 648.261Z" fill="#878B91"/>
<path d="M691.68 644.096V642.199L700.048 628.96H701.424V631.898H700.494L694.172 641.902V642.05H705.44V644.096H691.68ZM700.643 648.001V643.519V642.636V628.96H702.837V648.001H700.643Z" fill="#878B91"/>
<path d="M725.995 644.431V643.426C725.995 642.732 726.137 642.097 726.422 641.521C726.714 640.938 727.135 640.473 727.687 640.126C728.245 639.773 728.92 639.596 729.714 639.596C730.519 639.596 731.195 639.773 731.74 640.126C732.286 640.473 732.698 640.938 732.977 641.521C733.256 642.097 733.395 642.732 733.395 643.426V644.431C733.395 645.125 733.253 645.763 732.968 646.346C732.689 646.922 732.274 647.387 731.722 647.741C731.176 648.088 730.507 648.261 729.714 648.261C728.908 648.261 728.229 648.088 727.677 647.741C727.126 647.387 726.707 646.922 726.422 646.346C726.137 645.763 725.995 645.125 725.995 644.431ZM727.891 643.426V644.431C727.891 645.007 728.028 645.525 728.3 645.983C728.573 646.436 729.044 646.662 729.714 646.662C730.364 646.662 730.823 646.436 731.09 645.983C731.362 645.525 731.499 645.007 731.499 644.431V643.426C731.499 642.85 731.369 642.336 731.108 641.883C730.848 641.424 730.383 641.195 729.714 641.195C729.063 641.195 728.595 641.424 728.31 641.883C728.031 642.336 727.891 642.85 727.891 643.426ZM716.511 633.534V632.53C716.511 631.836 716.654 631.2 716.939 630.624C717.23 630.041 717.652 629.576 718.203 629.229C718.761 628.876 719.437 628.699 720.23 628.699C721.036 628.699 721.712 628.876 722.257 629.229C722.802 629.576 723.215 630.041 723.494 630.624C723.773 631.2 723.912 631.836 723.912 632.53V633.534C723.912 634.228 723.769 634.867 723.484 635.449C723.205 636.026 722.79 636.491 722.238 636.844C721.693 637.191 721.024 637.365 720.23 637.365C719.424 637.365 718.746 637.191 718.194 636.844C717.642 636.491 717.224 636.026 716.939 635.449C716.654 634.867 716.511 634.228 716.511 633.534ZM718.408 632.53V633.534C718.408 634.11 718.544 634.628 718.817 635.087C719.09 635.539 719.561 635.765 720.23 635.765C720.881 635.765 721.34 635.539 721.606 635.087C721.879 634.628 722.015 634.11 722.015 633.534V632.53C722.015 631.953 721.885 631.439 721.625 630.986C721.364 630.528 720.9 630.298 720.23 630.298C719.579 630.298 719.111 630.528 718.826 630.986C718.547 631.439 718.408 631.953 718.408 632.53ZM717.218 648.001L730.309 628.96H732.428L719.338 648.001H717.218Z" fill="#878B91"/>
<path d="M84.3627 728.725C84.3627 733.545 80.4554 737.453 75.6355 737.453C70.8155 737.453 66.9082 733.545 66.9082 728.725C66.9082 723.905 70.8155 719.998 75.6355 719.998C80.4554 719.998 84.3627 723.905 84.3627 728.725Z" fill="#317062"/>
<path opacity="0.4" fill-rule="evenodd" clip-rule="evenodd" d="M735.999 778.183H66.9082V775.273H735.999V778.183Z" fill="#EAEAEA"/>
<path d="M108.365 737.455V718.413H114.799C116.287 718.413 117.508 718.668 118.462 719.176C119.417 719.678 120.124 720.369 120.582 721.249C121.041 722.129 121.27 723.13 121.27 724.252C121.27 725.374 121.041 726.369 120.582 727.237C120.124 728.105 119.42 728.786 118.472 729.282C117.523 729.772 116.312 730.017 114.836 730.017H109.63V727.934H114.762C115.778 727.934 116.597 727.785 117.216 727.488C117.843 727.19 118.295 726.769 118.574 726.223C118.859 725.672 119.002 725.015 119.002 724.252C119.002 723.49 118.859 722.824 118.574 722.253C118.289 721.683 117.833 721.243 117.207 720.933C116.581 720.617 115.754 720.459 114.725 720.459H110.671V737.455H108.365ZM117.328 728.901L122.014 737.455H119.336L114.725 728.901H117.328Z" fill="#878B91"/>
<path d="M130.649 737.752C129.273 737.752 128.086 737.449 127.088 736.841C126.096 736.227 125.331 735.372 124.792 734.275C124.259 733.172 123.992 731.889 123.992 730.426C123.992 728.963 124.259 727.674 124.792 726.558C125.331 725.436 126.081 724.562 127.042 723.936C128.009 723.304 129.137 722.988 130.426 722.988C131.17 722.988 131.904 723.112 132.629 723.36C133.355 723.608 134.015 724.011 134.61 724.568C135.205 725.12 135.679 725.851 136.032 726.763C136.386 727.674 136.562 728.796 136.562 730.128V731.058H125.554V729.161H134.331C134.331 728.356 134.17 727.637 133.847 727.004C133.531 726.372 133.079 725.873 132.49 725.507C131.907 725.142 131.219 724.959 130.426 724.959C129.552 724.959 128.796 725.176 128.157 725.61C127.525 726.037 127.039 726.595 126.698 727.283C126.357 727.971 126.186 728.709 126.186 729.496V730.761C126.186 731.839 126.372 732.753 126.744 733.503C127.122 734.247 127.646 734.814 128.315 735.205C128.985 735.589 129.763 735.781 130.649 735.781C131.226 735.781 131.746 735.701 132.211 735.539C132.682 735.372 133.088 735.124 133.429 734.796C133.77 734.461 134.033 734.046 134.219 733.55L136.339 734.145C136.116 734.864 135.741 735.496 135.214 736.042C134.687 736.581 134.036 737.002 133.262 737.306C132.487 737.603 131.616 737.752 130.649 737.752Z" fill="#878B91"/>
<path d="M142.094 728.864V737.455H139.9V723.174H142.02V725.405H142.206C142.541 724.68 143.049 724.097 143.731 723.657C144.412 723.211 145.293 722.988 146.371 722.988C147.338 722.988 148.184 723.186 148.909 723.583C149.635 723.973 150.199 724.568 150.602 725.368C151.004 726.161 151.206 727.165 151.206 728.38V737.455H149.012V728.529C149.012 727.407 148.72 726.533 148.138 725.907C147.555 725.275 146.755 724.959 145.739 724.959C145.039 724.959 144.412 725.111 143.861 725.414C143.315 725.718 142.885 726.161 142.568 726.744C142.252 727.327 142.094 728.033 142.094 728.864Z" fill="#878B91"/>
<path d="M161.426 723.174V725.033H154.025V723.174H161.426ZM156.182 719.752H158.377V733.364C158.377 733.984 158.466 734.449 158.646 734.758C158.832 735.062 159.068 735.267 159.353 735.372C159.644 735.471 159.951 735.521 160.273 735.521C160.515 735.521 160.713 735.508 160.868 735.484C161.023 735.453 161.147 735.428 161.24 735.409L161.687 737.38C161.538 737.436 161.33 737.492 161.064 737.548C160.797 737.61 160.459 737.641 160.05 737.641C159.43 737.641 158.823 737.507 158.228 737.241C157.639 736.974 157.149 736.568 156.759 736.023C156.375 735.477 156.182 734.789 156.182 733.959V719.752Z" fill="#878B91"/>
<path d="M168.929 737.789C168.024 737.789 167.203 737.619 166.465 737.278C165.728 736.931 165.142 736.432 164.708 735.781C164.274 735.124 164.057 734.331 164.057 733.401C164.057 732.583 164.219 731.92 164.541 731.411C164.863 730.897 165.294 730.494 165.833 730.203C166.372 729.911 166.968 729.694 167.618 729.552C168.275 729.403 168.935 729.285 169.599 729.199C170.466 729.087 171.17 729.003 171.709 728.947C172.255 728.886 172.651 728.783 172.899 728.641C173.153 728.498 173.281 728.25 173.281 727.897V727.822C173.281 726.905 173.029 726.192 172.527 725.684C172.032 725.176 171.278 724.922 170.268 724.922C169.221 724.922 168.399 725.151 167.804 725.61C167.209 726.068 166.791 726.558 166.549 727.079L164.466 726.335C164.838 725.467 165.334 724.792 165.954 724.308C166.58 723.818 167.262 723.477 168 723.285C168.743 723.087 169.475 722.988 170.194 722.988C170.652 722.988 171.179 723.044 171.774 723.155C172.376 723.261 172.955 723.481 173.513 723.815C174.077 724.15 174.545 724.655 174.917 725.331C175.289 726.006 175.475 726.911 175.475 728.046V737.455H173.281V735.521H173.169C173.02 735.831 172.772 736.162 172.425 736.516C172.078 736.869 171.616 737.17 171.04 737.418C170.463 737.665 169.76 737.789 168.929 737.789ZM169.264 735.818C170.132 735.818 170.863 735.648 171.458 735.307C172.059 734.966 172.512 734.526 172.816 733.987C173.126 733.447 173.281 732.88 173.281 732.285V730.277C173.188 730.389 172.983 730.491 172.667 730.584C172.357 730.671 171.997 730.748 171.588 730.816C171.185 730.878 170.792 730.934 170.408 730.984C170.029 731.027 169.723 731.064 169.487 731.095C168.917 731.17 168.384 731.29 167.888 731.458C167.398 731.619 167.002 731.864 166.698 732.192C166.4 732.515 166.252 732.955 166.252 733.513C166.252 734.275 166.534 734.851 167.098 735.242C167.668 735.626 168.39 735.818 169.264 735.818Z" fill="#878B91"/>
<path d="M187.922 718.413L193.575 734.442H193.798L199.451 718.413H201.868L194.876 737.455H192.496L185.504 718.413H187.922Z" fill="#878B91"/>
<path d="M207.409 737.789C206.504 737.789 205.683 737.619 204.946 737.278C204.208 736.931 203.622 736.432 203.188 735.781C202.754 735.124 202.538 734.331 202.538 733.401C202.538 732.583 202.699 731.92 203.021 731.411C203.343 730.897 203.774 730.494 204.313 730.203C204.853 729.911 205.448 729.694 206.098 729.552C206.755 729.403 207.416 729.285 208.079 729.199C208.947 729.087 209.65 729.003 210.189 728.947C210.735 728.886 211.132 728.783 211.379 728.641C211.634 728.498 211.761 728.25 211.761 727.897V727.822C211.761 726.905 211.51 726.192 211.008 725.684C210.512 725.176 209.759 724.922 208.748 724.922C207.701 724.922 206.879 725.151 206.284 725.61C205.689 726.068 205.271 726.558 205.029 727.079L202.947 726.335C203.318 725.467 203.814 724.792 204.434 724.308C205.06 723.818 205.742 723.477 206.48 723.285C207.223 723.087 207.955 722.988 208.674 722.988C209.133 722.988 209.659 723.044 210.254 723.155C210.856 723.261 211.435 723.481 211.993 723.815C212.557 724.15 213.025 724.655 213.397 725.331C213.769 726.006 213.955 726.911 213.955 728.046V737.455H211.761V735.521H211.649C211.5 735.831 211.252 736.162 210.905 736.516C210.558 736.869 210.096 737.17 209.52 737.418C208.943 737.665 208.24 737.789 207.409 737.789ZM207.744 735.818C208.612 735.818 209.343 735.648 209.938 735.307C210.54 734.966 210.992 734.526 211.296 733.987C211.606 733.447 211.761 732.88 211.761 732.285V730.277C211.668 730.389 211.463 730.491 211.147 730.584C210.837 730.671 210.478 730.748 210.068 730.816C209.666 730.878 209.272 730.934 208.888 730.984C208.51 731.027 208.203 731.064 207.967 731.095C207.397 731.17 206.864 731.29 206.368 731.458C205.878 731.619 205.482 731.864 205.178 732.192C204.88 732.515 204.732 732.955 204.732 733.513C204.732 734.275 205.014 734.851 205.578 735.242C206.148 735.626 206.87 735.818 207.744 735.818Z" fill="#878B91"/>
<path d="M217.96 737.455V723.174H220.08V725.331H220.228C220.489 724.624 220.96 724.051 221.642 723.611C222.323 723.171 223.092 722.951 223.947 722.951C224.109 722.951 224.31 722.954 224.552 722.96C224.793 722.966 224.976 722.975 225.1 722.988V725.219C225.026 725.201 224.855 725.173 224.589 725.136C224.329 725.092 224.053 725.07 223.761 725.07C223.067 725.07 222.447 725.216 221.902 725.507C221.363 725.793 220.935 726.189 220.619 726.697C220.309 727.2 220.154 727.773 220.154 728.418V737.455H217.96Z" fill="#878B91"/>
<path d="M227.701 737.455V723.174H229.895V737.455H227.701ZM228.817 720.794C228.389 720.794 228.02 720.648 227.711 720.357C227.407 720.065 227.255 719.715 227.255 719.306C227.255 718.897 227.407 718.547 227.711 718.255C228.02 717.964 228.389 717.818 228.817 717.818C229.245 717.818 229.61 717.964 229.914 718.255C230.224 718.547 230.379 718.897 230.379 719.306C230.379 719.715 230.224 720.065 229.914 720.357C229.61 720.648 229.245 720.794 228.817 720.794Z" fill="#878B91"/>
<path d="M238.117 737.789C237.212 737.789 236.391 737.619 235.653 737.278C234.915 736.931 234.33 736.432 233.896 735.781C233.462 735.124 233.245 734.331 233.245 733.401C233.245 732.583 233.406 731.92 233.728 731.411C234.051 730.897 234.481 730.494 235.021 730.203C235.56 729.911 236.155 729.694 236.806 729.552C237.463 729.403 238.123 729.285 238.786 729.199C239.654 729.087 240.357 729.003 240.897 728.947C241.442 728.886 241.839 728.783 242.087 728.641C242.341 728.498 242.468 728.25 242.468 727.897V727.822C242.468 726.905 242.217 726.192 241.715 725.684C241.219 725.176 240.466 724.922 239.456 724.922C238.408 724.922 237.587 725.151 236.992 725.61C236.397 726.068 235.978 726.558 235.737 727.079L233.654 726.335C234.026 725.467 234.522 724.792 235.142 724.308C235.768 723.818 236.449 723.477 237.187 723.285C237.931 723.087 238.662 722.988 239.381 722.988C239.84 722.988 240.367 723.044 240.962 723.155C241.563 723.261 242.143 723.481 242.7 723.815C243.265 724.15 243.732 724.655 244.104 725.331C244.476 726.006 244.662 726.911 244.662 728.046V737.455H242.468V735.521H242.356C242.208 735.831 241.96 736.162 241.613 736.516C241.266 736.869 240.804 737.17 240.227 737.418C239.651 737.665 238.947 737.789 238.117 737.789ZM238.451 735.818C239.319 735.818 240.051 735.648 240.646 735.307C241.247 734.966 241.699 734.526 242.003 733.987C242.313 733.447 242.468 732.88 242.468 732.285V730.277C242.375 730.389 242.171 730.491 241.854 730.584C241.544 730.671 241.185 730.748 240.776 730.816C240.373 730.878 239.979 730.934 239.595 730.984C239.217 731.027 238.91 731.064 238.675 731.095C238.104 731.17 237.571 731.29 237.075 731.458C236.586 731.619 236.189 731.864 235.885 732.192C235.588 732.515 235.439 732.955 235.439 733.513C235.439 734.275 235.721 734.851 236.285 735.242C236.855 735.626 237.578 735.818 238.451 735.818Z" fill="#878B91"/>
<path d="M248.965 737.455V718.413H251.159V725.442H251.345C251.506 725.194 251.729 724.878 252.014 724.494C252.306 724.103 252.721 723.756 253.26 723.453C253.806 723.143 254.543 722.988 255.473 722.988C256.675 722.988 257.735 723.288 258.653 723.89C259.57 724.491 260.286 725.343 260.8 726.446C261.315 727.55 261.572 728.851 261.572 730.351C261.572 731.864 261.315 733.175 260.8 734.284C260.286 735.388 259.573 736.243 258.662 736.85C257.751 737.452 256.7 737.752 255.51 737.752C254.593 737.752 253.858 737.6 253.307 737.297C252.755 736.987 252.33 736.637 252.033 736.246C251.735 735.849 251.506 735.521 251.345 735.261H251.084V737.455H248.965ZM251.122 730.314C251.122 731.393 251.28 732.344 251.596 733.169C251.912 733.987 252.374 734.628 252.981 735.093C253.589 735.552 254.332 735.781 255.213 735.781C256.13 735.781 256.895 735.539 257.509 735.056C258.129 734.566 258.594 733.909 258.904 733.085C259.22 732.254 259.378 731.331 259.378 730.314C259.378 729.31 259.223 728.405 258.913 727.599C258.609 726.787 258.148 726.146 257.528 725.675C256.914 725.197 256.142 724.959 255.213 724.959C254.32 724.959 253.57 725.185 252.963 725.638C252.355 726.084 251.896 726.71 251.587 727.516C251.277 728.315 251.122 729.248 251.122 730.314Z" fill="#878B91"/>
<path d="M267.123 718.413V737.455H264.929V718.413H267.123Z" fill="#878B91"/>
<path d="M277.129 737.752C275.753 737.752 274.566 737.449 273.568 736.841C272.576 736.227 271.811 735.372 271.272 734.275C270.739 733.172 270.472 731.889 270.472 730.426C270.472 728.963 270.739 727.674 271.272 726.558C271.811 725.436 272.561 724.562 273.522 723.936C274.489 723.304 275.617 722.988 276.906 722.988C277.65 722.988 278.384 723.112 279.11 723.36C279.835 723.608 280.495 724.011 281.09 724.568C281.685 725.12 282.159 725.851 282.512 726.763C282.866 727.674 283.042 728.796 283.042 730.128V731.058H272.034V729.161H280.811C280.811 728.356 280.65 727.637 280.328 727.004C280.011 726.372 279.559 725.873 278.97 725.507C278.387 725.142 277.699 724.959 276.906 724.959C276.032 724.959 275.276 725.176 274.637 725.61C274.005 726.037 273.519 726.595 273.178 727.283C272.837 727.971 272.666 728.709 272.666 729.496V730.761C272.666 731.839 272.852 732.753 273.224 733.503C273.602 734.247 274.126 734.814 274.796 735.205C275.465 735.589 276.243 735.781 277.129 735.781C277.706 735.781 278.226 735.701 278.691 735.539C279.162 735.372 279.568 735.124 279.909 734.796C280.25 734.461 280.513 734.046 280.699 733.55L282.819 734.145C282.596 734.864 282.221 735.496 281.694 736.042C281.167 736.581 280.517 737.002 279.742 737.306C278.967 737.603 278.096 737.752 277.129 737.752Z" fill="#878B91"/>
<path d="M658.716 737.457L667.232 720.61V720.461H657.414V718.415H669.612V720.573L661.133 737.457H658.716Z" fill="#878B91"/>
<path d="M673.115 734.854L672.966 735.858C672.861 736.564 672.7 737.32 672.483 738.126C672.272 738.932 672.052 739.691 671.823 740.404C671.594 741.117 671.405 741.684 671.256 742.106H669.582C669.663 741.709 669.768 741.185 669.898 740.534C670.028 739.883 670.159 739.155 670.289 738.349C670.425 737.55 670.537 736.732 670.624 735.895L670.735 734.854H673.115Z" fill="#878B91"/>
<path d="M677.143 737.457V735.783L683.429 728.903C684.166 728.097 684.774 727.397 685.251 726.802C685.728 726.201 686.081 725.637 686.311 725.11C686.546 724.577 686.664 724.019 686.664 723.436C686.664 722.767 686.503 722.187 686.181 721.698C685.864 721.208 685.431 720.83 684.879 720.563C684.327 720.297 683.707 720.163 683.019 720.163C682.288 720.163 681.65 720.315 681.104 720.619C680.565 720.917 680.146 721.335 679.849 721.874C679.558 722.413 679.412 723.046 679.412 723.771H677.218C677.218 722.655 677.475 721.676 677.989 720.833C678.504 719.99 679.204 719.333 680.091 718.862C680.983 718.391 681.984 718.155 683.094 718.155C684.21 718.155 685.198 718.391 686.06 718.862C686.921 719.333 687.597 719.968 688.087 720.768C688.576 721.567 688.821 722.457 688.821 723.436C688.821 724.137 688.694 724.821 688.44 725.491C688.192 726.154 687.758 726.895 687.138 727.713C686.525 728.525 685.672 729.517 684.581 730.688L680.305 735.263V735.411H689.156V737.457H677.143Z" fill="#878B91"/>
<path d="M699.058 718.155C699.839 718.161 700.62 718.31 701.401 718.601C702.182 718.893 702.894 719.376 703.539 720.052C704.184 720.721 704.701 721.636 705.092 722.795C705.482 723.954 705.677 725.407 705.677 727.155C705.677 728.847 705.516 730.35 705.194 731.664C704.878 732.972 704.419 734.076 703.818 734.974C703.223 735.873 702.498 736.555 701.642 737.02C700.793 737.485 699.832 737.717 698.76 737.717C697.694 737.717 696.743 737.506 695.906 737.085C695.075 736.657 694.393 736.065 693.86 735.309C693.333 734.547 692.996 733.663 692.847 732.659H695.116C695.32 733.533 695.726 734.255 696.333 734.826C696.947 735.39 697.756 735.672 698.76 735.672C700.229 735.672 701.388 735.03 702.237 733.747C703.093 732.464 703.52 730.651 703.52 728.308H703.372C703.025 728.829 702.612 729.278 702.135 729.656C701.658 730.034 701.128 730.326 700.545 730.53C699.963 730.735 699.343 730.837 698.686 730.837C697.595 730.837 696.594 730.567 695.683 730.028C694.778 729.483 694.052 728.736 693.507 727.787C692.968 726.833 692.698 725.742 692.698 724.515C692.698 723.349 692.958 722.283 693.479 721.316C694.006 720.343 694.744 719.568 695.692 718.992C696.646 718.415 697.768 718.137 699.058 718.155ZM699.058 720.201C698.277 720.201 697.573 720.396 696.947 720.786C696.327 721.171 695.835 721.691 695.469 722.348C695.109 722.999 694.93 723.721 694.93 724.515C694.93 725.308 695.103 726.03 695.45 726.681C695.804 727.326 696.284 727.84 696.891 728.224C697.505 728.602 698.202 728.792 698.983 728.792C699.572 728.792 700.121 728.677 700.629 728.448C701.137 728.212 701.58 727.893 701.958 727.49C702.343 727.081 702.643 726.619 702.86 726.105C703.077 725.584 703.186 725.042 703.186 724.477C703.186 723.734 703.006 723.036 702.647 722.386C702.293 721.735 701.804 721.208 701.177 720.805C700.558 720.402 699.851 720.201 699.058 720.201Z" fill="#878B91"/>
<path d="M726.404 733.887V732.882C726.404 732.188 726.547 731.553 726.832 730.976C727.123 730.394 727.544 729.929 728.096 729.582C728.654 729.229 729.33 729.052 730.123 729.052C730.929 729.052 731.604 729.229 732.15 729.582C732.695 729.929 733.108 730.394 733.386 730.976C733.665 731.553 733.805 732.188 733.805 732.882V733.887C733.805 734.581 733.662 735.219 733.377 735.802C733.098 736.378 732.683 736.843 732.131 737.196C731.586 737.544 730.916 737.717 730.123 737.717C729.317 737.717 728.638 737.544 728.087 737.196C727.535 736.843 727.117 736.378 726.832 735.802C726.547 735.219 726.404 734.581 726.404 733.887ZM728.301 732.882V733.887C728.301 734.463 728.437 734.981 728.71 735.439C728.982 735.892 729.454 736.118 730.123 736.118C730.774 736.118 731.233 735.892 731.499 735.439C731.772 734.981 731.908 734.463 731.908 733.887V732.882C731.908 732.306 731.778 731.792 731.518 731.339C731.257 730.88 730.792 730.651 730.123 730.651C729.472 730.651 729.004 730.88 728.719 731.339C728.44 731.792 728.301 732.306 728.301 732.882ZM716.921 722.99V721.986C716.921 721.292 717.063 720.656 717.348 720.08C717.64 719.497 718.061 719.032 718.613 718.685C719.171 718.332 719.846 718.155 720.64 718.155C721.445 718.155 722.121 718.332 722.666 718.685C723.212 719.032 723.624 719.497 723.903 720.08C724.182 720.656 724.321 721.292 724.321 721.986V722.99C724.321 723.684 724.179 724.323 723.894 724.905C723.615 725.482 723.199 725.946 722.648 726.3C722.102 726.647 721.433 726.82 720.64 726.82C719.834 726.82 719.155 726.647 718.603 726.3C718.052 725.946 717.633 725.482 717.348 724.905C717.063 724.323 716.921 723.684 716.921 722.99ZM718.817 721.986V722.99C718.817 723.566 718.954 724.084 719.226 724.543C719.499 724.995 719.97 725.221 720.64 725.221C721.29 725.221 721.749 724.995 722.016 724.543C722.288 724.084 722.425 723.566 722.425 722.99V721.986C722.425 721.409 722.294 720.895 722.034 720.442C721.774 719.984 721.309 719.754 720.64 719.754C719.989 719.754 719.521 719.984 719.236 720.442C718.957 720.895 718.817 721.409 718.817 721.986ZM717.627 737.457L730.718 718.415H732.838L719.747 737.457H717.627Z" fill="#878B91"/>
<path d="M84.3627 818.18C84.3627 823 80.4554 826.908 75.6355 826.908C70.8155 826.908 66.9082 823 66.9082 818.18C66.9082 813.36 70.8155 809.453 75.6355 809.453C80.4554 809.453 84.3627 813.36 84.3627 818.18Z" fill="#878B91"/>
<path d="M108.365 826.91V807.868H114.799C116.287 807.868 117.508 808.123 118.462 808.631C119.417 809.133 120.124 809.824 120.582 810.704C121.041 811.584 121.27 812.585 121.27 813.707C121.27 814.829 121.041 815.824 120.582 816.692C120.124 817.56 119.42 818.241 118.472 818.737C117.523 819.227 116.312 819.472 114.836 819.472H109.63V817.389H114.762C115.778 817.389 116.597 817.24 117.216 816.943C117.843 816.645 118.295 816.224 118.574 815.678C118.859 815.127 119.002 814.47 119.002 813.707C119.002 812.945 118.859 812.279 118.574 811.708C118.289 811.138 117.833 810.698 117.207 810.388C116.581 810.072 115.754 809.914 114.725 809.914H110.671V826.91H108.365ZM117.328 818.356L122.014 826.91H119.336L114.725 818.356H117.328Z" fill="#878B91"/>
<path d="M130.649 827.207C129.273 827.207 128.086 826.904 127.088 826.296C126.096 825.683 125.331 824.827 124.792 823.73C124.259 822.627 123.992 821.344 123.992 819.881C123.992 818.418 124.259 817.129 124.792 816.013C125.331 814.891 126.081 814.017 127.042 813.391C128.009 812.759 129.137 812.443 130.426 812.443C131.17 812.443 131.904 812.567 132.629 812.815C133.355 813.063 134.015 813.466 134.61 814.023C135.205 814.575 135.679 815.306 136.032 816.218C136.386 817.129 136.562 818.251 136.562 819.583V820.513H125.554V818.616H134.331C134.331 817.811 134.17 817.092 133.847 816.459C133.531 815.827 133.079 815.328 132.49 814.962C131.907 814.597 131.219 814.414 130.426 814.414C129.552 814.414 128.796 814.631 128.157 815.065C127.525 815.492 127.039 816.05 126.698 816.738C126.357 817.426 126.186 818.164 126.186 818.951V820.216C126.186 821.294 126.372 822.208 126.744 822.958C127.122 823.702 127.646 824.269 128.315 824.66C128.985 825.044 129.763 825.236 130.649 825.236C131.226 825.236 131.746 825.156 132.211 824.995C132.682 824.827 133.088 824.579 133.429 824.251C133.77 823.916 134.033 823.501 134.219 823.005L136.339 823.6C136.116 824.319 135.741 824.951 135.214 825.497C134.687 826.036 134.036 826.457 133.262 826.761C132.487 827.059 131.616 827.207 130.649 827.207Z" fill="#878B91"/>
<path d="M142.094 818.319V826.91H139.9V812.629H142.02V814.86H142.206C142.541 814.135 143.049 813.552 143.731 813.112C144.412 812.666 145.293 812.443 146.371 812.443C147.338 812.443 148.184 812.641 148.909 813.038C149.635 813.428 150.199 814.023 150.602 814.823C151.004 815.616 151.206 816.621 151.206 817.835V826.91H149.012V817.984C149.012 816.862 148.72 815.988 148.138 815.362C147.555 814.73 146.755 814.414 145.739 814.414C145.039 814.414 144.412 814.566 143.861 814.87C143.315 815.173 142.885 815.616 142.568 816.199C142.252 816.782 142.094 817.488 142.094 818.319Z" fill="#878B91"/>
<path d="M161.426 812.629V814.488H154.025V812.629H161.426ZM156.182 809.207H158.377V822.819C158.377 823.439 158.466 823.904 158.646 824.214C158.832 824.517 159.068 824.722 159.353 824.827C159.644 824.926 159.951 824.976 160.273 824.976C160.515 824.976 160.713 824.964 160.868 824.939C161.023 824.908 161.147 824.883 161.24 824.864L161.687 826.835C161.538 826.891 161.33 826.947 161.064 827.003C160.797 827.065 160.459 827.096 160.05 827.096C159.43 827.096 158.823 826.962 158.228 826.696C157.639 826.429 157.149 826.023 156.759 825.478C156.375 824.933 156.182 824.245 156.182 823.414V809.207Z" fill="#878B91"/>
<path d="M168.929 827.245C168.024 827.245 167.203 827.074 166.465 826.733C165.728 826.386 165.142 825.887 164.708 825.236C164.274 824.579 164.057 823.786 164.057 822.856C164.057 822.038 164.219 821.375 164.541 820.866C164.863 820.352 165.294 819.949 165.833 819.658C166.372 819.366 166.968 819.149 167.618 819.007C168.275 818.858 168.935 818.74 169.599 818.654C170.466 818.542 171.17 818.458 171.709 818.403C172.255 818.341 172.651 818.238 172.899 818.096C173.153 817.953 173.281 817.705 173.281 817.352V817.278C173.281 816.36 173.029 815.647 172.527 815.139C172.032 814.631 171.278 814.377 170.268 814.377C169.221 814.377 168.399 814.606 167.804 815.065C167.209 815.523 166.791 816.013 166.549 816.534L164.466 815.79C164.838 814.922 165.334 814.247 165.954 813.763C166.58 813.273 167.262 812.933 168 812.74C168.743 812.542 169.475 812.443 170.194 812.443C170.652 812.443 171.179 812.499 171.774 812.61C172.376 812.716 172.955 812.936 173.513 813.27C174.077 813.605 174.545 814.11 174.917 814.786C175.289 815.461 175.475 816.366 175.475 817.501V826.91H173.281V824.976H173.169C173.02 825.286 172.772 825.617 172.425 825.971C172.078 826.324 171.616 826.625 171.04 826.873C170.463 827.121 169.76 827.245 168.929 827.245ZM169.264 825.273C170.132 825.273 170.863 825.103 171.458 824.762C172.059 824.421 172.512 823.981 172.816 823.442C173.126 822.903 173.281 822.335 173.281 821.74V819.732C173.188 819.844 172.983 819.946 172.667 820.039C172.357 820.126 171.997 820.203 171.588 820.271C171.185 820.333 170.792 820.389 170.408 820.439C170.029 820.482 169.723 820.519 169.487 820.55C168.917 820.625 168.384 820.746 167.888 820.913C167.398 821.074 167.002 821.319 166.698 821.647C166.4 821.97 166.252 822.41 166.252 822.968C166.252 823.73 166.534 824.306 167.098 824.697C167.668 825.081 168.39 825.273 169.264 825.273Z" fill="#878B91"/>
<path d="M187.922 807.868L193.575 823.897H193.798L199.451 807.868H201.868L194.876 826.91H192.496L185.504 807.868H187.922Z" fill="#878B91"/>
<path d="M207.409 827.245C206.504 827.245 205.683 827.074 204.946 826.733C204.208 826.386 203.622 825.887 203.188 825.236C202.754 824.579 202.538 823.786 202.538 822.856C202.538 822.038 202.699 821.375 203.021 820.866C203.343 820.352 203.774 819.949 204.313 819.658C204.853 819.366 205.448 819.149 206.098 819.007C206.755 818.858 207.416 818.74 208.079 818.654C208.947 818.542 209.65 818.458 210.189 818.403C210.735 818.341 211.132 818.238 211.379 818.096C211.634 817.953 211.761 817.705 211.761 817.352V817.278C211.761 816.36 211.51 815.647 211.008 815.139C210.512 814.631 209.759 814.377 208.748 814.377C207.701 814.377 206.879 814.606 206.284 815.065C205.689 815.523 205.271 816.013 205.029 816.534L202.947 815.79C203.318 814.922 203.814 814.247 204.434 813.763C205.06 813.273 205.742 812.933 206.48 812.74C207.223 812.542 207.955 812.443 208.674 812.443C209.133 812.443 209.659 812.499 210.254 812.61C210.856 812.716 211.435 812.936 211.993 813.27C212.557 813.605 213.025 814.11 213.397 814.786C213.769 815.461 213.955 816.366 213.955 817.501V826.91H211.761V824.976H211.649C211.5 825.286 211.252 825.617 210.905 825.971C210.558 826.324 210.096 826.625 209.52 826.873C208.943 827.121 208.24 827.245 207.409 827.245ZM207.744 825.273C208.612 825.273 209.343 825.103 209.938 824.762C210.54 824.421 210.992 823.981 211.296 823.442C211.606 822.903 211.761 822.335 211.761 821.74V819.732C211.668 819.844 211.463 819.946 211.147 820.039C210.837 820.126 210.478 820.203 210.068 820.271C209.666 820.333 209.272 820.389 208.888 820.439C208.51 820.482 208.203 820.519 207.967 820.55C207.397 820.625 206.864 820.746 206.368 820.913C205.878 821.074 205.482 821.319 205.178 821.647C204.88 821.97 204.732 822.41 204.732 822.968C204.732 823.73 205.014 824.306 205.578 824.697C206.148 825.081 206.87 825.273 207.744 825.273Z" fill="#878B91"/>
<path d="M217.96 826.91V812.629H220.08V814.786H220.228C220.489 814.079 220.96 813.506 221.642 813.066C222.323 812.626 223.092 812.406 223.947 812.406C224.109 812.406 224.31 812.409 224.552 812.415C224.793 812.421 224.976 812.43 225.1 812.443V814.674C225.026 814.656 224.855 814.628 224.589 814.591C224.329 814.547 224.053 814.526 223.761 814.526C223.067 814.526 222.447 814.671 221.902 814.962C221.363 815.248 220.935 815.644 220.619 816.153C220.309 816.655 220.154 817.228 220.154 817.873V826.91H217.96Z" fill="#878B91"/>
<path d="M227.701 826.91V812.629H229.895V826.91H227.701ZM228.817 810.249C228.389 810.249 228.02 810.103 227.711 809.812C227.407 809.52 227.255 809.17 227.255 808.761C227.255 808.352 227.407 808.002 227.711 807.71C228.02 807.419 228.389 807.273 228.817 807.273C229.245 807.273 229.61 807.419 229.914 807.71C230.224 808.002 230.379 808.352 230.379 808.761C230.379 809.17 230.224 809.52 229.914 809.812C229.61 810.103 229.245 810.249 228.817 810.249Z" fill="#878B91"/>
<path d="M238.117 827.245C237.212 827.245 236.391 827.074 235.653 826.733C234.915 826.386 234.33 825.887 233.896 825.236C233.462 824.579 233.245 823.786 233.245 822.856C233.245 822.038 233.406 821.375 233.728 820.866C234.051 820.352 234.481 819.949 235.021 819.658C235.56 819.366 236.155 819.149 236.806 819.007C237.463 818.858 238.123 818.74 238.786 818.654C239.654 818.542 240.357 818.458 240.897 818.403C241.442 818.341 241.839 818.238 242.087 818.096C242.341 817.953 242.468 817.705 242.468 817.352V817.278C242.468 816.36 242.217 815.647 241.715 815.139C241.219 814.631 240.466 814.377 239.456 814.377C238.408 814.377 237.587 814.606 236.992 815.065C236.397 815.523 235.978 816.013 235.737 816.534L233.654 815.79C234.026 814.922 234.522 814.247 235.142 813.763C235.768 813.273 236.449 812.933 237.187 812.74C237.931 812.542 238.662 812.443 239.381 812.443C239.84 812.443 240.367 812.499 240.962 812.61C241.563 812.716 242.143 812.936 242.7 813.27C243.265 813.605 243.732 814.11 244.104 814.786C244.476 815.461 244.662 816.366 244.662 817.501V826.91H242.468V824.976H242.356C242.208 825.286 241.96 825.617 241.613 825.971C241.266 826.324 240.804 826.625 240.227 826.873C239.651 827.121 238.947 827.245 238.117 827.245ZM238.451 825.273C239.319 825.273 240.051 825.103 240.646 824.762C241.247 824.421 241.699 823.981 242.003 823.442C242.313 822.903 242.468 822.335 242.468 821.74V819.732C242.375 819.844 242.171 819.946 241.854 820.039C241.544 820.126 241.185 820.203 240.776 820.271C240.373 820.333 239.979 820.389 239.595 820.439C239.217 820.482 238.91 820.519 238.675 820.55C238.104 820.625 237.571 820.746 237.075 820.913C236.586 821.074 236.189 821.319 235.885 821.647C235.588 821.97 235.439 822.41 235.439 822.968C235.439 823.73 235.721 824.306 236.285 824.697C236.855 825.081 237.578 825.273 238.451 825.273Z" fill="#878B91"/>
<path d="M248.965 826.91V807.868H251.159V814.897H251.345C251.506 814.649 251.729 814.333 252.014 813.949C252.306 813.559 252.721 813.211 253.26 812.908C253.806 812.598 254.543 812.443 255.473 812.443C256.675 812.443 257.735 812.743 258.653 813.345C259.57 813.946 260.286 814.798 260.8 815.902C261.315 817.005 261.572 818.306 261.572 819.806C261.572 821.319 261.315 822.63 260.8 823.739C260.286 824.843 259.573 825.698 258.662 826.305C257.751 826.907 256.7 827.207 255.51 827.207C254.593 827.207 253.858 827.055 253.307 826.752C252.755 826.442 252.33 826.092 252.033 825.701C251.735 825.304 251.506 824.976 251.345 824.716H251.084V826.91H248.965ZM251.122 819.769C251.122 820.848 251.28 821.799 251.596 822.624C251.912 823.442 252.374 824.083 252.981 824.548C253.589 825.007 254.332 825.236 255.213 825.236C256.13 825.236 256.895 824.995 257.509 824.511C258.129 824.021 258.594 823.364 258.904 822.54C259.22 821.709 259.378 820.786 259.378 819.769C259.378 818.765 259.223 817.86 258.913 817.054C258.609 816.242 258.148 815.601 257.528 815.13C256.914 814.653 256.142 814.414 255.213 814.414C254.32 814.414 253.57 814.64 252.963 815.093C252.355 815.539 251.896 816.165 251.587 816.971C251.277 817.77 251.122 818.703 251.122 819.769Z" fill="#878B91"/>
<path d="M267.123 807.868V826.91H264.929V807.868H267.123Z" fill="#878B91"/>
<path d="M277.129 827.207C275.753 827.207 274.566 826.904 273.568 826.296C272.576 825.683 271.811 824.827 271.272 823.73C270.739 822.627 270.472 821.344 270.472 819.881C270.472 818.418 270.739 817.129 271.272 816.013C271.811 814.891 272.561 814.017 273.522 813.391C274.489 812.759 275.617 812.443 276.906 812.443C277.65 812.443 278.384 812.567 279.11 812.815C279.835 813.063 280.495 813.466 281.09 814.023C281.685 814.575 282.159 815.306 282.512 816.218C282.866 817.129 283.042 818.251 283.042 819.583V820.513H272.034V818.616H280.811C280.811 817.811 280.65 817.092 280.328 816.459C280.011 815.827 279.559 815.328 278.97 814.962C278.387 814.597 277.699 814.414 276.906 814.414C276.032 814.414 275.276 814.631 274.637 815.065C274.005 815.492 273.519 816.05 273.178 816.738C272.837 817.426 272.666 818.164 272.666 818.951V820.216C272.666 821.294 272.852 822.208 273.224 822.958C273.602 823.702 274.126 824.269 274.796 824.66C275.465 825.044 276.243 825.236 277.129 825.236C277.706 825.236 278.226 825.156 278.691 824.995C279.162 824.827 279.568 824.579 279.909 824.251C280.25 823.916 280.513 823.501 280.699 823.005L282.819 823.6C282.596 824.319 282.221 824.951 281.694 825.497C281.167 826.036 280.517 826.457 279.742 826.761C278.967 827.059 278.096 827.207 277.129 827.207Z" fill="#878B91"/>
<path d="M652.799 807.87V826.911H650.493V810.287H650.381L645.732 813.374V811.031L650.493 807.87H652.799Z" fill="#878B91"/>
<path d="M664.486 827.171C663.085 827.171 661.892 826.79 660.906 826.028C659.92 825.259 659.167 824.147 658.647 822.69C658.126 821.227 657.866 819.461 657.866 817.39C657.866 815.333 658.126 813.575 658.647 812.119C659.174 810.656 659.93 809.54 660.915 808.772C661.907 807.997 663.097 807.609 664.486 807.609C665.874 807.609 667.061 807.997 668.046 808.772C669.038 809.54 669.794 810.656 670.315 812.119C670.842 813.575 671.105 815.333 671.105 817.39C671.105 819.461 670.845 821.227 670.324 822.69C669.804 824.147 669.051 825.259 668.065 826.028C667.08 826.79 665.886 827.171 664.486 827.171ZM664.486 825.126C665.874 825.126 666.952 824.456 667.721 823.118C668.49 821.779 668.874 819.87 668.874 817.39C668.874 815.742 668.697 814.338 668.344 813.179C667.997 812.019 667.495 811.136 666.838 810.529C666.187 809.921 665.403 809.618 664.486 809.618C663.109 809.618 662.034 810.296 661.259 811.654C660.484 813.005 660.097 814.917 660.097 817.39C660.097 819.039 660.271 820.44 660.618 821.593C660.965 822.746 661.464 823.623 662.115 824.224C662.772 824.825 663.562 825.126 664.486 825.126Z" fill="#878B91"/>
<path d="M677.284 824.308L677.135 825.312C677.029 826.018 676.868 826.775 676.651 827.58C676.441 828.386 676.221 829.146 675.991 829.858C675.762 830.571 675.573 831.138 675.424 831.56H673.751C673.831 831.163 673.936 830.639 674.067 829.989C674.197 829.338 674.327 828.609 674.457 827.804C674.593 827.004 674.705 826.186 674.792 825.349L674.903 824.308H677.284Z" fill="#878B91"/>
<path d="M681.312 826.911V825.237L687.597 818.357C688.334 817.552 688.942 816.851 689.419 816.256C689.896 815.655 690.25 815.091 690.479 814.564C690.715 814.031 690.832 813.473 690.832 812.89C690.832 812.221 690.671 811.641 690.349 811.152C690.033 810.662 689.599 810.284 689.047 810.017C688.496 809.751 687.876 809.618 687.188 809.618C686.456 809.618 685.818 809.769 685.272 810.073C684.733 810.371 684.315 810.789 684.017 811.328C683.726 811.868 683.58 812.5 683.58 813.225H681.386C681.386 812.109 681.643 811.13 682.158 810.287C682.672 809.444 683.373 808.787 684.259 808.316C685.152 807.845 686.153 807.609 687.262 807.609C688.378 807.609 689.366 807.845 690.228 808.316C691.09 808.787 691.765 809.422 692.255 810.222C692.745 811.022 692.989 811.911 692.989 812.89C692.989 813.591 692.862 814.276 692.608 814.945C692.36 815.608 691.926 816.349 691.307 817.167C690.693 817.979 689.841 818.971 688.75 820.142L684.473 824.717V824.866H693.324V826.911H681.312Z" fill="#878B91"/>
<path d="M703.858 807.87V826.911H701.552V810.287H701.441L696.792 813.374V811.031L701.552 807.87H703.858Z" fill="#878B91"/>
<path d="M726.405 823.341V822.337C726.405 821.642 726.547 821.007 726.832 820.431C727.124 819.848 727.545 819.383 728.097 819.036C728.655 818.683 729.33 818.506 730.124 818.506C730.929 818.506 731.605 818.683 732.151 819.036C732.696 819.383 733.108 819.848 733.387 820.431C733.666 821.007 733.806 821.642 733.806 822.337V823.341C733.806 824.035 733.663 824.673 733.378 825.256C733.099 825.833 732.684 826.297 732.132 826.651C731.587 826.998 730.917 827.171 730.124 827.171C729.318 827.171 728.639 826.998 728.088 826.651C727.536 826.297 727.117 825.833 726.832 825.256C726.547 824.673 726.405 824.035 726.405 823.341ZM728.301 822.337V823.341C728.301 823.917 728.438 824.435 728.71 824.893C728.983 825.346 729.454 825.572 730.124 825.572C730.775 825.572 731.233 825.346 731.5 824.893C731.772 824.435 731.909 823.917 731.909 823.341V822.337C731.909 821.76 731.779 821.246 731.518 820.793C731.258 820.335 730.793 820.105 730.124 820.105C729.473 820.105 729.005 820.335 728.72 820.793C728.441 821.246 728.301 821.76 728.301 822.337ZM716.921 812.444V811.44C716.921 810.746 717.064 810.11 717.349 809.534C717.64 808.951 718.062 808.486 718.613 808.139C719.171 807.786 719.847 807.609 720.64 807.609C721.446 807.609 722.122 807.786 722.667 808.139C723.213 808.486 723.625 808.951 723.904 809.534C724.183 810.11 724.322 810.746 724.322 811.44V812.444C724.322 813.138 724.179 813.777 723.894 814.359C723.615 814.936 723.2 815.401 722.648 815.754C722.103 816.101 721.434 816.275 720.64 816.275C719.834 816.275 719.156 816.101 718.604 815.754C718.052 815.401 717.634 814.936 717.349 814.359C717.064 813.777 716.921 813.138 716.921 812.444ZM718.818 811.44V812.444C718.818 813.021 718.954 813.538 719.227 813.997C719.5 814.449 719.971 814.675 720.64 814.675C721.291 814.675 721.75 814.449 722.016 813.997C722.289 813.538 722.425 813.021 722.425 812.444V811.44C722.425 810.864 722.295 810.349 722.035 809.897C721.775 809.438 721.31 809.209 720.64 809.209C719.989 809.209 719.521 809.438 719.236 809.897C718.957 810.349 718.818 810.864 718.818 811.44ZM717.628 826.911L730.719 807.87H732.839L719.748 826.911H717.628Z" fill="#878B91"/>
<path d="M90.7087 94.8846C90.4917 94.1305 90.187 93.4641 89.7944 92.8856C89.4018 92.2968 88.9215 91.8009 88.3533 91.398C87.7954 90.9848 87.1549 90.6697 86.4318 90.4528C85.719 90.2358 84.9287 90.1274 84.0609 90.1274C82.439 90.1274 81.0134 90.5302 79.7841 91.336C78.5651 92.1418 77.6147 93.3143 76.9328 94.8536C76.251 96.3825 75.9101 98.2524 75.9101 100.463C75.9101 102.674 76.2459 104.554 76.9173 106.104C77.5888 107.653 78.5392 108.836 79.7686 109.652C80.9979 110.458 82.4494 110.861 84.1229 110.861C85.6415 110.861 86.938 110.592 88.0124 110.055C89.0971 109.508 89.9235 108.738 90.4917 107.746C91.0702 106.754 91.3595 105.582 91.3595 104.229L92.7231 104.43H84.5413V99.3784H97.8213V103.376C97.8213 106.166 97.2324 108.562 96.0547 110.566C94.877 112.56 93.2551 114.099 91.189 115.184C89.1229 116.259 86.7572 116.796 84.0919 116.796C81.1167 116.796 78.5031 116.14 76.251 114.828C73.999 113.505 72.2428 111.63 70.9824 109.203C69.7324 106.765 69.1074 103.872 69.1074 100.525C69.1074 97.9528 69.4793 95.6594 70.2231 93.6449C70.9773 91.6201 72.031 89.9052 73.3843 88.5003C74.7376 87.0953 76.313 86.0261 78.1105 85.2926C79.908 84.5592 81.8554 84.1924 83.9525 84.1924C85.75 84.1924 87.4235 84.4559 88.9731 84.9827C90.5227 85.4993 91.8967 86.2327 93.095 87.1831C94.3037 88.1336 95.2903 89.2648 96.0547 90.5767C96.8192 91.8784 97.3099 93.3143 97.5268 94.8846H90.7087Z" fill="#878B91"/>
<path d="M102.737 116.362V92.5602H109.137V96.7131H109.385C109.819 95.2358 110.547 94.1201 111.57 93.366C112.593 92.6015 113.77 92.2193 115.103 92.2193C115.434 92.2193 115.79 92.24 116.172 92.2813C116.554 92.3226 116.89 92.3794 117.179 92.4517V98.3092C116.87 98.2162 116.441 98.1336 115.893 98.0612C115.346 97.9889 114.845 97.9528 114.39 97.9528C113.419 97.9528 112.551 98.1645 111.787 98.5881C111.033 99.0013 110.434 99.5798 109.989 100.324C109.556 101.067 109.339 101.925 109.339 102.896V116.362H102.737Z" fill="#878B91"/>
<path d="M126.698 116.811C125.179 116.811 123.826 116.548 122.638 116.021C121.45 115.484 120.51 114.693 119.818 113.65C119.136 112.596 118.795 111.284 118.795 109.714C118.795 108.392 119.038 107.281 119.523 106.383C120.009 105.484 120.67 104.761 121.507 104.213C122.343 103.666 123.294 103.252 124.358 102.973C125.432 102.695 126.558 102.498 127.736 102.385C129.12 102.24 130.236 102.106 131.083 101.982C131.93 101.847 132.545 101.651 132.927 101.393C133.309 101.135 133.501 100.752 133.501 100.246V100.153C133.501 99.1718 133.191 98.4125 132.571 97.8753C131.961 97.3381 131.093 97.0695 129.967 97.0695C128.779 97.0695 127.834 97.3329 127.132 97.8598C126.429 98.3763 125.964 99.0271 125.737 99.8123L119.632 99.3164C119.942 97.8701 120.551 96.6201 121.46 95.5664C122.369 94.5024 123.542 93.6862 124.978 93.1181C126.424 92.5395 128.098 92.2503 129.998 92.2503C131.321 92.2503 132.586 92.4052 133.795 92.7152C135.014 93.0251 136.093 93.5055 137.034 94.1563C137.984 94.8071 138.733 95.6439 139.28 96.6666C139.828 97.679 140.102 98.8929 140.102 100.308V116.362H133.841V113.061H133.655C133.273 113.805 132.762 114.461 132.121 115.029C131.481 115.587 130.711 116.026 129.812 116.346C128.914 116.656 127.876 116.811 126.698 116.811ZM128.588 112.255C129.559 112.255 130.417 112.064 131.161 111.682C131.904 111.29 132.488 110.763 132.912 110.102C133.335 109.44 133.547 108.691 133.547 107.855V105.329C133.34 105.463 133.056 105.587 132.695 105.701C132.343 105.804 131.946 105.902 131.502 105.995C131.057 106.078 130.613 106.155 130.169 106.228C129.725 106.29 129.322 106.346 128.96 106.398C128.185 106.512 127.509 106.692 126.93 106.94C126.352 107.188 125.902 107.524 125.582 107.948C125.262 108.361 125.102 108.877 125.102 109.497C125.102 110.396 125.427 111.083 126.078 111.558C126.739 112.023 127.576 112.255 128.588 112.255ZM127.876 89.492L131.161 82.4414H137.266L132.54 89.492H127.876Z" fill="#878B91"/>
<path d="M158.023 92.5602V97.5189H143.333V92.5602H158.023ZM146.695 116.362V90.8402C146.695 89.115 147.031 87.6842 147.702 86.5478C148.384 85.4114 149.314 84.5592 150.492 83.991C151.669 83.4228 153.007 83.1387 154.505 83.1387C155.518 83.1387 156.442 83.2162 157.279 83.3712C158.126 83.5261 158.756 83.6656 159.169 83.7895L157.992 88.7482C157.733 88.6656 157.413 88.5881 157.031 88.5158C156.659 88.4435 156.277 88.4073 155.884 88.4073C154.913 88.4073 154.237 88.6346 153.854 89.0891C153.472 89.5333 153.281 90.1583 153.281 90.9641V116.362H146.695Z" fill="#878B91"/>
<path d="M162.056 116.362V92.5602H168.657V116.362H162.056ZM165.372 89.492C164.39 89.492 163.548 89.1666 162.846 88.5158C162.154 87.8546 161.808 87.0643 161.808 86.1449C161.808 85.2358 162.154 84.4559 162.846 83.805C163.548 83.1439 164.39 82.8133 165.372 82.8133C166.353 82.8133 167.19 83.1439 167.882 83.805C168.584 84.4559 168.936 85.2358 168.936 86.1449C168.936 87.0643 168.584 87.8546 167.882 88.5158C167.19 89.1666 166.353 89.492 165.372 89.492Z" fill="#878B91"/>
<path d="M184.699 116.827C182.261 116.827 180.164 116.31 178.408 115.277C176.662 114.234 175.319 112.787 174.379 110.938C173.449 109.089 172.984 106.961 172.984 104.554C172.984 102.116 173.454 99.9776 174.394 98.1387C175.345 96.2895 176.693 94.8484 178.439 93.8154C180.184 92.772 182.261 92.2503 184.668 92.2503C186.744 92.2503 188.562 92.6274 190.122 93.3815C191.682 94.1356 192.917 95.1945 193.826 96.5581C194.735 97.9218 195.236 99.523 195.329 101.362H189.1C188.924 100.174 188.459 99.2183 187.705 98.4951C186.961 97.7617 185.985 97.3949 184.776 97.3949C183.754 97.3949 182.86 97.6738 182.096 98.2317C181.341 98.7792 180.753 99.5798 180.329 100.634C179.905 101.687 179.694 102.963 179.694 104.461C179.694 105.98 179.9 107.271 180.314 108.335C180.737 109.399 181.331 110.21 182.096 110.768C182.86 111.326 183.754 111.605 184.776 111.605C185.53 111.605 186.207 111.45 186.806 111.14C187.416 110.83 187.917 110.38 188.309 109.792C188.712 109.192 188.976 108.474 189.1 107.638H195.329C195.226 109.456 194.73 111.057 193.841 112.441C192.963 113.815 191.749 114.89 190.2 115.665C188.65 116.439 186.817 116.827 184.699 116.827Z" fill="#878B91"/>
<path d="M210.31 116.827C207.903 116.827 205.821 116.315 204.065 115.293C202.319 114.26 200.971 112.824 200.02 110.985C199.07 109.136 198.595 106.992 198.595 104.554C198.595 102.095 199.07 99.9466 200.02 98.1077C200.971 96.2586 202.319 94.8226 204.065 93.7999C205.821 92.7668 207.903 92.2503 210.31 92.2503C212.717 92.2503 214.793 92.7668 216.539 93.7999C218.295 94.8226 219.648 96.2586 220.599 98.1077C221.549 99.9466 222.025 102.095 222.025 104.554C222.025 106.992 221.549 109.136 220.599 110.985C219.648 112.824 218.295 114.26 216.539 115.293C214.793 116.315 212.717 116.827 210.31 116.827ZM210.341 111.713C211.436 111.713 212.35 111.403 213.083 110.783C213.817 110.153 214.37 109.296 214.741 108.211C215.124 107.126 215.315 105.892 215.315 104.508C215.315 103.123 215.124 101.889 214.741 100.804C214.37 99.7193 213.817 98.8619 213.083 98.2317C212.35 97.6015 211.436 97.2864 210.341 97.2864C209.235 97.2864 208.306 97.6015 207.551 98.2317C206.808 98.8619 206.245 99.7193 205.862 100.804C205.49 101.889 205.304 103.123 205.304 104.508C205.304 105.892 205.49 107.126 205.862 108.211C206.245 109.296 206.808 110.153 207.551 110.783C208.306 111.403 209.235 111.713 210.341 111.713Z" fill="#878B91"/>
<path d="M246.121 99.3474L240.077 99.7193C239.974 99.2028 239.752 98.7379 239.411 98.3247C239.07 97.9011 238.621 97.5654 238.063 97.3174C237.515 97.0592 236.859 96.93 236.095 96.93C235.072 96.93 234.209 97.147 233.507 97.5809C232.804 98.0044 232.453 98.5726 232.453 99.2854C232.453 99.8536 232.681 100.334 233.135 100.727C233.59 101.119 234.37 101.434 235.475 101.672L239.783 102.54C242.097 103.015 243.822 103.779 244.958 104.833C246.095 105.887 246.663 107.271 246.663 108.986C246.663 110.546 246.203 111.915 245.284 113.092C244.375 114.27 243.125 115.189 241.534 115.85C239.953 116.501 238.13 116.827 236.064 116.827C232.913 116.827 230.403 116.171 228.533 114.859C226.673 113.536 225.583 111.739 225.263 109.466L231.756 109.125C231.952 110.086 232.427 110.82 233.182 111.326C233.936 111.822 234.902 112.07 236.079 112.07C237.236 112.07 238.166 111.847 238.869 111.403C239.581 110.949 239.943 110.365 239.953 109.652C239.943 109.053 239.69 108.562 239.194 108.18C238.698 107.787 237.934 107.488 236.901 107.281L232.779 106.46C230.454 105.995 228.724 105.189 227.588 104.043C226.462 102.896 225.898 101.434 225.898 99.6573C225.898 98.1284 226.312 96.8112 227.138 95.7059C227.975 94.6005 229.147 93.7482 230.656 93.1491C232.174 92.5499 233.951 92.2503 235.986 92.2503C238.992 92.2503 241.358 92.8856 243.083 94.1563C244.819 95.4269 245.831 97.1573 246.121 99.3474Z" fill="#878B91"/>
<defs>
<clipPath id="clip0_131_5166">
<rect width="539.791" height="539.791" fill="white" transform="translate(174.957 160.824) rotate(8.85979)"/>
</clipPath>
</defs>
</svg>
