<svg width="130" height="40" viewBox="0 0 130 40" fill="none" xmlns="https://www.w3.org/2000/svg">
<path d="M20.7637 10.4837C21.6421 10.4837 22.4388 10.545 23.1743 10.7492C23.9097 10.8922 24.5021 11.1578 25.0537 11.4847C25.5848 11.8115 25.9934 12.2814 26.2589 12.8942C26.5245 13.4866 26.6675 14.222 26.6675 15.0392C26.6675 15.9789 26.4632 16.7756 25.9934 17.3884C25.5848 17.9808 24.9311 18.5324 24.114 18.9205C25.2579 19.2474 26.1159 19.8602 26.6471 20.657C27.1782 21.4537 27.5255 22.4546 27.5255 23.5986C27.5255 24.5383 27.3212 25.335 26.9943 26.0092C26.6675 26.6833 26.1159 27.2757 25.5235 27.6843C24.9311 28.0928 24.1957 28.4197 23.3785 28.624C22.5614 28.8283 21.7647 28.9508 20.968 28.9508H12V10.4837H20.7637V10.4837ZM20.2326 17.9604C20.968 17.9604 21.5604 17.7561 22.0303 17.4293C22.5001 17.1024 22.7044 16.4896 22.7044 15.7542C22.7044 15.3456 22.6431 14.9575 22.5001 14.6919C22.3571 14.4263 22.1733 14.222 21.9077 14.0178C21.6421 13.8748 21.3766 13.7522 21.0293 13.6909C20.7024 13.6296 20.3552 13.6296 19.967 13.6296H16.0857V17.9808H20.2326V17.9604ZM20.4369 25.8662C20.8454 25.8662 21.2336 25.8049 21.5809 25.7232C21.9077 25.6619 22.255 25.5189 22.5206 25.3146C22.7861 25.1103 22.9904 24.906 23.1947 24.5792C23.3377 24.2523 23.4603 23.8438 23.4603 23.3739C23.4603 22.4342 23.1947 21.7601 22.6636 21.2902C22.1324 20.8817 21.397 20.6978 20.5186 20.6978H16.0857V25.8662H20.4369Z" fill="white"/>
<path d="M33.3477 25.8049C33.8789 26.336 34.6756 26.6016 35.7583 26.6016C36.4937 26.6016 37.1678 26.3973 37.699 26.0705C38.2301 25.6619 38.5774 25.2738 38.6999 24.8652H41.9685C41.4373 26.479 40.6406 27.6026 39.5579 28.338C38.4957 29.0121 37.2087 29.4003 35.6766 29.4003C34.6143 29.4003 33.6746 29.196 32.7962 28.8691C31.9178 28.5423 31.2641 28.0724 30.6512 27.3983C30.0588 26.8059 29.5889 26.0705 29.3234 25.1921C28.9965 24.3136 28.8535 23.3944 28.8535 22.3117C28.8535 21.3107 28.9965 20.371 29.3234 19.4926C29.6502 18.6141 30.1201 17.8787 30.7329 17.225C31.3253 16.6326 32.0608 16.081 32.8779 15.7542C33.7563 15.4273 34.6143 15.2231 35.697 15.2231C36.841 15.2231 37.842 15.4273 38.6999 15.8972C39.5784 16.367 40.2321 16.8982 40.7836 17.6949C41.3148 18.4303 41.7233 19.3087 41.9889 20.228C42.1319 21.1677 42.1932 22.1074 42.1319 23.1696H32.4285C32.408 24.2523 32.7962 25.2533 33.3477 25.8049ZM37.556 18.7776C37.0861 18.3077 36.3507 18.0422 35.4723 18.0422C34.8799 18.0422 34.41 18.1852 34.0014 18.369C33.5929 18.5733 33.3273 18.8389 33.0617 19.1044C32.7962 19.37 32.6532 19.6968 32.5919 20.0441C32.5306 20.371 32.4489 20.6365 32.4489 20.9225H38.4752C38.3527 19.9011 38.0258 19.2474 37.556 18.7776Z" fill="white"/>
<path d="M47.3202 10.4837V17.4497H47.3814C47.8513 16.653 48.4437 16.1219 49.1791 15.7746C49.9145 15.4477 50.5887 15.2435 51.3241 15.2435C52.3251 15.2435 53.1218 15.3865 53.7346 15.652C54.327 15.9176 54.8786 16.3262 55.2055 16.796C55.5323 17.2659 55.7979 17.8583 55.9409 18.5324C56.0839 19.2065 56.1452 19.942 56.1452 20.7999V29.0325H52.4681V21.4741C52.4681 20.3301 52.2638 19.5334 51.9369 19.0023C51.6101 18.4711 50.9972 18.2056 50.1393 18.2056C49.1383 18.2056 48.4029 18.5324 47.9943 19.084C47.5244 19.6764 47.3202 20.6978 47.3202 22.0256V29.053H43.6431V10.5245L47.3202 10.4837Z" fill="white"/>
<path d="M58.8215 17.5723C59.23 16.9799 59.6999 16.5713 60.2923 16.1628C60.8847 15.8359 61.5588 15.5703 62.2943 15.4273C63.0297 15.2843 63.7651 15.2231 64.5005 15.2231C65.1746 15.2231 65.8284 15.2843 66.5842 15.3661C67.2583 15.4273 67.912 15.6316 68.4636 15.8972C69.056 16.1628 69.4646 16.5713 69.8732 17.0412C70.2 17.511 70.4043 18.1852 70.4043 18.9819V26.0092C70.4043 26.6016 70.4656 27.2145 70.5473 27.7456C70.6086 28.2767 70.8129 28.7466 71.0171 29.0121H67.2788C67.1358 28.8691 67.0745 28.6036 67.0132 28.4197C66.9519 28.2359 66.9519 27.9499 66.9519 27.7456C66.3595 28.338 65.6854 28.7466 64.8682 29.0121C64.0511 29.2777 63.2544 29.339 62.4577 29.339C61.7836 29.339 61.2524 29.2777 60.66 29.0734C60.1289 28.9304 59.659 28.6649 59.1892 28.338C58.7806 28.0112 58.4537 27.6026 58.1882 27.0714C57.9839 26.5403 57.8613 26.0092 57.8613 25.2738C57.8613 24.5383 58.0043 23.8642 58.2699 23.3944C58.5355 22.9245 58.8623 22.5159 59.2709 22.1891C59.6794 21.9235 60.2106 21.658 60.7417 21.515C61.2729 21.372 61.804 21.2494 62.4168 21.1881C62.948 21.1268 63.4791 21.0451 64.0307 20.9838C64.5618 20.9225 65.0317 20.8408 65.4402 20.7795C65.8488 20.6365 66.1756 20.514 66.4412 20.3097C66.7068 20.1054 66.7681 19.8398 66.7681 19.4313C66.7681 19.0227 66.7068 18.6959 66.5638 18.4916C66.4208 18.2873 66.2369 18.083 66.0326 17.9604C65.8284 17.8174 65.5628 17.7562 65.2972 17.6949C65.0316 17.6336 64.7048 17.6336 64.3575 17.6336C63.6221 17.6336 63.091 17.7766 62.6824 18.1034C62.2738 18.4303 62.0083 18.9819 61.947 19.6356H58.2699C58.229 18.8389 58.4946 18.1034 58.8215 17.5723ZM66.1143 22.7815C65.9101 22.8428 65.6445 22.9245 65.3789 22.9858C65.1134 23.0471 64.8478 23.0471 64.5005 23.1288C64.2349 23.1901 63.9081 23.1901 63.6221 23.2718C63.3361 23.3535 63.091 23.4148 62.8254 23.4761C62.5598 23.5374 62.2943 23.6804 62.1513 23.8029C61.947 23.9459 61.8244 24.1298 61.6814 24.3341C61.4771 24.5996 61.4771 24.8652 61.4771 25.2125C61.4771 25.5598 61.5384 25.8049 61.6814 26.0092C61.8244 26.2135 61.947 26.4177 62.1513 26.5403C62.3555 26.6833 62.6211 26.7446 62.8867 26.8059C63.1523 26.8672 63.4178 26.8672 63.7651 26.8672C64.5005 26.8672 65.0317 26.7242 65.4402 26.5403C65.8488 26.2747 66.1143 26.0092 66.3186 25.6619C66.5229 25.335 66.6455 24.9878 66.6455 24.6609C66.7068 24.3341 66.7068 24.0685 66.7068 23.8642V22.4547C66.5229 22.5772 66.3186 22.7202 66.1143 22.7815Z" fill="white"/>
<path d="M75.9604 15.5499V17.4293H76.0217C76.4916 16.6326 77.084 16.1015 77.8194 15.7542C78.5548 15.4273 79.3515 15.2231 80.087 15.2231C81.0879 15.2231 81.8846 15.3661 82.4975 15.6316C83.1716 15.8972 83.6415 16.3058 83.9683 16.7756C84.2952 17.2455 84.5608 17.8379 84.765 18.512C84.908 19.1861 84.9693 19.9216 84.9693 20.7795V29.0121H81.2922V21.4537C81.2922 20.3097 81.0879 19.513 80.7611 18.9819C80.4342 18.4507 79.8214 18.1034 78.8817 18.1034C77.8807 18.1034 77.1453 18.512 76.6754 19.1044C76.2056 19.6968 76.0013 20.7183 76.0013 22.0461V29.0734H72.3242V15.5499H75.9604Z" fill="white"/>
<path d="M93.223 17.9604C92.6306 17.9604 92.1607 18.1034 91.7522 18.369C91.3436 18.6346 91.0168 18.9614 90.7512 19.4313C90.4856 19.8398 90.3426 20.3097 90.2201 20.8408C90.0771 21.372 90.0771 21.8418 90.0771 22.3729C90.0771 22.8428 90.1384 23.3739 90.2201 23.8438C90.3631 24.3749 90.4856 24.7835 90.7512 25.1716C91.0168 25.5802 91.2823 25.907 91.6909 26.1726C92.0995 26.4382 92.5693 26.5812 93.1617 26.5812C94.0402 26.5812 94.6939 26.3156 95.2454 25.8458C95.7153 25.3759 96.0421 24.7018 96.1238 23.8438H99.6784C99.4128 25.6415 98.7387 26.9897 97.5947 27.9294C96.4507 28.8691 94.9798 29.339 93.1822 29.339C92.1812 29.339 91.2415 29.1347 90.4448 28.8079C89.5664 28.481 88.9127 28.0112 88.2998 27.3983C87.7074 26.8059 87.2375 26.0705 86.8903 25.2533C86.5634 24.3749 86.4204 23.5169 86.4204 22.5159C86.4204 21.4537 86.5634 20.514 86.8903 19.6356C87.2171 18.7571 87.6257 17.9604 88.2181 17.2863C88.8105 16.6122 89.5459 16.1423 90.3631 15.7542C91.2415 15.4273 92.1608 15.2231 93.2435 15.2231C94.0402 15.2231 94.7756 15.3661 95.511 15.5499C96.2464 15.7542 96.9205 16.081 97.4517 16.4896C98.0441 16.8982 98.5139 17.4293 98.8612 18.1034C99.1881 18.6959 99.3924 19.513 99.4536 20.371H95.8378C95.6948 18.7776 94.8164 17.9604 93.223 17.9604Z" fill="white"/>
<path d="M39.1695 11.7502H31.6724V13.5479H39.1695V11.7502Z" fill="white"/>
<path d="M105.194 25.8049C105.725 26.336 106.603 26.6016 107.604 26.6016C108.34 26.6016 109.014 26.3973 109.545 26.0705C110.076 25.6619 110.423 25.2738 110.546 24.8652H113.753C113.222 26.479 112.425 27.6026 111.343 28.338C110.28 29.0121 108.993 29.4003 107.461 29.4003C106.399 29.4003 105.459 29.196 104.581 28.8691C103.702 28.5423 103.049 28.0724 102.436 27.3983C101.843 26.8059 101.374 26.0705 101.108 25.1921C100.781 24.3136 100.638 23.3944 100.638 22.3117C100.638 21.3107 100.781 20.371 101.108 19.4926C101.435 18.6141 101.905 17.8787 102.518 17.225C103.11 16.6326 103.845 16.081 104.663 15.7542C105.541 15.4273 106.46 15.2231 107.482 15.2231C108.626 15.2231 109.627 15.4273 110.423 15.8972C111.302 16.367 111.955 16.8982 112.507 17.6949C113.038 18.4303 113.447 19.3087 113.712 20.228C113.978 21.1677 114.039 22.1687 113.978 23.2309H104.254C104.254 24.2524 104.663 25.2533 105.194 25.8049ZM109.463 18.7776C108.993 18.3077 108.258 18.0422 107.38 18.0422C106.787 18.0422 106.317 18.1852 105.909 18.369C105.5 18.5733 105.173 18.8389 104.969 19.1044C104.765 19.37 104.56 19.6968 104.499 20.0441C104.438 20.371 104.356 20.6365 104.356 20.9225H110.382C110.199 19.9011 109.872 19.2474 109.463 18.7776Z" fill="white"/>
</svg>
