<svg width="169" height="54" viewBox="0 0 169 54" fill="none" xmlns="http://www.w3.org/2000/svg">
<mask id="mask0_85_3538" style="mask-type:alpha" maskUnits="userSpaceOnUse" x="0" y="0" width="169" height="54">
<rect width="169" height="54" fill="#C4C4C4"/>
</mask>
<g mask="url(#mask0_85_3538)">
<path fill-rule="evenodd" clip-rule="evenodd" d="M114.702 41.1776C114.609 40.8837 114.583 40.412 114.583 39.4995V36.988C114.583 35.3239 113.648 34.6797 112.106 34.6797C111.276 34.6797 110.498 34.8135 109.666 35.3784L110.181 36.3843C110.665 36.0785 111.222 35.9162 111.789 35.9152C112.448 35.9152 112.975 36.2215 112.975 36.9888V37.1499L111.868 37.1912C110.274 37.244 109.259 37.9551 109.259 39.2716C109.259 40.5212 110.155 41.3132 111.303 41.3132C112.131 41.3132 112.699 40.9911 113.107 40.6136L113.371 41.1776H114.702V41.1776ZM112.975 39.6332C112.764 39.8224 112.408 40.0363 111.855 40.0363C111.197 40.0363 110.84 39.6755 110.84 39.1501C110.84 38.6133 111.222 38.3176 112.08 38.2912L112.975 38.2648V39.6332V39.6332ZM118.589 41.3132C116.56 41.3132 115.519 39.8216 115.519 38.036C115.519 36.1027 116.89 34.6788 118.747 34.6788C119.591 34.6788 120.17 34.8936 120.526 35.1232L120.501 36.4388C120.066 36.1027 119.577 35.9152 118.932 35.9152C117.864 35.9152 117.1 36.7732 117.1 37.9551C117.1 39.0436 117.681 40.0099 118.92 40.0099C119.513 40.0099 119.961 39.8216 120.396 39.5664L120.79 40.6276C120.289 40.9779 119.446 41.3132 118.589 41.3132V41.3132ZM124.203 41.3132C122.174 41.3132 121.133 39.8216 121.133 38.036C121.133 36.1027 122.504 34.6788 124.361 34.6788C125.205 34.6788 125.786 34.8936 126.142 35.1232L126.116 36.4388C125.679 36.1027 125.193 35.9152 124.546 35.9152C123.479 35.9152 122.716 36.7732 122.716 37.9551C122.716 39.0436 123.296 40.0099 124.533 40.0099C125.128 40.0099 125.575 39.8216 126.009 39.5664L126.405 40.6276C125.903 40.9779 125.06 41.3132 124.203 41.3132V41.3132ZM127.371 41.1785H128.954V34.8276H127.371V41.1785ZM128.162 33.8481C127.621 33.8481 127.186 33.4169 127.186 32.866C127.186 32.3424 127.621 31.8989 128.162 31.8989C128.716 31.8989 129.151 32.3301 129.151 32.866C129.151 33.4028 128.716 33.8472 128.162 33.8472V33.8481ZM136.158 37.9824C136.158 37.0144 135.867 36.1828 135.327 35.5923C134.773 35.0141 133.996 34.6788 133.034 34.6788C132.124 34.6788 131.373 35.0132 130.819 35.5782C130.239 36.1828 129.911 37.0416 129.911 38.0369C129.911 39.0577 130.253 39.9289 130.872 40.5203C131.412 41.0298 132.151 41.3132 133.02 41.3132C133.957 41.3132 134.72 40.977 135.275 40.3988C135.855 39.8092 136.158 38.9495 136.158 37.9824V37.9824ZM134.536 37.9964C134.536 39.1906 134.035 40.0627 133.047 40.0627C132.084 40.0627 131.517 39.2302 131.517 37.9964C131.517 36.8146 132.005 35.9548 133.008 35.9548C133.983 35.9548 134.536 36.7732 134.536 37.9964ZM141.179 41.1776V37.4456C141.179 36.7864 141.059 36.0622 140.255 36.0622C139.702 36.0622 139.162 36.3579 138.675 36.7336V41.1776H137.092V34.8276H138.437L138.608 35.5104C139.28 35 139.953 34.6797 140.796 34.6797C141.745 34.6797 142.76 35.2561 142.76 36.9624V41.1776H141.178H141.179ZM149.086 41.1776C148.994 40.8837 148.966 40.412 148.966 39.4995V36.988C148.966 35.3239 148.031 34.6797 146.49 34.6797C145.66 34.6797 144.882 34.8135 144.052 35.3784L144.565 36.3843C145.049 36.0786 145.606 35.9163 146.173 35.9152C146.832 35.9152 147.359 36.2215 147.359 36.9888V37.1499L146.252 37.1912C144.657 37.244 143.642 37.9551 143.642 39.2716C143.642 40.5212 144.539 41.3132 145.686 41.3132C146.516 41.3132 147.083 40.9911 147.491 40.6136L147.755 41.1776H149.086V41.1776ZM147.358 39.6332C147.148 39.8224 146.792 40.0363 146.239 40.0363C145.579 40.0363 145.225 39.6755 145.225 39.1501C145.225 38.6133 145.605 38.3176 146.463 38.2912L147.359 38.2648V39.6332H147.358Z" fill="#1D1C1B"/>
<path fill-rule="evenodd" clip-rule="evenodd" d="M106.559 38.2454C106.445 37.772 106.336 37.3038 106.235 36.8383C106.054 35.9865 105.907 35.1434 105.837 34.2986C105.818 34.0628 105.81 33.841 105.8 33.6158C105.758 32.7348 105.791 31.8517 105.899 30.9766C105.98 30.3404 106.11 29.801 106.207 29.3398C106.108 29.419 106.009 29.4965 105.909 29.5704C105.795 29.9118 105.66 30.3879 105.532 30.9846C105.445 31.3894 105.365 31.8505 105.3 32.3574C104.833 32.1586 104.385 31.9143 103.963 31.6278L103.975 32.2896C104.367 32.6205 104.787 32.9232 105.216 33.1916C105.127 34.3087 105.141 35.4319 105.259 36.5462C104.361 36.2918 103.411 35.9082 102.605 35.3538L102.617 36.0146C103.46 36.721 104.397 37.2979 105.401 37.7271C105.534 38.6793 105.7 39.6244 105.857 40.581C104.63 40.412 102.974 39.9562 101.688 39.0691L101.7 39.73C103.062 40.8846 104.748 41.6818 106.061 41.9511C106.33 43.9408 106.442 46.0343 105.964 48.4385L107.495 47.5242C108.088 44.1186 107.254 41.1178 106.559 38.2454" fill="#E63229"/>
<path fill-rule="evenodd" clip-rule="evenodd" d="M111.011 29.2112L111.007 28.7527L110.562 28.6858C109.706 28.5538 108.053 28.1209 106.618 26.7058C106.618 26.7058 106.35 26.4401 106.231 26.3257L105.843 26.7067C104.411 28.1209 102.757 28.5538 101.9 28.6858L101.455 28.7527L101.42 29.2103C101.209 31.9797 99.7737 33.3437 98.9381 33.9113L98.607 34.1357L98.7011 34.5273C98.8594 35.1838 98.9364 35.7232 98.9364 36.1773C98.9446 37.328 98.5998 38.452 97.951 39.3893C97.951 39.3893 97.815 39.5838 97.7603 39.6647L97.9005 39.9692C99.1767 42.7218 102.904 44.6904 104.875 44.7274L104.838 44.3824C103.34 44.3226 99.0185 41.7776 99.1074 39.7888V39.6674L99.1091 39.6647C99.7411 38.6182 100.073 37.4093 100.066 36.1773C100.066 35.7901 100.01 35.3254 99.8866 34.7165L99.873 34.6417L99.932 34.595C100.902 33.825 102.13 32.373 102.472 29.8298L102.483 29.7454L102.565 29.7278C103.883 29.4382 105.115 28.8294 106.159 27.9519L106.233 27.8569L106.309 27.9519C107.359 28.8355 108.599 29.4507 109.925 29.7471C110.064 31.5256 111.096 32.3132 111.962 32.6634L112.275 32.3871C111.925 32.1346 111.027 31.2871 111.01 29.2103" fill="#E63229"/>
<path fill-rule="evenodd" clip-rule="evenodd" d="M146.652 11.1222C146.652 12.6534 145.566 13.7886 144.092 13.7886H142.536V8.74176H144.121C145.65 8.74176 146.652 9.76256 146.652 11.1222H146.652ZM152.965 23.8786C150.267 19.1161 148.57 16.0546 147.569 15.4606V15.4306C149.182 14.665 150.823 13.0221 150.823 10.6399C150.823 7.72096 149.043 5.19888 144.01 5.19888H138.28V23.8786H142.535V16.8765H143.814C144.428 17.1317 145.399 19.0026 148.153 23.8786H152.965ZM135.584 23.8786V20.3921H128.881V16.1118H134.637V12.5962H128.881V8.68632H134.61L135.639 5.19976H124.626V23.8795H135.583L135.584 23.8786ZM122.762 5.22704H118.423L114.53 14.6659C114.064 15.803 113.638 16.9565 113.25 18.1243H113.195C112.794 16.9148 112.367 15.7145 111.915 14.5242L108.413 5.22616H103.741L111.333 24.0203H114.587L122.763 5.22616L122.762 5.22704ZM101.878 23.8786V5.19888H97.6489V13.8449C97.6489 14.5814 97.6489 15.9402 97.7053 16.9046H97.6489C97.1271 16.1303 96.5802 15.3743 96.0092 14.6378L88.6386 5.19888H84.3842V23.8786H88.6113V14.3826C88.6113 13.5888 88.6113 12.341 88.5275 11.7179H88.5839C89.1955 12.5407 89.7241 13.2773 90.3083 14.0429L97.9277 23.8786H101.878V23.8786ZM76.793 23.8778H81.0474V5.19888H76.793V23.8778ZM74.9839 5.19888H59.5783V8.68544H64.9456V23.8786H69.2565V8.68544H74.0943L74.9839 5.19888ZM58.3816 18.464C58.3816 12.5398 50.5672 12.8795 50.5672 9.90336C50.5672 8.99696 51.4841 8.39944 52.7637 8.39944C54.2649 8.39944 55.5171 8.91072 57.2132 9.78984L57.2962 6.16072C56.1577 5.5104 54.4599 5 52.514 5C48.3142 5 46.0612 7.60744 46.0612 10.471C46.0612 11.9159 46.506 12.9658 47.2014 13.7886C49.3988 16.3934 53.8757 16.763 53.8757 19.0026C53.8757 20.2786 52.4866 20.7318 51.2344 20.7318C49.6212 20.7318 48.2304 20.0806 47.0072 19.2296L45.3949 22.3193C46.784 23.2556 48.7316 24.1629 51.4576 24.1629C55.2947 24.1629 58.3825 22.0069 58.3825 18.4649L58.3816 18.464ZM43.5029 23.8778V20.3912H36.8013V16.1109H42.5577V12.5962H36.8013V8.68632H42.5295L43.5585 5.19888H32.5459V23.8786H43.5029V23.8778ZM25.9255 18.1516C25.9255 19.6538 25.036 20.363 23.0062 20.363H21.2545V16.1954H23.1183C24.9821 16.1954 25.9264 16.9038 25.9264 18.1516H25.9255ZM24.7588 10.7534C24.7588 11.7742 23.9257 12.6806 22.9797 12.6806H21.2536V8.74176H22.4229C24.0078 8.74176 24.758 9.64816 24.758 10.7534H24.7588ZM30.1817 18.1806C30.1817 16.139 29.0424 14.2981 26.8168 13.675V13.6451C28.2076 12.8522 28.903 11.3501 28.903 9.93152C28.903 7.58104 27.0392 5.19888 23.2851 5.19888H17V23.8786H23.6187C28.0134 23.8786 30.1826 20.9298 30.1826 18.1806H30.1817Z" fill="#1D1C1B"/>
</g>
</svg>
