<svg width="169" height="54" viewBox="0 0 169 54" fill="none" xmlns="http://www.w3.org/2000/svg">
<mask id="mask0_85_3539" style="mask-type:alpha" maskUnits="userSpaceOnUse" x="0" y="0" width="169" height="54">
<rect width="169" height="54" fill="#C4C4C4"/>
</mask>
<g mask="url(#mask0_85_3539)">
<path d="M58.2514 42.3425H51.1069V23.9302H58.2439C62.761 23.9302 64.47 26.2242 64.47 28.7132V37.5595C64.4775 40.0185 62.8212 42.3425 58.2514 42.3425ZM60.3293 29.8452C60.3293 28.4058 59.8324 27.5961 57.7546 27.5961H55.2928V38.6615H57.7847C59.8625 38.6615 60.3594 37.8594 60.3594 36.4125L60.3293 29.8452Z" fill="#1B396D"/>
<path d="M92.0692 23.9302V36.9747C92.0692 39.7636 90.3226 42.6124 85.1204 42.6124C79.9183 42.6124 78.1792 39.7336 78.1792 36.9747V23.9302H82.3274V36.5924C82.3274 38.0918 83.0802 38.9389 85.1204 38.9389C87.1607 38.9389 87.9135 38.0843 87.9135 36.5924V23.9302H92.0692Z" fill="#1B396D"/>
<path d="M71.5389 14.0566H71.042V42.3499H71.5389V14.0566Z" fill="#1B396D"/>
<path d="M44.4969 21.1787H44V42.3574H44.4969V21.1787Z" fill="#1B396D"/>
<path d="M99.1609 6.79199H98.6641V42.3497H99.1609V6.79199Z" fill="#1B396D"/>
<path d="M126 0H125.503V42.3499H126V0Z" fill="#1B396D"/>
<path d="M114.707 32.9864L120.301 42.3275H115.957L112.389 36.2475L108.82 42.3275H104.469L110.032 32.9864L104.664 23.9302H109.008L112.381 29.7328L115.754 23.9302H120.098L114.707 32.9864Z" fill="#1B396D"/>
<path d="M78.2773 53.9252H77.6299V48.9248H78.2773V53.9252Z" fill="#1B396D"/>
<path d="M80.3927 49.667V53.9252H79.7754V48.9248H80.6637L82.8395 53.228V48.9248H83.4568V53.9252H82.5684L80.3927 49.667Z" fill="#1B396D"/>
<path d="M84.4204 48.9248H85.0453L86.5133 53.363L87.9814 48.9248H88.6062L86.9123 53.9252H86.0691L84.4204 48.9248Z" fill="#1B396D"/>
<path d="M89.5547 48.9248H92.4983V49.4796H90.2021V51.0464H92.3327V51.6237H90.2021V53.318H92.5058V53.8952H89.5547V48.9248Z" fill="#1B396D"/>
<path d="M95.6756 52.1185H94.4409V53.9252H93.7935V48.9248H95.7057C96.7823 48.9248 97.1587 49.3896 97.1587 50.1543V50.904C97.1922 51.1615 97.1294 51.4222 96.9822 51.6365C96.835 51.8508 96.6138 52.0037 96.3607 52.066L97.6631 53.9477H96.9102L95.6756 52.1185ZM95.6756 49.5096H94.4409V51.5487H95.6831C96.3004 51.5487 96.5112 51.3763 96.5112 50.889V50.1393C96.5112 49.667 96.3004 49.4796 95.6906 49.4796L95.6756 49.5096Z" fill="#1B396D"/>
<path d="M100.035 53.9776C99.5208 53.9812 99.0107 53.8924 98.5288 53.7152L98.6342 53.1904C99.0874 53.3324 99.5594 53.4057 100.035 53.4079C100.84 53.4079 101.006 53.1979 101.006 52.6582C101.006 52.1184 101.006 51.9085 99.9667 51.6911C98.7547 51.4212 98.6116 51.1888 98.6116 50.1542C98.6116 49.2846 98.973 48.8647 100.215 48.8647C100.672 48.8653 101.127 48.9207 101.57 49.0297L101.518 49.5769C101.095 49.4841 100.663 49.4363 100.23 49.4345C99.4096 49.4345 99.2591 49.5994 99.2591 50.1842C99.2591 50.8739 99.2591 50.9339 100.253 51.1513C101.585 51.4812 101.653 51.6761 101.653 52.6507C101.653 53.6253 101.412 53.9776 100.035 53.9776Z" fill="#1B396D"/>
<path d="M106.486 52.4781C106.486 53.3102 105.967 53.9774 104.672 53.9774C103.377 53.9774 102.857 53.2952 102.857 52.4781V50.3714C102.857 49.5393 103.377 48.8721 104.672 48.8721C105.967 48.8721 106.486 49.5543 106.486 50.3714V52.4781ZM103.475 52.4781C103.475 53.0928 103.851 53.4377 104.642 53.4377C105.432 53.4377 105.809 53.0928 105.809 52.4781V50.3864C105.809 49.7717 105.432 49.4268 104.642 49.4268C103.851 49.4268 103.475 49.7717 103.475 50.3864V52.4781Z" fill="#1B396D"/>
<path d="M109.716 52.1185H108.489V53.9252H107.841V48.9248H109.754C110.83 48.9248 111.207 49.3896 111.207 50.1543V50.904C111.24 51.1615 111.177 51.4222 111.03 51.6365C110.883 51.8508 110.662 52.0037 110.409 52.066L111.711 53.9477H110.958L109.716 52.1185ZM109.716 49.5096H108.489V51.5487H109.731C110.348 51.5487 110.559 51.3763 110.559 50.889V50.1393C110.552 49.667 110.341 49.4796 109.731 49.4796L109.716 49.5096Z" fill="#1B396D"/>
<path d="M112.78 48.9248H115.723V49.4796H113.427V51.0464H115.558V51.6237H113.427V53.318H115.731V53.8952H112.78V48.9248Z" fill="#1B396D"/>
<path d="M118.321 53.9776C117.807 53.9812 117.297 53.8924 116.815 53.7152L116.921 53.1904C117.374 53.3324 117.846 53.4057 118.321 53.4079C119.127 53.4079 119.292 53.1979 119.292 52.6582C119.292 52.1184 119.292 51.9085 118.253 51.6911C117.041 51.4212 116.898 51.1888 116.898 50.1542C116.898 49.2846 117.26 48.8647 118.502 48.8647C118.959 48.8654 119.414 48.9208 119.857 49.0297L119.804 49.5769C119.387 49.4802 118.96 49.4274 118.532 49.4195C117.711 49.4195 117.561 49.5844 117.561 50.1692C117.561 50.8589 117.561 50.9189 118.555 51.1363C119.887 51.4662 119.955 51.6611 119.955 52.6357C119.955 53.6103 119.699 53.9776 118.321 53.9776Z" fill="#1B396D"/>
</g>
</svg>
