<svg width="130" height="40" viewBox="0 0 130 40" fill="none" xmlns="http://www.w3.org/2000/svg">
<path d="M25.4574 18.3144H19.1497C18.987 18.3144 18.8549 18.4466 18.8549 18.6093V21.6933C18.8549 21.856 18.987 21.9884 19.1497 21.9884H21.6104V25.82C21.6104 25.82 21.0579 26.0083 19.5303 26.0083C17.7282 26.0083 15.2106 25.3498 15.2106 19.8139C15.2106 14.2768 17.8321 13.5483 20.2932 13.5483C22.4236 13.5483 23.3414 13.9234 23.9254 14.1041C24.1089 14.1604 24.2786 13.9776 24.2786 13.8148L24.9823 10.835C24.9823 10.7589 24.9565 10.6672 24.8696 10.6048C24.6325 10.4357 23.1856 9.62604 19.5303 9.62604C15.3194 9.62604 11 11.4176 11 20.0298C11 28.6423 15.9454 29.9257 20.1127 29.9257C23.5632 29.9257 25.6564 28.4512 25.6564 28.4512C25.7427 28.4035 25.7521 28.283 25.7521 28.2277V18.6093C25.7521 18.4466 25.6202 18.3144 25.4574 18.3144ZM57.9476 10.7041C57.9476 10.5399 57.8175 10.4075 57.6548 10.4075H54.1032C53.9409 10.4075 53.809 10.5399 53.809 10.7041C53.809 10.7048 53.81 17.5677 53.81 17.5677H48.2739V10.7041C48.2739 10.5399 48.1432 10.4075 47.9808 10.4075H44.4294C44.2677 10.4075 44.136 10.5399 44.136 10.7041V29.2888C44.136 29.4528 44.2677 29.5862 44.4294 29.5862H47.9808C48.1432 29.5862 48.2739 29.4528 48.2739 29.2888V21.3394H53.81C53.81 21.3394 53.8003 29.2882 53.8003 29.2888C53.8003 29.4528 53.932 29.5862 54.0944 29.5862H57.6545C57.8172 29.5862 57.9473 29.4528 57.9476 29.2888V10.7041ZM32.1481 13.1888C32.1481 11.9099 31.1228 10.8765 29.8578 10.8765C28.5941 10.8765 27.568 11.9099 27.568 13.1888C27.568 14.4662 28.5941 15.5025 29.8578 15.5025C31.1228 15.5025 32.1481 14.4662 32.1481 13.1888ZM31.8663 25.3781V16.7994C31.8663 16.6365 31.7348 16.5033 31.5724 16.5033H28.032C27.8697 16.5033 27.7243 16.6709 27.7243 16.8337V29.1245C27.7243 29.4857 27.9494 29.5931 28.2407 29.5931H31.4305C31.7805 29.5931 31.8663 29.4213 31.8663 29.1187V25.3781ZM71.5218 16.5033H67.9973C67.8357 16.5033 67.7041 16.6365 67.7041 16.8004V25.9132C67.7041 25.9132 66.8088 26.5682 65.5379 26.5682C64.2672 26.5682 63.9299 25.9916 63.9299 24.7473V16.8004C63.9299 16.6365 63.7986 16.5033 63.6368 16.5033H60.0598C59.8984 16.5033 59.7662 16.6365 59.7662 16.8004V25.3491C59.7662 29.045 61.8261 29.9492 64.6598 29.9492C66.9845 29.9492 68.8589 28.6648 68.8589 28.6648C68.8589 28.6648 68.9481 29.3416 68.9884 29.422C69.0289 29.502 69.1341 29.5828 69.2477 29.5828L71.5233 29.5728C71.6848 29.5728 71.817 29.4393 71.817 29.2761L71.8159 16.8004C71.8159 16.6365 71.6842 16.5033 71.5218 16.5033ZM79.6421 26.5752C78.4197 26.538 77.5905 25.9833 77.5905 25.9833V20.0979C77.5905 20.0979 78.4086 19.5965 79.4122 19.5068C80.6814 19.3932 81.9043 19.7766 81.9043 22.8042C81.9043 25.9968 81.3524 26.6268 79.6421 26.5752ZM81.0323 16.1041C79.0305 16.1041 77.669 16.9972 77.669 16.9972V10.7041C77.669 10.5399 77.5378 10.4075 77.3759 10.4075H73.8142C73.6523 10.4075 73.5207 10.5399 73.5207 10.7041V29.2888C73.5207 29.4528 73.6523 29.5862 73.8147 29.5862H76.2858C76.3971 29.5862 76.4814 29.5289 76.5436 29.4284C76.605 29.3285 76.6936 28.5715 76.6936 28.5715C76.6936 28.5715 78.1501 29.9517 80.9071 29.9517C84.1438 29.9517 86 28.3099 86 22.5813C86 16.8527 83.0354 16.1041 81.0323 16.1041ZM42.0883 16.4714H39.4241C39.4241 16.4714 39.42 12.9526 39.42 12.9518C39.42 12.8187 39.3514 12.7521 39.1975 12.7521H35.5669C35.4257 12.7521 35.3499 12.8141 35.3499 12.9498V16.5869C35.3499 16.5869 33.5306 17.0261 33.4076 17.0616C33.285 17.0971 33.1949 17.2101 33.1949 17.3448V19.6304C33.1949 19.7949 33.3261 19.9274 33.4885 19.9274H35.3499V25.4258C35.3499 29.5098 38.2146 29.911 40.1478 29.911C41.031 29.911 42.0876 29.6273 42.2621 29.563C42.3676 29.5242 42.4288 29.4149 42.4288 29.2965L42.4318 26.7822C42.4318 26.6182 42.2933 26.4855 42.1373 26.4855C41.9821 26.4855 41.585 26.5487 41.1761 26.5487C39.8675 26.5487 39.4241 25.9402 39.4241 25.1526C39.4241 24.3656 39.4239 19.9274 39.4239 19.9274H42.0883C42.2507 19.9274 42.3821 19.7949 42.3821 19.6304V16.7676C42.3821 16.6037 42.2507 16.4714 42.0883 16.4714Z" fill="white"/>
</svg>
