<svg width="130" height="40" viewBox="0 0 130 40" fill="none" xmlns="http://www.w3.org/2000/svg">
<path fill-rule="evenodd" clip-rule="evenodd" d="M88.8411 33.2372H109.922C111.069 33.2372 112 32.3066 112 31.1588V10.0784C112 8.93096 111.069 8 109.922 8H88.8411C87.6937 8 86.7627 8.93068 86.7627 10.0784V31.1588C86.7627 32.3063 87.6934 33.2372 88.8411 33.2372V33.2372ZM96.4122 17.6498H99.9381V19.4245C100.411 18.4767 101.788 17.4641 103.609 17.4641C107.099 17.4641 108.289 19.0415 108.289 22.7877V29.526H104.577V23.576C104.577 21.6044 104.192 20.5259 102.753 20.5259C100.808 20.5259 100.124 22.0046 100.124 23.576V29.526H96.4127V17.6498H96.4122ZM90.4742 29.526H94.1854V17.6498H90.4742V29.526ZM94.5937 13.5673C94.5937 14.8173 93.5798 15.8313 92.3297 15.8313C91.0796 15.8313 90.0657 14.8173 90.0657 13.5673C90.0657 12.3166 91.0796 11.3032 92.3297 11.3032C93.5798 11.3032 94.5937 12.3164 94.5937 13.5673Z" fill="white"/>
<path fill-rule="evenodd" clip-rule="evenodd" d="M82.5568 29.8877H79.2841V28.4826H79.2313C78.8256 29.1314 77.4416 30.0826 75.7547 30.0826C71.6295 30.0826 69.7085 27.4093 69.7085 23.6432C69.7085 19.9028 71.7303 17.2039 75.377 17.2039C77.147 17.2039 78.1643 17.8868 78.7782 18.8039V11.1547H82.5571V29.8874L82.5568 29.8877ZM76.094 20.2089C74.3608 20.2089 73.3361 21.6833 73.3361 23.74C73.3361 25.7999 74.3608 27.0776 76.094 27.0776C77.8565 27.0776 78.9289 25.7999 78.9289 23.74C78.9289 21.6833 77.8331 20.2089 76.094 20.2089ZM67.7704 27.8145C66.8036 29.0827 64.9088 30.0826 62.1501 30.0826C58.4037 30.0826 56.0093 27.4701 56.0093 23.448C56.0093 20.0379 58.3478 17.2039 62.4199 17.2039C65.8716 17.2039 68.2909 19.7079 68.2909 23.7081C68.2909 24.4886 68.1087 25.1966 68.1087 25.1966H59.4699L59.5002 25.3777C59.7882 26.351 60.7208 27.3509 62.2989 27.3509C63.6979 27.3509 64.9388 26.6188 65.4619 25.9577L67.7701 27.8145H67.7704ZM64.9588 22.2756C64.8189 20.9894 63.7179 19.9356 62.3445 19.9356C60.6645 19.9356 59.555 21.0558 59.4528 22.2756H64.9588ZM44.0111 11.1547H47.79V22.4974L51.99 17.3988H56.5655L51.2774 23.3566L56.6518 29.8874H52.2735L47.7902 24.1186V29.8874H44.0113V11.1547H44.0111ZM29.6509 17.3991H32.9236V19.1492H32.9764C33.4858 18.1492 35.045 17.2042 36.9066 17.2042C40.7832 17.2042 41.7437 19.4723 41.7437 22.8958V29.8877H37.9648V23.7285C37.9648 22.2541 37.8891 20.341 35.9264 20.341C33.938 20.341 33.4301 22.0692 33.4301 23.7285V29.8877H29.6512V17.3991H29.6509ZM25.494 11.2523C26.6421 11.2523 27.6668 12.3114 27.6668 13.4962C27.6668 14.681 26.6421 15.7402 25.494 15.7402C24.3467 15.7402 23.3211 14.681 23.3211 13.4962C23.3211 12.3114 24.3467 11.2523 25.494 11.2523ZM23.6044 29.8877H27.3833V17.3991H23.6044V29.8877ZM10 11.1547H13.7789V25.9848H21.337V29.8874H10V11.1547Z" fill="white"/>
</svg>
