<?xml version="1.0" encoding="utf-8"?>
<!-- Generator: Adobe Illustrator 24.2.3, SVG Export Plug-In . SVG Version: 6.00 Build 0)  -->
<svg version="1.1" id="Layer_1" xmlns="http://www.w3.org/2000/svg" xmlns:xlink="http://www.w3.org/1999/xlink" x="0px" y="0px"
	 viewBox="0 0 70.7 76.9" style="enable-background:new 0 0 70.7 76.9;" xml:space="preserve">
<style type="text/css">
	.st0{fill:#A0F0FE;}
	.st1{fill:#5FC4F3;}
	.st2{fill:#377DFF;}
	.st3{fill:#FFFFFF;}
</style>
<path class="st0" d="M26.4,35c0-15.5,12.7-28.2,28.2-28.2h6.2c5.5,0,9.9,4.4,9.9,9.9v28.1c0,5.5-4.4,9.9-9.9,9.9H36.3
	c-5.5,0-9.9-4.4-9.9-9.9V35z"/>
<path class="st1" d="M11.6,40.3C11.6,24.7,24.3,12,39.8,12h14.8c5.5,0,9.9,4.4,9.9,9.9v33.6c0,5.5-4.4,9.9-9.9,9.9H21.5
	c-5.5,0-9.9-4.4-9.9-9.9V40.3z"/>
<path class="st2" d="M0.7,44.9c0-15.5,12.7-28.2,28.2-28.2h19.6c5.5,0,9.9,4.4,9.9,9.9v35c0,5.5-4.4,9.9-9.9,9.9h-38
	c-5.5,0-9.9-4.4-9.9-9.9C0.7,61.6,0.7,44.9,0.7,44.9z"/>
<path class="st3" d="M21,50.6l-1.1,7.1c0,0.1,0.1,0.4,0.3,0.4h5.1c0.1,0,0.3-0.1,0.3-0.3l1.4-7.5c0-0.1,0.1-0.3,0.3-0.3H30
	c0.1,0,0.3,0.1,0.3,0.1l3.5,7.6c0,0.1,0.1,0.1,0.3,0.1h5.4c0.3,0,0.4-0.3,0.3-0.4l-4.1-7.9c-0.1-0.1,0-0.4,0.1-0.4
	c1.1-0.6,5.4-2.5,6.2-5.6c1.1-4.8-0.7-8.2-4-9.3c-2.8-1-4.9-1-8.6-1c-3.1,0-4.5,0-5.2,0c-0.1,0-0.3,0.1-0.3,0.3l-2.1,11.9
	c0,0.1-0.1,0.3-0.3,0.3h-3.8c-0.1,0-0.3,0.1-0.3,0.3l-1,3.8c0,0.1,0.1,0.4,0.3,0.4h3.8C20.9,50.1,21,50.4,21,50.6z"/>
<path class="st2" d="M28.9,37.7l-1.1,7.1h3.4c1.3,0,2.5-0.4,3.4-1.1c0.4-0.4,0.8-1,1.1-1.6c0.4-1.4,0.1-2.7-0.6-3.2
	c-0.8-0.8-1.7-1-2.5-1S28.9,37.7,28.9,37.7z"/>
</svg>
