<?xml version="1.0" encoding="utf-8"?>
<!-- Generator: Adobe Illustrator 24.2.3, SVG Export Plug-In . SVG Version: 6.00 Build 0)  -->
<svg version="1.1" id="Layer_1" xmlns="http://www.w3.org/2000/svg" xmlns:xlink="http://www.w3.org/1999/xlink" x="0px" y="0px"
	 viewBox="0 0 304 76.9" style="enable-background:new 0 0 304 76.9;" xml:space="preserve">
<style type="text/css">
	.st0{fill:#212122;}
	.st1{fill:#A0F0FE;}
	.st2{fill:#5FC4F3;}
	.st3{fill:#377DFF;}
	.st4{fill:#FFFFFF;}
</style>
<path class="st0" d="M86.8,52.8V28.3h5.5v10h9.9v-10h5.5v24.6h-5.5V42.7h-9.9v10.2H86.8z M119.6,53.1c-2.8,0-5.1-0.8-6.8-2.4
	c-1.7-1.7-2.5-3.8-2.5-6.6v-0.3c0-2.8,0.8-5.1,2.5-6.8c1.7-1.7,4-2.5,6.6-2.5c2.5,0,4.7,0.7,6.2,2.3c1.7,1.6,2.5,3.8,2.5,6.8v1.4
	h-13c0,1.6,0.4,2.7,1.3,3.5c0.8,0.8,1.8,1.3,3.2,1.3c2.1,0,3.4-0.8,3.7-2.5h4.8c-0.3,2-1.1,3.4-2.7,4.5
	C124,52.7,122,53.1,119.6,53.1z M115.4,42h8c-0.1-2.7-1.4-4-4-4c-1.1,0-2,0.4-2.8,1.1C115.9,39.7,115.5,40.7,115.4,42z M130.6,52.8
	V26.7h4.9v26h-4.9V52.8z M139.1,52.8V26.7h4.9v26h-4.9V52.8z M152.6,48c0.8,1,1.8,1.4,3.2,1.4c1.4,0,2.4-0.4,3.2-1.4
	c0.8-1,1.1-2.3,1.1-4v-0.3c0-1.7-0.4-3.1-1.1-4c-0.7-1-1.8-1.4-3.2-1.4c-1.4,0-2.4,0.4-3.2,1.4c-0.8,1-1.1,2.3-1.1,4v0.3
	C151.5,45.6,151.9,47,152.6,48z M155.9,53.1c-2.7,0-4.9-0.8-6.8-2.5c-1.8-1.7-2.7-4-2.7-6.6v-0.1c0-2.8,0.8-4.9,2.7-6.8
	c1.8-1.7,4.1-2.5,6.8-2.5c2.7,0,4.9,0.8,6.8,2.5s2.7,4,2.7,6.6v0.3c0,2.8-0.8,5.1-2.7,6.8C161,52.3,158.7,53.1,155.9,53.1z
	 M174.8,52.8V28.3h5.6v24.6H174.8z M186.4,37.4l-2.8-1.1l2.8-8.3l4.4,1.6L186.4,37.4z M191,52.8V34.9h4.9v2.7
	c0.4-0.8,1.1-1.7,2.1-2.3s2.1-0.8,3.4-0.8c2.5,0,4.1,1,4.9,3.1c1.4-2.1,3.4-3.1,6.1-3.1c1.7,0,3.1,0.6,4.2,1.7
	c1.1,1.1,1.7,2.8,1.7,5.1v11.4h-4.9V41.8c0-2.3-1-3.4-2.8-3.4c-1,0-1.8,0.3-2.5,1c-0.7,0.7-1,1.6-1,2.7v10.6h-4.9V41.8
	c0-2.3-1-3.4-2.8-3.4c-1,0-1.8,0.3-2.5,1s-1,1.6-1,2.7v10.6H191V52.8z M228.7,52.8V28.3h8.8c3,0,5.2,0.6,6.9,1.8
	c1.7,1.3,2.5,3.1,2.5,5.5v0.1c0,3.4-1.7,5.5-5.1,6.5l6.5,10.4h-5.9l-5.9-9.5h-2.4v9.5h-5.4V52.8z M234.2,39.6h3.1
	c2.8,0,4.2-1.1,4.2-3.5v-0.1c0-1.3-0.4-2.1-1.1-2.5c-0.7-0.6-1.7-0.8-3.1-0.8h-3.1V39.6z M254.9,53.1c-1.7,0-3.2-0.4-4.4-1.3
	c-1.1-0.8-1.7-2.3-1.7-4c0-3.8,3.1-5.8,9.3-5.8h2v-0.7c0-1.1-0.3-2-0.7-2.4c-0.4-0.6-1.1-0.8-2.3-0.8c-1.8,0-2.8,0.8-3.1,2.5h-4.4
	c0.1-2,1-3.5,2.4-4.7c1.4-1,3.4-1.6,5.6-1.6c4.9,0,7.5,2.3,7.5,6.6v11.7h-4.8v-2.1C259.1,52.3,257.3,53.1,254.9,53.1z M256.4,49.7
	c1.1,0,2-0.3,2.8-0.8c0.7-0.6,1.1-1.4,1.1-2.4v-1.6h-2c-1.6,0-2.7,0.1-3.4,0.6c-0.7,0.4-1.1,1-1.1,2C253.7,49,254.6,49.7,256.4,49.7
	z M269.3,52.8V38.4h-2.4v-3.5h2.4v-2.1c0-2.1,0.6-3.7,1.7-4.7c1.1-1.1,2.7-1.6,4.7-1.6c1,0,1.8,0.1,2.5,0.3v3.7
	c-0.6-0.1-1.1-0.3-1.8-0.3c-1.6,0-2.3,0.8-2.3,2.4v2.3h4v3.5h-4v14.4H269.3z M284.5,53.1c-1.7,0-3.2-0.4-4.4-1.3
	c-1.1-0.8-1.7-2.3-1.7-4c0-3.8,3.1-5.8,9.3-5.8h2v-0.7c0-1.1-0.3-2-0.7-2.4c-0.4-0.6-1.1-0.8-2.3-0.8c-1.8,0-2.8,0.8-3.1,2.5h-4.4
	c0.1-2,1-3.5,2.4-4.7c1.4-1,3.4-1.6,5.6-1.6c4.9,0,7.5,2.3,7.5,6.6v11.7H290v-2.1C288.8,52.3,286.9,53.1,284.5,53.1z M286.1,49.7
	c1.1,0,2-0.3,2.8-0.8c0.7-0.6,1.1-1.4,1.1-2.4v-1.6h-2c-1.6,0-2.7,0.1-3.4,0.6c-0.7,0.4-1.1,1-1.1,2C283.4,49,284.4,49.7,286.1,49.7
	z M300.9,53.1c-0.8,0-1.6-0.3-2.1-0.8c-0.6-0.6-0.8-1.3-0.8-2.1c0-0.8,0.3-1.6,0.8-2.1c0.6-0.6,1.3-0.8,2.1-0.8
	c0.8,0,1.6,0.3,2.3,0.8c0.6,0.6,0.8,1.3,0.8,2.1c0,0.8-0.3,1.6-0.8,2.1C302.4,52.8,301.7,53.1,300.9,53.1z"/>
<path class="st1" d="M26.4,35c0-15.5,12.7-28.2,28.2-28.2h6.2c5.5,0,9.9,4.4,9.9,9.9v28.1c0,5.5-4.4,9.9-9.9,9.9H36.3
	c-5.5,0-9.9-4.4-9.9-9.9V35z"/>
<path class="st2" d="M11.6,40.3C11.6,24.7,24.3,12,39.8,12h14.8c5.5,0,9.9,4.4,9.9,9.9v33.6c0,5.5-4.4,9.9-9.9,9.9H21.5
	c-5.5,0-9.9-4.4-9.9-9.9V40.3z"/>
<path class="st3" d="M0.7,44.9c0-15.5,12.7-28.2,28.2-28.2h19.6c5.5,0,9.9,4.4,9.9,9.9v35c0,5.5-4.4,9.9-9.9,9.9h-38
	c-5.5,0-9.9-4.4-9.9-9.9C0.7,61.6,0.7,44.9,0.7,44.9z"/>
<path class="st4" d="M21,50.6l-1.1,7.1c0,0.1,0.1,0.4,0.3,0.4h5.1c0.1,0,0.3-0.1,0.3-0.3l1.4-7.5c0-0.1,0.1-0.3,0.3-0.3h2.7
	c0.1,0,0.3,0.1,0.3,0.1l3.5,7.6c0,0.1,0.1,0.1,0.3,0.1h5.4c0.3,0,0.4-0.3,0.3-0.4l-4.1-7.9c-0.1-0.1,0-0.4,0.1-0.4
	c1.1-0.6,5.4-2.5,6.2-5.6c1.1-4.8-0.7-8.2-4-9.3c-2.8-1-4.9-1-8.6-1c-3.1,0-4.5,0-5.2,0c-0.1,0-0.3,0.1-0.3,0.3l-2.1,11.9
	c0,0.1-0.1,0.3-0.3,0.3h-3.8c-0.1,0-0.3,0.1-0.3,0.3l-1,3.8c0,0.1,0.1,0.4,0.3,0.4h3.8C20.9,50.1,21,50.4,21,50.6z"/>
<path class="st3" d="M28.9,37.7l-1.1,7.1h3.4c1.3,0,2.5-0.4,3.4-1.1c0.4-0.4,0.8-1,1.1-1.6c0.4-1.4,0.1-2.7-0.6-3.2
	c-0.8-0.8-1.7-1-2.5-1C31.8,37.9,28.9,37.7,28.9,37.7z"/>
</svg>
