<svg width="169" height="54" viewBox="0 0 169 54" fill="none" xmlns="http://www.w3.org/2000/svg">
<mask id="mask0_85_3540" style="mask-type:alpha" maskUnits="userSpaceOnUse" x="0" y="0" width="169" height="54">
<rect width="169" height="54" fill="#C4C4C4"/>
</mask>
<g mask="url(#mask0_85_3540)">
<path d="M99.8601 9.45948C99.816 9.40345 99.761 9.35698 99.6983 9.32292C95.573 5.88362 90.3722 4 85.0013 4C79.6303 4 74.4295 5.88362 70.3042 9.32292C70.2424 9.35666 70.188 9.40249 70.1442 9.45769C66.0355 12.9293 63.2756 17.7329 62.3458 23.0309C61.416 28.329 62.3753 33.7853 65.0564 38.4485C65.0737 38.4886 65.096 38.5263 65.1229 38.5608C67.1223 41.9806 69.9642 44.8315 73.3777 46.8417C76.9018 48.9098 80.9138 50.0001 84.9999 50.0001C89.086 50.0001 93.0981 48.9098 96.6221 46.8417C100.035 44.8312 102.877 41.9804 104.876 38.5608C104.904 38.5259 104.926 38.4875 104.943 38.4467C107.624 33.7841 108.584 28.3285 107.654 23.031C106.725 17.7336 103.966 12.9303 99.8583 9.45859L99.8601 9.45948ZM94.7803 29.8675C95.3438 27.9433 95.3269 25.8956 94.7318 23.9809C96.0255 22.9325 97.1253 21.6654 97.9814 20.2371C100.87 20.3315 103.772 21.3647 106.387 23.2298C103.53 27.3797 99.3138 29.7857 94.7803 29.8675ZM106.32 21.884C104.324 20.5884 102.171 19.7277 100 19.3603C100.347 18.084 100.523 16.7674 100.524 15.4449C100.53 13.9937 100.388 12.5457 100.1 11.1234C103.173 14.0313 105.334 17.7699 106.32 21.884V21.884ZM100.095 11.1225C100.096 11.1294 100.096 11.1363 100.095 11.1432C100.095 11.1351 100.095 11.127 100.095 11.1189V11.1225ZM94.3347 22.9154C93.5301 21.0801 92.2018 19.5231 90.5163 18.4394C90.8248 16.8065 90.8448 15.1323 90.5756 13.4926C92.8523 11.6957 95.747 10.6176 98.9598 10.366C99.454 15.4709 97.8152 19.9173 94.3347 22.9154ZM91.5297 26.8838C91.5315 27.9993 91.3692 29.1091 91.0482 30.1775C90.7557 31.1848 90.3076 32.1402 89.7203 33.0093C89.1758 33.8099 88.4656 34.4839 87.6377 34.9859C86.8431 35.4752 85.9282 35.7343 84.995 35.7343C84.0617 35.7343 83.1469 35.4752 82.3522 34.9859C81.5255 34.4847 80.8171 33.8104 80.2759 33.0093C79.6927 32.1389 79.2472 31.1837 78.9552 30.1775C78.6337 29.1092 78.4715 27.9994 78.4737 26.8838C78.47 25.7534 78.6322 24.6285 78.9552 23.5452C79.245 22.5375 79.6906 21.5814 80.2759 20.7115C80.8163 19.9143 81.5251 19.2454 82.3522 18.752C83.1492 18.2691 84.0636 18.0146 84.9954 18.0162C86.2448 18.0162 87.3751 18.4328 88.3861 19.2659C89.3972 20.0991 90.174 21.1904 90.7167 22.5398C91.2649 23.9219 91.541 25.3969 91.5297 26.8838V26.8838ZM98.029 9.37952C95.6572 9.67331 93.447 10.4082 91.5432 11.5286C90.9813 10.3125 90.2585 9.17752 89.3942 8.15406C88.5356 7.13117 87.5823 6.19172 86.547 5.34824C86.4787 5.27277 86.4114 5.1964 86.3422 5.12183C90.5693 5.3727 94.6312 6.85249 98.029 9.37952V9.37952ZM85.0017 5.28534C88.6691 8.88449 90.2719 13.3452 89.5271 17.876C88.1226 17.1723 86.5727 16.8077 85.0017 16.8114C84.5727 16.8126 84.1442 16.8405 83.7187 16.895C82.91 15.4391 81.8524 14.1361 80.594 13.0451C81.1878 10.2169 82.7107 7.53773 85.0017 5.28534ZM80.081 10.9051C78.8832 10.342 77.6162 9.93992 76.3129 9.70925C74.8835 9.45182 73.4317 9.34044 71.9797 9.37683C75.3759 6.85171 79.435 5.37233 83.6594 5.12003C82.0369 6.86031 80.8222 8.83238 80.081 10.9051ZM71.0436 10.366C76.1566 10.7667 80.2508 13.1512 82.6002 17.1043C80.6513 17.5732 78.8854 18.6097 77.5258 20.0826C75.9699 19.4863 74.3214 19.1679 72.6554 19.1419C71.2924 16.5958 70.7363 13.5644 71.0436 10.3651V10.366ZM69.9079 11.1162C69.7885 13.4845 70.1236 15.7701 70.8854 17.8302C69.6074 18.1681 68.3797 18.6735 67.2342 19.3333C65.9734 20.0548 64.7892 20.9025 63.6997 21.8633L63.7384 21.8462L63.6845 21.8795C64.6715 17.7642 66.8337 14.0246 69.9079 11.1162V11.1162ZM76.7999 20.9613C75.605 22.5724 74.9169 24.5028 74.8233 26.5064C73.2557 27.0556 71.7962 27.8748 70.5108 28.9268C67.8155 27.8487 65.4355 25.8847 63.6099 23.2298C67.7921 20.2488 72.464 19.4456 76.8026 20.9613H76.7999ZM63.0798 27.0006C63.0799 26.1712 63.1263 25.3424 63.2191 24.5182C64.6512 26.4184 66.3825 27.9601 68.2953 29.0517C67.5328 30.1338 66.9168 31.312 66.4633 32.5556C65.9619 33.9187 65.6007 35.3294 65.3852 36.7657C65.3852 36.7567 65.3933 36.7486 65.3969 36.7405C65.3969 36.7531 65.3888 36.7657 65.3843 36.7792C63.8706 33.7416 63.0818 30.3944 63.0798 27.0006V27.0006ZM74.8341 27.6484C74.9588 29.6481 75.6749 31.5656 76.8915 33.1576C76.0337 34.5884 75.4337 36.1588 75.1189 37.7971C72.3742 38.6955 69.2943 38.7162 66.2001 37.8582C67.4354 31.3293 73.0004 28.2584 74.8341 27.6484ZM66.7311 39.1025C69.067 39.6416 71.3616 39.7063 73.5188 39.3119C73.6293 40.6283 73.9136 41.9243 74.3642 43.1662C74.855 44.5332 75.4838 45.8466 76.241 47.086C76.241 47.0699 76.2338 47.0537 76.2294 47.0375L76.2554 47.1013C72.375 45.4105 69.067 42.6324 66.7311 39.1025V39.1025ZM77.6345 34.0264C79.016 35.4817 80.7982 36.4945 82.7556 36.9364C83.0171 38.58 83.5644 40.1652 84.3728 41.62C82.8455 44.0745 80.5005 46.0726 77.5752 47.4068C75.3624 42.7744 75.383 38.0343 77.6345 34.0264ZM85.0017 48.9225C82.8929 48.925 80.7949 48.6223 78.7728 48.024C80.8949 46.9459 82.7152 45.5084 84.1221 43.8085C85.0557 44.7482 86.1098 45.56 87.2568 46.2226C88.5077 46.9495 89.8292 47.5473 91.2009 48.0069L91.2306 48.0222C89.2086 48.6212 87.1105 48.9244 85.0017 48.9225V48.9225ZM83.8715 37.1242C85.8647 37.3526 87.8808 36.9813 89.6619 36.0577C90.9209 37.1411 92.3597 37.9958 93.9133 38.5832C94.3284 41.4519 93.8154 44.4985 92.4291 47.4068C87.7617 45.2811 84.7322 41.6379 83.8715 37.1242ZM93.7444 47.1031C94.6734 44.9136 95.1433 42.6442 95.1316 40.4439C96.4487 40.563 97.7758 40.5078 99.0784 40.2795C100.51 40.0328 101.912 39.6414 103.264 39.1115H103.223C103.239 39.1115 103.256 39.1052 103.272 39.1007C100.936 42.6325 97.6266 45.4119 93.7444 47.1031V47.1031ZM90.6439 35.4773C92.3117 34.3691 93.6158 32.7938 94.3931 30.9483H94.5593C96.1656 30.9465 97.76 30.6731 99.2752 30.1397C101.431 32.0678 102.999 34.7307 103.808 37.8528C98.9481 39.2023 94.1658 38.3371 90.6439 35.4773ZM104.619 36.7774C103.924 34.5043 102.822 32.4649 101.399 30.7866C102.485 30.0299 103.467 29.133 104.318 28.1191C105.254 27.0114 106.076 25.8111 106.769 24.5371L106.782 24.5209C107.258 28.7297 106.506 32.9865 104.616 36.7774H104.619Z" fill="#00544A"/>
</g>
</svg>
