<svg width="20" height="19" viewBox="0 0 20 19" fill="none" xmlns="https://www.w3.org/2000/svg">
<rect width="20" height="19" fill="#E5E5E5"/>
<rect width="1440" height="4497" transform="translate(-830 -1532)" fill="white"/>
<rect x="-830" y="-633" width="1440" height="2092" fill="white"/>
<g opacity="0.7">
<mask id="path-2-outside-1_0_1" maskUnits="userSpaceOnUse" x="0" y="-0.5" width="20" height="20" fill="black">
<rect fill="white" y="-0.5" width="20" height="20"/>
<path d="M16.6976 1.7558H15.6511V1.1279C15.6511 0.903505 15.5314 0.69622 15.3371 0.584094C15.1429 0.471969 14.9035 0.471969 14.7092 0.584094C14.515 0.69622 14.3953 0.903512 14.3953 1.1279V1.7558H12.3023V1.1279C12.3023 0.903505 12.1826 0.69622 11.9883 0.584094C11.7941 0.471969 11.5547 0.471969 11.3604 0.584094C11.1662 0.69622 11.0465 0.903512 11.0465 1.1279V1.7558H8.95351L8.95337 1.1279C8.95337 0.903505 8.83368 0.69622 8.63942 0.584094C8.44516 0.471969 8.20577 0.471969 8.01151 0.584094C7.81725 0.69622 7.69756 0.903512 7.69756 1.1279V1.7558H5.60459V1.1279C5.60459 0.903505 5.4849 0.69622 5.29064 0.584094C5.09638 0.471969 4.85699 0.471969 4.66273 0.584094C4.46848 0.69622 4.34878 0.903512 4.34878 1.1279V1.7558H3.30222C2.69183 1.75622 2.10641 1.99897 1.67473 2.43053C1.2432 2.86221 1.00043 3.44767 1 4.05803V16.1978C1.00042 16.8082 1.24317 17.3936 1.67473 17.8253C2.10641 18.2568 2.69186 18.4996 3.30222 18.5H16.6978C17.3082 18.4996 17.8936 18.2568 18.3253 17.8253C18.7568 17.3936 18.9996 16.8081 19 16.1978V4.05803C18.9996 3.44763 18.7568 2.86221 18.3253 2.43053C17.8936 1.999 17.3081 1.75623 16.6978 1.7558H16.6976ZM3.30208 3.01161H4.34863V3.63952C4.34863 3.86377 4.46833 4.07105 4.66259 4.18318C4.85685 4.29544 5.09624 4.29544 5.29049 4.18318C5.48475 4.07105 5.60444 3.86376 5.60444 3.63952V3.01161H7.69741V3.63952C7.69741 3.86377 7.81711 4.07105 8.01137 4.18318C8.20563 4.29544 8.44502 4.29544 8.63927 4.18318C8.83353 4.07105 8.95322 3.86376 8.95322 3.63952V3.01161H11.0462L11.0463 3.63952C11.0463 3.86377 11.166 4.07105 11.3603 4.18318C11.5545 4.29544 11.7939 4.29544 11.9882 4.18318C12.1825 4.07105 12.3021 3.86376 12.3021 3.63952V3.01161H14.3951V3.63952C14.3951 3.86377 14.5148 4.07105 14.7091 4.18318C14.9033 4.29544 15.1427 4.29544 15.337 4.18318C15.5312 4.07105 15.6509 3.86376 15.6509 3.63952V3.01161H16.6975C16.9749 3.01203 17.2407 3.12248 17.4369 3.31856C17.633 3.51478 17.7435 3.78066 17.7439 4.05801V5.52322H2.25579V4.05801C2.25621 3.78064 2.36666 3.51475 2.56274 3.31856C2.75896 3.12248 3.02484 3.01203 3.3022 3.01161H3.30208ZM16.6973 17.2443L3.30208 17.2441C3.0247 17.2437 2.75881 17.1332 2.56262 16.9372C2.36654 16.7409 2.25609 16.4751 2.25567 16.1977V6.77913H17.7441L17.744 16.1977C17.7436 16.4751 17.6331 16.741 17.437 16.9372C17.2408 17.1332 16.9749 17.2437 16.6976 17.2441L16.6973 17.2443Z"/>
</mask>
<path d="M16.6976 1.7558H15.6511V1.1279C15.6511 0.903505 15.5314 0.69622 15.3371 0.584094C15.1429 0.471969 14.9035 0.471969 14.7092 0.584094C14.515 0.69622 14.3953 0.903512 14.3953 1.1279V1.7558H12.3023V1.1279C12.3023 0.903505 12.1826 0.69622 11.9883 0.584094C11.7941 0.471969 11.5547 0.471969 11.3604 0.584094C11.1662 0.69622 11.0465 0.903512 11.0465 1.1279V1.7558H8.95351L8.95337 1.1279C8.95337 0.903505 8.83368 0.69622 8.63942 0.584094C8.44516 0.471969 8.20577 0.471969 8.01151 0.584094C7.81725 0.69622 7.69756 0.903512 7.69756 1.1279V1.7558H5.60459V1.1279C5.60459 0.903505 5.4849 0.69622 5.29064 0.584094C5.09638 0.471969 4.85699 0.471969 4.66273 0.584094C4.46848 0.69622 4.34878 0.903512 4.34878 1.1279V1.7558H3.30222C2.69183 1.75622 2.10641 1.99897 1.67473 2.43053C1.2432 2.86221 1.00043 3.44767 1 4.05803V16.1978C1.00042 16.8082 1.24317 17.3936 1.67473 17.8253C2.10641 18.2568 2.69186 18.4996 3.30222 18.5H16.6978C17.3082 18.4996 17.8936 18.2568 18.3253 17.8253C18.7568 17.3936 18.9996 16.8081 19 16.1978V4.05803C18.9996 3.44763 18.7568 2.86221 18.3253 2.43053C17.8936 1.999 17.3081 1.75623 16.6978 1.7558H16.6976ZM3.30208 3.01161H4.34863V3.63952C4.34863 3.86377 4.46833 4.07105 4.66259 4.18318C4.85685 4.29544 5.09624 4.29544 5.29049 4.18318C5.48475 4.07105 5.60444 3.86376 5.60444 3.63952V3.01161H7.69741V3.63952C7.69741 3.86377 7.81711 4.07105 8.01137 4.18318C8.20563 4.29544 8.44502 4.29544 8.63927 4.18318C8.83353 4.07105 8.95322 3.86376 8.95322 3.63952V3.01161H11.0462L11.0463 3.63952C11.0463 3.86377 11.166 4.07105 11.3603 4.18318C11.5545 4.29544 11.7939 4.29544 11.9882 4.18318C12.1825 4.07105 12.3021 3.86376 12.3021 3.63952V3.01161H14.3951V3.63952C14.3951 3.86377 14.5148 4.07105 14.7091 4.18318C14.9033 4.29544 15.1427 4.29544 15.337 4.18318C15.5312 4.07105 15.6509 3.86376 15.6509 3.63952V3.01161H16.6975C16.9749 3.01203 17.2407 3.12248 17.4369 3.31856C17.633 3.51478 17.7435 3.78066 17.7439 4.05801V5.52322H2.25579V4.05801C2.25621 3.78064 2.36666 3.51475 2.56274 3.31856C2.75896 3.12248 3.02484 3.01203 3.3022 3.01161H3.30208ZM16.6973 17.2443L3.30208 17.2441C3.0247 17.2437 2.75881 17.1332 2.56262 16.9372C2.36654 16.7409 2.25609 16.4751 2.25567 16.1977V6.77913H17.7441L17.744 16.1977C17.7436 16.4751 17.6331 16.741 17.437 16.9372C17.2408 17.1332 16.9749 17.2437 16.6976 17.2441L16.6973 17.2443Z" fill="#191B1D"/>
<path d="M16.6976 1.7558H15.6511V1.1279C15.6511 0.903505 15.5314 0.69622 15.3371 0.584094C15.1429 0.471969 14.9035 0.471969 14.7092 0.584094C14.515 0.69622 14.3953 0.903512 14.3953 1.1279V1.7558H12.3023V1.1279C12.3023 0.903505 12.1826 0.69622 11.9883 0.584094C11.7941 0.471969 11.5547 0.471969 11.3604 0.584094C11.1662 0.69622 11.0465 0.903512 11.0465 1.1279V1.7558H8.95351L8.95337 1.1279C8.95337 0.903505 8.83368 0.69622 8.63942 0.584094C8.44516 0.471969 8.20577 0.471969 8.01151 0.584094C7.81725 0.69622 7.69756 0.903512 7.69756 1.1279V1.7558H5.60459V1.1279C5.60459 0.903505 5.4849 0.69622 5.29064 0.584094C5.09638 0.471969 4.85699 0.471969 4.66273 0.584094C4.46848 0.69622 4.34878 0.903512 4.34878 1.1279V1.7558H3.30222C2.69183 1.75622 2.10641 1.99897 1.67473 2.43053C1.2432 2.86221 1.00043 3.44767 1 4.05803V16.1978C1.00042 16.8082 1.24317 17.3936 1.67473 17.8253C2.10641 18.2568 2.69186 18.4996 3.30222 18.5H16.6978C17.3082 18.4996 17.8936 18.2568 18.3253 17.8253C18.7568 17.3936 18.9996 16.8081 19 16.1978V4.05803C18.9996 3.44763 18.7568 2.86221 18.3253 2.43053C17.8936 1.999 17.3081 1.75623 16.6978 1.7558H16.6976ZM3.30208 3.01161H4.34863V3.63952C4.34863 3.86377 4.46833 4.07105 4.66259 4.18318C4.85685 4.29544 5.09624 4.29544 5.29049 4.18318C5.48475 4.07105 5.60444 3.86376 5.60444 3.63952V3.01161H7.69741V3.63952C7.69741 3.86377 7.81711 4.07105 8.01137 4.18318C8.20563 4.29544 8.44502 4.29544 8.63927 4.18318C8.83353 4.07105 8.95322 3.86376 8.95322 3.63952V3.01161H11.0462L11.0463 3.63952C11.0463 3.86377 11.166 4.07105 11.3603 4.18318C11.5545 4.29544 11.7939 4.29544 11.9882 4.18318C12.1825 4.07105 12.3021 3.86376 12.3021 3.63952V3.01161H14.3951V3.63952C14.3951 3.86377 14.5148 4.07105 14.7091 4.18318C14.9033 4.29544 15.1427 4.29544 15.337 4.18318C15.5312 4.07105 15.6509 3.86376 15.6509 3.63952V3.01161H16.6975C16.9749 3.01203 17.2407 3.12248 17.4369 3.31856C17.633 3.51478 17.7435 3.78066 17.7439 4.05801V5.52322H2.25579V4.05801C2.25621 3.78064 2.36666 3.51475 2.56274 3.31856C2.75896 3.12248 3.02484 3.01203 3.3022 3.01161H3.30208ZM16.6973 17.2443L3.30208 17.2441C3.0247 17.2437 2.75881 17.1332 2.56262 16.9372C2.36654 16.7409 2.25609 16.4751 2.25567 16.1977V6.77913H17.7441L17.744 16.1977C17.7436 16.4751 17.6331 16.741 17.437 16.9372C17.2408 17.1332 16.9749 17.2437 16.6976 17.2441L16.6973 17.2443Z" stroke="#191B1D" stroke-width="0.2" mask="url(#path-2-outside-1_0_1)"/>
<mask id="path-3-outside-2_0_1" maskUnits="userSpaceOnUse" x="5.87585" y="7.8877" width="8" height="6" fill="black">
<rect fill="white" x="5.87585" y="7.8877" width="8" height="6"/>
<path d="M12.0676 9.05622L9.16259 11.9606L7.93185 10.7307C7.77151 10.5813 7.54503 10.5263 7.33409 10.5855C7.12329 10.6446 6.95846 10.8095 6.89918 11.0204C6.84004 11.2313 6.89512 11.4578 7.04439 11.6182L8.71885 13.2926V13.2925C8.8363 13.4105 8.99594 13.4768 9.16258 13.4768C9.32909 13.4768 9.48873 13.4105 9.60631 13.2925L12.9551 9.9437C13.1044 9.78335 13.1594 9.55687 13.1003 9.34593C13.041 9.13513 12.8762 8.9703 12.6654 8.91102C12.4545 8.85188 12.228 8.90696 12.0676 9.05623L12.0676 9.05622Z"/>
</mask>
<path d="M12.0676 9.05622L9.16259 11.9606L7.93185 10.7307C7.77151 10.5813 7.54503 10.5263 7.33409 10.5855C7.12329 10.6446 6.95846 10.8095 6.89918 11.0204C6.84004 11.2313 6.89512 11.4578 7.04439 11.6182L8.71885 13.2926V13.2925C8.8363 13.4105 8.99594 13.4768 9.16258 13.4768C9.32909 13.4768 9.48873 13.4105 9.60631 13.2925L12.9551 9.9437C13.1044 9.78335 13.1594 9.55687 13.1003 9.34593C13.041 9.13513 12.8762 8.9703 12.6654 8.91102C12.4545 8.85188 12.228 8.90696 12.0676 9.05623L12.0676 9.05622Z" fill="#191B1D"/>
<path d="M12.0676 9.05622L9.16259 11.9606L7.93185 10.7307C7.77151 10.5813 7.54503 10.5263 7.33409 10.5855C7.12329 10.6446 6.95846 10.8095 6.89918 11.0204C6.84004 11.2313 6.89512 11.4578 7.04439 11.6182L8.71885 13.2926V13.2925C8.8363 13.4105 8.99594 13.4768 9.16258 13.4768C9.32909 13.4768 9.48873 13.4105 9.60631 13.2925L12.9551 9.9437C13.1044 9.78335 13.1594 9.55687 13.1003 9.34593C13.041 9.13513 12.8762 8.9703 12.6654 8.91102C12.4545 8.85188 12.228 8.90696 12.0676 9.05623L12.0676 9.05622Z" stroke="#191B1D" stroke-width="0.2" mask="url(#path-3-outside-2_0_1)"/>
</g>
</svg>
