<?xml version="1.0" encoding="utf-8"?>
<!-- Generator: Adobe Illustrator 24.2.3, SVG Export Plug-In . SVG Version: 6.00 Build 0)  -->
<svg version="1.1" id="Capa_1" xmlns="https://www.w3.org/2000/svg" xmlns:xlink="https://www.w3.org/1999/xlink" x="0px" y="0px"
	 viewBox="0 0 691 210" style="enable-background:new 0 0 691 210;" xml:space="preserve">
<style type="text/css">
	.st0{fill-rule:evenodd;clip-rule:evenodd;fill:#171D3C;}
	.st1{fill-rule:evenodd;clip-rule:evenodd;fill:#D50032;}
	.st2{fill-rule:evenodd;clip-rule:evenodd;fill:#FFFFFF;}
</style>
<g id="Artboard">
	<path id="Fill-1" class="st0" d="M672.3,98.1l-16.2-3.4c-4.7-1-7.7-4.7-7.7-9.1c0-6.9,4.3-13.3,14.8-13.3c7,0,14.1,4.1,20.5,11.7
		l4.1-12.1c-9.3-3.2-18.3-4.3-26.1-4.3c-17.2,0-26.8,9.4-26.8,21.1c0,7.7,5.3,16,16.6,18.4l16.5,3.6c5.8,1.3,8.8,5.8,8.8,10.4
		c0,6.8-4.7,15.1-16,15.1c-9.2,0-16.4-3.6-23.1-11.7l-4.1,12.1c9.3,3.2,18.3,4.3,27.7,4.3c17.8,0,29.6-8.7,29.6-22.2
		C691,109.2,686.1,101,672.3,98.1z M608.4,115.4c0,13.1-8.1,20.8-19.4,20.8c-13.3,0-18.5-10.1-18.5-28.4v-6.2
		c0-18.7,5.2-29.2,18.6-29.2c11.4,0,19.3,7.7,19.3,20.8V115.4z M622.3,40.6l-17.3,5c2,3.8,3.4,11.4,3.4,16.4v13.1
		c-5.2-4.9-12.6-7.6-21-7.6c-21,0-32.5,12.2-32.5,34v6.2c0,21.3,12.1,33.2,34.2,33.2c8.2,0,15.4-2.9,20.4-8.3
		c0.4,2.1,1.1,4.2,2.2,6.4h14c-2.1-4.4-3.2-10.7-3.2-17.3V40.6z M543.2,93.1c0-16.9-10.4-25.5-25.9-25.5c-9.2,0-17.8,2.7-24.1,8.8
		c-0.3-2.3-0.9-4.5-1.7-6.9h-14.6c2.1,4.4,3.2,10.7,3.2,17.3v35.1c0,6.5-1.1,12.9-3.2,17.3h20.3c-2.1-4.4-3.2-10.7-3.2-17.3
		l0.1-28.6c0-12.4,7.1-20.8,19.3-20.8c11.3,0,15.8,7.7,15.8,20.7l0.1,28.7c0,6.5-1.1,12.9-3.2,17.3h20.3c-2.1-4.4-3.2-10.7-3.2-17.3
		V93.1z M463.2,69.5H446c2,3.8,3.4,11.4,3.4,16.4l-0.1,29.5c0,12.4-7.1,20.8-19.4,20.8c-10.5,0-15.7-7.7-15.7-20.8V69.5h-15.9
		c1.2,3.8,2,11.4,2,16.4v29.5c0,16.9,11.6,25.6,25.7,25.6c9.5,0,18.3-2.9,24.1-8.9c0.4,2.3,1.1,4.6,2.3,7h14
		c-2.1-4.4-3.2-10.7-3.2-17.3V69.5z M385.1,44.8c3.3,0,7.4,3.9,10.4,10.8l5.6-13.8c-4.3-1.2-8.3-1.8-12-1.8
		c-13.9,0-23.6,8.1-23.6,24v5.5h-9.2v4.7h9.2v47.6c0,6.5-1.1,12.9-3.2,17.3h20.3c-2.1-4.4-3.2-10.7-3.2-17.3V74.2h11.9v-4.7h-11.9
		V56.4C379.3,48.6,381.8,44.8,385.1,44.8z M346.5,40.6l-17.3,5c2,3.8,3.4,11.4,3.4,16.4v59.7c0,6.5-1.1,12.9-3.2,17.3h20.3
		c-2.1-4.4-3.2-10.7-3.2-17.3V40.6z M314.7,40.6l-17.3,5c2,3.8,3.4,11.4,3.4,16.4v59.7c0,6.5-1.1,12.9-3.2,17.3H318
		c-2.1-4.4-3.2-10.7-3.2-17.3V40.6z M272.3,114.7c0,8.3-3.3,21.4-18.8,21.4c-7.4,0-12.9-5.9-12.9-16.2v-3.1
		c0-9.6,6.1-15.3,14.5-15.3h17.2V114.7z M286,92c-0.1-16.5-11.1-24.4-27.1-24.4c-8.8,0-19.1,2.4-30,7.1l3.7,14.2
		c7.5-10.8,17-16.5,24.8-16.5c8.4,0,14.8,6.4,14.8,19.7v4.7h-17.2c-18.1,0-30.1,7.5-30.1,20.2v3.1c0,13.3,11.3,21,28.5,21
		c10.1,0,15.7-3.6,19.6-8.8c0.5,2.3,1.2,4.5,2.3,6.8h14c-2.1-4.4-3.2-10.7-3.2-17.3L286,92L286,92z"/>
	<path id="Fill-2" class="st1" d="M191,104.5c0,52.7-42.8,95.5-95.5,95.5S0,157.2,0,104.5S42.8,9,95.5,9S191,51.8,191,104.5"/>
	<path id="Fill-3" class="st2" d="M28,139h52.4l-26-46.3L28,139z M91.1,139H109V69.5H91.1V139z M130.1,139H148V50h-17.9V139z"/>
</g>
</svg>
