<svg width="24" height="24" viewBox="0 0 24 24" fill="none" xmlns="https://www.w3.org/2000/svg">
<path d="M15.1117 17.2183H13.0534V16.4321H21.0576C21.6254 16.4321 22.0913 15.9664 22.0913 15.3985V4.9334C22.0913 4.36557 21.6255 3.9 21.0576 3.9H3.9334C3.36559 3.9 2.9 4.36577 2.9 4.9334V15.3985C2.9 15.9663 3.36573 16.4321 3.9334 16.4321H11.9385V17.2183H9.87927H9.87919C9.17172 17.2189 8.6083 17.7826 8.6083 18.4904V19.2038C8.6083 19.5093 8.86141 19.7614 9.16587 19.7614H15.8262C16.1318 19.7614 16.3838 19.5083 16.3838 19.2038V18.5259C16.3838 17.8102 15.8233 17.2183 15.1117 17.2183ZM4.01719 5.01633H20.976V15.316H4.01719V5.01633ZM4.01719 15.3987V15.3983C4.01719 15.3984 4.01719 15.3985 4.01719 15.3986L4.01719 15.3987ZM3.9345 5.01633H3.93497C3.93482 5.01633 3.9347 5.01633 3.9346 5.01633L3.9345 5.01633ZM9.88015 18.3345H15.1124C15.1652 18.3345 15.2006 18.3516 15.2235 18.3768C15.2473 18.4029 15.2681 18.4492 15.2681 18.5257V18.6449H9.72422V18.4891C9.72422 18.4121 9.74124 18.3804 9.75564 18.366C9.77012 18.3516 9.80225 18.3345 9.87994 18.3345H9.88015Z" fill="#5E5F61" stroke="#5E5F61" stroke-width="0.2"/>
</svg>
