<svg width="62" height="57" viewBox="0 0 62 57" fill="none" xmlns="http://www.w3.org/2000/svg">
<path d="M52.5732 32.9251C30.4816 31.2391 12.2246 36.5035 8.11853 38.4648C5.84489 39.497 5.67522 40.8045 6.01457 41.527C6.31998 42.0776 7.4059 42.4216 8.59362 41.8023C17.3488 37.0884 35.0968 33.338 52.5732 34.4046C52.9804 34.4046 53.3198 34.0606 53.3198 33.6477C53.3198 33.2692 52.9804 32.9251 52.5732 32.9251V32.9251ZM58.0367 26.3188C57.1205 27.3511 55.7631 28.1424 55.322 27.7639C54.9147 27.3855 55.322 26.1468 55.322 26.1468C57.4938 24.7361 61.7017 21.1577 61.7017 18.405C61.7017 15.8589 59.4281 15.0675 57.0187 17.4416C55.0844 19.5405 53.6591 22.0867 52.9126 24.8737C51.657 26.1124 49.6888 27.6951 47.8902 27.6951C46.974 27.6951 46.7025 27.0414 46.8382 26.1468C48.3653 26.1124 52.5732 24.9425 52.5732 21.3985C52.5732 20.8136 52.3017 20.2631 51.8945 19.8502C51.4534 19.4373 50.8765 19.2652 50.2996 19.2996C48.3992 19.2996 45.9559 21.2609 44.7682 24.0135C44.4289 23.9447 44.1234 23.8415 43.818 23.7038C44.1234 23.0157 44.3949 22.3275 44.5646 21.605C44.8361 20.1598 44.2252 19.2652 43.0375 19.3685C42.291 19.4373 41.3747 20.091 41.205 21.605C41.1372 22.3619 41.2729 23.1533 41.6123 23.8415C41.1032 25.4586 38.9653 27.4887 38.2527 27.4199C37.5401 27.3511 38.3545 24.4608 39.0671 22.3275C39.4744 21.9146 39.7798 21.4329 39.9834 20.8824C40.187 20.4695 40.0512 19.9534 39.644 19.7125C38.5581 19.2996 37.3365 19.8158 36.8614 20.8824C36.556 21.3985 36.3184 21.949 36.1148 22.4996C35.5379 23.2221 34.5877 24.1167 34.3163 24.0479C33.909 23.7726 35.2325 22.0179 35.0628 21.0544C34.9271 20.2286 34.2145 19.6781 33.4 19.7469C32.2123 19.919 30.6174 22.1899 30.6174 22.1899C30.787 21.777 30.9228 21.3297 30.9567 20.8824C30.8888 20.0222 29.2939 19.6437 28.5134 21.1921C27.9704 22.6716 27.5632 24.2199 27.3257 25.8027C26.9863 26.5253 25.6629 28.6241 24.6109 28.693C23.7625 28.7618 24.8145 24.9769 24.9502 24.7705C25.4253 24.0479 26.0022 22.534 25.8665 21.8802C25.8665 21.5706 25.7307 21.2609 25.4932 21.0544C25.2556 20.848 24.9163 20.8136 24.6109 20.8824C24.0679 21.02 23.6268 21.3641 23.3553 21.8458C22.982 21.3641 22.3712 21.1577 21.7603 21.2609C18.2651 21.6394 16.0254 27.7295 16.2629 30.5854C16.4665 32.1337 17.1791 33.0627 18.5365 32.8907C20.0636 32.6843 21.3192 30.4822 21.3192 30.4822C21.3192 30.4822 21.6585 32.3058 23.2874 32.0993C24.5091 31.7208 25.595 30.9639 26.3755 29.9316C26.3416 30.0349 26.3076 30.1381 26.3076 30.2413C26.0361 31.7897 28.5813 31.6176 28.8188 30.4477C29.5654 24.6328 31.5336 22.2243 32.1105 22.2243C32.5856 22.2243 30.8549 24.9769 31.839 26.0092C32.5856 26.9382 33.943 26.2156 35.0628 25.2522C34.8592 25.9747 34.7574 26.7317 34.7235 27.4887C34.6556 29.1058 35.2325 30.4133 36.8274 30.3789C38.9314 30.3101 41.1711 27.6951 42.6303 25.2178C43.0036 25.4586 43.4447 25.6307 43.8859 25.7339C43.7502 26.3188 43.6823 26.9038 43.7162 27.5231C43.852 29.4155 45.1754 30.1381 46.7025 30.0693C48.501 30.0004 50.605 28.6241 52.0303 27.3855C52.0303 27.4543 51.9963 27.5231 51.9624 27.5919C51.8267 28.5209 52.0303 30.2069 53.3537 30.2757C54.8808 30.4133 57.4938 28.8306 58.8172 27.2134C59.9371 26.4909 58.8512 25.4586 58.0367 26.3188V26.3188ZM59.462 18.4394C59.6317 18.4394 59.7335 18.6115 59.7335 18.7491C59.7335 20.3663 55.6274 23.8415 55.6274 23.8415C55.6274 23.8415 58.3082 18.4394 59.462 18.4394V18.4394ZM49.587 21.8458C49.7227 21.8458 49.8584 21.8802 49.9602 21.9834C50.062 22.0867 50.096 22.2243 50.062 22.3619C50.062 23.2909 48.8065 23.9791 47.4151 23.9791C48.1617 22.9125 49.0101 21.8458 49.587 21.8458ZM22.2694 24.392C22.1336 25.3554 20.4369 29.7596 19.4867 29.7596C18.299 29.8284 20.0636 23.5662 21.9979 23.6006C22.3712 23.6006 22.3712 23.8759 22.2694 24.392V24.392ZM7.4059 25.5619C8.52575 25.5619 6.48965 31.3768 6.76113 33.9229C7.03261 36.4691 9.84921 35.7465 9.6456 34.2326C9.30625 31.7552 11.0369 23.8415 12.7337 23.8415C13.9893 23.8415 11.3423 29.2779 11.8853 32.6498C12.2246 34.8863 15.2449 34.1982 14.9055 32.7875C13.9893 28.3489 17.0773 24.0479 16.6701 20.9168C16.4665 19.6093 15.7539 18.8867 14.8716 18.8867C12.021 18.8867 9.71347 24.6328 9.71347 24.6328C9.71347 24.6328 9.98495 21.3641 7.67737 21.2265C4.35175 21.0544 0.924333 29.4155 0.992203 36.9852C1.06007 39.3938 4.08028 39.0153 3.87667 37.054C3.70699 33.6821 5.67522 25.5619 7.4059 25.5619V25.5619Z" fill="#1FB6FF"/>
</svg>
