<svg width="24" height="24" viewBox="0 0 24 24" fill="none" xmlns="https://www.w3.org/2000/svg">
<path d="M17.2975 2.90339V2.9H17.1975H7.46677C6.60278 2.9 5.9 3.60276 5.9 4.46661V20.1571C5.9 21.0208 6.60278 21.7236 7.46661 21.7236H17.1973C18.0613 21.7236 18.7641 21.0208 18.7641 20.1569V4.46685C18.7641 3.6366 18.1149 2.95513 17.2975 2.90339ZM6.84484 6.66176H17.819V17.962L6.84484 17.9618V6.66176ZM7.46645 3.84484H17.1971C17.5399 3.84484 17.8189 4.12385 17.8189 4.46661V5.71676H6.84476V4.46661C6.84476 4.12383 7.12378 3.84484 7.46637 3.84484H7.46645ZM17.1975 20.7788H7.46685C7.12409 20.7788 6.84508 20.4998 6.84508 20.157V18.9069H17.8192V20.157C17.8192 20.4998 17.5402 20.7788 17.1976 20.7788H17.1975Z" fill="#5E5F61" stroke="#5E5F61" stroke-width="0.2"/>
<path d="M13.3706 19.8426V19.8426C13.3706 19.9932 13.2488 20.1151 13.0981 20.1151H11.5653C11.4147 20.1151 11.2929 19.9933 11.2929 19.8426C11.2929 19.6921 11.4146 19.5702 11.5653 19.5702H13.0981C13.2489 19.5702 13.3707 19.6921 13.3706 19.8426Z" fill="#5E5F61" stroke="#5E5F61" stroke-width="0.2"/>
<path d="M10.9232 5.25304H13.7408C14.0019 5.25304 14.2132 5.04159 14.2132 4.78062C14.2132 4.51943 14.0017 4.3082 13.7408 4.3082H10.9232C10.662 4.3082 10.4508 4.51965 10.4508 4.78062C10.4508 5.04159 10.662 5.25304 10.9232 5.25304Z" fill="#5E5F61" stroke="#5E5F61" stroke-width="0.2"/>
</svg>
