<svg width="24" height="24" viewBox="0 0 24 24" fill="none" xmlns="http://www.w3.org/2000/svg">
<g clip-path="url(#clip0_1_3)">
<path d="M4 3.05178C6.98709 3.05178 9.87624 2.90795 12.6675 3.09972C14.969 3.24354 16.8144 4.79474 17.5 7C18.1856 9.15732 17.2215 10.6743 15.6545 12.1605C15.3118 12.4961 14.92 12.7358 14.4303 13.1672C15.7035 15.6601 17.6289 18.4112 19 21H15.087L12.3247 16.0437L11.1739 13.7425H6.98709C6.98709 13.7425 6.98709 18.5071 6.98709 21C5.86081 21 5.02834 21 4 21C4 15.1033 4 9.18817 4 3.05178ZM7.08503 10.7661C9.04378 10.7661 10.7087 10.8356 12.3247 10.5C13.1571 10.3082 14 9.5554 14 8.5C14 6.91796 13.1082 6.38601 12.3247 6.19425C10.6108 5.81073 8.94584 5.92821 7.08503 5.92821C7.08503 7.60613 7.08503 9.08814 7.08503 10.7661Z" fill="black"/>
</g>
<defs>
<clipPath id="clip0_1_3">
<rect width="24" height="24" fill="white"/>
</clipPath>
</defs>
</svg>
