<svg width="57" height="57" viewBox="0 0 57 57" fill="none" xmlns="http://www.w3.org/2000/svg">
<g clip-path="url(#clip0)">
<path fill-rule="evenodd" clip-rule="evenodd" d="M9.45653 37.3271L6.57929 38.3782L6.4248 46.9378L16.3849 43.2993C12.9687 42.1518 10.474 40.1328 9.45653 37.3271" fill="#FDBD39"/>
<path fill-rule="evenodd" clip-rule="evenodd" d="M10.9616 28.2739L0.978516 31.9209L6.57862 38.3782L9.45586 37.3271C8.4414 34.5297 9.06701 31.3674 10.9616 28.2739" fill="#F69833"/>
<path fill-rule="evenodd" clip-rule="evenodd" d="M27.7622 15.9228C15.0497 20.5669 6.85402 30.1499 9.45672 37.3271L55.4929 20.5095C52.8902 13.3323 40.4747 11.2788 27.7622 15.9228Z" fill="#FECF33"/>
<path fill-rule="evenodd" clip-rule="evenodd" d="M37.1867 41.9138C49.8992 37.2697 58.1103 27.7292 55.4922 20.5095L9.45605 37.3271C12.0741 44.5468 24.4742 46.5578 37.1867 41.9138Z" fill="#EE6723"/>
<path fill-rule="evenodd" clip-rule="evenodd" d="M55.4922 20.5095L9.45605 37.3271C10.3575 39.813 13.7951 41.0376 18.6184 41.0376C23.3208 41.0376 29.3403 39.8745 35.6158 37.5819C48.3284 32.9379 57.2725 25.4189 55.4922 20.5095" fill="#F69833"/>
<path fill-rule="evenodd" clip-rule="evenodd" d="M46.33 16.7991C41.6276 16.7991 35.6082 17.9623 29.3326 20.2548C16.6201 24.8989 7.67596 32.4178 9.45627 37.3272L55.4924 20.5097C54.591 18.0238 51.1534 16.7991 46.33 16.7991" fill="#FDBD39"/>
<path fill-rule="evenodd" clip-rule="evenodd" d="M43.7882 47.3912H43.7879C42.4334 47.3912 40.4352 46.1677 37.8486 43.7548C34.7885 40.9002 31.2832 36.719 27.9782 31.9816C24.6734 27.2444 21.9577 22.5083 20.3316 18.6457C18.5598 14.4364 18.3072 11.8483 19.5807 10.9531C19.86 10.757 20.1966 10.6577 20.5811 10.6577C21.617 10.6577 23.6355 11.429 27.3679 15.1034L27.4495 15.1837L27.4385 15.2979C27.413 15.5619 27.3895 15.8282 27.3685 16.0896L27.3269 16.6087L26.9607 16.2398C22.9391 12.1882 21.1689 11.7508 20.5943 11.7508C20.4305 11.7508 20.3 11.7841 20.2065 11.8499C19.6541 12.238 19.6185 14.1391 21.3362 18.2195C22.9334 22.0133 25.6095 26.6778 28.8717 31.3536C32.134 36.0299 35.5857 40.1493 38.591 42.9529C41.8319 45.9761 43.2923 46.3026 43.7698 46.3026C43.9346 46.3026 44.0686 46.2671 44.168 46.1972C44.7507 45.7878 44.7514 43.7513 42.8358 39.3594L42.7479 39.1577L42.9404 39.0524C43.1329 38.947 43.3191 38.8432 43.4937 38.7439L43.7244 38.6128L43.8307 38.8564C45.1889 41.9684 46.4585 45.9237 44.7937 47.094C44.513 47.2912 44.1748 47.3912 43.7882 47.3912V47.3912ZM43.7879 46.9112H43.7882L43.788 47.1512L43.7879 46.9112Z" fill="#EE6723"/>
<path fill-rule="evenodd" clip-rule="evenodd" d="M37.4961 41.7826L37.4767 42.0218C37.1553 45.9986 36.3091 50.7796 34.1027 50.9731C34.0583 50.9771 34.0123 50.9791 33.9663 50.9791C32.4674 50.9791 31.0493 48.8316 29.7515 44.596C28.5236 40.5889 27.5708 35.2088 27.0686 29.4467C26.5663 23.6858 26.5738 18.2214 27.0898 14.0601C27.6521 9.52554 28.7227 7.15746 30.2717 7.02153C30.3175 7.01731 30.365 7.01514 30.4118 7.01514C31.4992 7.01514 33.1379 8.24636 34.8156 13.9812L33.7201 14.1926C33.16 12.2762 32.5496 10.7175 31.9436 9.64647C31.383 8.6558 30.8379 8.11023 30.4087 8.11023C30.3946 8.11023 30.3804 8.11082 30.3664 8.11202C29.695 8.17099 28.7172 9.79957 28.1721 14.1953C27.6654 18.2819 27.6593 23.6645 28.1549 29.3514C28.6509 35.0392 29.5881 40.339 30.794 44.2742C31.334 46.0367 31.9264 47.4893 32.507 48.475C33.0424 49.3839 33.5605 49.8845 33.9659 49.8845C33.9799 49.8845 33.9938 49.8838 34.0076 49.8827C34.65 49.8264 35.8606 48.1316 36.3701 42.169L37.4961 41.7826" fill="#EE6723"/>
</g>
<defs>
<clipPath id="clip0">
<rect width="55" height="44" fill="white" transform="translate(1 7)"/>
</clipPath>
</defs>
</svg>
