<svg width="800" height="921" viewBox="0 0 800 921" fill="none" xmlns="http://www.w3.org/2000/svg">
<rect width="800" height="921" rx="25" fill="#19406E"/>
<path d="M70.052 207.216C68.18 207.216 66.38 206.916 64.652 206.316C62.948 205.716 61.628 204.924 60.692 203.94L61.736 201.888C62.648 202.8 63.86 203.544 65.372 204.12C66.884 204.672 68.444 204.948 70.052 204.948C72.308 204.948 74 204.54 75.128 203.724C76.256 202.884 76.82 201.804 76.82 200.484C76.82 199.476 76.508 198.672 75.884 198.072C75.284 197.472 74.54 197.016 73.652 196.704C72.764 196.368 71.528 196.008 69.944 195.624C68.048 195.144 66.536 194.688 65.408 194.256C64.28 193.8 63.308 193.116 62.492 192.204C61.7 191.292 61.304 190.056 61.304 188.496C61.304 187.224 61.64 186.072 62.312 185.04C62.984 183.984 64.016 183.144 65.408 182.52C66.8 181.896 68.528 181.584 70.592 181.584C72.032 181.584 73.436 181.788 74.804 182.196C76.196 182.58 77.396 183.12 78.404 183.816L77.504 185.94C76.448 185.244 75.32 184.728 74.12 184.392C72.92 184.032 71.744 183.852 70.592 183.852C68.384 183.852 66.716 184.284 65.588 185.148C64.484 185.988 63.932 187.08 63.932 188.424C63.932 189.432 64.232 190.248 64.832 190.872C65.456 191.472 66.224 191.94 67.136 192.276C68.072 192.588 69.32 192.936 70.88 193.32C72.728 193.776 74.216 194.232 75.344 194.688C76.496 195.12 77.468 195.792 78.26 196.704C79.052 197.592 79.448 198.804 79.448 200.34C79.448 201.612 79.1 202.776 78.404 203.832C77.732 204.864 76.688 205.692 75.272 206.316C73.856 206.916 72.116 207.216 70.052 207.216ZM85.4324 188.064H87.9884V207H85.4324V188.064ZM86.7284 183.924C86.2004 183.924 85.7564 183.744 85.3964 183.384C85.0364 183.024 84.8564 182.592 84.8564 182.088C84.8564 181.608 85.0364 181.188 85.3964 180.828C85.7564 180.468 86.2004 180.288 86.7284 180.288C87.2564 180.288 87.7004 180.468 88.0604 180.828C88.4204 181.164 88.6004 181.572 88.6004 182.052C88.6004 182.58 88.4204 183.024 88.0604 183.384C87.7004 183.744 87.2564 183.924 86.7284 183.924ZM121.874 188.064L112.406 209.268C111.638 211.044 110.75 212.304 109.742 213.048C108.734 213.792 107.522 214.164 106.106 214.164C105.194 214.164 104.342 214.02 103.55 213.732C102.758 213.444 102.074 213.012 101.498 212.436L102.686 210.528C103.646 211.488 104.798 211.968 106.142 211.968C107.006 211.968 107.738 211.728 108.338 211.248C108.962 210.768 109.538 209.952 110.066 208.8L110.894 206.964L102.434 188.064H105.098L112.226 204.156L119.354 188.064H121.874ZM132.256 187.92C134.728 187.92 136.624 188.544 137.944 189.792C139.264 191.016 139.924 192.84 139.924 195.264V207H137.476V204.048C136.9 205.032 136.048 205.8 134.92 206.352C133.816 206.904 132.496 207.18 130.96 207.18C128.848 207.18 127.168 206.676 125.92 205.668C124.672 204.66 124.048 203.328 124.048 201.672C124.048 200.064 124.624 198.768 125.776 197.784C126.952 196.8 128.812 196.308 131.356 196.308H137.368V195.156C137.368 193.524 136.912 192.288 136 191.448C135.088 190.584 133.756 190.152 132.004 190.152C130.804 190.152 129.652 190.356 128.548 190.764C127.444 191.148 126.496 191.688 125.704 192.384L124.552 190.476C125.512 189.66 126.664 189.036 128.008 188.604C129.352 188.148 130.768 187.92 132.256 187.92ZM131.356 205.164C132.796 205.164 134.032 204.84 135.064 204.192C136.096 203.52 136.864 202.56 137.368 201.312V198.216H131.428C128.188 198.216 126.568 199.344 126.568 201.6C126.568 202.704 126.988 203.58 127.828 204.228C128.668 204.852 129.844 205.164 131.356 205.164ZM174.216 198.324H158.376C158.52 200.292 159.276 201.888 160.644 203.112C162.012 204.312 163.74 204.912 165.828 204.912C167.004 204.912 168.084 204.708 169.068 204.3C170.052 203.868 170.904 203.244 171.624 202.428L173.064 204.084C172.224 205.092 171.168 205.86 169.896 206.388C168.648 206.916 167.268 207.18 165.756 207.18C163.812 207.18 162.084 206.772 160.572 205.956C159.084 205.116 157.92 203.964 157.08 202.5C156.24 201.036 155.82 199.38 155.82 197.532C155.82 195.684 156.216 194.028 157.008 192.564C157.824 191.1 158.928 189.96 160.32 189.144C161.736 188.328 163.32 187.92 165.072 187.92C166.824 187.92 168.396 188.328 169.788 189.144C171.18 189.96 172.272 191.1 173.064 192.564C173.856 194.004 174.252 195.66 174.252 197.532L174.216 198.324ZM165.072 190.116C163.248 190.116 161.712 190.704 160.464 191.88C159.24 193.032 158.544 194.544 158.376 196.416H171.804C171.636 194.544 170.928 193.032 169.68 191.88C168.456 190.704 166.92 190.116 165.072 190.116ZM185.25 207.18C183.714 207.18 182.238 206.964 180.822 206.532C179.43 206.076 178.338 205.512 177.546 204.84L178.698 202.824C179.49 203.448 180.486 203.964 181.686 204.372C182.886 204.756 184.134 204.948 185.43 204.948C187.158 204.948 188.43 204.684 189.246 204.156C190.086 203.604 190.506 202.836 190.506 201.852C190.506 201.156 190.278 200.616 189.822 200.232C189.366 199.824 188.79 199.524 188.094 199.332C187.398 199.116 186.474 198.912 185.322 198.72C183.786 198.432 182.55 198.144 181.614 197.856C180.678 197.544 179.874 197.028 179.202 196.308C178.554 195.588 178.23 194.592 178.23 193.32C178.23 191.736 178.89 190.44 180.21 189.432C181.53 188.424 183.366 187.92 185.718 187.92C186.942 187.92 188.166 188.088 189.39 188.424C190.614 188.736 191.622 189.156 192.414 189.684L191.298 191.736C189.738 190.656 187.878 190.116 185.718 190.116C184.086 190.116 182.85 190.404 182.01 190.98C181.194 191.556 180.786 192.312 180.786 193.248C180.786 193.968 181.014 194.544 181.47 194.976C181.95 195.408 182.538 195.732 183.234 195.948C183.93 196.14 184.89 196.344 186.114 196.56C187.626 196.848 188.838 197.136 189.75 197.424C190.662 197.712 191.442 198.204 192.09 198.9C192.738 199.596 193.062 200.556 193.062 201.78C193.062 203.436 192.366 204.756 190.974 205.74C189.606 206.7 187.698 207.18 185.25 207.18ZM208.649 188.064H211.205V207H208.649V188.064ZM209.945 183.924C209.417 183.924 208.973 183.744 208.613 183.384C208.253 183.024 208.073 182.592 208.073 182.088C208.073 181.608 208.253 181.188 208.613 180.828C208.973 180.468 209.417 180.288 209.945 180.288C210.473 180.288 210.917 180.468 211.277 180.828C211.637 181.164 211.817 181.572 211.817 182.052C211.817 182.58 211.637 183.024 211.277 183.384C210.917 183.744 210.473 183.924 209.945 183.924ZM228.685 187.92C231.061 187.92 232.945 188.616 234.337 190.008C235.753 191.376 236.461 193.38 236.461 196.02V207H233.905V196.272C233.905 194.304 233.413 192.804 232.429 191.772C231.445 190.74 230.041 190.224 228.217 190.224C226.177 190.224 224.557 190.836 223.357 192.06C222.181 193.26 221.593 194.928 221.593 197.064V207H219.037V188.064H221.485V191.556C222.181 190.404 223.141 189.516 224.365 188.892C225.613 188.244 227.053 187.92 228.685 187.92ZM259.681 188.064L251.257 207H248.629L240.241 188.064H242.905L249.997 204.192L257.161 188.064H259.681ZM279.962 198.324H264.122C264.266 200.292 265.022 201.888 266.39 203.112C267.758 204.312 269.486 204.912 271.574 204.912C272.75 204.912 273.83 204.708 274.814 204.3C275.798 203.868 276.65 203.244 277.37 202.428L278.81 204.084C277.97 205.092 276.914 205.86 275.642 206.388C274.394 206.916 273.014 207.18 271.502 207.18C269.558 207.18 267.83 206.772 266.318 205.956C264.83 205.116 263.666 203.964 262.826 202.5C261.986 201.036 261.566 199.38 261.566 197.532C261.566 195.684 261.962 194.028 262.754 192.564C263.57 191.1 264.674 189.96 266.066 189.144C267.482 188.328 269.066 187.92 270.818 187.92C272.57 187.92 274.142 188.328 275.534 189.144C276.926 189.96 278.018 191.1 278.81 192.564C279.602 194.004 279.998 195.66 279.998 197.532L279.962 198.324ZM270.818 190.116C268.994 190.116 267.458 190.704 266.21 191.88C264.986 193.032 264.29 194.544 264.122 196.416H277.55C277.382 194.544 276.674 193.032 275.426 191.88C274.202 190.704 272.666 190.116 270.818 190.116ZM288.368 191.772C288.968 190.5 289.856 189.54 291.032 188.892C292.232 188.244 293.708 187.92 295.46 187.92V190.404L294.848 190.368C292.856 190.368 291.296 190.98 290.168 192.204C289.04 193.428 288.476 195.144 288.476 197.352V207H285.92V188.064H288.368V191.772ZM306.025 207.18C304.489 207.18 303.013 206.964 301.597 206.532C300.205 206.076 299.113 205.512 298.321 204.84L299.473 202.824C300.265 203.448 301.261 203.964 302.461 204.372C303.661 204.756 304.909 204.948 306.205 204.948C307.933 204.948 309.205 204.684 310.021 204.156C310.861 203.604 311.281 202.836 311.281 201.852C311.281 201.156 311.053 200.616 310.597 200.232C310.141 199.824 309.565 199.524 308.869 199.332C308.173 199.116 307.249 198.912 306.097 198.72C304.561 198.432 303.325 198.144 302.389 197.856C301.453 197.544 300.649 197.028 299.977 196.308C299.329 195.588 299.005 194.592 299.005 193.32C299.005 191.736 299.665 190.44 300.985 189.432C302.305 188.424 304.141 187.92 306.493 187.92C307.717 187.92 308.941 188.088 310.165 188.424C311.389 188.736 312.397 189.156 313.189 189.684L312.073 191.736C310.513 190.656 308.653 190.116 306.493 190.116C304.861 190.116 303.625 190.404 302.785 190.98C301.969 191.556 301.561 192.312 301.561 193.248C301.561 193.968 301.789 194.544 302.245 194.976C302.725 195.408 303.313 195.732 304.009 195.948C304.705 196.14 305.665 196.344 306.889 196.56C308.401 196.848 309.613 197.136 310.525 197.424C311.437 197.712 312.217 198.204 312.865 198.9C313.513 199.596 313.837 200.556 313.837 201.78C313.837 203.436 313.141 204.756 311.749 205.74C310.381 206.7 308.473 207.18 306.025 207.18ZM327.022 207.18C325.198 207.18 323.554 206.772 322.09 205.956C320.626 205.116 319.474 203.964 318.634 202.5C317.794 201.036 317.374 199.38 317.374 197.532C317.374 195.684 317.794 194.028 318.634 192.564C319.474 191.1 320.626 189.96 322.09 189.144C323.554 188.328 325.198 187.92 327.022 187.92C328.846 187.92 330.49 188.328 331.954 189.144C333.418 189.96 334.558 191.1 335.374 192.564C336.214 194.028 336.634 195.684 336.634 197.532C336.634 199.38 336.214 201.036 335.374 202.5C334.558 203.964 333.418 205.116 331.954 205.956C330.49 206.772 328.846 207.18 327.022 207.18ZM327.022 204.912C328.366 204.912 329.566 204.612 330.622 204.012C331.702 203.388 332.542 202.512 333.142 201.384C333.742 200.256 334.042 198.972 334.042 197.532C334.042 196.092 333.742 194.808 333.142 193.68C332.542 192.552 331.702 191.688 330.622 191.088C329.566 190.464 328.366 190.152 327.022 190.152C325.678 190.152 324.466 190.464 323.386 191.088C322.33 191.688 321.49 192.552 320.866 193.68C320.266 194.808 319.966 196.092 319.966 197.532C319.966 198.972 320.266 200.256 320.866 201.384C321.49 202.512 322.33 203.388 323.386 204.012C324.466 204.612 325.678 204.912 327.022 204.912ZM345.02 191.772C345.62 190.5 346.508 189.54 347.684 188.892C348.884 188.244 350.36 187.92 352.112 187.92V190.404L351.5 190.368C349.508 190.368 347.948 190.98 346.82 192.204C345.692 193.428 345.128 195.144 345.128 197.352V207H342.572V188.064H345.02V191.772ZM383.795 188.064L374.327 209.268C373.559 211.044 372.671 212.304 371.663 213.048C370.655 213.792 369.443 214.164 368.027 214.164C367.115 214.164 366.263 214.02 365.471 213.732C364.679 213.444 363.995 213.012 363.419 212.436L364.607 210.528C365.567 211.488 366.719 211.968 368.063 211.968C368.927 211.968 369.659 211.728 370.259 211.248C370.883 210.768 371.459 209.952 371.987 208.8L372.815 206.964L364.355 188.064H367.019L374.147 204.156L381.275 188.064H383.795ZM415.537 188.064V213.984H412.981V203.436C412.189 204.66 411.169 205.596 409.921 206.244C408.697 206.868 407.317 207.18 405.781 207.18C403.981 207.18 402.361 206.784 400.921 205.992C399.505 205.176 398.389 204.036 397.573 202.572C396.757 201.108 396.349 199.428 396.349 197.532C396.349 195.66 396.757 193.992 397.573 192.528C398.389 191.064 399.517 189.936 400.957 189.144C402.397 188.328 404.005 187.92 405.781 187.92C407.365 187.92 408.781 188.256 410.029 188.928C411.301 189.6 412.321 190.56 413.089 191.808V188.064H415.537ZM405.997 204.912C407.317 204.912 408.505 204.612 409.561 204.012C410.641 203.388 411.481 202.512 412.081 201.384C412.705 200.256 413.017 198.972 413.017 197.532C413.017 196.092 412.705 194.82 412.081 193.716C411.481 192.588 410.641 191.712 409.561 191.088C408.505 190.464 407.317 190.152 405.997 190.152C404.653 190.152 403.441 190.464 402.361 191.088C401.305 191.712 400.465 192.588 399.841 193.716C399.241 194.82 398.941 196.092 398.941 197.532C398.941 198.972 399.241 200.256 399.841 201.384C400.465 202.512 401.305 203.388 402.361 204.012C403.441 204.612 404.653 204.912 405.997 204.912ZM440.439 188.064V207H437.991V203.544C437.319 204.696 436.395 205.596 435.219 206.244C434.043 206.868 432.699 207.18 431.187 207.18C428.715 207.18 426.759 206.496 425.319 205.128C423.903 203.736 423.195 201.708 423.195 199.044V188.064H425.751V198.792C425.751 200.784 426.243 202.296 427.227 203.328C428.211 204.36 429.615 204.876 431.439 204.876C433.431 204.876 435.003 204.276 436.155 203.076C437.307 201.852 437.883 200.16 437.883 198V188.064H440.439ZM448.318 188.064H450.874V207H448.318V188.064ZM449.614 183.924C449.086 183.924 448.642 183.744 448.282 183.384C447.922 183.024 447.742 182.592 447.742 182.088C447.742 181.608 447.922 181.188 448.282 180.828C448.642 180.468 449.086 180.288 449.614 180.288C450.142 180.288 450.586 180.468 450.946 180.828C451.306 181.164 451.486 181.572 451.486 182.052C451.486 182.58 451.306 183.024 450.946 183.384C450.586 183.744 450.142 183.924 449.614 183.924ZM475.194 198.324H459.354C459.498 200.292 460.254 201.888 461.622 203.112C462.99 204.312 464.718 204.912 466.806 204.912C467.982 204.912 469.062 204.708 470.046 204.3C471.03 203.868 471.882 203.244 472.602 202.428L474.042 204.084C473.202 205.092 472.146 205.86 470.874 206.388C469.626 206.916 468.246 207.18 466.734 207.18C464.79 207.18 463.062 206.772 461.55 205.956C460.062 205.116 458.898 203.964 458.058 202.5C457.218 201.036 456.798 199.38 456.798 197.532C456.798 195.684 457.194 194.028 457.986 192.564C458.802 191.1 459.906 189.96 461.298 189.144C462.714 188.328 464.298 187.92 466.05 187.92C467.802 187.92 469.374 188.328 470.766 189.144C472.158 189.96 473.25 191.1 474.042 192.564C474.834 194.004 475.23 195.66 475.23 197.532L475.194 198.324ZM466.05 190.116C464.226 190.116 462.69 190.704 461.442 191.88C460.218 193.032 459.522 194.544 459.354 196.416H472.782C472.614 194.544 471.906 193.032 470.658 191.88C469.434 190.704 467.898 190.116 466.05 190.116ZM483.601 191.772C484.201 190.5 485.089 189.54 486.265 188.892C487.465 188.244 488.941 187.92 490.693 187.92V190.404L490.081 190.368C488.089 190.368 486.529 190.98 485.401 192.204C484.273 193.428 483.709 195.144 483.709 197.352V207H481.153V188.064H483.601V191.772ZM512.353 198.324H496.513C496.657 200.292 497.413 201.888 498.781 203.112C500.149 204.312 501.877 204.912 503.965 204.912C505.141 204.912 506.221 204.708 507.205 204.3C508.189 203.868 509.041 203.244 509.761 202.428L511.201 204.084C510.361 205.092 509.305 205.86 508.033 206.388C506.785 206.916 505.405 207.18 503.893 207.18C501.949 207.18 500.221 206.772 498.709 205.956C497.221 205.116 496.057 203.964 495.217 202.5C494.377 201.036 493.957 199.38 493.957 197.532C493.957 195.684 494.353 194.028 495.145 192.564C495.961 191.1 497.065 189.96 498.457 189.144C499.873 188.328 501.457 187.92 503.209 187.92C504.961 187.92 506.533 188.328 507.925 189.144C509.317 189.96 510.409 191.1 511.201 192.564C511.993 194.004 512.389 195.66 512.389 197.532L512.353 198.324ZM503.209 190.116C501.385 190.116 499.849 190.704 498.601 191.88C497.377 193.032 496.681 194.544 496.513 196.416H509.941C509.773 194.544 509.065 193.032 507.817 191.88C506.593 190.704 505.057 190.116 503.209 190.116ZM530.901 191.772C531.501 190.5 532.389 189.54 533.565 188.892C534.765 188.244 536.241 187.92 537.993 187.92V190.404L537.381 190.368C535.389 190.368 533.829 190.98 532.701 192.204C531.573 193.428 531.009 195.144 531.009 197.352V207H528.453V188.064H530.901V191.772ZM559.653 198.324H543.813C543.957 200.292 544.713 201.888 546.081 203.112C547.449 204.312 549.177 204.912 551.265 204.912C552.441 204.912 553.521 204.708 554.505 204.3C555.489 203.868 556.341 203.244 557.061 202.428L558.501 204.084C557.661 205.092 556.605 205.86 555.333 206.388C554.085 206.916 552.705 207.18 551.193 207.18C549.249 207.18 547.521 206.772 546.009 205.956C544.521 205.116 543.357 203.964 542.517 202.5C541.677 201.036 541.257 199.38 541.257 197.532C541.257 195.684 541.653 194.028 542.445 192.564C543.261 191.1 544.365 189.96 545.757 189.144C547.173 188.328 548.757 187.92 550.509 187.92C552.261 187.92 553.833 188.328 555.225 189.144C556.617 189.96 557.709 191.1 558.501 192.564C559.293 194.004 559.689 195.66 559.689 197.532L559.653 198.324ZM550.509 190.116C548.685 190.116 547.149 190.704 545.901 191.88C544.677 193.032 543.981 194.544 543.813 196.416H557.241C557.073 194.544 556.365 193.032 555.117 191.88C553.893 190.704 552.357 190.116 550.509 190.116ZM571.709 187.92C574.181 187.92 576.077 188.544 577.397 189.792C578.717 191.016 579.377 192.84 579.377 195.264V207H576.929V204.048C576.353 205.032 575.501 205.8 574.373 206.352C573.269 206.904 571.949 207.18 570.413 207.18C568.301 207.18 566.621 206.676 565.373 205.668C564.125 204.66 563.501 203.328 563.501 201.672C563.501 200.064 564.077 198.768 565.229 197.784C566.405 196.8 568.265 196.308 570.809 196.308H576.821V195.156C576.821 193.524 576.365 192.288 575.453 191.448C574.541 190.584 573.209 190.152 571.457 190.152C570.257 190.152 569.105 190.356 568.001 190.764C566.897 191.148 565.949 191.688 565.157 192.384L564.005 190.476C564.965 189.66 566.117 189.036 567.461 188.604C568.805 188.148 570.221 187.92 571.709 187.92ZM570.809 205.164C572.249 205.164 573.485 204.84 574.517 204.192C575.549 203.52 576.317 202.56 576.821 201.312V198.216H570.881C567.641 198.216 566.021 199.344 566.021 201.6C566.021 202.704 566.441 203.58 567.281 204.228C568.121 204.852 569.297 205.164 570.809 205.164ZM587.039 180.288H589.595V207H587.039V180.288ZM597.427 188.064H599.983V207H597.427V188.064ZM598.723 183.924C598.195 183.924 597.751 183.744 597.391 183.384C597.031 183.024 596.851 182.592 596.851 182.088C596.851 181.608 597.031 181.188 597.391 180.828C597.751 180.468 598.195 180.288 598.723 180.288C599.251 180.288 599.695 180.468 600.055 180.828C600.415 181.164 600.595 181.572 600.595 182.052C600.595 182.58 600.415 183.024 600.055 183.384C599.695 183.744 599.251 183.924 598.723 183.924ZM621.171 204.876V207H605.763V205.308L617.679 190.224H605.979V188.064H620.955V189.756L609.039 204.876H621.171ZM633.546 187.92C636.018 187.92 637.914 188.544 639.234 189.792C640.554 191.016 641.214 192.84 641.214 195.264V207H638.766V204.048C638.19 205.032 637.338 205.8 636.21 206.352C635.106 206.904 633.786 207.18 632.25 207.18C630.138 207.18 628.458 206.676 627.21 205.668C625.962 204.66 625.338 203.328 625.338 201.672C625.338 200.064 625.914 198.768 627.066 197.784C628.242 196.8 630.102 196.308 632.646 196.308H638.658V195.156C638.658 193.524 638.202 192.288 637.29 191.448C636.378 190.584 635.046 190.152 633.294 190.152C632.094 190.152 630.942 190.356 629.838 190.764C628.734 191.148 627.786 191.688 626.994 192.384L625.842 190.476C626.802 189.66 627.954 189.036 629.298 188.604C630.642 188.148 632.058 187.92 633.546 187.92ZM632.646 205.164C634.086 205.164 635.322 204.84 636.354 204.192C637.386 203.52 638.154 202.56 638.658 201.312V198.216H632.718C629.478 198.216 627.858 199.344 627.858 201.6C627.858 202.704 628.278 203.58 629.118 204.228C629.958 204.852 631.134 205.164 632.646 205.164ZM651.324 191.772C651.924 190.5 652.812 189.54 653.988 188.892C655.188 188.244 656.664 187.92 658.416 187.92V190.404L657.804 190.368C655.812 190.368 654.252 190.98 653.124 192.204C651.996 193.428 651.432 195.144 651.432 197.352V207H648.876V188.064H651.324V191.772ZM79.628 232.064V251H77.18V247.544C76.508 248.696 75.584 249.596 74.408 250.244C73.232 250.868 71.888 251.18 70.376 251.18C67.904 251.18 65.948 250.496 64.508 249.128C63.092 247.736 62.384 245.708 62.384 243.044V232.064H64.94V242.792C64.94 244.784 65.432 246.296 66.416 247.328C67.4 248.36 68.804 248.876 70.628 248.876C72.62 248.876 74.192 248.276 75.344 247.076C76.496 245.852 77.072 244.16 77.072 242V232.064H79.628ZM97.1547 231.92C99.5307 231.92 101.415 232.616 102.807 234.008C104.223 235.376 104.931 237.38 104.931 240.02V251H102.375V240.272C102.375 238.304 101.883 236.804 100.899 235.772C99.9147 234.74 98.5107 234.224 96.6867 234.224C94.6467 234.224 93.0267 234.836 91.8267 236.06C90.6507 237.26 90.0627 238.928 90.0627 241.064V251H87.5067V232.064H89.9547V235.556C90.6507 234.404 91.6107 233.516 92.8347 232.892C94.0827 232.244 95.5227 231.92 97.1547 231.92ZM119.214 231.92C121.686 231.92 123.582 232.544 124.902 233.792C126.222 235.016 126.882 236.84 126.882 239.264V251H124.434V248.048C123.858 249.032 123.006 249.8 121.878 250.352C120.774 250.904 119.454 251.18 117.918 251.18C115.806 251.18 114.126 250.676 112.878 249.668C111.63 248.66 111.006 247.328 111.006 245.672C111.006 244.064 111.582 242.768 112.734 241.784C113.91 240.8 115.77 240.308 118.314 240.308H124.326V239.156C124.326 237.524 123.87 236.288 122.958 235.448C122.046 234.584 120.714 234.152 118.962 234.152C117.762 234.152 116.61 234.356 115.506 234.764C114.402 235.148 113.454 235.688 112.662 236.384L111.51 234.476C112.47 233.66 113.622 233.036 114.966 232.604C116.31 232.148 117.726 231.92 119.214 231.92ZM118.314 249.164C119.754 249.164 120.99 248.84 122.022 248.192C123.054 247.52 123.822 246.56 124.326 245.312V242.216H118.386C115.146 242.216 113.526 243.344 113.526 245.6C113.526 246.704 113.946 247.58 114.786 248.228C115.626 248.852 116.802 249.164 118.314 249.164ZM152.426 251.18C150.602 251.18 148.958 250.772 147.494 249.956C146.03 249.116 144.878 247.964 144.038 246.5C143.198 245.036 142.778 243.38 142.778 241.532C142.778 239.684 143.198 238.028 144.038 236.564C144.878 235.1 146.03 233.96 147.494 233.144C148.958 232.328 150.602 231.92 152.426 231.92C154.25 231.92 155.894 232.328 157.358 233.144C158.822 233.96 159.962 235.1 160.778 236.564C161.618 238.028 162.038 239.684 162.038 241.532C162.038 243.38 161.618 245.036 160.778 246.5C159.962 247.964 158.822 249.116 157.358 249.956C155.894 250.772 154.25 251.18 152.426 251.18ZM152.426 248.912C153.77 248.912 154.97 248.612 156.026 248.012C157.106 247.388 157.946 246.512 158.546 245.384C159.146 244.256 159.446 242.972 159.446 241.532C159.446 240.092 159.146 238.808 158.546 237.68C157.946 236.552 157.106 235.688 156.026 235.088C154.97 234.464 153.77 234.152 152.426 234.152C151.082 234.152 149.87 234.464 148.79 235.088C147.734 235.688 146.894 236.552 146.27 237.68C145.67 238.808 145.37 240.092 145.37 241.532C145.37 242.972 145.67 244.256 146.27 245.384C146.894 246.512 147.734 247.388 148.79 248.012C149.87 248.612 151.082 248.912 152.426 248.912ZM177.732 231.92C179.508 231.92 181.116 232.328 182.556 233.144C183.996 233.936 185.124 235.064 185.941 236.528C186.756 237.992 187.164 239.66 187.164 241.532C187.164 243.428 186.756 245.108 185.941 246.572C185.124 248.036 183.996 249.176 182.556 249.992C181.14 250.784 179.532 251.18 177.732 251.18C176.196 251.18 174.804 250.868 173.556 250.244C172.332 249.596 171.324 248.66 170.532 247.436V257.984H167.976V232.064H170.424V235.808C171.192 234.56 172.2 233.6 173.448 232.928C174.72 232.256 176.148 231.92 177.732 231.92ZM177.552 248.912C178.872 248.912 180.072 248.612 181.152 248.012C182.233 247.388 183.072 246.512 183.672 245.384C184.296 244.256 184.609 242.972 184.609 241.532C184.609 240.092 184.296 238.82 183.672 237.716C183.072 236.588 182.233 235.712 181.152 235.088C180.072 234.464 178.872 234.152 177.552 234.152C176.208 234.152 174.996 234.464 173.916 235.088C172.86 235.712 172.02 236.588 171.396 237.716C170.796 238.82 170.496 240.092 170.496 241.532C170.496 242.972 170.796 244.256 171.396 245.384C172.02 246.512 172.86 247.388 173.916 248.012C174.996 248.612 176.208 248.912 177.552 248.912ZM209.583 242.324H193.743C193.887 244.292 194.643 245.888 196.011 247.112C197.379 248.312 199.107 248.912 201.195 248.912C202.371 248.912 203.451 248.708 204.435 248.3C205.419 247.868 206.271 247.244 206.991 246.428L208.431 248.084C207.591 249.092 206.535 249.86 205.263 250.388C204.015 250.916 202.635 251.18 201.123 251.18C199.179 251.18 197.451 250.772 195.939 249.956C194.451 249.116 193.287 247.964 192.447 246.5C191.607 245.036 191.187 243.38 191.187 241.532C191.187 239.684 191.583 238.028 192.375 236.564C193.191 235.1 194.295 233.96 195.687 233.144C197.103 232.328 198.687 231.92 200.439 231.92C202.191 231.92 203.763 232.328 205.155 233.144C206.547 233.96 207.639 235.1 208.431 236.564C209.223 238.004 209.619 239.66 209.619 241.532L209.583 242.324ZM200.439 234.116C198.615 234.116 197.079 234.704 195.831 235.88C194.607 237.032 193.911 238.544 193.743 240.416H207.171C207.003 238.544 206.295 237.032 205.047 235.88C203.823 234.704 202.287 234.116 200.439 234.116ZM217.989 235.772C218.589 234.5 219.477 233.54 220.653 232.892C221.853 232.244 223.329 231.92 225.081 231.92V234.404L224.469 234.368C222.477 234.368 220.917 234.98 219.789 236.204C218.661 237.428 218.097 239.144 218.097 241.352V251H215.541V232.064H217.989V235.772ZM237.018 231.92C239.49 231.92 241.386 232.544 242.706 233.792C244.026 235.016 244.686 236.84 244.686 239.264V251H242.238V248.048C241.662 249.032 240.81 249.8 239.682 250.352C238.578 250.904 237.258 251.18 235.722 251.18C233.61 251.18 231.93 250.676 230.682 249.668C229.434 248.66 228.81 247.328 228.81 245.672C228.81 244.064 229.386 242.768 230.538 241.784C231.714 240.8 233.574 240.308 236.118 240.308H242.13V239.156C242.13 237.524 241.674 236.288 240.762 235.448C239.85 234.584 238.518 234.152 236.766 234.152C235.566 234.152 234.414 234.356 233.31 234.764C232.206 235.148 231.258 235.688 230.466 236.384L229.314 234.476C230.274 233.66 231.426 233.036 232.77 232.604C234.114 232.148 235.53 231.92 237.018 231.92ZM236.118 249.164C237.558 249.164 238.794 248.84 239.826 248.192C240.858 247.52 241.626 246.56 242.13 245.312V242.216H236.19C232.95 242.216 231.33 243.344 231.33 245.6C231.33 246.704 231.75 247.58 232.59 248.228C233.43 248.852 234.606 249.164 236.118 249.164ZM260.267 251.18C258.395 251.18 256.715 250.772 255.227 249.956C253.763 249.14 252.611 248 251.771 246.536C250.931 245.048 250.511 243.38 250.511 241.532C250.511 239.684 250.931 238.028 251.771 236.564C252.611 235.1 253.763 233.96 255.227 233.144C256.715 232.328 258.395 231.92 260.267 231.92C261.899 231.92 263.351 232.244 264.623 232.892C265.919 233.516 266.939 234.44 267.683 235.664L265.775 236.96C265.151 236.024 264.359 235.328 263.399 234.872C262.439 234.392 261.395 234.152 260.267 234.152C258.899 234.152 257.663 234.464 256.559 235.088C255.479 235.688 254.627 236.552 254.003 237.68C253.403 238.808 253.103 240.092 253.103 241.532C253.103 242.996 253.403 244.292 254.003 245.42C254.627 246.524 255.479 247.388 256.559 248.012C257.663 248.612 258.899 248.912 260.267 248.912C261.395 248.912 262.439 248.684 263.399 248.228C264.359 247.772 265.151 247.076 265.775 246.14L267.683 247.436C266.939 248.66 265.919 249.596 264.623 250.244C263.327 250.868 261.875 251.18 260.267 251.18ZM273.424 232.064H275.98V251H273.424V232.064ZM274.72 227.924C274.192 227.924 273.748 227.744 273.388 227.384C273.028 227.024 272.848 226.592 272.848 226.088C272.848 225.608 273.028 225.188 273.388 224.828C273.748 224.468 274.192 224.288 274.72 224.288C275.248 224.288 275.692 224.468 276.052 224.828C276.412 225.164 276.592 225.572 276.592 226.052C276.592 226.58 276.412 227.024 276.052 227.384C275.692 227.744 275.248 227.924 274.72 227.924ZM291.552 251.18C289.728 251.18 288.084 250.772 286.62 249.956C285.156 249.116 284.004 247.964 283.164 246.5C282.324 245.036 281.904 243.38 281.904 241.532C281.904 239.684 282.324 238.028 283.164 236.564C284.004 235.1 285.156 233.96 286.62 233.144C288.084 232.328 289.728 231.92 291.552 231.92C293.376 231.92 295.02 232.328 296.484 233.144C297.948 233.96 299.088 235.1 299.904 236.564C300.744 238.028 301.164 239.684 301.164 241.532C301.164 243.38 300.744 245.036 299.904 246.5C299.088 247.964 297.948 249.116 296.484 249.956C295.02 250.772 293.376 251.18 291.552 251.18ZM291.552 248.912C292.896 248.912 294.096 248.612 295.152 248.012C296.232 247.388 297.072 246.512 297.672 245.384C298.272 244.256 298.572 242.972 298.572 241.532C298.572 240.092 298.272 238.808 297.672 237.68C297.072 236.552 296.232 235.688 295.152 235.088C294.096 234.464 292.896 234.152 291.552 234.152C290.208 234.152 288.996 234.464 287.916 235.088C286.86 235.688 286.02 236.552 285.396 237.68C284.796 238.808 284.496 240.092 284.496 241.532C284.496 242.972 284.796 244.256 285.396 245.384C286.02 246.512 286.86 247.388 287.916 248.012C288.996 248.612 290.208 248.912 291.552 248.912ZM294.108 224.648H297.528L291.696 229.112H289.176L294.108 224.648ZM316.75 231.92C319.126 231.92 321.01 232.616 322.402 234.008C323.818 235.376 324.526 237.38 324.526 240.02V251H321.97V240.272C321.97 238.304 321.478 236.804 320.494 235.772C319.51 234.74 318.106 234.224 316.282 234.224C314.242 234.224 312.622 234.836 311.422 236.06C310.246 237.26 309.658 238.928 309.658 241.064V251H307.102V232.064H309.55V235.556C310.246 234.404 311.206 233.516 312.43 232.892C313.678 232.244 315.118 231.92 316.75 231.92ZM348.952 231.92C351.424 231.92 353.32 232.544 354.64 233.792C355.96 235.016 356.62 236.84 356.62 239.264V251H354.172V248.048C353.596 249.032 352.744 249.8 351.616 250.352C350.512 250.904 349.192 251.18 347.656 251.18C345.544 251.18 343.864 250.676 342.616 249.668C341.368 248.66 340.744 247.328 340.744 245.672C340.744 244.064 341.32 242.768 342.472 241.784C343.648 240.8 345.508 240.308 348.052 240.308H354.064V239.156C354.064 237.524 353.608 236.288 352.696 235.448C351.784 234.584 350.452 234.152 348.7 234.152C347.5 234.152 346.348 234.356 345.244 234.764C344.14 235.148 343.192 235.688 342.4 236.384L341.248 234.476C342.208 233.66 343.36 233.036 344.704 232.604C346.048 232.148 347.464 231.92 348.952 231.92ZM348.052 249.164C349.492 249.164 350.728 248.84 351.76 248.192C352.792 247.52 353.56 246.56 354.064 245.312V242.216H348.124C344.884 242.216 343.264 243.344 343.264 245.6C343.264 246.704 343.684 247.58 344.524 248.228C345.364 248.852 346.54 249.164 348.052 249.164ZM381.632 224.288V251H379.184V247.256C378.416 248.528 377.396 249.5 376.124 250.172C374.876 250.844 373.46 251.18 371.876 251.18C370.1 251.18 368.492 250.772 367.052 249.956C365.612 249.14 364.484 248 363.668 246.536C362.852 245.072 362.444 243.404 362.444 241.532C362.444 239.66 362.852 237.992 363.668 236.528C364.484 235.064 365.612 233.936 367.052 233.144C368.492 232.328 370.1 231.92 371.876 231.92C373.412 231.92 374.792 232.244 376.016 232.892C377.264 233.516 378.284 234.44 379.076 235.664V224.288H381.632ZM372.092 248.912C373.412 248.912 374.6 248.612 375.656 248.012C376.736 247.388 377.576 246.512 378.176 245.384C378.8 244.256 379.112 242.972 379.112 241.532C379.112 240.092 378.8 238.808 378.176 237.68C377.576 236.552 376.736 235.688 375.656 235.088C374.6 234.464 373.412 234.152 372.092 234.152C370.748 234.152 369.536 234.464 368.456 235.088C367.4 235.688 366.56 236.552 365.936 237.68C365.336 238.808 365.036 240.092 365.036 241.532C365.036 242.972 365.336 244.256 365.936 245.384C366.56 246.512 367.4 247.388 368.456 248.012C369.536 248.612 370.748 248.912 372.092 248.912ZM389.471 232.064H392.027V251H389.471V232.064ZM390.767 227.924C390.239 227.924 389.795 227.744 389.435 227.384C389.075 227.024 388.895 226.592 388.895 226.088C388.895 225.608 389.075 225.188 389.435 224.828C389.795 224.468 390.239 224.288 390.767 224.288C391.295 224.288 391.739 224.468 392.099 224.828C392.459 225.164 392.639 225.572 392.639 226.052C392.639 226.58 392.459 227.024 392.099 227.384C391.739 227.744 391.295 227.924 390.767 227.924ZM407.707 251.18C405.835 251.18 404.155 250.772 402.667 249.956C401.203 249.14 400.051 248 399.211 246.536C398.371 245.048 397.951 243.38 397.951 241.532C397.951 239.684 398.371 238.028 399.211 236.564C400.051 235.1 401.203 233.96 402.667 233.144C404.155 232.328 405.835 231.92 407.707 231.92C409.339 231.92 410.791 232.244 412.063 232.892C413.359 233.516 414.379 234.44 415.123 235.664L413.215 236.96C412.591 236.024 411.799 235.328 410.839 234.872C409.879 234.392 408.835 234.152 407.707 234.152C406.339 234.152 405.103 234.464 403.999 235.088C402.919 235.688 402.067 236.552 401.443 237.68C400.843 238.808 400.543 240.092 400.543 241.532C400.543 242.996 400.843 244.292 401.443 245.42C402.067 246.524 402.919 247.388 403.999 248.012C405.103 248.612 406.339 248.912 407.707 248.912C408.835 248.912 409.879 248.684 410.839 248.228C411.799 247.772 412.591 247.076 413.215 246.14L415.123 247.436C414.379 248.66 413.359 249.596 412.063 250.244C410.767 250.868 409.315 251.18 407.707 251.18ZM420.864 232.064H423.42V251H420.864V232.064ZM422.16 227.924C421.632 227.924 421.188 227.744 420.828 227.384C420.468 227.024 420.288 226.592 420.288 226.088C420.288 225.608 420.468 225.188 420.828 224.828C421.188 224.468 421.632 224.288 422.16 224.288C422.688 224.288 423.132 224.468 423.492 224.828C423.852 225.164 424.032 225.572 424.032 226.052C424.032 226.58 423.852 227.024 423.492 227.384C423.132 227.744 422.688 227.924 422.16 227.924ZM438.992 251.18C437.168 251.18 435.524 250.772 434.06 249.956C432.596 249.116 431.444 247.964 430.604 246.5C429.764 245.036 429.344 243.38 429.344 241.532C429.344 239.684 429.764 238.028 430.604 236.564C431.444 235.1 432.596 233.96 434.06 233.144C435.524 232.328 437.168 231.92 438.992 231.92C440.816 231.92 442.46 232.328 443.924 233.144C445.388 233.96 446.528 235.1 447.344 236.564C448.184 238.028 448.604 239.684 448.604 241.532C448.604 243.38 448.184 245.036 447.344 246.5C446.528 247.964 445.388 249.116 443.924 249.956C442.46 250.772 440.816 251.18 438.992 251.18ZM438.992 248.912C440.336 248.912 441.536 248.612 442.592 248.012C443.672 247.388 444.512 246.512 445.112 245.384C445.712 244.256 446.012 242.972 446.012 241.532C446.012 240.092 445.712 238.808 445.112 237.68C444.512 236.552 443.672 235.688 442.592 235.088C441.536 234.464 440.336 234.152 438.992 234.152C437.648 234.152 436.436 234.464 435.356 235.088C434.3 235.688 433.46 236.552 432.836 237.68C432.236 238.808 431.936 240.092 431.936 241.532C431.936 242.972 432.236 244.256 432.836 245.384C433.46 246.512 434.3 247.388 435.356 248.012C436.436 248.612 437.648 248.912 438.992 248.912ZM464.19 231.92C466.566 231.92 468.45 232.616 469.842 234.008C471.258 235.376 471.966 237.38 471.966 240.02V251H469.41V240.272C469.41 238.304 468.918 236.804 467.934 235.772C466.95 234.74 465.546 234.224 463.722 234.224C461.682 234.224 460.062 234.836 458.862 236.06C457.686 237.26 457.098 238.928 457.098 241.064V251H454.542V232.064H456.99V235.556C457.686 234.404 458.646 233.516 459.87 232.892C461.118 232.244 462.558 231.92 464.19 231.92ZM486.249 231.92C488.721 231.92 490.617 232.544 491.937 233.792C493.257 235.016 493.917 236.84 493.917 239.264V251H491.469V248.048C490.893 249.032 490.041 249.8 488.913 250.352C487.809 250.904 486.489 251.18 484.953 251.18C482.841 251.18 481.161 250.676 479.913 249.668C478.665 248.66 478.041 247.328 478.041 245.672C478.041 244.064 478.617 242.768 479.769 241.784C480.945 240.8 482.805 240.308 485.349 240.308H491.361V239.156C491.361 237.524 490.905 236.288 489.993 235.448C489.081 234.584 487.749 234.152 485.997 234.152C484.797 234.152 483.645 234.356 482.541 234.764C481.437 235.148 480.489 235.688 479.697 236.384L478.545 234.476C479.505 233.66 480.657 233.036 482.001 232.604C483.345 232.148 484.761 231.92 486.249 231.92ZM485.349 249.164C486.789 249.164 488.025 248.84 489.057 248.192C490.089 247.52 490.857 246.56 491.361 245.312V242.216H485.421C482.181 242.216 480.561 243.344 480.561 245.6C480.561 246.704 480.981 247.58 481.821 248.228C482.661 248.852 483.837 249.164 485.349 249.164ZM501.58 224.288H504.136V251H501.58V224.288ZM512.256 247.256C512.808 247.256 513.264 247.448 513.624 247.832C513.984 248.192 514.164 248.648 514.164 249.2C514.164 249.488 514.116 249.8 514.02 250.136C513.948 250.472 513.828 250.856 513.66 251.288L512.148 256.256H510.42L511.644 251.036C511.26 250.916 510.948 250.7 510.708 250.388C510.468 250.052 510.348 249.656 510.348 249.2C510.348 248.648 510.528 248.192 510.888 247.832C511.248 247.448 511.704 247.256 512.256 247.256ZM540.107 231.92C542.483 231.92 544.367 232.616 545.759 234.008C547.175 235.376 547.883 237.38 547.883 240.02V251H545.327V240.272C545.327 238.304 544.835 236.804 543.851 235.772C542.867 234.74 541.463 234.224 539.639 234.224C537.599 234.224 535.979 234.836 534.779 236.06C533.603 237.26 533.015 238.928 533.015 241.064V251H530.459V224.288H533.015V235.376C533.711 234.272 534.671 233.42 535.895 232.82C537.119 232.22 538.523 231.92 540.107 231.92ZM562.166 231.92C564.638 231.92 566.534 232.544 567.854 233.792C569.174 235.016 569.834 236.84 569.834 239.264V251H567.386V248.048C566.81 249.032 565.958 249.8 564.83 250.352C563.726 250.904 562.406 251.18 560.87 251.18C558.758 251.18 557.078 250.676 555.83 249.668C554.582 248.66 553.958 247.328 553.958 245.672C553.958 244.064 554.534 242.768 555.686 241.784C556.862 240.8 558.722 240.308 561.266 240.308H567.278V239.156C567.278 237.524 566.822 236.288 565.91 235.448C564.998 234.584 563.666 234.152 561.914 234.152C560.714 234.152 559.562 234.356 558.458 234.764C557.354 235.148 556.406 235.688 555.614 236.384L554.462 234.476C555.422 233.66 556.574 233.036 557.918 232.604C559.262 232.148 560.678 231.92 562.166 231.92ZM561.266 249.164C562.706 249.164 563.942 248.84 564.974 248.192C566.006 247.52 566.774 246.56 567.278 245.312V242.216H561.338C558.098 242.216 556.478 243.344 556.478 245.6C556.478 246.704 556.898 247.58 557.738 248.228C558.578 248.852 559.754 249.164 561.266 249.164ZM595.099 232.064V248.696C595.099 251.912 594.307 254.288 592.723 255.824C591.163 257.384 588.799 258.164 585.631 258.164C583.879 258.164 582.211 257.9 580.627 257.372C579.067 256.868 577.795 256.16 576.811 255.248L578.107 253.304C579.019 254.12 580.123 254.756 581.419 255.212C582.739 255.668 584.119 255.896 585.559 255.896C587.959 255.896 589.723 255.332 590.851 254.204C591.979 253.1 592.543 251.372 592.543 249.02V246.608C591.751 247.808 590.707 248.72 589.411 249.344C588.139 249.968 586.723 250.28 585.163 250.28C583.387 250.28 581.767 249.896 580.303 249.128C578.863 248.336 577.723 247.244 576.883 245.852C576.067 244.436 575.659 242.84 575.659 241.064C575.659 239.288 576.067 237.704 576.883 236.312C577.723 234.92 578.863 233.84 580.303 233.072C581.743 232.304 583.363 231.92 585.163 231.92C586.771 231.92 588.223 232.244 589.519 232.892C590.815 233.54 591.859 234.476 592.651 235.7V232.064H595.099ZM585.415 248.012C586.783 248.012 588.019 247.724 589.123 247.148C590.227 246.548 591.079 245.72 591.679 244.664C592.303 243.608 592.615 242.408 592.615 241.064C592.615 239.72 592.303 238.532 591.679 237.5C591.079 236.444 590.227 235.628 589.123 235.052C588.043 234.452 586.807 234.152 585.415 234.152C584.047 234.152 582.811 234.44 581.707 235.016C580.627 235.592 579.775 236.408 579.151 237.464C578.551 238.52 578.251 239.72 578.251 241.064C578.251 242.408 578.551 243.608 579.151 244.664C579.775 245.72 580.627 246.548 581.707 247.148C582.811 247.724 584.047 248.012 585.415 248.012ZM609.59 231.92C612.062 231.92 613.958 232.544 615.278 233.792C616.598 235.016 617.258 236.84 617.258 239.264V251H614.81V248.048C614.234 249.032 613.382 249.8 612.254 250.352C611.15 250.904 609.83 251.18 608.294 251.18C606.182 251.18 604.502 250.676 603.254 249.668C602.006 248.66 601.382 247.328 601.382 245.672C601.382 244.064 601.958 242.768 603.11 241.784C604.286 240.8 606.146 240.308 608.69 240.308H614.702V239.156C614.702 237.524 614.246 236.288 613.334 235.448C612.422 234.584 611.09 234.152 609.338 234.152C608.138 234.152 606.986 234.356 605.882 234.764C604.778 235.148 603.83 235.688 603.038 236.384L601.886 234.476C602.846 233.66 603.998 233.036 605.342 232.604C606.686 232.148 608.102 231.92 609.59 231.92ZM608.69 249.164C610.13 249.164 611.366 248.84 612.398 248.192C613.43 247.52 614.198 246.56 614.702 245.312V242.216H608.762C605.522 242.216 603.902 243.344 603.902 245.6C603.902 246.704 604.322 247.58 605.162 248.228C606.002 248.852 607.178 249.164 608.69 249.164ZM70.412 295.18C68.54 295.18 66.86 294.772 65.372 293.956C63.908 293.14 62.756 292 61.916 290.536C61.076 289.048 60.656 287.38 60.656 285.532C60.656 283.684 61.076 282.028 61.916 280.564C62.756 279.1 63.908 277.96 65.372 277.144C66.86 276.328 68.54 275.92 70.412 275.92C72.044 275.92 73.496 276.244 74.768 276.892C76.064 277.516 77.084 278.44 77.828 279.664L75.92 280.96C75.296 280.024 74.504 279.328 73.544 278.872C72.584 278.392 71.54 278.152 70.412 278.152C69.044 278.152 67.808 278.464 66.704 279.088C65.624 279.688 64.772 280.552 64.148 281.68C63.548 282.808 63.248 284.092 63.248 285.532C63.248 286.996 63.548 288.292 64.148 289.42C64.772 290.524 65.624 291.388 66.704 292.012C67.808 292.612 69.044 292.912 70.412 292.912C71.54 292.912 72.584 292.684 73.544 292.228C74.504 291.772 75.296 291.076 75.92 290.14L77.828 291.436C77.084 292.66 76.064 293.596 74.768 294.244C73.472 294.868 72.02 295.18 70.412 295.18ZM83.2879 268.288H85.8439V295H83.2879V268.288ZM93.6759 276.064H96.2319V295H93.6759V276.064ZM94.9719 271.924C94.4439 271.924 93.9999 271.744 93.6399 271.384C93.2799 271.024 93.0999 270.592 93.0999 270.088C93.0999 269.608 93.2799 269.188 93.6399 268.828C93.9999 268.468 94.4439 268.288 94.9719 268.288C95.4999 268.288 95.9439 268.468 96.3039 268.828C96.6639 269.164 96.8439 269.572 96.8439 270.052C96.8439 270.58 96.6639 271.024 96.3039 271.384C95.9439 271.744 95.4999 271.924 94.9719 271.924ZM111.912 295.18C110.04 295.18 108.36 294.772 106.872 293.956C105.408 293.14 104.256 292 103.416 290.536C102.576 289.048 102.156 287.38 102.156 285.532C102.156 283.684 102.576 282.028 103.416 280.564C104.256 279.1 105.408 277.96 106.872 277.144C108.36 276.328 110.04 275.92 111.912 275.92C113.544 275.92 114.996 276.244 116.268 276.892C117.564 277.516 118.584 278.44 119.328 279.664L117.42 280.96C116.796 280.024 116.004 279.328 115.044 278.872C114.084 278.392 113.04 278.152 111.912 278.152C110.544 278.152 109.308 278.464 108.204 279.088C107.124 279.688 106.272 280.552 105.648 281.68C105.048 282.808 104.748 284.092 104.748 285.532C104.748 286.996 105.048 288.292 105.648 289.42C106.272 290.524 107.124 291.388 108.204 292.012C109.308 292.612 110.544 292.912 111.912 292.912C113.04 292.912 114.084 292.684 115.044 292.228C116.004 291.772 116.796 291.076 117.42 290.14L119.328 291.436C118.584 292.66 117.564 293.596 116.268 294.244C114.972 294.868 113.52 295.18 111.912 295.18ZM131.808 285.496L127.344 289.6V295H124.788V268.288H127.344V286.396L138.648 276.064H141.816L133.716 283.804L142.572 295H139.44L131.808 285.496ZM173.759 286.324H157.919C158.063 288.292 158.819 289.888 160.187 291.112C161.555 292.312 163.283 292.912 165.371 292.912C166.547 292.912 167.627 292.708 168.611 292.3C169.595 291.868 170.447 291.244 171.167 290.428L172.607 292.084C171.767 293.092 170.711 293.86 169.439 294.388C168.191 294.916 166.811 295.18 165.299 295.18C163.355 295.18 161.627 294.772 160.115 293.956C158.627 293.116 157.463 291.964 156.623 290.5C155.783 289.036 155.363 287.38 155.363 285.532C155.363 283.684 155.759 282.028 156.551 280.564C157.367 279.1 158.471 277.96 159.863 277.144C161.279 276.328 162.863 275.92 164.615 275.92C166.367 275.92 167.939 276.328 169.331 277.144C170.723 277.96 171.815 279.1 172.607 280.564C173.399 282.004 173.795 283.66 173.795 285.532L173.759 286.324ZM164.615 278.116C162.791 278.116 161.255 278.704 160.007 279.88C158.783 281.032 158.087 282.544 157.919 284.416H171.347C171.179 282.544 170.471 281.032 169.223 279.88C167.999 278.704 166.463 278.116 164.615 278.116ZM189.365 275.92C191.741 275.92 193.625 276.616 195.017 278.008C196.433 279.376 197.141 281.38 197.141 284.02V295H194.585V284.272C194.585 282.304 194.093 280.804 193.109 279.772C192.125 278.74 190.721 278.224 188.897 278.224C186.857 278.224 185.237 278.836 184.037 280.06C182.861 281.26 182.273 282.928 182.273 285.064V295H179.717V276.064H182.165V279.556C182.861 278.404 183.821 277.516 185.045 276.892C186.293 276.244 187.733 275.92 189.365 275.92ZM231.43 286.324H215.59C215.734 288.292 216.49 289.888 217.858 291.112C219.226 292.312 220.954 292.912 223.042 292.912C224.218 292.912 225.298 292.708 226.282 292.3C227.266 291.868 228.118 291.244 228.838 290.428L230.278 292.084C229.438 293.092 228.382 293.86 227.11 294.388C225.862 294.916 224.482 295.18 222.97 295.18C221.026 295.18 219.298 294.772 217.786 293.956C216.298 293.116 215.134 291.964 214.294 290.5C213.454 289.036 213.034 287.38 213.034 285.532C213.034 283.684 213.43 282.028 214.222 280.564C215.038 279.1 216.142 277.96 217.534 277.144C218.95 276.328 220.534 275.92 222.286 275.92C224.038 275.92 225.61 276.328 227.002 277.144C228.394 277.96 229.486 279.1 230.278 280.564C231.07 282.004 231.466 283.66 231.466 285.532L231.43 286.324ZM222.286 278.116C220.462 278.116 218.926 278.704 217.678 279.88C216.454 281.032 215.758 282.544 215.59 284.416H229.018C228.85 282.544 228.142 281.032 226.894 279.88C225.67 278.704 224.134 278.116 222.286 278.116ZM237.389 268.288H239.945V295H237.389V268.288ZM267.675 275.92C269.451 275.92 271.059 276.328 272.499 277.144C273.939 277.936 275.067 279.064 275.883 280.528C276.699 281.992 277.107 283.66 277.107 285.532C277.107 287.404 276.699 289.072 275.883 290.536C275.067 292 273.939 293.14 272.499 293.956C271.059 294.772 269.451 295.18 267.675 295.18C266.091 295.18 264.663 294.844 263.391 294.172C262.143 293.5 261.135 292.528 260.367 291.256V295H257.919V268.288H260.475V279.664C261.267 278.44 262.275 277.516 263.499 276.892C264.747 276.244 266.139 275.92 267.675 275.92ZM267.495 292.912C268.815 292.912 270.015 292.612 271.095 292.012C272.175 291.388 273.015 290.512 273.615 289.384C274.239 288.256 274.551 286.972 274.551 285.532C274.551 284.092 274.239 282.808 273.615 281.68C273.015 280.552 272.175 279.688 271.095 279.088C270.015 278.464 268.815 278.152 267.495 278.152C266.151 278.152 264.939 278.464 263.859 279.088C262.803 279.688 261.963 280.552 261.339 281.68C260.739 282.808 260.439 284.092 260.439 285.532C260.439 286.972 260.739 288.256 261.339 289.384C261.963 290.512 262.803 291.388 263.859 292.012C264.939 292.612 266.151 292.912 267.495 292.912ZM290.777 295.18C288.953 295.18 287.309 294.772 285.845 293.956C284.381 293.116 283.229 291.964 282.389 290.5C281.549 289.036 281.129 287.38 281.129 285.532C281.129 283.684 281.549 282.028 282.389 280.564C283.229 279.1 284.381 277.96 285.845 277.144C287.309 276.328 288.953 275.92 290.777 275.92C292.601 275.92 294.245 276.328 295.709 277.144C297.173 277.96 298.313 279.1 299.129 280.564C299.969 282.028 300.389 283.684 300.389 285.532C300.389 287.38 299.969 289.036 299.129 290.5C298.313 291.964 297.173 293.116 295.709 293.956C294.245 294.772 292.601 295.18 290.777 295.18ZM290.777 292.912C292.121 292.912 293.321 292.612 294.377 292.012C295.457 291.388 296.297 290.512 296.897 289.384C297.497 288.256 297.797 286.972 297.797 285.532C297.797 284.092 297.497 282.808 296.897 281.68C296.297 280.552 295.457 279.688 294.377 279.088C293.321 278.464 292.121 278.152 290.777 278.152C289.433 278.152 288.221 278.464 287.141 279.088C286.085 279.688 285.245 280.552 284.621 281.68C284.021 282.808 283.721 284.092 283.721 285.532C283.721 286.972 284.021 288.256 284.621 289.384C285.245 290.512 286.085 291.388 287.141 292.012C288.221 292.612 289.433 292.912 290.777 292.912ZM316.3 293.848C315.82 294.28 315.22 294.616 314.5 294.856C313.804 295.072 313.072 295.18 312.304 295.18C310.528 295.18 309.16 294.7 308.2 293.74C307.24 292.78 306.76 291.424 306.76 289.672V278.224H303.376V276.064H306.76V271.924H309.316V276.064H315.076V278.224H309.316V289.528C309.316 290.656 309.592 291.52 310.144 292.12C310.72 292.696 311.536 292.984 312.592 292.984C313.12 292.984 313.624 292.9 314.104 292.732C314.608 292.564 315.04 292.324 315.4 292.012L316.3 293.848ZM328.745 295.18C326.921 295.18 325.277 294.772 323.813 293.956C322.349 293.116 321.197 291.964 320.357 290.5C319.517 289.036 319.097 287.38 319.097 285.532C319.097 283.684 319.517 282.028 320.357 280.564C321.197 279.1 322.349 277.96 323.813 277.144C325.277 276.328 326.921 275.92 328.745 275.92C330.569 275.92 332.213 276.328 333.677 277.144C335.141 277.96 336.281 279.1 337.097 280.564C337.937 282.028 338.357 283.684 338.357 285.532C338.357 287.38 337.937 289.036 337.097 290.5C336.281 291.964 335.141 293.116 333.677 293.956C332.213 294.772 330.569 295.18 328.745 295.18ZM328.745 292.912C330.089 292.912 331.289 292.612 332.345 292.012C333.425 291.388 334.265 290.512 334.865 289.384C335.465 288.256 335.765 286.972 335.765 285.532C335.765 284.092 335.465 282.808 334.865 281.68C334.265 280.552 333.425 279.688 332.345 279.088C331.289 278.464 330.089 278.152 328.745 278.152C327.401 278.152 326.189 278.464 325.109 279.088C324.053 279.688 323.213 280.552 322.589 281.68C321.989 282.808 321.689 284.092 321.689 285.532C321.689 286.972 321.989 288.256 322.589 289.384C323.213 290.512 324.053 291.388 325.109 292.012C326.189 292.612 327.401 292.912 328.745 292.912ZM353.943 275.92C356.319 275.92 358.203 276.616 359.595 278.008C361.011 279.376 361.719 281.38 361.719 284.02V295H359.163V284.272C359.163 282.304 358.671 280.804 357.687 279.772C356.703 278.74 355.299 278.224 353.475 278.224C351.435 278.224 349.815 278.836 348.615 280.06C347.439 281.26 346.851 282.928 346.851 285.064V295H344.295V276.064H346.743V279.556C347.439 278.404 348.399 277.516 349.623 276.892C350.871 276.244 352.311 275.92 353.943 275.92ZM387.368 295.18C385.496 295.18 383.816 294.772 382.328 293.956C380.864 293.14 379.712 292 378.872 290.536C378.032 289.048 377.612 287.38 377.612 285.532C377.612 283.684 378.032 282.028 378.872 280.564C379.712 279.1 380.864 277.96 382.328 277.144C383.816 276.328 385.496 275.92 387.368 275.92C389 275.92 390.452 276.244 391.724 276.892C393.02 277.516 394.04 278.44 394.784 279.664L392.876 280.96C392.252 280.024 391.46 279.328 390.5 278.872C389.54 278.392 388.496 278.152 387.368 278.152C386 278.152 384.764 278.464 383.66 279.088C382.58 279.688 381.728 280.552 381.104 281.68C380.504 282.808 380.204 284.092 380.204 285.532C380.204 286.996 380.504 288.292 381.104 289.42C381.728 290.524 382.58 291.388 383.66 292.012C384.764 292.612 386 292.912 387.368 292.912C388.496 292.912 389.54 292.684 390.5 292.228C391.46 291.772 392.252 291.076 392.876 290.14L394.784 291.436C394.04 292.66 393.02 293.596 391.724 294.244C390.428 294.868 388.976 295.18 387.368 295.18ZM407.949 295.18C406.125 295.18 404.481 294.772 403.017 293.956C401.553 293.116 400.401 291.964 399.561 290.5C398.721 289.036 398.301 287.38 398.301 285.532C398.301 283.684 398.721 282.028 399.561 280.564C400.401 279.1 401.553 277.96 403.017 277.144C404.481 276.328 406.125 275.92 407.949 275.92C409.773 275.92 411.417 276.328 412.881 277.144C414.345 277.96 415.485 279.1 416.301 280.564C417.141 282.028 417.561 283.684 417.561 285.532C417.561 287.38 417.141 289.036 416.301 290.5C415.485 291.964 414.345 293.116 412.881 293.956C411.417 294.772 409.773 295.18 407.949 295.18ZM407.949 292.912C409.293 292.912 410.493 292.612 411.549 292.012C412.629 291.388 413.469 290.512 414.069 289.384C414.669 288.256 414.969 286.972 414.969 285.532C414.969 284.092 414.669 282.808 414.069 281.68C413.469 280.552 412.629 279.688 411.549 279.088C410.493 278.464 409.293 278.152 407.949 278.152C406.605 278.152 405.393 278.464 404.313 279.088C403.257 279.688 402.417 280.552 401.793 281.68C401.193 282.808 400.893 284.092 400.893 285.532C400.893 286.972 401.193 288.256 401.793 289.384C402.417 290.512 403.257 291.388 404.313 292.012C405.393 292.612 406.605 292.912 407.949 292.912ZM433.147 275.92C435.523 275.92 437.407 276.616 438.799 278.008C440.215 279.376 440.923 281.38 440.923 284.02V295H438.367V284.272C438.367 282.304 437.875 280.804 436.891 279.772C435.907 278.74 434.503 278.224 432.679 278.224C430.639 278.224 429.019 278.836 427.819 280.06C426.643 281.26 426.055 282.928 426.055 285.064V295H423.499V276.064H425.947V279.556C426.643 278.404 427.603 277.516 428.827 276.892C430.075 276.244 431.515 275.92 433.147 275.92ZM458.554 293.848C458.074 294.28 457.474 294.616 456.754 294.856C456.058 295.072 455.326 295.18 454.558 295.18C452.782 295.18 451.414 294.7 450.454 293.74C449.494 292.78 449.014 291.424 449.014 289.672V278.224H445.63V276.064H449.014V271.924H451.57V276.064H457.33V278.224H451.57V289.528C451.57 290.656 451.846 291.52 452.398 292.12C452.974 292.696 453.79 292.984 454.846 292.984C455.374 292.984 455.878 292.9 456.358 292.732C456.862 292.564 457.294 292.324 457.654 292.012L458.554 293.848ZM463.927 276.064H466.483V295H463.927V276.064ZM465.223 271.924C464.695 271.924 464.251 271.744 463.891 271.384C463.531 271.024 463.351 270.592 463.351 270.088C463.351 269.608 463.531 269.188 463.891 268.828C464.251 268.468 464.695 268.288 465.223 268.288C465.751 268.288 466.195 268.468 466.555 268.828C466.915 269.164 467.095 269.572 467.095 270.052C467.095 270.58 466.915 271.024 466.555 271.384C466.195 271.744 465.751 271.924 465.223 271.924ZM483.963 275.92C486.339 275.92 488.223 276.616 489.615 278.008C491.031 279.376 491.739 281.38 491.739 284.02V295H489.183V284.272C489.183 282.304 488.691 280.804 487.707 279.772C486.723 278.74 485.319 278.224 483.495 278.224C481.455 278.224 479.835 278.836 478.635 280.06C477.459 281.26 476.871 282.928 476.871 285.064V295H474.315V276.064H476.763V279.556C477.459 278.404 478.419 277.516 479.643 276.892C480.891 276.244 482.331 275.92 483.963 275.92ZM516.463 276.064V295H514.015V291.544C513.343 292.696 512.419 293.596 511.243 294.244C510.067 294.868 508.723 295.18 507.211 295.18C504.739 295.18 502.783 294.496 501.343 293.128C499.927 291.736 499.219 289.708 499.219 287.044V276.064H501.775V286.792C501.775 288.784 502.267 290.296 503.251 291.328C504.235 292.36 505.639 292.876 507.463 292.876C509.455 292.876 511.027 292.276 512.179 291.076C513.331 289.852 513.907 288.16 513.907 286V276.064H516.463ZM530.965 275.92C533.437 275.92 535.333 276.544 536.653 277.792C537.973 279.016 538.633 280.84 538.633 283.264V295H536.185V292.048C535.609 293.032 534.757 293.8 533.629 294.352C532.525 294.904 531.205 295.18 529.669 295.18C527.557 295.18 525.877 294.676 524.629 293.668C523.381 292.66 522.757 291.328 522.757 289.672C522.757 288.064 523.333 286.768 524.485 285.784C525.661 284.8 527.521 284.308 530.065 284.308H536.077V283.156C536.077 281.524 535.621 280.288 534.709 279.448C533.797 278.584 532.465 278.152 530.713 278.152C529.513 278.152 528.361 278.356 527.257 278.764C526.153 279.148 525.205 279.688 524.413 280.384L523.261 278.476C524.221 277.66 525.373 277.036 526.717 276.604C528.061 276.148 529.477 275.92 530.965 275.92ZM530.065 293.164C531.505 293.164 532.741 292.84 533.773 292.192C534.805 291.52 535.573 290.56 536.077 289.312V286.216H530.137C526.897 286.216 525.277 287.344 525.277 289.6C525.277 290.704 525.697 291.58 526.537 292.228C527.377 292.852 528.553 293.164 530.065 293.164ZM548.744 279.772C549.344 278.5 550.232 277.54 551.408 276.892C552.608 276.244 554.084 275.92 555.836 275.92V278.404L555.224 278.368C553.232 278.368 551.672 278.98 550.544 280.204C549.416 281.428 548.852 283.144 548.852 285.352V295H546.296V276.064H548.744V279.772ZM561.365 295.18C560.837 295.18 560.381 294.988 559.997 294.604C559.637 294.22 559.457 293.752 559.457 293.2C559.457 292.648 559.637 292.192 559.997 291.832C560.381 291.448 560.837 291.256 561.365 291.256C561.893 291.256 562.349 291.448 562.733 291.832C563.117 292.192 563.309 292.648 563.309 293.2C563.309 293.752 563.117 294.22 562.733 294.604C562.349 294.988 561.893 295.18 561.365 295.18Z" fill="white"/>
<path d="M74.95 114.6V127H66.85V114.5L53.3 92H61.9L71.25 107.55L80.6 92H88.55L74.95 114.6ZM98.9676 99.7C103.134 99.7 106.334 100.7 108.568 102.7C110.801 104.667 111.918 107.65 111.918 111.65V127H104.618V123.65C103.151 126.15 100.418 127.4 96.4176 127.4C94.3509 127.4 92.5509 127.05 91.0176 126.35C89.5176 125.65 88.3676 124.683 87.5676 123.45C86.7676 122.217 86.3676 120.817 86.3676 119.25C86.3676 116.75 87.3009 114.783 89.1676 113.35C91.0676 111.917 93.9842 111.2 97.9176 111.2H104.118C104.118 109.5 103.601 108.2 102.568 107.3C101.534 106.367 99.9842 105.9 97.9176 105.9C96.4842 105.9 95.0676 106.133 93.6676 106.6C92.3009 107.033 91.1342 107.633 90.1676 108.4L87.3676 102.95C88.8342 101.917 90.5842 101.117 92.6176 100.55C94.6842 99.9833 96.8009 99.7 98.9676 99.7ZM98.3676 122.15C99.7009 122.15 100.884 121.85 101.918 121.25C102.951 120.617 103.684 119.7 104.118 118.5V115.75H98.7676C95.5676 115.75 93.9676 116.8 93.9676 118.9C93.9676 119.9 94.3509 120.7 95.1176 121.3C95.9176 121.867 97.0009 122.15 98.3676 122.15ZM142.187 127.4C139.954 127.4 137.77 127.133 135.637 126.6C133.504 126.033 131.804 125.333 130.537 124.5L133.137 118.9C134.337 119.667 135.787 120.3 137.487 120.8C139.187 121.267 140.854 121.5 142.487 121.5C145.787 121.5 147.437 120.683 147.437 119.05C147.437 118.283 146.987 117.733 146.087 117.4C145.187 117.067 143.804 116.783 141.937 116.55C139.737 116.217 137.92 115.833 136.487 115.4C135.054 114.967 133.804 114.2 132.737 113.1C131.704 112 131.187 110.433 131.187 108.4C131.187 106.7 131.67 105.2 132.637 103.9C133.637 102.567 135.07 101.533 136.937 100.8C138.837 100.067 141.07 99.7 143.637 99.7C145.537 99.7 147.42 99.9167 149.287 100.35C151.187 100.75 152.754 101.317 153.987 102.05L151.387 107.6C149.02 106.267 146.437 105.6 143.637 105.6C141.97 105.6 140.72 105.833 139.887 106.3C139.054 106.767 138.637 107.367 138.637 108.1C138.637 108.933 139.087 109.517 139.987 109.85C140.887 110.183 142.32 110.5 144.287 110.8C146.487 111.167 148.287 111.567 149.687 112C151.087 112.4 152.304 113.15 153.337 114.25C154.37 115.35 154.887 116.883 154.887 118.85C154.887 120.517 154.387 122 153.387 123.3C152.387 124.6 150.92 125.617 148.987 126.35C147.087 127.05 144.82 127.4 142.187 127.4ZM172.5 127.4C169.666 127.4 167.116 126.817 164.85 125.65C162.616 124.45 160.866 122.8 159.6 120.7C158.333 118.6 157.7 116.217 157.7 113.55C157.7 110.883 158.333 108.5 159.6 106.4C160.866 104.3 162.616 102.667 164.85 101.5C167.116 100.3 169.666 99.7 172.5 99.7C175.333 99.7 177.866 100.3 180.1 101.5C182.333 102.667 184.083 104.3 185.35 106.4C186.616 108.5 187.25 110.883 187.25 113.55C187.25 116.217 186.616 118.6 185.35 120.7C184.083 122.8 182.333 124.45 180.1 125.65C177.866 126.817 175.333 127.4 172.5 127.4ZM172.5 121C174.5 121 176.133 120.333 177.4 119C178.7 117.633 179.35 115.817 179.35 113.55C179.35 111.283 178.7 109.483 177.4 108.15C176.133 106.783 174.5 106.1 172.5 106.1C170.5 106.1 168.85 106.783 167.55 108.15C166.25 109.483 165.6 111.283 165.6 113.55C165.6 115.817 166.25 117.633 167.55 119C168.85 120.333 170.5 121 172.5 121ZM218.431 100.1L206.281 128.65C205.048 131.75 203.514 133.933 201.681 135.2C199.881 136.467 197.698 137.1 195.131 137.1C193.731 137.1 192.348 136.883 190.981 136.45C189.614 136.017 188.498 135.417 187.631 134.65L190.481 129.1C191.081 129.633 191.764 130.05 192.531 130.35C193.331 130.65 194.114 130.8 194.881 130.8C195.948 130.8 196.814 130.533 197.481 130C198.148 129.5 198.748 128.65 199.281 127.45L199.381 127.2L187.731 100.1H195.781L203.331 118.35L210.931 100.1H218.431ZM235.774 100.1H243.574V127H235.774V100.1ZM239.674 96.35C238.24 96.35 237.074 95.9333 236.174 95.1C235.274 94.2667 234.824 93.2333 234.824 92C234.824 90.7667 235.274 89.7333 236.174 88.9C237.074 88.0667 238.24 87.65 239.674 87.65C241.107 87.65 242.274 88.05 243.174 88.85C244.074 89.65 244.524 90.65 244.524 91.85C244.524 93.15 244.074 94.2333 243.174 95.1C242.274 95.9333 241.107 96.35 239.674 96.35ZM267.163 99.7C270.496 99.7 273.18 100.7 275.213 102.7C277.28 104.7 278.313 107.667 278.313 111.6V127H270.513V112.8C270.513 110.667 270.046 109.083 269.113 108.05C268.18 106.983 266.83 106.45 265.063 106.45C263.096 106.45 261.53 107.067 260.363 108.3C259.196 109.5 258.613 111.3 258.613 113.7V127H250.813V100.1H258.263V103.25C259.296 102.117 260.58 101.25 262.113 100.65C263.646 100.017 265.33 99.7 267.163 99.7ZM311.595 100.1L300.245 127H292.195L280.895 100.1H288.945L296.395 118.4L304.095 100.1H311.595ZM340.395 113.65C340.395 113.75 340.345 114.45 340.245 115.75H319.895C320.262 117.417 321.129 118.733 322.495 119.7C323.862 120.667 325.562 121.15 327.595 121.15C328.995 121.15 330.229 120.95 331.295 120.55C332.395 120.117 333.412 119.45 334.345 118.55L338.495 123.05C335.962 125.95 332.262 127.4 327.395 127.4C324.362 127.4 321.679 126.817 319.345 125.65C317.012 124.45 315.212 122.8 313.945 120.7C312.679 118.6 312.045 116.217 312.045 113.55C312.045 110.917 312.662 108.55 313.895 106.45C315.162 104.317 316.879 102.667 319.045 101.5C321.245 100.3 323.695 99.7 326.395 99.7C329.029 99.7 331.412 100.267 333.545 101.4C335.679 102.533 337.345 104.167 338.545 106.3C339.779 108.4 340.395 110.85 340.395 113.65ZM326.445 105.6C324.679 105.6 323.195 106.1 321.995 107.1C320.795 108.1 320.062 109.467 319.795 111.2H333.045C332.779 109.5 332.045 108.15 330.845 107.15C329.645 106.117 328.179 105.6 326.445 105.6ZM353.038 103.65C353.972 102.35 355.222 101.367 356.788 100.7C358.388 100.033 360.222 99.7 362.288 99.7V106.9C361.422 106.833 360.838 106.8 360.538 106.8C358.305 106.8 356.555 107.433 355.288 108.7C354.022 109.933 353.388 111.8 353.388 114.3V127H345.588V100.1H353.038V103.65ZM376.074 127.4C373.84 127.4 371.657 127.133 369.524 126.6C367.39 126.033 365.69 125.333 364.424 124.5L367.024 118.9C368.224 119.667 369.674 120.3 371.374 120.8C373.074 121.267 374.74 121.5 376.374 121.5C379.674 121.5 381.324 120.683 381.324 119.05C381.324 118.283 380.874 117.733 379.974 117.4C379.074 117.067 377.69 116.783 375.824 116.55C373.624 116.217 371.807 115.833 370.374 115.4C368.94 114.967 367.69 114.2 366.624 113.1C365.59 112 365.074 110.433 365.074 108.4C365.074 106.7 365.557 105.2 366.524 103.9C367.524 102.567 368.957 101.533 370.824 100.8C372.724 100.067 374.957 99.7 377.524 99.7C379.424 99.7 381.307 99.9167 383.174 100.35C385.074 100.75 386.64 101.317 387.874 102.05L385.274 107.6C382.907 106.267 380.324 105.6 377.524 105.6C375.857 105.6 374.607 105.833 373.774 106.3C372.94 106.767 372.524 107.367 372.524 108.1C372.524 108.933 372.974 109.517 373.874 109.85C374.774 110.183 376.207 110.5 378.174 110.8C380.374 111.167 382.174 111.567 383.574 112C384.974 112.4 386.19 113.15 387.224 114.25C388.257 115.35 388.774 116.883 388.774 118.85C388.774 120.517 388.274 122 387.274 123.3C386.274 124.6 384.807 125.617 382.874 126.35C380.974 127.05 378.707 127.4 376.074 127.4ZM406.386 127.4C403.553 127.4 401.003 126.817 398.736 125.65C396.503 124.45 394.753 122.8 393.486 120.7C392.22 118.6 391.586 116.217 391.586 113.55C391.586 110.883 392.22 108.5 393.486 106.4C394.753 104.3 396.503 102.667 398.736 101.5C401.003 100.3 403.553 99.7 406.386 99.7C409.22 99.7 411.753 100.3 413.986 101.5C416.22 102.667 417.97 104.3 419.236 106.4C420.503 108.5 421.136 110.883 421.136 113.55C421.136 116.217 420.503 118.6 419.236 120.7C417.97 122.8 416.22 124.45 413.986 125.65C411.753 126.817 409.22 127.4 406.386 127.4ZM406.386 121C408.386 121 410.02 120.333 411.286 119C412.586 117.633 413.236 115.817 413.236 113.55C413.236 111.283 412.586 109.483 411.286 108.15C410.02 106.783 408.386 106.1 406.386 106.1C404.386 106.1 402.736 106.783 401.436 108.15C400.136 109.483 399.486 111.283 399.486 113.55C399.486 115.817 400.136 117.633 401.436 119C402.736 120.333 404.386 121 406.386 121ZM433.8 103.65C434.733 102.35 435.983 101.367 437.55 100.7C439.15 100.033 440.983 99.7 443.05 99.7V106.9C442.183 106.833 441.6 106.8 441.3 106.8C439.067 106.8 437.317 107.433 436.05 108.7C434.783 109.933 434.15 111.8 434.15 114.3V127H426.35V100.1H433.8V103.65Z" fill="white"/>
<rect x="53" y="602" width="692" height="100" rx="12" fill="white"/>
<rect x="53.5" y="602.5" width="691" height="99" rx="11.5" stroke="#466E9C" stroke-opacity="0.4"/>
<path opacity="0.7" d="M103.88 661.555C101.16 661.555 99.04 660.775 97.52 659.215C96 657.655 95.24 655.385 95.24 652.405V640.375H97.46V652.315C97.46 654.755 98.01 656.575 99.11 657.775C100.21 658.975 101.8 659.575 103.88 659.575C105.98 659.575 107.58 658.975 108.68 657.775C109.78 656.575 110.33 654.755 110.33 652.315V640.375H112.49V652.405C112.49 655.385 111.73 657.655 110.21 659.215C108.71 660.775 106.6 661.555 103.88 661.555ZM122.96 661.525C121.68 661.525 120.45 661.345 119.27 660.985C118.11 660.605 117.2 660.135 116.54 659.575L117.5 657.895C118.16 658.415 118.99 658.845 119.99 659.185C120.99 659.505 122.03 659.665 123.11 659.665C124.55 659.665 125.61 659.445 126.29 659.005C126.99 658.545 127.34 657.905 127.34 657.085C127.34 656.505 127.15 656.055 126.77 655.735C126.39 655.395 125.91 655.145 125.33 654.985C124.75 654.805 123.98 654.635 123.02 654.475C121.74 654.235 120.71 653.995 119.93 653.755C119.15 653.495 118.48 653.065 117.92 652.465C117.38 651.865 117.11 651.035 117.11 649.975C117.11 648.655 117.66 647.575 118.76 646.735C119.86 645.895 121.39 645.475 123.35 645.475C124.37 645.475 125.39 645.615 126.41 645.895C127.43 646.155 128.27 646.505 128.93 646.945L128 648.655C126.7 647.755 125.15 647.305 123.35 647.305C121.99 647.305 120.96 647.545 120.26 648.025C119.58 648.505 119.24 649.135 119.24 649.915C119.24 650.515 119.43 650.995 119.81 651.355C120.21 651.715 120.7 651.985 121.28 652.165C121.86 652.325 122.66 652.495 123.68 652.675C124.94 652.915 125.95 653.155 126.71 653.395C127.47 653.635 128.12 654.045 128.66 654.625C129.2 655.205 129.47 656.005 129.47 657.025C129.47 658.405 128.89 659.505 127.73 660.325C126.59 661.125 125 661.525 122.96 661.525ZM147.628 645.595V661.375H145.587V658.495C145.028 659.455 144.258 660.205 143.278 660.745C142.298 661.265 141.178 661.525 139.918 661.525C137.858 661.525 136.228 660.955 135.028 659.815C133.848 658.655 133.258 656.965 133.258 654.745V645.595H135.388V654.535C135.388 656.195 135.798 657.455 136.618 658.315C137.438 659.175 138.608 659.605 140.128 659.605C141.788 659.605 143.098 659.105 144.058 658.105C145.018 657.085 145.498 655.675 145.498 653.875V645.595H147.628ZM159.113 645.475C161.173 645.475 162.753 645.995 163.853 647.035C164.953 648.055 165.503 649.575 165.503 651.595V661.375H163.463V658.915C162.983 659.735 162.273 660.375 161.333 660.835C160.413 661.295 159.313 661.525 158.033 661.525C156.273 661.525 154.873 661.105 153.833 660.265C152.793 659.425 152.273 658.315 152.273 656.935C152.273 655.595 152.753 654.515 153.713 653.695C154.693 652.875 156.243 652.465 158.363 652.465H163.373V651.505C163.373 650.145 162.993 649.115 162.233 648.415C161.473 647.695 160.363 647.335 158.903 647.335C157.903 647.335 156.943 647.505 156.023 647.845C155.103 648.165 154.313 648.615 153.653 649.195L152.693 647.605C153.493 646.925 154.453 646.405 155.573 646.045C156.693 645.665 157.873 645.475 159.113 645.475ZM158.363 659.845C159.563 659.845 160.593 659.575 161.453 659.035C162.313 658.475 162.953 657.675 163.373 656.635V654.055H158.423C155.723 654.055 154.373 654.995 154.373 656.875C154.373 657.795 154.723 658.525 155.423 659.065C156.123 659.585 157.103 659.845 158.363 659.845ZM173.328 648.685C173.828 647.625 174.568 646.825 175.548 646.285C176.548 645.745 177.778 645.475 179.238 645.475V647.545L178.728 647.515C177.068 647.515 175.768 648.025 174.828 649.045C173.888 650.065 173.418 651.495 173.418 653.335V661.375H171.288V645.595H173.328V648.685ZM183.095 645.595H185.225V661.375H183.095V645.595ZM184.175 642.145C183.735 642.145 183.365 641.995 183.065 641.695C182.765 641.395 182.615 641.035 182.615 640.615C182.615 640.215 182.765 639.865 183.065 639.565C183.365 639.265 183.735 639.115 184.175 639.115C184.615 639.115 184.985 639.265 185.285 639.565C185.585 639.845 185.735 640.185 185.735 640.585C185.735 641.025 185.585 641.395 185.285 641.695C184.985 641.995 184.615 642.145 184.175 642.145ZM197.602 661.525C196.082 661.525 194.712 661.185 193.492 660.505C192.272 659.805 191.312 658.845 190.612 657.625C189.912 656.405 189.562 655.025 189.562 653.485C189.562 651.945 189.912 650.565 190.612 649.345C191.312 648.125 192.272 647.175 193.492 646.495C194.712 645.815 196.082 645.475 197.602 645.475C199.122 645.475 200.492 645.815 201.712 646.495C202.932 647.175 203.882 648.125 204.562 649.345C205.262 650.565 205.612 651.945 205.612 653.485C205.612 655.025 205.262 656.405 204.562 657.625C203.882 658.845 202.932 659.805 201.712 660.505C200.492 661.185 199.122 661.525 197.602 661.525ZM197.602 659.635C198.722 659.635 199.722 659.385 200.602 658.885C201.502 658.365 202.202 657.635 202.702 656.695C203.202 655.755 203.452 654.685 203.452 653.485C203.452 652.285 203.202 651.215 202.702 650.275C202.202 649.335 201.502 648.615 200.602 648.115C199.722 647.595 198.722 647.335 197.602 647.335C196.482 647.335 195.472 647.595 194.572 648.115C193.692 648.615 192.992 649.335 192.472 650.275C191.972 651.215 191.722 652.285 191.722 653.485C191.722 654.685 191.972 655.755 192.472 656.695C192.992 657.635 193.692 658.365 194.572 658.885C195.472 659.385 196.482 659.635 197.602 659.635Z" fill="#19406E"/>
<rect x="53" y="470" width="692" height="100" rx="12" fill="white"/>
<rect x="53.5" y="470.5" width="691" height="99" rx="11.5" stroke="#466E9C" stroke-opacity="0.4"/>
<path opacity="0.7" d="M104.54 529.868C102.46 529.868 100.58 529.407 98.9 528.487C97.24 527.567 95.93 526.297 94.97 524.677C94.03 523.037 93.56 521.207 93.56 519.187C93.56 517.167 94.03 515.347 94.97 513.727C95.93 512.087 97.25 510.807 98.93 509.887C100.61 508.967 102.49 508.507 104.57 508.507C106.13 508.507 107.57 508.767 108.89 509.287C110.21 509.807 111.33 510.567 112.25 511.567L110.84 512.977C109.2 511.317 107.13 510.487 104.63 510.487C102.97 510.487 101.46 510.867 100.1 511.627C98.74 512.387 97.67 513.427 96.89 514.747C96.13 516.067 95.75 517.547 95.75 519.187C95.75 520.827 96.13 522.307 96.89 523.627C97.67 524.947 98.74 525.987 100.1 526.747C101.46 527.507 102.97 527.887 104.63 527.887C107.15 527.887 109.22 527.047 110.84 525.367L112.25 526.777C111.33 527.777 110.2 528.547 108.86 529.087C107.54 529.607 106.1 529.868 104.54 529.868ZM122.279 529.838C120.759 529.838 119.389 529.497 118.169 528.817C116.949 528.117 115.989 527.157 115.289 525.938C114.589 524.717 114.239 523.337 114.239 521.797C114.239 520.257 114.589 518.877 115.289 517.657C115.989 516.437 116.949 515.487 118.169 514.807C119.389 514.127 120.759 513.787 122.279 513.787C123.799 513.787 125.169 514.127 126.389 514.807C127.609 515.487 128.559 516.437 129.239 517.657C129.939 518.877 130.289 520.257 130.289 521.797C130.289 523.337 129.939 524.717 129.239 525.938C128.559 527.157 127.609 528.117 126.389 528.817C125.169 529.497 123.799 529.838 122.279 529.838ZM122.279 527.947C123.399 527.947 124.399 527.697 125.279 527.197C126.179 526.677 126.879 525.947 127.379 525.007C127.879 524.067 128.129 522.997 128.129 521.797C128.129 520.597 127.879 519.527 127.379 518.587C126.879 517.647 126.179 516.927 125.279 516.427C124.399 515.907 123.399 515.647 122.279 515.647C121.159 515.647 120.149 515.907 119.249 516.427C118.369 516.927 117.669 517.647 117.149 518.587C116.649 519.527 116.399 520.597 116.399 521.797C116.399 522.997 116.649 524.067 117.149 525.007C117.669 525.947 118.369 526.677 119.249 527.197C120.149 527.697 121.159 527.947 122.279 527.947ZM142.678 513.787C144.658 513.787 146.228 514.367 147.388 515.527C148.568 516.667 149.158 518.337 149.158 520.537V529.688H147.028V520.747C147.028 519.107 146.618 517.857 145.798 516.997C144.978 516.137 143.808 515.707 142.288 515.707C140.588 515.707 139.238 516.217 138.238 517.237C137.258 518.237 136.768 519.627 136.768 521.407V529.688H134.638V513.907H136.678V516.817C137.258 515.857 138.058 515.117 139.078 514.597C140.118 514.057 141.318 513.787 142.678 513.787ZM163.251 528.727C162.851 529.087 162.351 529.367 161.751 529.567C161.171 529.748 160.561 529.838 159.921 529.838C158.441 529.838 157.301 529.438 156.501 528.637C155.701 527.837 155.301 526.707 155.301 525.247V515.707H152.481V513.907H155.301V510.457H157.431V513.907H162.231V515.707H157.431V525.127C157.431 526.067 157.661 526.787 158.121 527.287C158.601 527.767 159.281 528.007 160.161 528.007C160.601 528.007 161.021 527.937 161.421 527.797C161.841 527.657 162.201 527.457 162.501 527.197L163.251 528.727ZM169.168 516.997C169.668 515.937 170.408 515.137 171.388 514.597C172.388 514.057 173.618 513.787 175.078 513.787V515.857L174.568 515.827C172.908 515.827 171.608 516.337 170.668 517.357C169.728 518.377 169.258 519.807 169.258 521.647V529.688H167.128V513.907H169.168V516.997ZM184.426 513.787C186.486 513.787 188.066 514.307 189.166 515.347C190.266 516.367 190.816 517.887 190.816 519.907V529.688H188.776V527.227C188.296 528.047 187.586 528.687 186.646 529.147C185.726 529.607 184.626 529.838 183.346 529.838C181.586 529.838 180.186 529.418 179.146 528.577C178.106 527.737 177.586 526.627 177.586 525.247C177.586 523.907 178.066 522.827 179.026 522.007C180.006 521.187 181.556 520.777 183.676 520.777H188.686V519.817C188.686 518.457 188.306 517.427 187.546 516.727C186.786 516.007 185.676 515.647 184.216 515.647C183.216 515.647 182.256 515.817 181.336 516.157C180.416 516.477 179.626 516.927 178.966 517.507L178.006 515.917C178.806 515.237 179.766 514.717 180.886 514.357C182.006 513.977 183.186 513.787 184.426 513.787ZM183.676 528.157C184.876 528.157 185.906 527.887 186.766 527.347C187.626 526.787 188.266 525.987 188.686 524.947V522.367H183.736C181.036 522.367 179.686 523.307 179.686 525.187C179.686 526.107 180.036 526.837 180.736 527.377C181.436 527.897 182.416 528.157 183.676 528.157ZM200.831 529.838C199.551 529.838 198.321 529.658 197.141 529.297C195.981 528.917 195.071 528.447 194.411 527.887L195.371 526.207C196.031 526.727 196.861 527.157 197.861 527.497C198.861 527.817 199.901 527.977 200.981 527.977C202.421 527.977 203.481 527.757 204.161 527.317C204.861 526.857 205.211 526.217 205.211 525.397C205.211 524.817 205.021 524.367 204.641 524.047C204.261 523.707 203.781 523.457 203.201 523.297C202.621 523.117 201.851 522.947 200.891 522.787C199.611 522.547 198.581 522.307 197.801 522.067C197.021 521.807 196.351 521.377 195.791 520.777C195.251 520.177 194.981 519.347 194.981 518.287C194.981 516.967 195.531 515.887 196.631 515.047C197.731 514.207 199.261 513.787 201.221 513.787C202.241 513.787 203.261 513.927 204.281 514.207C205.301 514.467 206.141 514.817 206.801 515.257L205.871 516.967C204.571 516.067 203.021 515.617 201.221 515.617C199.861 515.617 198.831 515.857 198.131 516.337C197.451 516.817 197.111 517.447 197.111 518.227C197.111 518.827 197.301 519.307 197.681 519.667C198.081 520.027 198.571 520.297 199.151 520.477C199.731 520.637 200.531 520.807 201.551 520.987C202.811 521.227 203.821 521.467 204.581 521.707C205.341 521.947 205.991 522.357 206.531 522.937C207.071 523.517 207.341 524.317 207.341 525.337C207.341 526.717 206.761 527.817 205.601 528.637C204.461 529.438 202.871 529.838 200.831 529.838ZM225.019 522.457H211.819C211.939 524.097 212.569 525.427 213.709 526.447C214.849 527.447 216.289 527.947 218.029 527.947C219.009 527.947 219.909 527.777 220.729 527.437C221.549 527.077 222.259 526.557 222.859 525.877L224.059 527.257C223.359 528.097 222.479 528.737 221.419 529.177C220.379 529.617 219.229 529.838 217.969 529.838C216.349 529.838 214.909 529.497 213.649 528.817C212.409 528.117 211.439 527.157 210.739 525.938C210.039 524.717 209.689 523.337 209.689 521.797C209.689 520.257 210.019 518.877 210.679 517.657C211.359 516.437 212.279 515.487 213.439 514.807C214.619 514.127 215.939 513.787 217.399 513.787C218.859 513.787 220.169 514.127 221.329 514.807C222.489 515.487 223.399 516.437 224.059 517.657C224.719 518.857 225.049 520.237 225.049 521.797L225.019 522.457ZM217.399 515.617C215.879 515.617 214.599 516.107 213.559 517.087C212.539 518.047 211.959 519.307 211.819 520.868H223.009C222.869 519.307 222.279 518.047 221.239 517.087C220.219 516.107 218.939 515.617 217.399 515.617ZM237.424 513.787C239.404 513.787 240.974 514.367 242.134 515.527C243.314 516.667 243.904 518.337 243.904 520.537V529.688H241.774V520.747C241.774 519.107 241.364 517.857 240.544 516.997C239.724 516.137 238.554 515.707 237.034 515.707C235.334 515.707 233.984 516.217 232.984 517.237C232.004 518.237 231.514 519.627 231.514 521.407V529.688H229.384V513.907H231.424V516.817C232.004 515.857 232.804 515.117 233.824 514.597C234.864 514.057 236.064 513.787 237.424 513.787ZM238.654 511.267C238.194 511.267 237.784 511.167 237.424 510.967C237.064 510.747 236.674 510.447 236.254 510.067C235.894 509.767 235.604 509.557 235.384 509.437C235.184 509.297 234.964 509.227 234.724 509.227C234.264 509.227 233.894 509.397 233.614 509.737C233.334 510.077 233.184 510.547 233.164 511.147H231.874C231.914 510.147 232.174 509.347 232.654 508.747C233.134 508.147 233.774 507.847 234.574 507.847C235.034 507.847 235.434 507.947 235.774 508.147C236.134 508.347 236.544 508.647 237.004 509.047C237.324 509.327 237.594 509.537 237.814 509.677C238.034 509.817 238.264 509.887 238.504 509.887C238.944 509.887 239.304 509.727 239.584 509.407C239.864 509.067 240.024 508.607 240.064 508.027H241.354C241.314 509.007 241.054 509.797 240.574 510.397C240.094 510.977 239.454 511.267 238.654 511.267ZM255.207 513.787C257.267 513.787 258.847 514.307 259.947 515.347C261.047 516.367 261.597 517.887 261.597 519.907V529.688H259.557V527.227C259.077 528.047 258.367 528.687 257.427 529.147C256.507 529.607 255.407 529.838 254.127 529.838C252.367 529.838 250.967 529.418 249.927 528.577C248.887 527.737 248.367 526.627 248.367 525.247C248.367 523.907 248.847 522.827 249.807 522.007C250.787 521.187 252.337 520.777 254.457 520.777H259.467V519.817C259.467 518.457 259.087 517.427 258.327 516.727C257.567 516.007 256.457 515.647 254.997 515.647C253.997 515.647 253.037 515.817 252.117 516.157C251.197 516.477 250.407 516.927 249.747 517.507L248.787 515.917C249.587 515.237 250.547 514.717 251.667 514.357C252.787 513.977 253.967 513.787 255.207 513.787ZM254.457 528.157C255.657 528.157 256.687 527.887 257.547 527.347C258.407 526.787 259.047 525.987 259.467 524.947V522.367H254.517C251.817 522.367 250.467 523.307 250.467 525.187C250.467 526.107 250.817 526.837 251.517 527.377C252.217 527.897 253.197 528.157 254.457 528.157Z" fill="#19406E"/>
<rect x="53" y="766" width="692" height="100" rx="15" fill="white"/>
<path d="M333.199 828.36C331.059 828.36 329.119 827.9 327.379 826.98C325.659 826.04 324.299 824.75 323.299 823.11C322.319 821.45 321.829 819.58 321.829 817.5C321.829 815.42 322.319 813.56 323.299 811.92C324.299 810.26 325.659 808.97 327.379 808.05C329.119 807.11 331.069 806.64 333.229 806.64C335.049 806.64 336.689 806.96 338.149 807.6C339.629 808.24 340.869 809.16 341.869 810.36L338.749 813.24C337.329 811.6 335.569 810.78 333.469 810.78C332.169 810.78 331.009 811.07 329.989 811.65C328.969 812.21 328.169 813 327.589 814.02C327.029 815.04 326.749 816.2 326.749 817.5C326.749 818.8 327.029 819.96 327.589 820.98C328.169 822 328.969 822.8 329.989 823.38C331.009 823.94 332.169 824.22 333.469 824.22C335.569 824.22 337.329 823.39 338.749 821.73L341.869 824.61C340.869 825.83 339.629 826.76 338.149 827.4C336.669 828.04 335.019 828.36 333.199 828.36ZM351.945 828.24C350.245 828.24 348.715 827.89 347.355 827.19C346.015 826.47 344.965 825.48 344.205 824.22C343.445 822.96 343.065 821.53 343.065 819.93C343.065 818.33 343.445 816.9 344.205 815.64C344.965 814.38 346.015 813.4 347.355 812.7C348.715 811.98 350.245 811.62 351.945 811.62C353.645 811.62 355.165 811.98 356.505 812.7C357.845 813.4 358.895 814.38 359.655 815.64C360.415 816.9 360.795 818.33 360.795 819.93C360.795 821.53 360.415 822.96 359.655 824.22C358.895 825.48 357.845 826.47 356.505 827.19C355.165 827.89 353.645 828.24 351.945 828.24ZM351.945 824.4C353.145 824.4 354.125 824 354.885 823.2C355.665 822.38 356.055 821.29 356.055 819.93C356.055 818.57 355.665 817.49 354.885 816.69C354.125 815.87 353.145 815.46 351.945 815.46C350.745 815.46 349.755 815.87 348.975 816.69C348.195 817.49 347.805 818.57 347.805 819.93C347.805 821.29 348.195 822.38 348.975 823.2C349.755 824 350.745 824.4 351.945 824.4ZM373.733 811.62C375.733 811.62 377.343 812.22 378.563 813.42C379.803 814.62 380.423 816.4 380.423 818.76V828H375.743V819.48C375.743 818.2 375.463 817.25 374.903 816.63C374.343 815.99 373.533 815.67 372.473 815.67C371.293 815.67 370.353 816.04 369.653 816.78C368.953 817.5 368.603 818.58 368.603 820.02V828H363.923V811.86H368.393V813.75C369.013 813.07 369.783 812.55 370.703 812.19C371.623 811.81 372.633 811.62 373.733 811.62ZM395.075 827.22C394.615 827.56 394.045 827.82 393.365 828C392.705 828.16 392.005 828.24 391.265 828.24C389.345 828.24 387.855 827.75 386.795 826.77C385.755 825.79 385.235 824.35 385.235 822.45V815.82H382.745V812.22H385.235V808.29H389.915V812.22H393.935V815.82H389.915V822.39C389.915 823.07 390.085 823.6 390.425 823.98C390.785 824.34 391.285 824.52 391.925 824.52C392.665 824.52 393.295 824.32 393.815 823.92L395.075 827.22ZM397.702 811.86H402.382V828H397.702V811.86ZM400.042 809.61C399.182 809.61 398.482 809.36 397.942 808.86C397.402 808.36 397.132 807.74 397.132 807C397.132 806.26 397.402 805.64 397.942 805.14C398.482 804.64 399.182 804.39 400.042 804.39C400.902 804.39 401.602 804.63 402.142 805.11C402.682 805.59 402.952 806.19 402.952 806.91C402.952 807.69 402.682 808.34 402.142 808.86C401.602 809.36 400.902 809.61 400.042 809.61ZM416.536 811.62C418.536 811.62 420.146 812.22 421.366 813.42C422.606 814.62 423.226 816.4 423.226 818.76V828H418.546V819.48C418.546 818.2 418.266 817.25 417.706 816.63C417.146 815.99 416.336 815.67 415.276 815.67C414.096 815.67 413.156 816.04 412.456 816.78C411.756 817.5 411.406 818.58 411.406 820.02V828H406.726V811.86H411.196V813.75C411.816 813.07 412.586 812.55 413.506 812.19C414.426 811.81 415.436 811.62 416.536 811.62ZM443.728 811.86V828H439.288V826.08C438.668 826.78 437.928 827.32 437.068 827.7C436.208 828.06 435.278 828.24 434.278 828.24C432.158 828.24 430.478 827.63 429.238 826.41C427.998 825.19 427.378 823.38 427.378 820.98V811.86H432.058V820.29C432.058 822.89 433.148 824.19 435.328 824.19C436.448 824.19 437.348 823.83 438.028 823.11C438.708 822.37 439.048 821.28 439.048 819.84V811.86H443.728ZM454.573 811.62C457.073 811.62 458.993 812.22 460.333 813.42C461.673 814.6 462.343 816.39 462.343 818.79V828H457.963V825.99C457.083 827.49 455.443 828.24 453.043 828.24C451.803 828.24 450.723 828.03 449.803 827.61C448.903 827.19 448.213 826.61 447.733 825.87C447.253 825.13 447.013 824.29 447.013 823.35C447.013 821.85 447.573 820.67 448.693 819.81C449.833 818.95 451.583 818.52 453.943 818.52H457.663C457.663 817.5 457.353 816.72 456.733 816.18C456.113 815.62 455.183 815.34 453.943 815.34C453.083 815.34 452.233 815.48 451.393 815.76C450.573 816.02 449.873 816.38 449.293 816.84L447.613 813.57C448.493 812.95 449.543 812.47 450.763 812.13C452.003 811.79 453.273 811.62 454.573 811.62ZM454.213 825.09C455.013 825.09 455.723 824.91 456.343 824.55C456.963 824.17 457.403 823.62 457.663 822.9V821.25H454.453C452.533 821.25 451.573 821.88 451.573 823.14C451.573 823.74 451.803 824.22 452.263 824.58C452.743 824.92 453.393 825.09 454.213 825.09ZM471.049 813.99C471.609 813.21 472.359 812.62 473.299 812.22C474.259 811.82 475.359 811.62 476.599 811.62V815.94C476.079 815.9 475.729 815.88 475.549 815.88C474.209 815.88 473.159 816.26 472.399 817.02C471.639 817.76 471.259 818.88 471.259 820.38V828H466.579V811.86H471.049V813.99Z" fill="#3059D6"/>
</svg>
