<svg width="800" height="921" viewBox="0 0 800 921" fill="none" xmlns="https://www.w3.org/2000/svg">
<rect width="800" height="921" rx="25" fill="white"/>
<g opacity="0.5">
<rect x="50" y="502" width="699" height="100" rx="15" fill="#3059D6"/>
<path d="M348.877 558.1V562H332.617V541H348.487V544.9H337.447V549.46H347.197V553.24H337.447V558.1H348.877ZM373.084 545.62C375.104 545.62 376.704 546.22 377.884 547.42C379.084 548.6 379.684 550.38 379.684 552.76V562H375.004V553.48C375.004 552.2 374.734 551.25 374.194 550.63C373.674 549.99 372.924 549.67 371.944 549.67C370.844 549.67 369.974 550.03 369.334 550.75C368.694 551.45 368.374 552.5 368.374 553.9V562H363.694V553.48C363.694 550.94 362.674 549.67 360.634 549.67C359.554 549.67 358.694 550.03 358.054 550.75C357.414 551.45 357.094 552.5 357.094 553.9V562H352.414V545.86H356.884V547.72C357.484 547.04 358.214 546.52 359.074 546.16C359.954 545.8 360.914 545.62 361.954 545.62C363.094 545.62 364.124 545.85 365.044 546.31C365.964 546.75 366.704 547.4 367.264 548.26C367.924 547.42 368.754 546.77 369.754 546.31C370.774 545.85 371.884 545.62 373.084 545.62ZM393.418 545.62C394.918 545.62 396.278 545.97 397.498 546.67C398.738 547.35 399.708 548.32 400.408 549.58C401.108 550.82 401.458 552.27 401.458 553.93C401.458 555.59 401.108 557.05 400.408 558.31C399.708 559.55 398.738 560.52 397.498 561.22C396.278 561.9 394.918 562.24 393.418 562.24C391.358 562.24 389.738 561.59 388.558 560.29V567.82H383.878V545.86H388.348V547.72C389.508 546.32 391.198 545.62 393.418 545.62ZM392.608 558.4C393.808 558.4 394.788 558 395.548 557.2C396.328 556.38 396.718 555.29 396.718 553.93C396.718 552.57 396.328 551.49 395.548 550.69C394.788 549.87 393.808 549.46 392.608 549.46C391.408 549.46 390.418 549.87 389.638 550.69C388.878 551.49 388.498 552.57 388.498 553.93C388.498 555.29 388.878 556.38 389.638 557.2C390.418 558 391.408 558.4 392.608 558.4ZM420.401 553.99C420.401 554.05 420.371 554.47 420.311 555.25H408.101C408.321 556.25 408.841 557.04 409.661 557.62C410.481 558.2 411.501 558.49 412.721 558.49C413.561 558.49 414.301 558.37 414.941 558.13C415.601 557.87 416.211 557.47 416.771 556.93L419.261 559.63C417.741 561.37 415.521 562.24 412.601 562.24C410.781 562.24 409.171 561.89 407.771 561.19C406.371 560.47 405.291 559.48 404.531 558.22C403.771 556.96 403.391 555.53 403.391 553.93C403.391 552.35 403.761 550.93 404.501 549.67C405.261 548.39 406.291 547.4 407.591 546.7C408.911 545.98 410.381 545.62 412.001 545.62C413.581 545.62 415.011 545.96 416.291 546.64C417.571 547.32 418.571 548.3 419.291 549.58C420.031 550.84 420.401 552.31 420.401 553.99ZM412.031 549.16C410.971 549.16 410.081 549.46 409.361 550.06C408.641 550.66 408.201 551.48 408.041 552.52H415.991C415.831 551.5 415.391 550.69 414.671 550.09C413.951 549.47 413.071 549.16 412.031 549.16ZM436.661 558.4V562H422.261V559.18L430.481 549.46H422.471V545.86H436.391V548.68L428.171 558.4H436.661ZM446.17 545.62C448.67 545.62 450.59 546.22 451.93 547.42C453.27 548.6 453.94 550.39 453.94 552.79V562H449.56V559.99C448.68 561.49 447.04 562.24 444.64 562.24C443.4 562.24 442.32 562.03 441.4 561.61C440.5 561.19 439.81 560.61 439.33 559.87C438.85 559.13 438.61 558.29 438.61 557.35C438.61 555.85 439.17 554.67 440.29 553.81C441.43 552.95 443.18 552.52 445.54 552.52H449.26C449.26 551.5 448.95 550.72 448.33 550.18C447.71 549.62 446.78 549.34 445.54 549.34C444.68 549.34 443.83 549.48 442.99 549.76C442.17 550.02 441.47 550.38 440.89 550.84L439.21 547.57C440.09 546.95 441.14 546.47 442.36 546.13C443.6 545.79 444.87 545.62 446.17 545.62ZM445.81 559.09C446.61 559.09 447.32 558.91 447.94 558.55C448.56 558.17 449 557.62 449.26 556.9V555.25H446.05C444.13 555.25 443.17 555.88 443.17 557.14C443.17 557.74 443.4 558.22 443.86 558.58C444.34 558.92 444.99 559.09 445.81 559.09ZM462.645 547.99C463.205 547.21 463.955 546.62 464.895 546.22C465.855 545.82 466.955 545.62 468.195 545.62V549.94C467.675 549.9 467.325 549.88 467.145 549.88C465.805 549.88 464.755 550.26 463.995 551.02C463.235 551.76 462.855 552.88 462.855 554.38V562H458.175V545.86H462.645V547.99Z" fill="white"/>
</g>
<rect x="51" y="634" width="699" height="100" rx="15" fill="#3059D6"/>
<path d="M349.877 690.1V694H333.617V673H349.487V676.9H338.447V681.46H348.197V685.24H338.447V690.1H349.877ZM374.084 677.62C376.104 677.62 377.704 678.22 378.884 679.42C380.084 680.6 380.684 682.38 380.684 684.76V694H376.004V685.48C376.004 684.2 375.734 683.25 375.194 682.63C374.674 681.99 373.924 681.67 372.944 681.67C371.844 681.67 370.974 682.03 370.334 682.75C369.694 683.45 369.374 684.5 369.374 685.9V694H364.694V685.48C364.694 682.94 363.674 681.67 361.634 681.67C360.554 681.67 359.694 682.03 359.054 682.75C358.414 683.45 358.094 684.5 358.094 685.9V694H353.414V677.86H357.884V679.72C358.484 679.04 359.214 678.52 360.074 678.16C360.954 677.8 361.914 677.62 362.954 677.62C364.094 677.62 365.124 677.85 366.044 678.31C366.964 678.75 367.704 679.4 368.264 680.26C368.924 679.42 369.754 678.77 370.754 678.31C371.774 677.85 372.884 677.62 374.084 677.62ZM394.418 677.62C395.918 677.62 397.278 677.97 398.498 678.67C399.738 679.35 400.708 680.32 401.408 681.58C402.108 682.82 402.458 684.27 402.458 685.93C402.458 687.59 402.108 689.05 401.408 690.31C400.708 691.55 399.738 692.52 398.498 693.22C397.278 693.9 395.918 694.24 394.418 694.24C392.358 694.24 390.738 693.59 389.558 692.29V699.82H384.878V677.86H389.348V679.72C390.508 678.32 392.198 677.62 394.418 677.62ZM393.608 690.4C394.808 690.4 395.788 690 396.548 689.2C397.328 688.38 397.718 687.29 397.718 685.93C397.718 684.57 397.328 683.49 396.548 682.69C395.788 681.87 394.808 681.46 393.608 681.46C392.408 681.46 391.418 681.87 390.638 682.69C389.878 683.49 389.498 684.57 389.498 685.93C389.498 687.29 389.878 688.38 390.638 689.2C391.418 690 392.408 690.4 393.608 690.4ZM421.401 685.99C421.401 686.05 421.371 686.47 421.311 687.25H409.101C409.321 688.25 409.841 689.04 410.661 689.62C411.481 690.2 412.501 690.49 413.721 690.49C414.561 690.49 415.301 690.37 415.941 690.13C416.601 689.87 417.211 689.47 417.771 688.93L420.261 691.63C418.741 693.37 416.521 694.24 413.601 694.24C411.781 694.24 410.171 693.89 408.771 693.19C407.371 692.47 406.291 691.48 405.531 690.22C404.771 688.96 404.391 687.53 404.391 685.93C404.391 684.35 404.761 682.93 405.501 681.67C406.261 680.39 407.291 679.4 408.591 678.7C409.911 677.98 411.381 677.62 413.001 677.62C414.581 677.62 416.011 677.96 417.291 678.64C418.571 679.32 419.571 680.3 420.291 681.58C421.031 682.84 421.401 684.31 421.401 685.99ZM413.031 681.16C411.971 681.16 411.081 681.46 410.361 682.06C409.641 682.66 409.201 683.48 409.041 684.52H416.991C416.831 683.5 416.391 682.69 415.671 682.09C414.951 681.47 414.071 681.16 413.031 681.16ZM437.661 690.4V694H423.261V691.18L431.481 681.46H423.471V677.86H437.391V680.68L429.171 690.4H437.661ZM447.17 677.62C449.67 677.62 451.59 678.22 452.93 679.42C454.27 680.6 454.94 682.39 454.94 684.79V694H450.56V691.99C449.68 693.49 448.04 694.24 445.64 694.24C444.4 694.24 443.32 694.03 442.4 693.61C441.5 693.19 440.81 692.61 440.33 691.87C439.85 691.13 439.61 690.29 439.61 689.35C439.61 687.85 440.17 686.67 441.29 685.81C442.43 684.95 444.18 684.52 446.54 684.52H450.26C450.26 683.5 449.95 682.72 449.33 682.18C448.71 681.62 447.78 681.34 446.54 681.34C445.68 681.34 444.83 681.48 443.99 681.76C443.17 682.02 442.47 682.38 441.89 682.84L440.21 679.57C441.09 678.95 442.14 678.47 443.36 678.13C444.6 677.79 445.87 677.62 447.17 677.62ZM446.81 691.09C447.61 691.09 448.32 690.91 448.94 690.55C449.56 690.17 450 689.62 450.26 688.9V687.25H447.05C445.13 687.25 444.17 687.88 444.17 689.14C444.17 689.74 444.4 690.22 444.86 690.58C445.34 690.92 445.99 691.09 446.81 691.09ZM463.645 679.99C464.205 679.21 464.955 678.62 465.895 678.22C466.855 677.82 467.955 677.62 469.195 677.62V681.94C468.675 681.9 468.325 681.88 468.145 681.88C466.805 681.88 465.755 682.26 464.995 683.02C464.235 683.76 463.855 684.88 463.855 686.38V694H459.175V677.86H463.645V679.99Z" fill="white"/>
<rect x="52" y="766" width="699" height="100" rx="15" fill="#306DFF"/>
<path d="M350.877 822.1V826H334.617V805H350.487V808.9H339.447V813.46H349.197V817.24H339.447V822.1H350.877ZM375.084 809.62C377.104 809.62 378.704 810.22 379.884 811.42C381.084 812.6 381.684 814.38 381.684 816.76V826H377.004V817.48C377.004 816.2 376.734 815.25 376.194 814.63C375.674 813.99 374.924 813.67 373.944 813.67C372.844 813.67 371.974 814.03 371.334 814.75C370.694 815.45 370.374 816.5 370.374 817.9V826H365.694V817.48C365.694 814.94 364.674 813.67 362.634 813.67C361.554 813.67 360.694 814.03 360.054 814.75C359.414 815.45 359.094 816.5 359.094 817.9V826H354.414V809.86H358.884V811.72C359.484 811.04 360.214 810.52 361.074 810.16C361.954 809.8 362.914 809.62 363.954 809.62C365.094 809.62 366.124 809.85 367.044 810.31C367.964 810.75 368.704 811.4 369.264 812.26C369.924 811.42 370.754 810.77 371.754 810.31C372.774 809.85 373.884 809.62 375.084 809.62ZM395.418 809.62C396.918 809.62 398.278 809.97 399.498 810.67C400.738 811.35 401.708 812.32 402.408 813.58C403.108 814.82 403.458 816.27 403.458 817.93C403.458 819.59 403.108 821.05 402.408 822.31C401.708 823.55 400.738 824.52 399.498 825.22C398.278 825.9 396.918 826.24 395.418 826.24C393.358 826.24 391.738 825.59 390.558 824.29V831.82H385.878V809.86H390.348V811.72C391.508 810.32 393.198 809.62 395.418 809.62ZM394.608 822.4C395.808 822.4 396.788 822 397.548 821.2C398.328 820.38 398.718 819.29 398.718 817.93C398.718 816.57 398.328 815.49 397.548 814.69C396.788 813.87 395.808 813.46 394.608 813.46C393.408 813.46 392.418 813.87 391.638 814.69C390.878 815.49 390.498 816.57 390.498 817.93C390.498 819.29 390.878 820.38 391.638 821.2C392.418 822 393.408 822.4 394.608 822.4ZM422.401 817.99C422.401 818.05 422.371 818.47 422.311 819.25H410.101C410.321 820.25 410.841 821.04 411.661 821.62C412.481 822.2 413.501 822.49 414.721 822.49C415.561 822.49 416.301 822.37 416.941 822.13C417.601 821.87 418.211 821.47 418.771 820.93L421.261 823.63C419.741 825.37 417.521 826.24 414.601 826.24C412.781 826.24 411.171 825.89 409.771 825.19C408.371 824.47 407.291 823.48 406.531 822.22C405.771 820.96 405.391 819.53 405.391 817.93C405.391 816.35 405.761 814.93 406.501 813.67C407.261 812.39 408.291 811.4 409.591 810.7C410.911 809.98 412.381 809.62 414.001 809.62C415.581 809.62 417.011 809.96 418.291 810.64C419.571 811.32 420.571 812.3 421.291 813.58C422.031 814.84 422.401 816.31 422.401 817.99ZM414.031 813.16C412.971 813.16 412.081 813.46 411.361 814.06C410.641 814.66 410.201 815.48 410.041 816.52H417.991C417.831 815.5 417.391 814.69 416.671 814.09C415.951 813.47 415.071 813.16 414.031 813.16ZM438.661 822.4V826H424.261V823.18L432.481 813.46H424.471V809.86H438.391V812.68L430.171 822.4H438.661ZM448.17 809.62C450.67 809.62 452.59 810.22 453.93 811.42C455.27 812.6 455.94 814.39 455.94 816.79V826H451.56V823.99C450.68 825.49 449.04 826.24 446.64 826.24C445.4 826.24 444.32 826.03 443.4 825.61C442.5 825.19 441.81 824.61 441.33 823.87C440.85 823.13 440.61 822.29 440.61 821.35C440.61 819.85 441.17 818.67 442.29 817.81C443.43 816.95 445.18 816.52 447.54 816.52H451.26C451.26 815.5 450.95 814.72 450.33 814.18C449.71 813.62 448.78 813.34 447.54 813.34C446.68 813.34 445.83 813.48 444.99 813.76C444.17 814.02 443.47 814.38 442.89 814.84L441.21 811.57C442.09 810.95 443.14 810.47 444.36 810.13C445.6 809.79 446.87 809.62 448.17 809.62ZM447.81 823.09C448.61 823.09 449.32 822.91 449.94 822.55C450.56 822.17 451 821.62 451.26 820.9V819.25H448.05C446.13 819.25 445.17 819.88 445.17 821.14C445.17 821.74 445.4 822.22 445.86 822.58C446.34 822.92 446.99 823.09 447.81 823.09ZM464.645 811.99C465.205 811.21 465.955 810.62 466.895 810.22C467.855 809.82 468.955 809.62 470.195 809.62V813.94C469.675 813.9 469.325 813.88 469.145 813.88C467.805 813.88 466.755 814.26 465.995 815.02C465.235 815.76 464.855 816.88 464.855 818.38V826H460.175V809.86H464.645V811.99Z" fill="white"/>
<path d="M62 56.5H399.668V155.5H62C55.6487 155.5 50.5 150.351 50.5 144V68C50.5 61.6487 55.6487 56.5 62 56.5Z" fill="#EDF0F9" stroke="#466E9C"/>
<path d="M147.075 116.43C145.515 116.43 144.015 116.18 142.575 115.68C141.155 115.18 140.055 114.52 139.275 113.7L140.145 111.99C140.905 112.75 141.915 113.37 143.175 113.85C144.435 114.31 145.735 114.54 147.075 114.54C148.955 114.54 150.365 114.2 151.305 113.52C152.245 112.82 152.715 111.92 152.715 110.82C152.715 109.98 152.455 109.31 151.935 108.81C151.435 108.31 150.815 107.93 150.075 107.67C149.335 107.39 148.305 107.09 146.985 106.77C145.405 106.37 144.145 105.99 143.205 105.63C142.265 105.25 141.455 104.68 140.775 103.92C140.115 103.16 139.785 102.13 139.785 100.83C139.785 99.77 140.065 98.81 140.625 97.95C141.185 97.07 142.045 96.37 143.205 95.85C144.365 95.33 145.805 95.07 147.525 95.07C148.725 95.07 149.895 95.24 151.035 95.58C152.195 95.9 153.195 96.35 154.035 96.93L153.285 98.7C152.405 98.12 151.465 97.69 150.465 97.41C149.465 97.11 148.485 96.96 147.525 96.96C145.685 96.96 144.295 97.32 143.355 98.04C142.435 98.74 141.975 99.65 141.975 100.77C141.975 101.61 142.225 102.29 142.725 102.81C143.245 103.31 143.885 103.7 144.645 103.98C145.425 104.24 146.465 104.53 147.765 104.85C149.305 105.23 150.545 105.61 151.485 105.99C152.445 106.35 153.255 106.91 153.915 107.67C154.575 108.41 154.905 109.42 154.905 110.7C154.905 111.76 154.615 112.73 154.035 113.61C153.475 114.47 152.605 115.16 151.425 115.68C150.245 116.18 148.795 116.43 147.075 116.43ZM173.512 100.47V116.25H171.472V113.37C170.912 114.33 170.142 115.08 169.162 115.62C168.182 116.14 167.062 116.4 165.802 116.4C163.742 116.4 162.112 115.83 160.912 114.69C159.732 113.53 159.142 111.84 159.142 109.62V100.47H161.272V109.41C161.272 111.07 161.682 112.33 162.502 113.19C163.322 114.05 164.492 114.48 166.012 114.48C167.672 114.48 168.982 113.98 169.942 112.98C170.902 111.96 171.382 110.55 171.382 108.75V100.47H173.512ZM183.708 116.4C182.428 116.4 181.198 116.22 180.018 115.86C178.858 115.48 177.948 115.01 177.288 114.45L178.248 112.77C178.908 113.29 179.738 113.72 180.738 114.06C181.738 114.38 182.778 114.54 183.858 114.54C185.298 114.54 186.358 114.32 187.038 113.88C187.738 113.42 188.088 112.78 188.088 111.96C188.088 111.38 187.898 110.93 187.518 110.61C187.138 110.27 186.658 110.02 186.078 109.86C185.498 109.68 184.728 109.51 183.768 109.35C182.488 109.11 181.458 108.87 180.678 108.63C179.898 108.37 179.228 107.94 178.668 107.34C178.128 106.74 177.858 105.91 177.858 104.85C177.858 103.53 178.408 102.45 179.508 101.61C180.608 100.77 182.138 100.35 184.098 100.35C185.118 100.35 186.138 100.49 187.158 100.77C188.178 101.03 189.018 101.38 189.678 101.82L188.748 103.53C187.448 102.63 185.898 102.18 184.098 102.18C182.738 102.18 181.708 102.42 181.008 102.9C180.328 103.38 179.988 104.01 179.988 104.79C179.988 105.39 180.178 105.87 180.558 106.23C180.958 106.59 181.448 106.86 182.028 107.04C182.608 107.2 183.408 107.37 184.428 107.55C185.688 107.79 186.698 108.03 187.458 108.27C188.218 108.51 188.868 108.92 189.408 109.5C189.948 110.08 190.218 110.88 190.218 111.9C190.218 113.28 189.638 114.38 188.478 115.2C187.338 116 185.748 116.4 183.708 116.4ZM200.696 116.4C199.136 116.4 197.736 116.06 196.496 115.38C195.276 114.7 194.316 113.75 193.616 112.53C192.916 111.29 192.566 109.9 192.566 108.36C192.566 106.82 192.916 105.44 193.616 104.22C194.316 103 195.276 102.05 196.496 101.37C197.736 100.69 199.136 100.35 200.696 100.35C202.056 100.35 203.266 100.62 204.326 101.16C205.406 101.68 206.256 102.45 206.876 103.47L205.286 104.55C204.766 103.77 204.106 103.19 203.306 102.81C202.506 102.41 201.636 102.21 200.696 102.21C199.556 102.21 198.526 102.47 197.606 102.99C196.706 103.49 195.996 104.21 195.476 105.15C194.976 106.09 194.726 107.16 194.726 108.36C194.726 109.58 194.976 110.66 195.476 111.6C195.996 112.52 196.706 113.24 197.606 113.76C198.526 114.26 199.556 114.51 200.696 114.51C201.636 114.51 202.506 114.32 203.306 113.94C204.106 113.56 204.766 112.98 205.286 112.2L206.876 113.28C206.256 114.3 205.406 115.08 204.326 115.62C203.246 116.14 202.036 116.4 200.696 116.4ZM213.1 103.56C213.6 102.5 214.34 101.7 215.32 101.16C216.32 100.62 217.55 100.35 219.01 100.35V102.42L218.5 102.39C216.84 102.39 215.54 102.9 214.6 103.92C213.66 104.94 213.19 106.37 213.19 108.21V116.25H211.06V100.47H213.1V103.56ZM222.866 100.47H224.996V116.25H222.866V100.47ZM223.946 97.02C223.506 97.02 223.136 96.87 222.836 96.57C222.536 96.27 222.386 95.91 222.386 95.49C222.386 95.09 222.536 94.74 222.836 94.44C223.136 94.14 223.506 93.99 223.946 93.99C224.386 93.99 224.756 94.14 225.056 94.44C225.356 94.72 225.506 95.06 225.506 95.46C225.506 95.9 225.356 96.27 225.056 96.57C224.756 96.87 224.386 97.02 223.946 97.02ZM239.053 100.35C240.533 100.35 241.873 100.69 243.073 101.37C244.273 102.03 245.213 102.97 245.893 104.19C246.573 105.41 246.913 106.8 246.913 108.36C246.913 109.94 246.573 111.34 245.893 112.56C245.213 113.78 244.273 114.73 243.073 115.41C241.893 116.07 240.553 116.4 239.053 116.4C237.773 116.4 236.613 116.14 235.573 115.62C234.553 115.08 233.713 114.3 233.053 113.28V122.07H230.923V100.47H232.963V103.59C233.603 102.55 234.443 101.75 235.483 101.19C236.543 100.63 237.733 100.35 239.053 100.35ZM238.903 114.51C240.003 114.51 241.003 114.26 241.903 113.76C242.803 113.24 243.503 112.51 244.003 111.57C244.523 110.63 244.783 109.56 244.783 108.36C244.783 107.16 244.523 106.1 244.003 105.18C243.503 104.24 242.803 103.51 241.903 102.99C241.003 102.47 240.003 102.21 238.903 102.21C237.783 102.21 236.773 102.47 235.873 102.99C234.993 103.51 234.293 104.24 233.773 105.18C233.273 106.1 233.023 107.16 233.023 108.36C233.023 109.56 233.273 110.63 233.773 111.57C234.293 112.51 234.993 113.24 235.873 113.76C236.773 114.26 237.783 114.51 238.903 114.51ZM257.795 116.4C256.235 116.4 254.835 116.06 253.595 115.38C252.375 114.7 251.415 113.75 250.715 112.53C250.015 111.29 249.665 109.9 249.665 108.36C249.665 106.82 250.015 105.44 250.715 104.22C251.415 103 252.375 102.05 253.595 101.37C254.835 100.69 256.235 100.35 257.795 100.35C259.155 100.35 260.365 100.62 261.425 101.16C262.505 101.68 263.355 102.45 263.975 103.47L262.385 104.55C261.865 103.77 261.205 103.19 260.405 102.81C259.605 102.41 258.735 102.21 257.795 102.21C256.655 102.21 255.625 102.47 254.705 102.99C253.805 103.49 253.095 104.21 252.575 105.15C252.075 106.09 251.825 107.16 251.825 108.36C251.825 109.58 252.075 110.66 252.575 111.6C253.095 112.52 253.805 113.24 254.705 113.76C255.625 114.26 256.655 114.51 257.795 114.51C258.735 114.51 259.605 114.32 260.405 113.94C261.205 113.56 261.865 112.98 262.385 112.2L263.975 113.28C263.355 114.3 262.505 115.08 261.425 115.62C260.345 116.14 259.135 116.4 257.795 116.4ZM268.159 100.47H270.289V116.25H268.159V100.47ZM269.239 97.02C268.799 97.02 268.429 96.87 268.129 96.57C267.829 96.27 267.679 95.91 267.679 95.49C267.679 95.09 267.829 94.74 268.129 94.44C268.429 94.14 268.799 93.99 269.239 93.99C269.679 93.99 270.049 94.14 270.349 94.44C270.649 94.72 270.799 95.06 270.799 95.46C270.799 95.9 270.649 96.27 270.349 96.57C270.049 96.87 269.679 97.02 269.239 97.02ZM282.666 116.4C281.146 116.4 279.776 116.06 278.556 115.38C277.336 114.68 276.376 113.72 275.676 112.5C274.976 111.28 274.626 109.9 274.626 108.36C274.626 106.82 274.976 105.44 275.676 104.22C276.376 103 277.336 102.05 278.556 101.37C279.776 100.69 281.146 100.35 282.666 100.35C284.186 100.35 285.556 100.69 286.776 101.37C287.996 102.05 288.946 103 289.626 104.22C290.326 105.44 290.676 106.82 290.676 108.36C290.676 109.9 290.326 111.28 289.626 112.5C288.946 113.72 287.996 114.68 286.776 115.38C285.556 116.06 284.186 116.4 282.666 116.4ZM282.666 114.51C283.786 114.51 284.786 114.26 285.666 113.76C286.566 113.24 287.266 112.51 287.766 111.57C288.266 110.63 288.516 109.56 288.516 108.36C288.516 107.16 288.266 106.09 287.766 105.15C287.266 104.21 286.566 103.49 285.666 102.99C284.786 102.47 283.786 102.21 282.666 102.21C281.546 102.21 280.536 102.47 279.636 102.99C278.756 103.49 278.056 104.21 277.536 105.15C277.036 106.09 276.786 107.16 276.786 108.36C276.786 109.56 277.036 110.63 277.536 111.57C278.056 112.51 278.756 113.24 279.636 113.76C280.536 114.26 281.546 114.51 282.666 114.51ZM284.796 94.29H287.646L282.786 98.01H280.686L284.796 94.29ZM303.065 100.35C305.045 100.35 306.615 100.93 307.775 102.09C308.955 103.23 309.545 104.9 309.545 107.1V116.25H307.415V107.31C307.415 105.67 307.005 104.42 306.185 103.56C305.365 102.7 304.195 102.27 302.675 102.27C300.975 102.27 299.625 102.78 298.625 103.8C297.645 104.8 297.155 106.19 297.155 107.97V116.25H295.025V100.47H297.065V103.38C297.645 102.42 298.445 101.68 299.465 101.16C300.505 100.62 301.705 100.35 303.065 100.35Z" fill="#19406E"/>
<path d="M400.168 56H737C743.627 56 749 61.3726 749 68V144C749 150.627 743.627 156 737 156H400.168V56Z" fill="white"/>
<path d="M400.668 56.5H737C743.351 56.5 748.5 61.6487 748.5 68V144C748.5 150.351 743.351 155.5 737 155.5H400.668V56.5Z" stroke="#466E9C" stroke-opacity="0.4"/>
<path opacity="0.4" d="M517.004 97.17H509.624V95.25H526.604V97.17H519.224V116.25H517.004V97.17ZM531.33 103.56C531.83 102.5 532.57 101.7 533.55 101.16C534.55 100.62 535.78 100.35 537.24 100.35V102.42L536.73 102.39C535.07 102.39 533.77 102.9 532.83 103.92C531.89 104.94 531.42 106.37 531.42 108.21V116.25H529.29V100.47H531.33V103.56ZM546.588 100.35C548.648 100.35 550.228 100.87 551.328 101.91C552.428 102.93 552.978 104.45 552.978 106.47V116.25H550.938V113.79C550.458 114.61 549.748 115.25 548.808 115.71C547.888 116.17 546.788 116.4 545.508 116.4C543.748 116.4 542.348 115.98 541.308 115.14C540.268 114.3 539.748 113.19 539.748 111.81C539.748 110.47 540.228 109.39 541.188 108.57C542.168 107.75 543.718 107.34 545.838 107.34H550.848V106.38C550.848 105.02 550.468 103.99 549.708 103.29C548.948 102.57 547.838 102.21 546.378 102.21C545.378 102.21 544.418 102.38 543.498 102.72C542.578 103.04 541.788 103.49 541.128 104.07L540.168 102.48C540.968 101.8 541.928 101.28 543.048 100.92C544.168 100.54 545.348 100.35 546.588 100.35ZM545.838 114.72C547.038 114.72 548.068 114.45 548.928 113.91C549.788 113.35 550.428 112.55 550.848 111.51V108.93H545.898C543.198 108.93 541.848 109.87 541.848 111.75C541.848 112.67 542.198 113.4 542.898 113.94C543.598 114.46 544.578 114.72 545.838 114.72ZM562.993 116.4C561.713 116.4 560.483 116.22 559.303 115.86C558.143 115.48 557.233 115.01 556.573 114.45L557.533 112.77C558.193 113.29 559.023 113.72 560.023 114.06C561.023 114.38 562.063 114.54 563.143 114.54C564.583 114.54 565.643 114.32 566.323 113.88C567.023 113.42 567.373 112.78 567.373 111.96C567.373 111.38 567.183 110.93 566.803 110.61C566.423 110.27 565.943 110.02 565.363 109.86C564.783 109.68 564.013 109.51 563.053 109.35C561.773 109.11 560.743 108.87 559.963 108.63C559.183 108.37 558.513 107.94 557.953 107.34C557.413 106.74 557.143 105.91 557.143 104.85C557.143 103.53 557.693 102.45 558.793 101.61C559.893 100.77 561.423 100.35 563.383 100.35C564.403 100.35 565.423 100.49 566.443 100.77C567.463 101.03 568.303 101.38 568.963 101.82L568.033 103.53C566.733 102.63 565.183 102.18 563.383 102.18C562.023 102.18 560.993 102.42 560.293 102.9C559.613 103.38 559.273 104.01 559.273 104.79C559.273 105.39 559.463 105.87 559.843 106.23C560.243 106.59 560.733 106.86 561.313 107.04C561.893 107.2 562.693 107.37 563.713 107.55C564.973 107.79 565.983 108.03 566.743 108.27C567.503 108.51 568.153 108.92 568.693 109.5C569.233 110.08 569.503 110.88 569.503 111.9C569.503 113.28 568.923 114.38 567.763 115.2C566.623 116 565.033 116.4 562.993 116.4ZM581.571 100.35C583.051 100.35 584.391 100.69 585.591 101.37C586.791 102.03 587.731 102.97 588.411 104.19C589.091 105.41 589.431 106.8 589.431 108.36C589.431 109.94 589.091 111.34 588.411 112.56C587.731 113.78 586.791 114.73 585.591 115.41C584.411 116.07 583.071 116.4 581.571 116.4C580.291 116.4 579.131 116.14 578.091 115.62C577.071 115.08 576.231 114.3 575.571 113.28V122.07H573.441V100.47H575.481V103.59C576.121 102.55 576.961 101.75 578.001 101.19C579.061 100.63 580.251 100.35 581.571 100.35ZM581.421 114.51C582.521 114.51 583.521 114.26 584.421 113.76C585.321 113.24 586.021 112.51 586.521 111.57C587.041 110.63 587.301 109.56 587.301 108.36C587.301 107.16 587.041 106.1 586.521 105.18C586.021 104.24 585.321 103.51 584.421 102.99C583.521 102.47 582.521 102.21 581.421 102.21C580.301 102.21 579.291 102.47 578.391 102.99C577.511 103.51 576.811 104.24 576.291 105.18C575.791 106.1 575.541 107.16 575.541 108.36C575.541 109.56 575.791 110.63 576.291 111.57C576.811 112.51 577.511 113.24 578.391 113.76C579.291 114.26 580.301 114.51 581.421 114.51ZM599.205 100.35C601.265 100.35 602.845 100.87 603.945 101.91C605.045 102.93 605.595 104.45 605.595 106.47V116.25H603.555V113.79C603.075 114.61 602.365 115.25 601.425 115.71C600.505 116.17 599.405 116.4 598.125 116.4C596.365 116.4 594.965 115.98 593.925 115.14C592.885 114.3 592.365 113.19 592.365 111.81C592.365 110.47 592.845 109.39 593.805 108.57C594.785 107.75 596.335 107.34 598.455 107.34H603.465V106.38C603.465 105.02 603.085 103.99 602.325 103.29C601.565 102.57 600.455 102.21 598.995 102.21C597.995 102.21 597.035 102.38 596.115 102.72C595.195 103.04 594.405 103.49 593.745 104.07L592.785 102.48C593.585 101.8 594.545 101.28 595.665 100.92C596.785 100.54 597.965 100.35 599.205 100.35ZM598.455 114.72C599.655 114.72 600.685 114.45 601.545 113.91C602.405 113.35 603.045 112.55 603.465 111.51V108.93H598.515C595.815 108.93 594.465 109.87 594.465 111.75C594.465 112.67 594.815 113.4 595.515 113.94C596.215 114.46 597.195 114.72 598.455 114.72ZM615.61 116.4C614.33 116.4 613.1 116.22 611.92 115.86C610.76 115.48 609.85 115.01 609.19 114.45L610.15 112.77C610.81 113.29 611.64 113.72 612.64 114.06C613.64 114.38 614.68 114.54 615.76 114.54C617.2 114.54 618.26 114.32 618.94 113.88C619.64 113.42 619.99 112.78 619.99 111.96C619.99 111.38 619.8 110.93 619.42 110.61C619.04 110.27 618.56 110.02 617.98 109.86C617.4 109.68 616.63 109.51 615.67 109.35C614.39 109.11 613.36 108.87 612.58 108.63C611.8 108.37 611.13 107.94 610.57 107.34C610.03 106.74 609.76 105.91 609.76 104.85C609.76 103.53 610.31 102.45 611.41 101.61C612.51 100.77 614.04 100.35 616 100.35C617.02 100.35 618.04 100.49 619.06 100.77C620.08 101.03 620.92 101.38 621.58 101.82L620.65 103.53C619.35 102.63 617.8 102.18 616 102.18C614.64 102.18 613.61 102.42 612.91 102.9C612.23 103.38 611.89 104.01 611.89 104.79C611.89 105.39 612.08 105.87 612.46 106.23C612.86 106.59 613.35 106.86 613.93 107.04C614.51 107.2 615.31 107.37 616.33 107.55C617.59 107.79 618.6 108.03 619.36 108.27C620.12 108.51 620.77 108.92 621.31 109.5C621.85 110.08 622.12 110.88 622.12 111.9C622.12 113.28 621.54 114.38 620.38 115.2C619.24 116 617.65 116.4 615.61 116.4ZM632.508 116.4C630.988 116.4 629.618 116.06 628.398 115.38C627.178 114.68 626.218 113.72 625.518 112.5C624.818 111.28 624.468 109.9 624.468 108.36C624.468 106.82 624.818 105.44 625.518 104.22C626.218 103 627.178 102.05 628.398 101.37C629.618 100.69 630.988 100.35 632.508 100.35C634.028 100.35 635.398 100.69 636.618 101.37C637.838 102.05 638.788 103 639.468 104.22C640.168 105.44 640.518 106.82 640.518 108.36C640.518 109.9 640.168 111.28 639.468 112.5C638.788 113.72 637.838 114.68 636.618 115.38C635.398 116.06 634.028 116.4 632.508 116.4ZM632.508 114.51C633.628 114.51 634.628 114.26 635.508 113.76C636.408 113.24 637.108 112.51 637.608 111.57C638.108 110.63 638.358 109.56 638.358 108.36C638.358 107.16 638.108 106.09 637.608 105.15C637.108 104.21 636.408 103.49 635.508 102.99C634.628 102.47 633.628 102.21 632.508 102.21C631.388 102.21 630.378 102.47 629.478 102.99C628.598 103.49 627.898 104.21 627.378 105.15C626.878 106.09 626.628 107.16 626.628 108.36C626.628 109.56 626.878 110.63 627.378 111.57C627.898 112.51 628.598 113.24 629.478 113.76C630.378 114.26 631.388 114.51 632.508 114.51Z" fill="#19406E"/>
<path d="M62 188.5H399.668V287.5H62C55.6487 287.5 50.5 282.351 50.5 276V200C50.5 193.649 55.6487 188.5 62 188.5Z" fill="#EDF0F9" stroke="#466E9C"/>
<path d="M221.064 248.43C219.504 248.43 218.004 248.18 216.564 247.68C215.144 247.18 214.044 246.52 213.264 245.7L214.134 243.99C214.894 244.75 215.904 245.37 217.164 245.85C218.424 246.31 219.724 246.54 221.064 246.54C222.944 246.54 224.354 246.2 225.294 245.52C226.234 244.82 226.704 243.92 226.704 242.82C226.704 241.98 226.444 241.31 225.924 240.81C225.424 240.31 224.804 239.93 224.064 239.67C223.324 239.39 222.294 239.09 220.974 238.77C219.394 238.37 218.134 237.99 217.194 237.63C216.254 237.25 215.444 236.68 214.764 235.92C214.104 235.16 213.774 234.13 213.774 232.83C213.774 231.77 214.054 230.81 214.614 229.95C215.174 229.07 216.034 228.37 217.194 227.85C218.354 227.33 219.794 227.07 221.514 227.07C222.714 227.07 223.884 227.24 225.024 227.58C226.184 227.9 227.184 228.35 228.024 228.93L227.274 230.7C226.394 230.12 225.454 229.69 224.454 229.41C223.454 229.11 222.474 228.96 221.514 228.96C219.674 228.96 218.284 229.32 217.344 230.04C216.424 230.74 215.964 231.65 215.964 232.77C215.964 233.61 216.214 234.29 216.714 234.81C217.234 235.31 217.874 235.7 218.634 235.98C219.414 236.24 220.454 236.53 221.754 236.85C223.294 237.23 224.534 237.61 225.474 237.99C226.434 238.35 227.244 238.91 227.904 239.67C228.564 240.41 228.894 241.42 228.894 242.7C228.894 243.76 228.604 244.73 228.024 245.61C227.464 246.47 226.594 247.16 225.414 247.68C224.234 248.18 222.784 248.43 221.064 248.43ZM233.282 232.47H235.412V248.25H233.282V232.47ZM236.522 226.29H239.372L234.512 230.01H232.412L236.522 226.29Z" fill="#19406E"/>
<path d="M400.168 188H737C743.627 188 749 193.373 749 200V276C749 282.627 743.627 288 737 288H400.168V188Z" fill="white"/>
<path d="M400.668 188.5H737C743.351 188.5 748.5 193.649 748.5 200V276C748.5 282.351 743.351 287.5 737 287.5H400.668V188.5Z" stroke="#466E9C" stroke-opacity="0.4"/>
<path opacity="0.4" d="M574.564 227.25V248.25H572.734L559.234 231.21V248.25H557.014V227.25H558.844L572.374 244.29V227.25H574.564ZM587.418 248.4C585.898 248.4 584.528 248.06 583.308 247.38C582.088 246.68 581.128 245.72 580.428 244.5C579.728 243.28 579.378 241.9 579.378 240.36C579.378 238.82 579.728 237.44 580.428 236.22C581.128 235 582.088 234.05 583.308 233.37C584.528 232.69 585.898 232.35 587.418 232.35C588.938 232.35 590.308 232.69 591.528 233.37C592.748 234.05 593.698 235 594.378 236.22C595.078 237.44 595.428 238.82 595.428 240.36C595.428 241.9 595.078 243.28 594.378 244.5C593.698 245.72 592.748 246.68 591.528 247.38C590.308 248.06 588.938 248.4 587.418 248.4ZM587.418 246.51C588.538 246.51 589.538 246.26 590.418 245.76C591.318 245.24 592.018 244.51 592.518 243.57C593.018 242.63 593.268 241.56 593.268 240.36C593.268 239.16 593.018 238.09 592.518 237.15C592.018 236.21 591.318 235.49 590.418 234.99C589.538 234.47 588.538 234.21 587.418 234.21C586.298 234.21 585.288 234.47 584.388 234.99C583.508 235.49 582.808 236.21 582.288 237.15C581.788 238.09 581.538 239.16 581.538 240.36C581.538 241.56 581.788 242.63 582.288 243.57C582.808 244.51 583.508 245.24 584.388 245.76C585.288 246.26 586.298 246.51 587.418 246.51Z" fill="#19406E"/>
<path d="M50 332C50 325.373 55.3726 320 62 320H400.168V420H62C55.3726 420 50 414.627 50 408V332Z" fill="white"/>
<path d="M62 320.5H399.668V419.5H62C55.6487 419.5 50.5 414.351 50.5 408V332C50.5 325.649 55.6487 320.5 62 320.5Z" stroke="#466E9C" stroke-opacity="0.4"/>
<path opacity="0.4" d="M221.064 380.43C219.504 380.43 218.004 380.18 216.564 379.68C215.144 379.18 214.044 378.52 213.264 377.7L214.134 375.99C214.894 376.75 215.904 377.37 217.164 377.85C218.424 378.31 219.724 378.54 221.064 378.54C222.944 378.54 224.354 378.2 225.294 377.52C226.234 376.82 226.704 375.92 226.704 374.82C226.704 373.98 226.444 373.31 225.924 372.81C225.424 372.31 224.804 371.93 224.064 371.67C223.324 371.39 222.294 371.09 220.974 370.77C219.394 370.37 218.134 369.99 217.194 369.63C216.254 369.25 215.444 368.68 214.764 367.92C214.104 367.16 213.774 366.13 213.774 364.83C213.774 363.77 214.054 362.81 214.614 361.95C215.174 361.07 216.034 360.37 217.194 359.85C218.354 359.33 219.794 359.07 221.514 359.07C222.714 359.07 223.884 359.24 225.024 359.58C226.184 359.9 227.184 360.35 228.024 360.93L227.274 362.7C226.394 362.12 225.454 361.69 224.454 361.41C223.454 361.11 222.474 360.96 221.514 360.96C219.674 360.96 218.284 361.32 217.344 362.04C216.424 362.74 215.964 363.65 215.964 364.77C215.964 365.61 216.214 366.29 216.714 366.81C217.234 367.31 217.874 367.7 218.634 367.98C219.414 368.24 220.454 368.53 221.754 368.85C223.294 369.23 224.534 369.61 225.474 369.99C226.434 370.35 227.244 370.91 227.904 371.67C228.564 372.41 228.894 373.42 228.894 374.7C228.894 375.76 228.604 376.73 228.024 377.61C227.464 378.47 226.594 379.16 225.414 379.68C224.234 380.18 222.784 380.43 221.064 380.43ZM233.282 364.47H235.412V380.25H233.282V364.47ZM236.522 358.29H239.372L234.512 362.01H232.412L236.522 358.29Z" fill="#19406E"/>
<path d="M400.668 320.5H737C743.351 320.5 748.5 325.649 748.5 332V408C748.5 414.351 743.351 419.5 737 419.5H400.668V320.5Z" fill="#EDF0F9" stroke="#466E9C"/>
<path d="M574.564 359.25V380.25H572.734L559.234 363.21V380.25H557.014V359.25H558.844L572.374 376.29V359.25H574.564ZM587.418 380.4C585.898 380.4 584.528 380.06 583.308 379.38C582.088 378.68 581.128 377.72 580.428 376.5C579.728 375.28 579.378 373.9 579.378 372.36C579.378 370.82 579.728 369.44 580.428 368.22C581.128 367 582.088 366.05 583.308 365.37C584.528 364.69 585.898 364.35 587.418 364.35C588.938 364.35 590.308 364.69 591.528 365.37C592.748 366.05 593.698 367 594.378 368.22C595.078 369.44 595.428 370.82 595.428 372.36C595.428 373.9 595.078 375.28 594.378 376.5C593.698 377.72 592.748 378.68 591.528 379.38C590.308 380.06 588.938 380.4 587.418 380.4ZM587.418 378.51C588.538 378.51 589.538 378.26 590.418 377.76C591.318 377.24 592.018 376.51 592.518 375.57C593.018 374.63 593.268 373.56 593.268 372.36C593.268 371.16 593.018 370.09 592.518 369.15C592.018 368.21 591.318 367.49 590.418 366.99C589.538 366.47 588.538 366.21 587.418 366.21C586.298 366.21 585.288 366.47 584.388 366.99C583.508 367.49 582.808 368.21 582.288 369.15C581.788 370.09 581.538 371.16 581.538 372.36C581.538 373.56 581.788 374.63 582.288 375.57C582.808 376.51 583.508 377.24 584.388 377.76C585.288 378.26 586.298 378.51 587.418 378.51Z" fill="#19406E"/>
</svg>
