<svg width="800" height="921" viewBox="0 0 800 921" fill="none" xmlns="http://www.w3.org/2000/svg">
<path d="M25 0.5H775C788.531 0.5 799.5 11.469 799.5 25V896C799.5 909.531 788.531 920.5 775 920.5H25C11.469 920.5 0.5 909.531 0.5 896V25C0.5 11.469 11.469 0.5 25 0.5Z" fill="#E9EFF6" stroke="#BED0E4"/>
<path d="M734 502H66C59.3726 502 54 507.373 54 514V590C54 596.627 59.3726 602 66 602H734C740.627 602 746 596.627 746 590V514C746 507.373 740.627 502 734 502Z" fill="white"/>
<path d="M734 502.5H66C59.6487 502.5 54.5 507.649 54.5 514V590C54.5 596.351 59.6487 601.5 66 601.5H734C740.351 601.5 745.5 596.351 745.5 590V514C745.5 507.649 740.351 502.5 734 502.5Z" stroke="#466E9C" stroke-opacity="0.4"/>
<path opacity="0.4" fill-rule="evenodd" clip-rule="evenodd" d="M693.15 552.27C692.515 551.735 692.434 550.786 692.97 550.15C693.505 549.515 694.454 549.434 695.089 549.97L703.5 557.059L711.911 549.97C712.546 549.434 713.495 549.515 714.03 550.15C714.566 550.786 714.485 551.735 713.85 552.27L703.5 560.993L693.15 552.27Z" fill="#19406E"/>
<path opacity="0.7" d="M113.97 540.375V561.375H112.14L98.6399 544.335V561.375H96.4199V540.375H98.2499L111.78 557.415V540.375H113.97ZM125.894 545.475C127.954 545.475 129.534 545.995 130.634 547.035C131.734 548.055 132.284 549.575 132.284 551.595V561.375H130.244V558.915C129.764 559.735 129.054 560.375 128.114 560.835C127.194 561.295 126.094 561.525 124.814 561.525C123.054 561.525 121.654 561.105 120.614 560.265C119.574 559.425 119.054 558.315 119.054 556.935C119.054 555.595 119.534 554.515 120.494 553.695C121.474 552.875 123.024 552.465 125.144 552.465H130.154V551.505C130.154 550.145 129.774 549.115 129.014 548.415C128.254 547.695 127.144 547.335 125.684 547.335C124.684 547.335 123.724 547.505 122.804 547.845C121.884 548.165 121.094 548.615 120.434 549.195L119.474 547.605C120.274 546.925 121.234 546.405 122.354 546.045C123.474 545.665 124.654 545.475 125.894 545.475ZM125.144 559.845C126.344 559.845 127.374 559.575 128.234 559.035C129.094 558.475 129.734 557.675 130.154 556.635V554.055H125.204C122.504 554.055 121.154 554.995 121.154 556.875C121.154 557.795 121.504 558.525 122.204 559.065C122.904 559.585 123.884 559.845 125.144 559.845ZM144.668 561.525C143.108 561.525 141.708 561.185 140.468 560.505C139.248 559.825 138.288 558.875 137.588 557.655C136.888 556.415 136.538 555.025 136.538 553.485C136.538 551.945 136.888 550.565 137.588 549.345C138.288 548.125 139.248 547.175 140.468 546.495C141.708 545.815 143.108 545.475 144.668 545.475C146.028 545.475 147.238 545.745 148.298 546.285C149.378 546.805 150.228 547.575 150.848 548.595L149.258 549.675C148.738 548.895 148.078 548.315 147.278 547.935C146.478 547.535 145.608 547.335 144.668 547.335C143.528 547.335 142.498 547.595 141.578 548.115C140.678 548.615 139.968 549.335 139.448 550.275C138.948 551.215 138.698 552.285 138.698 553.485C138.698 554.705 138.948 555.785 139.448 556.725C139.968 557.645 140.678 558.365 141.578 558.885C142.498 559.385 143.528 559.635 144.668 559.635C145.608 559.635 146.478 559.445 147.278 559.065C148.078 558.685 148.738 558.105 149.258 557.325L150.848 558.405C150.228 559.425 149.378 560.205 148.298 560.745C147.218 561.265 146.008 561.525 144.668 561.525ZM155.033 545.595H157.163V561.375H155.033V545.595ZM156.113 542.145C155.673 542.145 155.303 541.995 155.003 541.695C154.703 541.395 154.553 541.035 154.553 540.615C154.553 540.215 154.703 539.865 155.003 539.565C155.303 539.265 155.673 539.115 156.113 539.115C156.553 539.115 156.923 539.265 157.223 539.565C157.523 539.845 157.673 540.185 157.673 540.585C157.673 541.025 157.523 541.395 157.223 541.695C156.923 541.995 156.553 542.145 156.113 542.145ZM169.539 561.525C168.019 561.525 166.649 561.185 165.429 560.505C164.209 559.805 163.249 558.845 162.549 557.625C161.849 556.405 161.499 555.025 161.499 553.485C161.499 551.945 161.849 550.565 162.549 549.345C163.249 548.125 164.209 547.175 165.429 546.495C166.649 545.815 168.019 545.475 169.539 545.475C171.059 545.475 172.429 545.815 173.649 546.495C174.869 547.175 175.819 548.125 176.499 549.345C177.199 550.565 177.549 551.945 177.549 553.485C177.549 555.025 177.199 556.405 176.499 557.625C175.819 558.845 174.869 559.805 173.649 560.505C172.429 561.185 171.059 561.525 169.539 561.525ZM169.539 559.635C170.659 559.635 171.659 559.385 172.539 558.885C173.439 558.365 174.139 557.635 174.639 556.695C175.139 555.755 175.389 554.685 175.389 553.485C175.389 552.285 175.139 551.215 174.639 550.275C174.139 549.335 173.439 548.615 172.539 548.115C171.659 547.595 170.659 547.335 169.539 547.335C168.419 547.335 167.409 547.595 166.509 548.115C165.629 548.615 164.929 549.335 164.409 550.275C163.909 551.215 163.659 552.285 163.659 553.485C163.659 554.685 163.909 555.755 164.409 556.695C164.929 557.635 165.629 558.365 166.509 558.885C167.409 559.385 168.419 559.635 169.539 559.635ZM189.938 545.475C191.918 545.475 193.488 546.055 194.648 547.215C195.828 548.355 196.418 550.025 196.418 552.225V561.375H194.288V552.435C194.288 550.795 193.878 549.545 193.058 548.685C192.238 547.825 191.068 547.395 189.548 547.395C187.848 547.395 186.498 547.905 185.498 548.925C184.518 549.925 184.028 551.315 184.028 553.095V561.375H181.898V545.595H183.938V548.505C184.518 547.545 185.318 546.805 186.338 546.285C187.378 545.745 188.578 545.475 189.938 545.475ZM207.72 545.475C209.78 545.475 211.36 545.995 212.46 547.035C213.56 548.055 214.11 549.575 214.11 551.595V561.375H212.07V558.915C211.59 559.735 210.88 560.375 209.94 560.835C209.02 561.295 207.92 561.525 206.64 561.525C204.88 561.525 203.48 561.105 202.44 560.265C201.4 559.425 200.88 558.315 200.88 556.935C200.88 555.595 201.36 554.515 202.32 553.695C203.3 552.875 204.85 552.465 206.97 552.465H211.98V551.505C211.98 550.145 211.6 549.115 210.84 548.415C210.08 547.695 208.97 547.335 207.51 547.335C206.51 547.335 205.55 547.505 204.63 547.845C203.71 548.165 202.92 548.615 202.26 549.195L201.3 547.605C202.1 546.925 203.06 546.405 204.18 546.045C205.3 545.665 206.48 545.475 207.72 545.475ZM206.97 559.845C208.17 559.845 209.2 559.575 210.06 559.035C210.92 558.475 211.56 557.675 211.98 556.635V554.055H207.03C204.33 554.055 202.98 554.995 202.98 556.875C202.98 557.795 203.33 558.525 204.03 559.065C204.73 559.585 205.71 559.845 206.97 559.845ZM219.896 539.115H222.026V561.375H219.896V539.115ZM227.952 545.595H230.082V561.375H227.952V545.595ZM229.032 542.145C228.592 542.145 228.222 541.995 227.922 541.695C227.622 541.395 227.472 541.035 227.472 540.615C227.472 540.215 227.622 539.865 227.922 539.565C228.222 539.265 228.592 539.115 229.032 539.115C229.472 539.115 229.842 539.265 230.142 539.565C230.442 539.845 230.592 540.185 230.592 540.585C230.592 541.025 230.442 541.395 230.142 541.695C229.842 541.995 229.472 542.145 229.032 542.145ZM250.409 539.115V561.375H248.369V558.255C247.729 559.315 246.879 560.125 245.819 560.685C244.779 561.245 243.599 561.525 242.279 561.525C240.799 561.525 239.459 561.185 238.259 560.505C237.059 559.825 236.119 558.875 235.439 557.655C234.759 556.435 234.419 555.045 234.419 553.485C234.419 551.925 234.759 550.535 235.439 549.315C236.119 548.095 237.059 547.155 238.259 546.495C239.459 545.815 240.799 545.475 242.279 545.475C243.559 545.475 244.709 545.745 245.729 546.285C246.769 546.805 247.619 547.575 248.279 548.595V539.115H250.409ZM242.459 559.635C243.559 559.635 244.549 559.385 245.429 558.885C246.329 558.365 247.029 557.635 247.529 556.695C248.049 555.755 248.309 554.685 248.309 553.485C248.309 552.285 248.049 551.215 247.529 550.275C247.029 549.335 246.329 548.615 245.429 548.115C244.549 547.595 243.559 547.335 242.459 547.335C241.339 547.335 240.329 547.595 239.429 548.115C238.549 548.615 237.849 549.335 237.329 550.275C236.829 551.215 236.579 552.285 236.579 553.485C236.579 554.685 236.829 555.755 237.329 556.695C237.849 557.635 238.549 558.365 239.429 558.885C240.329 559.385 241.339 559.635 242.459 559.635ZM261.861 545.475C263.921 545.475 265.501 545.995 266.601 547.035C267.701 548.055 268.251 549.575 268.251 551.595V561.375H266.211V558.915C265.731 559.735 265.021 560.375 264.081 560.835C263.161 561.295 262.061 561.525 260.781 561.525C259.021 561.525 257.621 561.105 256.581 560.265C255.541 559.425 255.021 558.315 255.021 556.935C255.021 555.595 255.501 554.515 256.461 553.695C257.441 552.875 258.991 552.465 261.111 552.465H266.121V551.505C266.121 550.145 265.741 549.115 264.981 548.415C264.221 547.695 263.111 547.335 261.651 547.335C260.651 547.335 259.691 547.505 258.771 547.845C257.851 548.165 257.061 548.615 256.401 549.195L255.441 547.605C256.241 546.925 257.201 546.405 258.321 546.045C259.441 545.665 260.621 545.475 261.861 545.475ZM261.111 559.845C262.311 559.845 263.341 559.575 264.201 559.035C265.061 558.475 265.701 557.675 266.121 556.635V554.055H261.171C258.471 554.055 257.121 554.995 257.121 556.875C257.121 557.795 257.471 558.525 258.171 559.065C258.871 559.585 259.851 559.845 261.111 559.845ZM288.495 539.115V561.375H286.455V558.255C285.815 559.315 284.965 560.125 283.905 560.685C282.865 561.245 281.685 561.525 280.365 561.525C278.885 561.525 277.545 561.185 276.345 560.505C275.145 559.825 274.205 558.875 273.525 557.655C272.845 556.435 272.505 555.045 272.505 553.485C272.505 551.925 272.845 550.535 273.525 549.315C274.205 548.095 275.145 547.155 276.345 546.495C277.545 545.815 278.885 545.475 280.365 545.475C281.645 545.475 282.795 545.745 283.815 546.285C284.855 546.805 285.705 547.575 286.365 548.595V539.115H288.495ZM280.545 559.635C281.645 559.635 282.635 559.385 283.515 558.885C284.415 558.365 285.115 557.635 285.615 556.695C286.135 555.755 286.395 554.685 286.395 553.485C286.395 552.285 286.135 551.215 285.615 550.275C285.115 549.335 284.415 548.615 283.515 548.115C282.635 547.595 281.645 547.335 280.545 547.335C279.425 547.335 278.415 547.595 277.515 548.115C276.635 548.615 275.935 549.335 275.415 550.275C274.915 551.215 274.665 552.285 274.665 553.485C274.665 554.685 274.915 555.755 275.415 556.695C275.935 557.635 276.635 558.365 277.515 558.885C278.415 559.385 279.425 559.635 280.545 559.635Z" fill="#19406E"/>
<path d="M734 634H66C59.3726 634 54 639.373 54 646V722C54 728.627 59.3726 734 66 734H734C740.627 734 746 728.627 746 722V646C746 639.373 740.627 634 734 634Z" fill="white"/>
<path d="M734 634.5H66C59.6487 634.5 54.5 639.649 54.5 646V722C54.5 728.351 59.6487 733.5 66 733.5H734C740.351 733.5 745.5 728.351 745.5 722V646C745.5 639.649 740.351 634.5 734 634.5Z" stroke="#466E9C" stroke-opacity="0.4"/>
<path opacity="0.7" d="M98.6399 674.295V682.545H109.5V684.465H98.6399V693.375H96.4199V672.375H110.82V674.295H98.6399ZM128.167 686.145H114.967C115.087 687.785 115.717 689.115 116.857 690.135C117.997 691.135 119.437 691.635 121.177 691.635C122.157 691.635 123.057 691.465 123.877 691.125C124.697 690.765 125.407 690.245 126.007 689.565L127.207 690.945C126.507 691.785 125.627 692.425 124.567 692.865C123.527 693.305 122.377 693.525 121.117 693.525C119.497 693.525 118.057 693.185 116.797 692.505C115.557 691.805 114.587 690.845 113.887 689.625C113.187 688.405 112.837 687.025 112.837 685.485C112.837 683.945 113.167 682.565 113.827 681.345C114.507 680.125 115.427 679.175 116.587 678.495C117.767 677.815 119.087 677.475 120.547 677.475C122.007 677.475 123.317 677.815 124.477 678.495C125.637 679.175 126.547 680.125 127.207 681.345C127.867 682.545 128.197 683.925 128.197 685.485L128.167 686.145ZM120.547 679.305C119.027 679.305 117.747 679.795 116.707 680.775C115.687 681.735 115.107 682.995 114.967 684.555H126.157C126.017 682.995 125.427 681.735 124.387 680.775C123.367 679.795 122.087 679.305 120.547 679.305ZM139.073 693.525C137.513 693.525 136.113 693.185 134.873 692.505C133.653 691.825 132.693 690.875 131.993 689.655C131.293 688.415 130.943 687.025 130.943 685.485C130.943 683.945 131.293 682.565 131.993 681.345C132.693 680.125 133.653 679.175 134.873 678.495C136.113 677.815 137.513 677.475 139.073 677.475C140.433 677.475 141.643 677.745 142.703 678.285C143.783 678.805 144.633 679.575 145.253 680.595L143.663 681.675C143.143 680.895 142.483 680.315 141.683 679.935C140.883 679.535 140.013 679.335 139.073 679.335C137.933 679.335 136.903 679.595 135.983 680.115C135.083 680.615 134.373 681.335 133.853 682.275C133.353 683.215 133.103 684.285 133.103 685.485C133.103 686.705 133.353 687.785 133.853 688.725C134.373 689.645 135.083 690.365 135.983 690.885C136.903 691.385 137.933 691.635 139.073 691.635C140.013 691.635 140.883 691.445 141.683 691.065C142.483 690.685 143.143 690.105 143.663 689.325L145.253 690.405C144.633 691.425 143.783 692.205 142.703 692.745C141.623 693.265 140.413 693.525 139.073 693.525ZM157.242 677.475C159.222 677.475 160.792 678.055 161.952 679.215C163.132 680.355 163.722 682.025 163.722 684.225V693.375H161.592V684.435C161.592 682.795 161.182 681.545 160.362 680.685C159.542 679.825 158.372 679.395 156.852 679.395C155.152 679.395 153.802 679.905 152.802 680.925C151.822 681.925 151.332 683.315 151.332 685.095V693.375H149.202V671.115H151.332V680.355C151.912 679.435 152.712 678.725 153.732 678.225C154.752 677.725 155.922 677.475 157.242 677.475ZM175.025 677.475C177.085 677.475 178.665 677.995 179.765 679.035C180.865 680.055 181.415 681.575 181.415 683.595V693.375H179.375V690.915C178.895 691.735 178.185 692.375 177.245 692.835C176.325 693.295 175.225 693.525 173.945 693.525C172.185 693.525 170.785 693.105 169.745 692.265C168.705 691.425 168.185 690.315 168.185 688.935C168.185 687.595 168.665 686.515 169.625 685.695C170.605 684.875 172.155 684.465 174.275 684.465H179.285V683.505C179.285 682.145 178.905 681.115 178.145 680.415C177.385 679.695 176.275 679.335 174.815 679.335C173.815 679.335 172.855 679.505 171.935 679.845C171.015 680.165 170.225 680.615 169.565 681.195L168.605 679.605C169.405 678.925 170.365 678.405 171.485 678.045C172.605 677.665 173.785 677.475 175.025 677.475ZM174.275 691.845C175.475 691.845 176.505 691.575 177.365 691.035C178.225 690.475 178.865 689.675 179.285 688.635V686.055H174.335C171.635 686.055 170.285 686.995 170.285 688.875C170.285 689.795 170.635 690.525 171.335 691.065C172.035 691.585 173.015 691.845 174.275 691.845ZM209.452 671.115V693.375H207.412V690.255C206.772 691.315 205.922 692.125 204.862 692.685C203.822 693.245 202.642 693.525 201.322 693.525C199.842 693.525 198.502 693.185 197.302 692.505C196.102 691.825 195.162 690.875 194.482 689.655C193.802 688.435 193.462 687.045 193.462 685.485C193.462 683.925 193.802 682.535 194.482 681.315C195.162 680.095 196.102 679.155 197.302 678.495C198.502 677.815 199.842 677.475 201.322 677.475C202.602 677.475 203.752 677.745 204.772 678.285C205.812 678.805 206.662 679.575 207.322 680.595V671.115H209.452ZM201.502 691.635C202.602 691.635 203.592 691.385 204.472 690.885C205.372 690.365 206.072 689.635 206.572 688.695C207.092 687.755 207.352 686.685 207.352 685.485C207.352 684.285 207.092 683.215 206.572 682.275C206.072 681.335 205.372 680.615 204.472 680.115C203.592 679.595 202.602 679.335 201.502 679.335C200.382 679.335 199.372 679.595 198.472 680.115C197.592 680.615 196.892 681.335 196.372 682.275C195.872 683.215 195.622 684.285 195.622 685.485C195.622 686.685 195.872 687.755 196.372 688.695C196.892 689.635 197.592 690.365 198.472 690.885C199.372 691.385 200.382 691.635 201.502 691.635ZM229.124 686.145H215.924C216.044 687.785 216.674 689.115 217.814 690.135C218.954 691.135 220.394 691.635 222.134 691.635C223.114 691.635 224.014 691.465 224.834 691.125C225.654 690.765 226.364 690.245 226.964 689.565L228.164 690.945C227.464 691.785 226.584 692.425 225.524 692.865C224.484 693.305 223.334 693.525 222.074 693.525C220.454 693.525 219.014 693.185 217.754 692.505C216.514 691.805 215.544 690.845 214.844 689.625C214.144 688.405 213.794 687.025 213.794 685.485C213.794 683.945 214.124 682.565 214.784 681.345C215.464 680.125 216.384 679.175 217.544 678.495C218.724 677.815 220.044 677.475 221.504 677.475C222.964 677.475 224.274 677.815 225.434 678.495C226.594 679.175 227.504 680.125 228.164 681.345C228.824 682.545 229.154 683.925 229.154 685.485L229.124 686.145ZM221.504 679.305C219.984 679.305 218.704 679.795 217.664 680.775C216.644 681.735 216.064 682.995 215.924 684.555H227.114C226.974 682.995 226.384 681.735 225.344 680.775C224.324 679.795 223.044 679.305 221.504 679.305ZM249.381 677.475C251.361 677.475 252.931 678.055 254.091 679.215C255.271 680.355 255.861 682.025 255.861 684.225V693.375H253.731V684.435C253.731 682.795 253.321 681.545 252.501 680.685C251.681 679.825 250.511 679.395 248.991 679.395C247.291 679.395 245.941 679.905 244.941 680.925C243.961 681.925 243.471 683.315 243.471 685.095V693.375H241.341V677.595H243.381V680.505C243.961 679.545 244.761 678.805 245.781 678.285C246.821 677.745 248.021 677.475 249.381 677.475ZM267.164 677.475C269.224 677.475 270.804 677.995 271.904 679.035C273.004 680.055 273.554 681.575 273.554 683.595V693.375H271.514V690.915C271.034 691.735 270.324 692.375 269.384 692.835C268.464 693.295 267.364 693.525 266.084 693.525C264.324 693.525 262.924 693.105 261.884 692.265C260.844 691.425 260.324 690.315 260.324 688.935C260.324 687.595 260.804 686.515 261.764 685.695C262.744 684.875 264.294 684.465 266.414 684.465H271.424V683.505C271.424 682.145 271.044 681.115 270.284 680.415C269.524 679.695 268.414 679.335 266.954 679.335C265.954 679.335 264.994 679.505 264.074 679.845C263.154 680.165 262.364 680.615 261.704 681.195L260.744 679.605C261.544 678.925 262.504 678.405 263.624 678.045C264.744 677.665 265.924 677.475 267.164 677.475ZM266.414 691.845C267.614 691.845 268.644 691.575 269.504 691.035C270.364 690.475 271.004 689.675 271.424 688.635V686.055H266.474C263.774 686.055 262.424 686.995 262.424 688.875C262.424 689.795 262.774 690.525 263.474 691.065C264.174 691.585 265.154 691.845 266.414 691.845ZM285.938 693.525C284.378 693.525 282.978 693.185 281.738 692.505C280.518 691.825 279.558 690.875 278.858 689.655C278.158 688.415 277.808 687.025 277.808 685.485C277.808 683.945 278.158 682.565 278.858 681.345C279.558 680.125 280.518 679.175 281.738 678.495C282.978 677.815 284.378 677.475 285.938 677.475C287.298 677.475 288.508 677.745 289.568 678.285C290.648 678.805 291.498 679.575 292.118 680.595L290.528 681.675C290.008 680.895 289.348 680.315 288.548 679.935C287.748 679.535 286.878 679.335 285.938 679.335C284.798 679.335 283.768 679.595 282.848 680.115C281.948 680.615 281.238 681.335 280.718 682.275C280.218 683.215 279.968 684.285 279.968 685.485C279.968 686.705 280.218 687.785 280.718 688.725C281.238 689.645 281.948 690.365 282.848 690.885C283.768 691.385 284.798 691.635 285.938 691.635C286.878 691.635 287.748 691.445 288.548 691.065C289.348 690.685 290.008 690.105 290.528 689.325L292.118 690.405C291.498 691.425 290.648 692.205 289.568 692.745C288.488 693.265 287.278 693.525 285.938 693.525ZM296.302 677.595H298.432V693.375H296.302V677.595ZM297.382 674.145C296.942 674.145 296.572 673.995 296.272 673.695C295.972 673.395 295.822 673.035 295.822 672.615C295.822 672.215 295.972 671.865 296.272 671.565C296.572 671.265 296.942 671.115 297.382 671.115C297.822 671.115 298.192 671.265 298.492 671.565C298.792 671.845 298.942 672.185 298.942 672.585C298.942 673.025 298.792 673.395 298.492 673.695C298.192 673.995 297.822 674.145 297.382 674.145ZM324.039 677.475C326.019 677.475 327.569 678.045 328.689 679.185C329.829 680.325 330.399 682.005 330.399 684.225V693.375H328.269V684.435C328.269 682.795 327.869 681.545 327.069 680.685C326.289 679.825 325.179 679.395 323.739 679.395C322.099 679.395 320.809 679.905 319.869 680.925C318.929 681.925 318.459 683.315 318.459 685.095V693.375H316.329V684.435C316.329 682.795 315.929 681.545 315.129 680.685C314.349 679.825 313.229 679.395 311.769 679.395C310.149 679.395 308.859 679.905 307.899 680.925C306.959 681.925 306.489 683.315 306.489 685.095V693.375H304.359V677.595H306.399V680.475C306.959 679.515 307.739 678.775 308.739 678.255C309.739 677.735 310.889 677.475 312.189 677.475C313.509 677.475 314.649 677.755 315.609 678.315C316.589 678.875 317.319 679.705 317.799 680.805C318.379 679.765 319.209 678.955 320.289 678.375C321.389 677.775 322.639 677.475 324.039 677.475ZM336.175 677.595H338.305V693.375H336.175V677.595ZM337.255 674.145C336.815 674.145 336.445 673.995 336.145 673.695C335.845 673.395 335.695 673.035 335.695 672.615C335.695 672.215 335.845 671.865 336.145 671.565C336.445 671.265 336.815 671.115 337.255 671.115C337.695 671.115 338.065 671.265 338.365 671.565C338.665 671.845 338.815 672.185 338.815 672.585C338.815 673.025 338.665 673.395 338.365 673.695C338.065 673.995 337.695 674.145 337.255 674.145ZM357.972 686.145H344.772C344.892 687.785 345.522 689.115 346.662 690.135C347.802 691.135 349.242 691.635 350.982 691.635C351.962 691.635 352.862 691.465 353.682 691.125C354.502 690.765 355.212 690.245 355.812 689.565L357.012 690.945C356.312 691.785 355.432 692.425 354.372 692.865C353.332 693.305 352.182 693.525 350.922 693.525C349.302 693.525 347.862 693.185 346.602 692.505C345.362 691.805 344.392 690.845 343.692 689.625C342.992 688.405 342.642 687.025 342.642 685.485C342.642 683.945 342.972 682.565 343.632 681.345C344.312 680.125 345.232 679.175 346.392 678.495C347.572 677.815 348.892 677.475 350.352 677.475C351.812 677.475 353.122 677.815 354.282 678.495C355.442 679.175 356.352 680.125 357.012 681.345C357.672 682.545 358.002 683.925 358.002 685.485L357.972 686.145ZM350.352 679.305C348.832 679.305 347.552 679.795 346.512 680.775C345.492 681.735 344.912 682.995 344.772 684.555H355.962C355.822 682.995 355.232 681.735 354.192 680.775C353.172 679.795 351.892 679.305 350.352 679.305ZM370.377 677.475C372.357 677.475 373.927 678.055 375.087 679.215C376.267 680.355 376.857 682.025 376.857 684.225V693.375H374.727V684.435C374.727 682.795 374.317 681.545 373.497 680.685C372.677 679.825 371.507 679.395 369.987 679.395C368.287 679.395 366.937 679.905 365.937 680.925C364.957 681.925 364.467 683.315 364.467 685.095V693.375H362.337V677.595H364.377V680.505C364.957 679.545 365.757 678.805 366.777 678.285C367.817 677.745 369.017 677.475 370.377 677.475ZM390.95 692.415C390.55 692.775 390.05 693.055 389.45 693.255C388.87 693.435 388.26 693.525 387.62 693.525C386.14 693.525 385 693.125 384.2 692.325C383.4 691.525 383 690.395 383 688.935V679.395H380.18V677.595H383V674.145H385.13V677.595H389.93V679.395H385.13V688.815C385.13 689.755 385.36 690.475 385.82 690.975C386.3 691.455 386.98 691.695 387.86 691.695C388.3 691.695 388.72 691.625 389.12 691.485C389.54 691.345 389.9 691.145 390.2 690.885L390.95 692.415ZM400.721 693.525C399.201 693.525 397.831 693.185 396.611 692.505C395.391 691.805 394.431 690.845 393.731 689.625C393.031 688.405 392.681 687.025 392.681 685.485C392.681 683.945 393.031 682.565 393.731 681.345C394.431 680.125 395.391 679.175 396.611 678.495C397.831 677.815 399.201 677.475 400.721 677.475C402.241 677.475 403.611 677.815 404.831 678.495C406.051 679.175 407.001 680.125 407.681 681.345C408.381 682.565 408.731 683.945 408.731 685.485C408.731 687.025 408.381 688.405 407.681 689.625C407.001 690.845 406.051 691.805 404.831 692.505C403.611 693.185 402.241 693.525 400.721 693.525ZM400.721 691.635C401.841 691.635 402.841 691.385 403.721 690.885C404.621 690.365 405.321 689.635 405.821 688.695C406.321 687.755 406.571 686.685 406.571 685.485C406.571 684.285 406.321 683.215 405.821 682.275C405.321 681.335 404.621 680.615 403.721 680.115C402.841 679.595 401.841 679.335 400.721 679.335C399.601 679.335 398.591 679.595 397.691 680.115C396.811 680.615 396.111 681.335 395.591 682.275C395.091 683.215 394.841 684.285 394.841 685.485C394.841 686.685 395.091 687.755 395.591 688.695C396.111 689.635 396.811 690.365 397.691 690.885C398.591 691.385 399.601 691.635 400.721 691.635Z" fill="#19406E"/>
<path d="M373 766H66C59.3726 766 54 771.373 54 778V854C54 860.627 59.3726 866 66 866H373C379.627 866 385 860.627 385 854V778C385 771.373 379.627 766 373 766Z" fill="white"/>
<path d="M373 766.5H66C59.6487 766.5 54.5 771.649 54.5 778V854C54.5 860.351 59.6487 865.5 66 865.5H373C379.351 865.5 384.5 860.351 384.5 854V778C384.5 771.649 379.351 766.5 373 766.5Z" stroke="#466E9C" stroke-opacity="0.4"/>
<path opacity="0.7" d="M113.97 804.375V825.375H112.14L98.6399 808.335V825.375H96.4199V804.375H98.2499L111.78 821.415V804.375H113.97ZM120.824 804.375H123.044V825.375H120.824V804.375ZM132.097 806.295V814.545H142.957V816.465H132.097V825.375H129.877V804.375H144.277V806.295H132.097ZM162.443 800.115H164.393L154.493 828.375H152.543L162.443 800.115ZM174.613 804.375H183.163C185.383 804.375 187.343 804.825 189.043 805.725C190.743 806.605 192.063 807.845 193.003 809.445C193.943 811.025 194.413 812.835 194.413 814.875C194.413 816.915 193.943 818.735 193.003 820.335C192.063 821.915 190.743 823.155 189.043 824.055C187.343 824.935 185.383 825.375 183.163 825.375H174.613V804.375ZM183.043 823.455C184.883 823.455 186.493 823.095 187.873 822.375C189.253 821.635 190.323 820.625 191.083 819.345C191.843 818.045 192.223 816.555 192.223 814.875C192.223 813.195 191.843 811.715 191.083 810.435C190.323 809.135 189.253 808.125 187.873 807.405C186.493 806.665 184.883 806.295 183.043 806.295H176.833V823.455H183.043ZM216.949 804.375V825.375H215.119L201.619 808.335V825.375H199.399V804.375H201.229L214.759 821.415V804.375H216.949ZM223.803 804.375H226.023V825.375H223.803V804.375Z" fill="#19406E"/>
<path d="M734 765H427C420.373 765 415 770.373 415 777V853C415 859.627 420.373 865 427 865H734C740.627 865 746 859.627 746 853V777C746 770.373 740.627 765 734 765Z" fill="white"/>
<path d="M734 765.5H427C420.649 765.5 415.5 770.649 415.5 777V853C415.5 859.351 420.649 864.5 427 864.5H734C740.351 864.5 745.5 859.351 745.5 853V777C745.5 770.649 740.351 765.5 734 765.5Z" stroke="#466E9C" stroke-opacity="0.4"/>
<path opacity="0.7" d="M474.88 803.375L465.58 824.375H463.39L454.09 803.375H456.49L464.53 821.615L472.63 803.375H474.88ZM481.797 808.475C483.857 808.475 485.437 808.995 486.537 810.035C487.637 811.055 488.187 812.575 488.187 814.595V824.375H486.147V821.915C485.667 822.735 484.957 823.375 484.017 823.835C483.097 824.295 481.997 824.525 480.717 824.525C478.957 824.525 477.557 824.105 476.517 823.265C475.477 822.425 474.957 821.315 474.957 819.935C474.957 818.595 475.437 817.515 476.397 816.695C477.377 815.875 478.927 815.465 481.047 815.465H486.057V814.505C486.057 813.145 485.677 812.115 484.917 811.415C484.157 810.695 483.047 810.335 481.587 810.335C480.587 810.335 479.627 810.505 478.707 810.845C477.787 811.165 476.997 811.615 476.337 812.195L475.377 810.605C476.177 809.925 477.137 809.405 478.257 809.045C479.377 808.665 480.557 808.475 481.797 808.475ZM481.047 822.845C482.247 822.845 483.277 822.575 484.137 822.035C484.997 821.475 485.637 820.675 486.057 819.635V817.055H481.107C478.407 817.055 477.057 817.995 477.057 819.875C477.057 820.795 477.407 821.525 478.107 822.065C478.807 822.585 479.787 822.845 481.047 822.845ZM493.972 802.115H496.102V824.375H493.972V802.115ZM502.029 808.595H504.159V824.375H502.029V808.595ZM503.109 805.145C502.669 805.145 502.299 804.995 501.999 804.695C501.699 804.395 501.549 804.035 501.549 803.615C501.549 803.215 501.699 802.865 501.999 802.565C502.299 802.265 502.669 802.115 503.109 802.115C503.549 802.115 503.919 802.265 504.219 802.565C504.519 802.845 504.669 803.185 504.669 803.585C504.669 804.025 504.519 804.395 504.219 804.695C503.919 804.995 503.549 805.145 503.109 805.145ZM524.485 802.115V824.375H522.445V821.255C521.805 822.315 520.955 823.125 519.895 823.685C518.855 824.245 517.675 824.525 516.355 824.525C514.875 824.525 513.535 824.185 512.335 823.505C511.135 822.825 510.195 821.875 509.515 820.655C508.835 819.435 508.495 818.045 508.495 816.485C508.495 814.925 508.835 813.535 509.515 812.315C510.195 811.095 511.135 810.155 512.335 809.495C513.535 808.815 514.875 808.475 516.355 808.475C517.635 808.475 518.785 808.745 519.805 809.285C520.845 809.805 521.695 810.575 522.355 811.595V802.115H524.485ZM516.535 822.635C517.635 822.635 518.625 822.385 519.505 821.885C520.405 821.365 521.105 820.635 521.605 819.695C522.125 818.755 522.385 817.685 522.385 816.485C522.385 815.285 522.125 814.215 521.605 813.275C521.105 812.335 520.405 811.615 519.505 811.115C518.625 810.595 517.635 810.335 516.535 810.335C515.415 810.335 514.405 810.595 513.505 811.115C512.625 811.615 511.925 812.335 511.405 813.275C510.905 814.215 510.655 815.285 510.655 816.485C510.655 817.685 510.905 818.755 511.405 819.695C511.925 820.635 512.625 821.365 513.505 821.885C514.405 822.385 515.415 822.635 516.535 822.635ZM544.157 817.145H530.957C531.077 818.785 531.707 820.115 532.847 821.135C533.987 822.135 535.427 822.635 537.167 822.635C538.147 822.635 539.047 822.465 539.867 822.125C540.687 821.765 541.397 821.245 541.997 820.565L543.197 821.945C542.497 822.785 541.617 823.425 540.557 823.865C539.517 824.305 538.367 824.525 537.107 824.525C535.487 824.525 534.047 824.185 532.787 823.505C531.547 822.805 530.577 821.845 529.877 820.625C529.177 819.405 528.827 818.025 528.827 816.485C528.827 814.945 529.157 813.565 529.817 812.345C530.497 811.125 531.417 810.175 532.577 809.495C533.757 808.815 535.077 808.475 536.537 808.475C537.997 808.475 539.307 808.815 540.467 809.495C541.627 810.175 542.537 811.125 543.197 812.345C543.857 813.545 544.187 814.925 544.187 816.485L544.157 817.145ZM536.537 810.305C535.017 810.305 533.737 810.795 532.697 811.775C531.677 812.735 531.097 813.995 530.957 815.555H542.147C542.007 813.995 541.417 812.735 540.377 811.775C539.357 810.795 538.077 810.305 536.537 810.305ZM559.506 822.605V824.375H546.666V822.965L556.596 810.395H546.846V808.595H559.326V810.005L549.396 822.605H559.506Z" fill="#19406E"/>
<path d="M734 370H66C59.3726 370 54 375.373 54 382V458C54 464.627 59.3726 470 66 470H734C740.627 470 746 464.627 746 458V382C746 375.373 740.627 370 734 370Z" fill="white"/>
<path d="M734 370.5H66C59.6487 370.5 54.5 375.649 54.5 382V458C54.5 464.351 59.6487 469.5 66 469.5H734C740.351 469.5 745.5 464.351 745.5 458V382C745.5 375.649 740.351 370.5 734 370.5Z" stroke="#466E9C" stroke-opacity="0.4"/>
<path opacity="0.7" d="M113.97 408.687V429.688H112.14L98.6399 412.647V429.688H96.4199V408.687H98.2499L111.78 425.728V408.687H113.97ZM126.824 429.838C125.304 429.838 123.934 429.497 122.714 428.817C121.494 428.117 120.534 427.157 119.834 425.938C119.134 424.717 118.784 423.337 118.784 421.797C118.784 420.257 119.134 418.877 119.834 417.657C120.534 416.437 121.494 415.487 122.714 414.807C123.934 414.127 125.304 413.787 126.824 413.787C128.344 413.787 129.714 414.127 130.934 414.807C132.154 415.487 133.104 416.437 133.784 417.657C134.484 418.877 134.834 420.257 134.834 421.797C134.834 423.337 134.484 424.717 133.784 425.938C133.104 427.157 132.154 428.117 130.934 428.817C129.714 429.497 128.344 429.838 126.824 429.838ZM126.824 427.947C127.944 427.947 128.944 427.697 129.824 427.197C130.724 426.677 131.424 425.947 131.924 425.007C132.424 424.067 132.674 422.997 132.674 421.797C132.674 420.597 132.424 419.527 131.924 418.587C131.424 417.647 130.724 416.927 129.824 416.427C128.944 415.907 127.944 415.647 126.824 415.647C125.704 415.647 124.694 415.907 123.794 416.427C122.914 416.927 122.214 417.647 121.694 418.587C121.194 419.527 120.944 420.597 120.944 421.797C120.944 422.997 121.194 424.067 121.694 425.007C122.214 425.947 122.914 426.677 123.794 427.197C124.694 427.697 125.704 427.947 126.824 427.947ZM158.863 413.787C160.843 413.787 162.393 414.357 163.513 415.497C164.653 416.637 165.223 418.317 165.223 420.537V429.688H163.093V420.747C163.093 419.107 162.693 417.857 161.893 416.997C161.113 416.137 160.003 415.707 158.563 415.707C156.923 415.707 155.633 416.217 154.693 417.237C153.753 418.237 153.283 419.627 153.283 421.407V429.688H151.153V420.747C151.153 419.107 150.753 417.857 149.953 416.997C149.173 416.137 148.053 415.707 146.593 415.707C144.973 415.707 143.683 416.217 142.723 417.237C141.783 418.237 141.313 419.627 141.313 421.407V429.688H139.183V413.907H141.223V416.787C141.783 415.827 142.563 415.087 143.563 414.567C144.563 414.047 145.713 413.787 147.013 413.787C148.333 413.787 149.473 414.067 150.433 414.627C151.413 415.187 152.143 416.017 152.623 417.117C153.203 416.077 154.033 415.267 155.113 414.688C156.213 414.087 157.463 413.787 158.863 413.787ZM179.129 413.787C180.609 413.787 181.949 414.127 183.149 414.807C184.349 415.467 185.289 416.407 185.969 417.627C186.649 418.847 186.989 420.237 186.989 421.797C186.989 423.357 186.649 424.747 185.969 425.967C185.289 427.187 184.349 428.137 183.149 428.817C181.949 429.497 180.609 429.838 179.129 429.838C177.809 429.838 176.619 429.557 175.559 428.997C174.519 428.437 173.679 427.627 173.039 426.567V429.688H170.999V407.427H173.129V416.907C173.789 415.887 174.629 415.117 175.649 414.597C176.689 414.057 177.849 413.787 179.129 413.787ZM178.979 427.947C180.079 427.947 181.079 427.697 181.979 427.197C182.879 426.677 183.579 425.947 184.079 425.007C184.599 424.067 184.859 422.997 184.859 421.797C184.859 420.597 184.599 419.527 184.079 418.587C183.579 417.647 182.879 416.927 181.979 416.427C181.079 415.907 180.079 415.647 178.979 415.647C177.859 415.647 176.849 415.907 175.949 416.427C175.069 416.927 174.369 417.647 173.849 418.587C173.349 419.527 173.099 420.597 173.099 421.797C173.099 422.997 173.349 424.067 173.849 425.007C174.369 425.947 175.069 426.677 175.949 427.197C176.849 427.697 177.859 427.947 178.979 427.947ZM193.371 416.997C193.871 415.937 194.611 415.137 195.591 414.597C196.591 414.057 197.821 413.787 199.281 413.787V415.857L198.771 415.827C197.111 415.827 195.811 416.337 194.871 417.357C193.931 418.377 193.461 419.807 193.461 421.647V429.688H191.331V413.907H193.371V416.997ZM216.731 422.457H203.531C203.651 424.097 204.281 425.427 205.421 426.447C206.561 427.447 208.001 427.947 209.741 427.947C210.721 427.947 211.621 427.777 212.441 427.437C213.261 427.077 213.971 426.557 214.571 425.877L215.771 427.257C215.071 428.097 214.191 428.737 213.131 429.177C212.091 429.617 210.941 429.838 209.681 429.838C208.061 429.838 206.621 429.497 205.361 428.817C204.121 428.117 203.151 427.157 202.451 425.938C201.751 424.717 201.401 423.337 201.401 421.797C201.401 420.257 201.731 418.877 202.391 417.657C203.071 416.437 203.991 415.487 205.151 414.807C206.331 414.127 207.651 413.787 209.111 413.787C210.571 413.787 211.881 414.127 213.041 414.807C214.201 415.487 215.111 416.437 215.771 417.657C216.431 418.857 216.761 420.237 216.761 421.797L216.731 422.457ZM209.111 415.617C207.591 415.617 206.311 416.107 205.271 417.087C204.251 418.047 203.671 419.307 203.531 420.868H214.721C214.581 419.307 213.991 418.047 212.951 417.087C211.931 416.107 210.651 415.617 209.111 415.617ZM242.209 413.907L234.319 431.578C233.679 433.058 232.939 434.108 232.099 434.728C231.259 435.348 230.249 435.658 229.069 435.658C228.309 435.658 227.599 435.538 226.939 435.298C226.279 435.058 225.709 434.698 225.229 434.218L226.219 432.628C227.019 433.428 227.979 433.828 229.099 433.828C229.819 433.828 230.429 433.628 230.929 433.228C231.449 432.828 231.929 432.148 232.369 431.188L233.059 429.657L226.009 413.907H228.229L234.169 427.317L240.109 413.907H242.209ZM258.58 413.787C260.64 413.787 262.22 414.307 263.32 415.347C264.42 416.367 264.97 417.887 264.97 419.907V429.688H262.93V427.227C262.45 428.047 261.74 428.687 260.8 429.147C259.88 429.607 258.78 429.838 257.5 429.838C255.74 429.838 254.34 429.418 253.3 428.577C252.26 427.737 251.74 426.627 251.74 425.247C251.74 423.907 252.22 422.827 253.18 422.007C254.16 421.187 255.71 420.777 257.83 420.777H262.84V419.817C262.84 418.457 262.46 417.427 261.7 416.727C260.94 416.007 259.83 415.647 258.37 415.647C257.37 415.647 256.41 415.817 255.49 416.157C254.57 416.477 253.78 416.927 253.12 417.507L252.16 415.917C252.96 415.237 253.92 414.717 255.04 414.357C256.16 413.977 257.34 413.787 258.58 413.787ZM257.83 428.157C259.03 428.157 260.06 427.887 260.92 427.347C261.78 426.787 262.42 425.987 262.84 424.947V422.367H257.89C255.19 422.367 253.84 423.307 253.84 425.187C253.84 426.107 254.19 426.837 254.89 427.377C255.59 427.897 256.57 428.157 257.83 428.157ZM278.885 413.787C280.365 413.787 281.705 414.127 282.905 414.807C284.105 415.467 285.045 416.407 285.725 417.627C286.405 418.847 286.745 420.237 286.745 421.797C286.745 423.377 286.405 424.777 285.725 425.997C285.045 427.217 284.105 428.167 282.905 428.847C281.725 429.507 280.385 429.838 278.885 429.838C277.605 429.838 276.445 429.577 275.405 429.057C274.385 428.517 273.545 427.737 272.885 426.717V435.508H270.755V413.907H272.795V417.027C273.435 415.987 274.275 415.187 275.315 414.627C276.375 414.067 277.565 413.787 278.885 413.787ZM278.735 427.947C279.835 427.947 280.835 427.697 281.735 427.197C282.635 426.677 283.335 425.947 283.835 425.007C284.355 424.067 284.615 422.997 284.615 421.797C284.615 420.597 284.355 419.537 283.835 418.617C283.335 417.677 282.635 416.947 281.735 416.427C280.835 415.907 279.835 415.647 278.735 415.647C277.615 415.647 276.605 415.907 275.705 416.427C274.825 416.947 274.125 417.677 273.605 418.617C273.105 419.537 272.855 420.597 272.855 421.797C272.855 422.997 273.105 424.067 273.605 425.007C274.125 425.947 274.825 426.677 275.705 427.197C276.605 427.697 277.615 427.947 278.735 427.947ZM304.827 422.457H291.627C291.747 424.097 292.377 425.427 293.517 426.447C294.657 427.447 296.097 427.947 297.837 427.947C298.817 427.947 299.717 427.777 300.537 427.437C301.357 427.077 302.067 426.557 302.667 425.877L303.867 427.257C303.167 428.097 302.287 428.737 301.227 429.177C300.187 429.617 299.037 429.838 297.777 429.838C296.157 429.838 294.717 429.497 293.457 428.817C292.217 428.117 291.247 427.157 290.547 425.938C289.847 424.717 289.497 423.337 289.497 421.797C289.497 420.257 289.827 418.877 290.487 417.657C291.167 416.437 292.087 415.487 293.247 414.807C294.427 414.127 295.747 413.787 297.207 413.787C298.667 413.787 299.977 414.127 301.137 414.807C302.297 415.487 303.207 416.437 303.867 417.657C304.527 418.857 304.857 420.237 304.857 421.797L304.827 422.457ZM297.207 415.617C295.687 415.617 294.407 416.107 293.367 417.087C292.347 418.047 291.767 419.307 291.627 420.868H302.817C302.677 419.307 302.087 418.047 301.047 417.087C300.027 416.107 298.747 415.617 297.207 415.617ZM309.193 407.427H311.323V429.688H309.193V407.427ZM317.249 407.427H319.379V429.688H317.249V407.427ZM325.306 413.907H327.436V429.688H325.306V413.907ZM326.386 410.457C325.946 410.457 325.576 410.307 325.276 410.007C324.976 409.707 324.826 409.347 324.826 408.927C324.826 408.527 324.976 408.177 325.276 407.877C325.576 407.577 325.946 407.427 326.386 407.427C326.826 407.427 327.196 407.577 327.496 407.877C327.796 408.157 327.946 408.497 327.946 408.897C327.946 409.337 327.796 409.707 327.496 410.007C327.196 410.307 326.826 410.457 326.386 410.457ZM347.763 407.427V429.688H345.723V426.567C345.083 427.627 344.233 428.437 343.173 428.997C342.133 429.557 340.953 429.838 339.633 429.838C338.153 429.838 336.813 429.497 335.613 428.817C334.413 428.137 333.473 427.187 332.793 425.967C332.113 424.747 331.773 423.357 331.773 421.797C331.773 420.237 332.113 418.847 332.793 417.627C333.473 416.407 334.413 415.467 335.613 414.807C336.813 414.127 338.153 413.787 339.633 413.787C340.913 413.787 342.063 414.057 343.083 414.597C344.123 415.117 344.973 415.887 345.633 416.907V407.427H347.763ZM339.813 427.947C340.913 427.947 341.903 427.697 342.783 427.197C343.683 426.677 344.383 425.947 344.883 425.007C345.403 424.067 345.663 422.997 345.663 421.797C345.663 420.597 345.403 419.527 344.883 418.587C344.383 417.647 343.683 416.927 342.783 416.427C341.903 415.907 340.913 415.647 339.813 415.647C338.693 415.647 337.683 415.907 336.783 416.427C335.903 416.927 335.203 417.647 334.683 418.587C334.183 419.527 333.933 420.597 333.933 421.797C333.933 422.997 334.183 424.067 334.683 425.007C335.203 425.947 335.903 426.677 336.783 427.197C337.683 427.697 338.693 427.947 339.813 427.947ZM360.145 429.838C358.625 429.838 357.255 429.497 356.035 428.817C354.815 428.117 353.855 427.157 353.155 425.938C352.455 424.717 352.105 423.337 352.105 421.797C352.105 420.257 352.455 418.877 353.155 417.657C353.855 416.437 354.815 415.487 356.035 414.807C357.255 414.127 358.625 413.787 360.145 413.787C361.665 413.787 363.035 414.127 364.255 414.807C365.475 415.487 366.425 416.437 367.105 417.657C367.805 418.877 368.155 420.257 368.155 421.797C368.155 423.337 367.805 424.717 367.105 425.938C366.425 427.157 365.475 428.117 364.255 428.817C363.035 429.497 361.665 429.838 360.145 429.838ZM360.145 427.947C361.265 427.947 362.265 427.697 363.145 427.197C364.045 426.677 364.745 425.947 365.245 425.007C365.745 424.067 365.995 422.997 365.995 421.797C365.995 420.597 365.745 419.527 365.245 418.587C364.745 417.647 364.045 416.927 363.145 416.427C362.265 415.907 361.265 415.647 360.145 415.647C359.025 415.647 358.015 415.907 357.115 416.427C356.235 416.927 355.535 417.647 355.015 418.587C354.515 419.527 354.265 420.597 354.265 421.797C354.265 422.997 354.515 424.067 355.015 425.007C355.535 425.947 356.235 426.677 357.115 427.197C358.015 427.697 359.025 427.947 360.145 427.947ZM376.733 429.838C375.453 429.838 374.223 429.658 373.043 429.297C371.883 428.917 370.973 428.447 370.313 427.887L371.273 426.207C371.933 426.727 372.763 427.157 373.763 427.497C374.763 427.817 375.803 427.977 376.883 427.977C378.323 427.977 379.383 427.757 380.063 427.317C380.763 426.857 381.113 426.217 381.113 425.397C381.113 424.817 380.923 424.367 380.543 424.047C380.163 423.707 379.683 423.457 379.103 423.297C378.523 423.117 377.753 422.947 376.793 422.787C375.513 422.547 374.483 422.307 373.703 422.067C372.923 421.807 372.253 421.377 371.693 420.777C371.153 420.177 370.883 419.347 370.883 418.287C370.883 416.967 371.433 415.887 372.533 415.047C373.633 414.207 375.163 413.787 377.123 413.787C378.143 413.787 379.163 413.927 380.183 414.207C381.203 414.467 382.043 414.817 382.703 415.257L381.773 416.967C380.473 416.067 378.923 415.617 377.123 415.617C375.763 415.617 374.733 415.857 374.033 416.337C373.353 416.817 373.013 417.447 373.013 418.227C373.013 418.827 373.203 419.307 373.583 419.667C373.983 420.027 374.473 420.297 375.053 420.477C375.633 420.637 376.433 420.807 377.453 420.987C378.713 421.227 379.723 421.467 380.483 421.707C381.243 421.947 381.893 422.357 382.433 422.937C382.973 423.517 383.243 424.317 383.243 425.337C383.243 426.717 382.663 427.817 381.503 428.637C380.363 429.438 378.773 429.838 376.733 429.838Z" fill="#19406E"/>
<path d="M94.0002 123L93.9502 102L83.6502 119.3H80.0002L69.7502 102.45V123H62.1502V88H68.8502L81.9502 109.75L94.8502 88H101.5L101.6 123H94.0002ZM120.204 95.7C124.371 95.7 127.571 96.7 129.804 98.7C132.037 100.667 133.154 103.65 133.154 107.65V123H125.854V119.65C124.387 122.15 121.654 123.4 117.654 123.4C115.587 123.4 113.787 123.05 112.254 122.35C110.754 121.65 109.604 120.683 108.804 119.45C108.004 118.217 107.604 116.817 107.604 115.25C107.604 112.75 108.537 110.783 110.404 109.35C112.304 107.917 115.221 107.2 119.154 107.2H125.354C125.354 105.5 124.837 104.2 123.804 103.3C122.771 102.367 121.221 101.9 119.154 101.9C117.721 101.9 116.304 102.133 114.904 102.6C113.537 103.033 112.371 103.633 111.404 104.4L108.604 98.95C110.071 97.9167 111.821 97.1167 113.854 96.55C115.921 95.9833 118.037 95.7 120.204 95.7ZM119.604 118.15C120.937 118.15 122.121 117.85 123.154 117.25C124.187 116.617 124.921 115.7 125.354 114.5V111.75H120.004C116.804 111.75 115.204 112.8 115.204 114.9C115.204 115.9 115.587 116.7 116.354 117.3C117.154 117.867 118.237 118.15 119.604 118.15ZM156.563 95.7C159.897 95.7 162.58 96.7 164.613 98.7C166.68 100.7 167.713 103.667 167.713 107.6V123H159.913V108.8C159.913 106.667 159.447 105.083 158.513 104.05C157.58 102.983 156.23 102.45 154.463 102.45C152.497 102.45 150.93 103.067 149.763 104.3C148.597 105.5 148.013 107.3 148.013 109.7V123H140.213V96.1H147.663V99.25C148.697 98.1167 149.98 97.25 151.513 96.65C153.047 96.0167 154.73 95.7 156.563 95.7ZM174.784 96.1H182.584V123H174.784V96.1ZM178.684 92.35C177.25 92.35 176.084 91.9333 175.184 91.1C174.284 90.2667 173.834 89.2333 173.834 88C173.834 86.7667 174.284 85.7333 175.184 84.9C176.084 84.0667 177.25 83.65 178.684 83.65C180.117 83.65 181.284 84.05 182.184 84.85C183.084 85.65 183.534 86.65 183.534 87.85C183.534 89.15 183.084 90.2333 182.184 91.1C181.284 91.9333 180.117 92.35 178.684 92.35ZM198.373 96.7H205.273V102.7H198.573V123H190.773V102.7H186.623V96.7H190.773V95.5C190.773 92.4333 191.673 90 193.473 88.2C195.306 86.4 197.873 85.5 201.173 85.5C202.339 85.5 203.439 85.6333 204.473 85.9C205.539 86.1333 206.423 86.4833 207.123 86.95L205.073 92.6C204.173 91.9667 203.123 91.65 201.923 91.65C199.556 91.65 198.373 92.95 198.373 95.55V96.7ZM235.167 109.65C235.167 109.75 235.117 110.45 235.017 111.75H214.667C215.033 113.417 215.9 114.733 217.267 115.7C218.633 116.667 220.333 117.15 222.367 117.15C223.767 117.15 225 116.95 226.067 116.55C227.167 116.117 228.183 115.45 229.117 114.55L233.267 119.05C230.733 121.95 227.033 123.4 222.167 123.4C219.133 123.4 216.45 122.817 214.117 121.65C211.783 120.45 209.983 118.8 208.717 116.7C207.45 114.6 206.817 112.217 206.817 109.55C206.817 106.917 207.433 104.55 208.667 102.45C209.933 100.317 211.65 98.6667 213.817 97.5C216.017 96.3 218.467 95.7 221.167 95.7C223.8 95.7 226.183 96.2667 228.317 97.4C230.45 98.5333 232.117 100.167 233.317 102.3C234.55 104.4 235.167 106.85 235.167 109.65ZM221.217 101.6C219.45 101.6 217.967 102.1 216.767 103.1C215.567 104.1 214.833 105.467 214.567 107.2H227.817C227.55 105.5 226.817 104.15 225.617 103.15C224.417 102.117 222.95 101.6 221.217 101.6ZM249.41 123.4C247.176 123.4 244.993 123.133 242.86 122.6C240.726 122.033 239.026 121.333 237.76 120.5L240.36 114.9C241.56 115.667 243.01 116.3 244.71 116.8C246.41 117.267 248.076 117.5 249.71 117.5C253.01 117.5 254.66 116.683 254.66 115.05C254.66 114.283 254.21 113.733 253.31 113.4C252.41 113.067 251.026 112.783 249.16 112.55C246.96 112.217 245.143 111.833 243.71 111.4C242.276 110.967 241.026 110.2 239.96 109.1C238.926 108 238.41 106.433 238.41 104.4C238.41 102.7 238.893 101.2 239.86 99.9C240.86 98.5667 242.293 97.5333 244.16 96.8C246.06 96.0667 248.293 95.7 250.86 95.7C252.76 95.7 254.643 95.9167 256.51 96.35C258.41 96.75 259.976 97.3167 261.21 98.05L258.61 103.6C256.243 102.267 253.66 101.6 250.86 101.6C249.193 101.6 247.943 101.833 247.11 102.3C246.276 102.767 245.86 103.367 245.86 104.1C245.86 104.933 246.31 105.517 247.21 105.85C248.11 106.183 249.543 106.5 251.51 106.8C253.71 107.167 255.51 107.567 256.91 108C258.31 108.4 259.526 109.15 260.56 110.25C261.593 111.35 262.11 112.883 262.11 114.85C262.11 116.517 261.61 118 260.61 119.3C259.61 120.6 258.143 121.617 256.21 122.35C254.31 123.05 252.043 123.4 249.41 123.4ZM284.272 121.7C283.506 122.267 282.556 122.7 281.422 123C280.322 123.267 279.156 123.4 277.922 123.4C274.722 123.4 272.239 122.583 270.472 120.95C268.739 119.317 267.872 116.917 267.872 113.75V102.7H263.722V96.7H267.872V90.15H275.672V96.7H282.372V102.7H275.672V113.65C275.672 114.783 275.956 115.667 276.522 116.3C277.122 116.9 277.956 117.2 279.022 117.2C280.256 117.2 281.306 116.867 282.172 116.2L284.272 121.7ZM299.501 95.7C303.667 95.7 306.867 96.7 309.101 98.7C311.334 100.667 312.451 103.65 312.451 107.65V123H305.151V119.65C303.684 122.15 300.951 123.4 296.951 123.4C294.884 123.4 293.084 123.05 291.551 122.35C290.051 121.65 288.901 120.683 288.101 119.45C287.301 118.217 286.901 116.817 286.901 115.25C286.901 112.75 287.834 110.783 289.701 109.35C291.601 107.917 294.517 107.2 298.451 107.2H304.651C304.651 105.5 304.134 104.2 303.101 103.3C302.067 102.367 300.517 101.9 298.451 101.9C297.017 101.9 295.601 102.133 294.201 102.6C292.834 103.033 291.667 103.633 290.701 104.4L287.901 98.95C289.367 97.9167 291.117 97.1167 293.151 96.55C295.217 95.9833 297.334 95.7 299.501 95.7ZM298.901 118.15C300.234 118.15 301.417 117.85 302.451 117.25C303.484 116.617 304.217 115.7 304.651 114.5V111.75H299.301C296.101 111.75 294.501 112.8 294.501 114.9C294.501 115.9 294.884 116.7 295.651 117.3C296.451 117.867 297.534 118.15 298.901 118.15ZM332.803 123.4C329.936 123.4 327.353 122.817 325.053 121.65C322.786 120.45 321.003 118.8 319.703 116.7C318.436 114.6 317.803 112.217 317.803 109.55C317.803 106.883 318.436 104.5 319.703 102.4C321.003 100.3 322.786 98.6667 325.053 97.5C327.353 96.3 329.936 95.7 332.803 95.7C335.636 95.7 338.103 96.3 340.203 97.5C342.336 98.6667 343.886 100.35 344.853 102.55L338.803 105.8C337.403 103.333 335.386 102.1 332.753 102.1C330.72 102.1 329.036 102.767 327.703 104.1C326.37 105.433 325.703 107.25 325.703 109.55C325.703 111.85 326.37 113.667 327.703 115C329.036 116.333 330.72 117 332.753 117C335.42 117 337.436 115.767 338.803 113.3L344.853 116.6C343.886 118.733 342.336 120.4 340.203 121.6C338.103 122.8 335.636 123.4 332.803 123.4ZM349.344 96.1H357.144V123H349.344V96.1ZM353.244 92.35C351.811 92.35 350.644 91.9333 349.744 91.1C348.844 90.2667 348.394 89.2333 348.394 88C348.394 86.7667 348.844 85.7333 349.744 84.9C350.644 84.0667 351.811 83.65 353.244 83.65C354.677 83.65 355.844 84.05 356.744 84.85C357.644 85.65 358.094 86.65 358.094 87.85C358.094 89.15 357.644 90.2333 356.744 91.1C355.844 91.9333 354.677 92.35 353.244 92.35ZM377.183 123.4C374.35 123.4 371.8 122.817 369.533 121.65C367.3 120.45 365.55 118.8 364.283 116.7C363.017 114.6 362.383 112.217 362.383 109.55C362.383 106.883 363.017 104.5 364.283 102.4C365.55 100.3 367.3 98.6667 369.533 97.5C371.8 96.3 374.35 95.7 377.183 95.7C380.017 95.7 382.55 96.3 384.783 97.5C387.017 98.6667 388.767 100.3 390.033 102.4C391.3 104.5 391.933 106.883 391.933 109.55C391.933 112.217 391.3 114.6 390.033 116.7C388.767 118.8 387.017 120.45 384.783 121.65C382.55 122.817 380.017 123.4 377.183 123.4ZM377.183 117C379.183 117 380.817 116.333 382.083 115C383.383 113.633 384.033 111.817 384.033 109.55C384.033 107.283 383.383 105.483 382.083 104.15C380.817 102.783 379.183 102.1 377.183 102.1C375.183 102.1 373.533 102.783 372.233 104.15C370.933 105.483 370.283 107.283 370.283 109.55C370.283 111.817 370.933 113.633 372.233 115C373.533 116.333 375.183 117 377.183 117ZM413.497 95.7C416.83 95.7 419.514 96.7 421.547 98.7C423.614 100.7 424.647 103.667 424.647 107.6V123H416.847V108.8C416.847 106.667 416.38 105.083 415.447 104.05C414.514 102.983 413.164 102.45 411.397 102.45C409.43 102.45 407.864 103.067 406.697 104.3C405.53 105.5 404.947 107.3 404.947 109.7V123H397.147V96.1H404.597V99.25C405.63 98.1167 406.914 97.25 408.447 96.65C409.98 96.0167 411.664 95.7 413.497 95.7ZM458.36 109.65C458.36 109.75 458.31 110.45 458.21 111.75H437.86C438.227 113.417 439.093 114.733 440.46 115.7C441.827 116.667 443.527 117.15 445.56 117.15C446.96 117.15 448.193 116.95 449.26 116.55C450.36 116.117 451.377 115.45 452.31 114.55L456.46 119.05C453.927 121.95 450.227 123.4 445.36 123.4C442.327 123.4 439.643 122.817 437.31 121.65C434.977 120.45 433.177 118.8 431.91 116.7C430.643 114.6 430.01 112.217 430.01 109.55C430.01 106.917 430.627 104.55 431.86 102.45C433.127 100.317 434.843 98.6667 437.01 97.5C439.21 96.3 441.66 95.7 444.36 95.7C446.993 95.7 449.377 96.2667 451.51 97.4C453.643 98.5333 455.31 100.167 456.51 102.3C457.743 104.4 458.36 106.85 458.36 109.65ZM444.41 101.6C442.643 101.6 441.16 102.1 439.96 103.1C438.76 104.1 438.027 105.467 437.76 107.2H451.01C450.743 105.5 450.01 104.15 448.81 103.15C447.61 102.117 446.143 101.6 444.41 101.6ZM472.603 123.4C470.37 123.4 468.186 123.133 466.053 122.6C463.92 122.033 462.22 121.333 460.953 120.5L463.553 114.9C464.753 115.667 466.203 116.3 467.903 116.8C469.603 117.267 471.27 117.5 472.903 117.5C476.203 117.5 477.853 116.683 477.853 115.05C477.853 114.283 477.403 113.733 476.503 113.4C475.603 113.067 474.22 112.783 472.353 112.55C470.153 112.217 468.336 111.833 466.903 111.4C465.47 110.967 464.22 110.2 463.153 109.1C462.12 108 461.603 106.433 461.603 104.4C461.603 102.7 462.086 101.2 463.053 99.9C464.053 98.5667 465.486 97.5333 467.353 96.8C469.253 96.0667 471.486 95.7 474.053 95.7C475.953 95.7 477.836 95.9167 479.703 96.35C481.603 96.75 483.17 97.3167 484.403 98.05L481.803 103.6C479.436 102.267 476.853 101.6 474.053 101.6C472.386 101.6 471.136 101.833 470.303 102.3C469.47 102.767 469.053 103.367 469.053 104.1C469.053 104.933 469.503 105.517 470.403 105.85C471.303 106.183 472.736 106.5 474.703 106.8C476.903 107.167 478.703 107.567 480.103 108C481.503 108.4 482.72 109.15 483.753 110.25C484.786 111.35 485.303 112.883 485.303 114.85C485.303 116.517 484.803 118 483.803 119.3C482.803 120.6 481.336 121.617 479.403 122.35C477.503 123.05 475.236 123.4 472.603 123.4ZM89.0002 146.9V184H81.5502V180.9C79.6169 183.233 76.8169 184.4 73.1502 184.4C70.6169 184.4 68.3169 183.833 66.2502 182.7C64.2169 181.567 62.6169 179.95 61.4502 177.85C60.2835 175.75 59.7002 173.317 59.7002 170.55C59.7002 167.783 60.2835 165.35 61.4502 163.25C62.6169 161.15 64.2169 159.533 66.2502 158.4C68.3169 157.267 70.6169 156.7 73.1502 156.7C76.5835 156.7 79.2669 157.783 81.2002 159.95V146.9H89.0002ZM74.5002 178C76.4669 178 78.1002 177.333 79.4002 176C80.7002 174.633 81.3502 172.817 81.3502 170.55C81.3502 168.283 80.7002 166.483 79.4002 165.15C78.1002 163.783 76.4669 163.1 74.5002 163.1C72.5002 163.1 70.8502 163.783 69.5502 165.15C68.2502 166.483 67.6002 168.283 67.6002 170.55C67.6002 172.817 68.2502 174.633 69.5502 176C70.8502 177.333 72.5002 178 74.5002 178ZM122.569 170.65C122.569 170.75 122.519 171.45 122.419 172.75H102.069C102.436 174.417 103.302 175.733 104.669 176.7C106.036 177.667 107.736 178.15 109.769 178.15C111.169 178.15 112.402 177.95 113.469 177.55C114.569 177.117 115.586 176.45 116.519 175.55L120.669 180.05C118.136 182.95 114.436 184.4 109.569 184.4C106.536 184.4 103.852 183.817 101.519 182.65C99.186 181.45 97.386 179.8 96.1193 177.7C94.8527 175.6 94.2193 173.217 94.2193 170.55C94.2193 167.917 94.836 165.55 96.0693 163.45C97.336 161.317 99.0527 159.667 101.219 158.5C103.419 157.3 105.869 156.7 108.569 156.7C111.202 156.7 113.586 157.267 115.719 158.4C117.852 159.533 119.519 161.167 120.719 163.3C121.952 165.4 122.569 167.85 122.569 170.65ZM108.619 162.6C106.852 162.6 105.369 163.1 104.169 164.1C102.969 165.1 102.236 166.467 101.969 168.2H115.219C114.952 166.5 114.219 165.15 113.019 164.15C111.819 163.117 110.352 162.6 108.619 162.6ZM127.762 146.9H135.562V184H127.762V146.9ZM156.961 157.1H164.761V184H156.961V157.1ZM160.861 153.35C159.428 153.35 158.261 152.933 157.361 152.1C156.461 151.267 156.011 150.233 156.011 149C156.011 147.767 156.461 146.733 157.361 145.9C158.261 145.067 159.428 144.65 160.861 144.65C162.295 144.65 163.461 145.05 164.361 145.85C165.261 146.65 165.711 147.65 165.711 148.85C165.711 150.15 165.261 151.233 164.361 152.1C163.461 152.933 162.295 153.35 160.861 153.35ZM188.35 156.7C191.684 156.7 194.367 157.7 196.4 159.7C198.467 161.7 199.5 164.667 199.5 168.6V184H191.7V169.8C191.7 167.667 191.234 166.083 190.3 165.05C189.367 163.983 188.017 163.45 186.25 163.45C184.284 163.45 182.717 164.067 181.55 165.3C180.384 166.5 179.8 168.3 179.8 170.7V184H172V157.1H179.45V160.25C180.484 159.117 181.767 158.25 183.3 157.65C184.834 157.017 186.517 156.7 188.35 156.7ZM232.782 157.1L221.432 184H213.382L202.082 157.1H210.132L217.582 175.4L225.282 157.1H232.782ZM261.583 170.65C261.583 170.75 261.533 171.45 261.433 172.75H241.083C241.449 174.417 242.316 175.733 243.683 176.7C245.049 177.667 246.749 178.15 248.783 178.15C250.183 178.15 251.416 177.95 252.483 177.55C253.583 177.117 254.599 176.45 255.533 175.55L259.683 180.05C257.149 182.95 253.449 184.4 248.583 184.4C245.549 184.4 242.866 183.817 240.533 182.65C238.199 181.45 236.399 179.8 235.133 177.7C233.866 175.6 233.233 173.217 233.233 170.55C233.233 167.917 233.849 165.55 235.083 163.45C236.349 161.317 238.066 159.667 240.233 158.5C242.433 157.3 244.883 156.7 247.583 156.7C250.216 156.7 252.599 157.267 254.733 158.4C256.866 159.533 258.533 161.167 259.733 163.3C260.966 165.4 261.583 167.85 261.583 170.65ZM247.633 162.6C245.866 162.6 244.383 163.1 243.183 164.1C241.983 165.1 241.249 166.467 240.983 168.2H254.233C253.966 166.5 253.233 165.15 252.033 164.15C250.833 163.117 249.366 162.6 247.633 162.6ZM274.226 160.65C275.159 159.35 276.409 158.367 277.976 157.7C279.576 157.033 281.409 156.7 283.476 156.7V163.9C282.609 163.833 282.026 163.8 281.726 163.8C279.492 163.8 277.742 164.433 276.476 165.7C275.209 166.933 274.576 168.8 274.576 171.3V184H266.776V157.1H274.226V160.65ZM297.261 184.4C295.028 184.4 292.845 184.133 290.711 183.6C288.578 183.033 286.878 182.333 285.611 181.5L288.211 175.9C289.411 176.667 290.861 177.3 292.561 177.8C294.261 178.267 295.928 178.5 297.561 178.5C300.861 178.5 302.511 177.683 302.511 176.05C302.511 175.283 302.061 174.733 301.161 174.4C300.261 174.067 298.878 173.783 297.011 173.55C294.811 173.217 292.995 172.833 291.561 172.4C290.128 171.967 288.878 171.2 287.811 170.1C286.778 169 286.261 167.433 286.261 165.4C286.261 163.7 286.745 162.2 287.711 160.9C288.711 159.567 290.145 158.533 292.011 157.8C293.911 157.067 296.145 156.7 298.711 156.7C300.611 156.7 302.495 156.917 304.361 157.35C306.261 157.75 307.828 158.317 309.061 159.05L306.461 164.6C304.095 163.267 301.511 162.6 298.711 162.6C297.045 162.6 295.795 162.833 294.961 163.3C294.128 163.767 293.711 164.367 293.711 165.1C293.711 165.933 294.161 166.517 295.061 166.85C295.961 167.183 297.395 167.5 299.361 167.8C301.561 168.167 303.361 168.567 304.761 169C306.161 169.4 307.378 170.15 308.411 171.25C309.445 172.35 309.961 173.883 309.961 175.85C309.961 177.517 309.461 179 308.461 180.3C307.461 181.6 305.995 182.617 304.061 183.35C302.161 184.05 299.895 184.4 297.261 184.4ZM327.574 184.4C324.74 184.4 322.19 183.817 319.924 182.65C317.69 181.45 315.94 179.8 314.674 177.7C313.407 175.6 312.774 173.217 312.774 170.55C312.774 167.883 313.407 165.5 314.674 163.4C315.94 161.3 317.69 159.667 319.924 158.5C322.19 157.3 324.74 156.7 327.574 156.7C330.407 156.7 332.94 157.3 335.174 158.5C337.407 159.667 339.157 161.3 340.424 163.4C341.69 165.5 342.324 167.883 342.324 170.55C342.324 173.217 341.69 175.6 340.424 177.7C339.157 179.8 337.407 181.45 335.174 182.65C332.94 183.817 330.407 184.4 327.574 184.4ZM327.574 178C329.574 178 331.207 177.333 332.474 176C333.774 174.633 334.424 172.817 334.424 170.55C334.424 168.283 333.774 166.483 332.474 165.15C331.207 163.783 329.574 163.1 327.574 163.1C325.574 163.1 323.924 163.783 322.624 165.15C321.324 166.483 320.674 168.283 320.674 170.55C320.674 172.817 321.324 174.633 322.624 176C323.924 177.333 325.574 178 327.574 178ZM354.988 160.65C355.921 159.35 357.171 158.367 358.738 157.7C360.338 157.033 362.171 156.7 364.238 156.7V163.9C363.371 163.833 362.788 163.8 362.488 163.8C360.254 163.8 358.504 164.433 357.238 165.7C355.971 166.933 355.338 168.8 355.338 171.3V184H347.538V157.1H354.988V160.65Z" fill="#19406E"/>
<path d="M61.3203 280H74.0403C77.0803 280 79.7603 280.587 82.0803 281.76C84.427 282.907 86.2403 284.533 87.5203 286.64C88.827 288.747 89.4803 291.2 89.4803 294C89.4803 296.8 88.827 299.253 87.5203 301.36C86.2403 303.467 84.427 305.107 82.0803 306.28C79.7603 307.427 77.0803 308 74.0403 308H61.3203V280ZM73.7203 302.68C76.5203 302.68 78.747 301.907 80.4003 300.36C82.0803 298.787 82.9203 296.667 82.9203 294C82.9203 291.333 82.0803 289.227 80.4003 287.68C78.747 286.107 76.5203 285.32 73.7203 285.32H67.8003V302.68H73.7203ZM102.607 286.16C105.94 286.16 108.5 286.96 110.287 288.56C112.074 290.133 112.967 292.52 112.967 295.72V308H107.127V305.32C105.954 307.32 103.767 308.32 100.567 308.32C98.9138 308.32 97.4738 308.04 96.2472 307.48C95.0472 306.92 94.1272 306.147 93.4872 305.16C92.8472 304.173 92.5272 303.053 92.5272 301.8C92.5272 299.8 93.2738 298.227 94.7672 297.08C96.2872 295.933 98.6205 295.36 101.767 295.36H106.727C106.727 294 106.314 292.96 105.487 292.24C104.66 291.493 103.42 291.12 101.767 291.12C100.62 291.12 99.4872 291.307 98.3672 291.68C97.2738 292.027 96.3405 292.507 95.5672 293.12L93.3272 288.76C94.5005 287.933 95.9005 287.293 97.5272 286.84C99.1805 286.387 100.874 286.16 102.607 286.16ZM102.127 304.12C103.194 304.12 104.14 303.88 104.967 303.4C105.794 302.893 106.38 302.16 106.727 301.2V299H102.447C99.8872 299 98.6072 299.84 98.6072 301.52C98.6072 302.32 98.9138 302.96 99.5272 303.44C100.167 303.893 101.034 304.12 102.127 304.12ZM132.494 306.96C131.881 307.413 131.121 307.76 130.214 308C129.334 308.213 128.401 308.32 127.414 308.32C124.854 308.32 122.868 307.667 121.454 306.36C120.068 305.053 119.374 303.133 119.374 300.6V291.76H116.054V286.96H119.374V281.72H125.614V286.96H130.974V291.76H125.614V300.52C125.614 301.427 125.841 302.133 126.294 302.64C126.774 303.12 127.441 303.36 128.294 303.36C129.281 303.36 130.121 303.093 130.814 302.56L132.494 306.96ZM145.573 308.32C143.306 308.32 141.266 307.853 139.453 306.92C137.666 305.96 136.266 304.64 135.253 302.96C134.24 301.28 133.733 299.373 133.733 297.24C133.733 295.107 134.24 293.2 135.253 291.52C136.266 289.84 137.666 288.533 139.453 287.6C141.266 286.64 143.306 286.16 145.573 286.16C147.84 286.16 149.866 286.64 151.653 287.6C153.44 288.533 154.84 289.84 155.853 291.52C156.866 293.2 157.373 295.107 157.373 297.24C157.373 299.373 156.866 301.28 155.853 302.96C154.84 304.64 153.44 305.96 151.653 306.92C149.866 307.853 147.84 308.32 145.573 308.32ZM145.573 303.2C147.173 303.2 148.48 302.667 149.493 301.6C150.533 300.507 151.053 299.053 151.053 297.24C151.053 295.427 150.533 293.987 149.493 292.92C148.48 291.827 147.173 291.28 145.573 291.28C143.973 291.28 142.653 291.827 141.613 292.92C140.573 293.987 140.053 295.427 140.053 297.24C140.053 299.053 140.573 300.507 141.613 301.6C142.653 302.667 143.973 303.2 145.573 303.2ZM168.784 308.32C166.997 308.32 165.251 308.107 163.544 307.68C161.837 307.227 160.477 306.667 159.464 306L161.544 301.52C162.504 302.133 163.664 302.64 165.024 303.04C166.384 303.413 167.717 303.6 169.024 303.6C171.664 303.6 172.984 302.947 172.984 301.64C172.984 301.027 172.624 300.587 171.904 300.32C171.184 300.053 170.077 299.827 168.584 299.64C166.824 299.373 165.371 299.067 164.224 298.72C163.077 298.373 162.077 297.76 161.224 296.88C160.397 296 159.984 294.747 159.984 293.12C159.984 291.76 160.371 290.56 161.144 289.52C161.944 288.453 163.091 287.627 164.584 287.04C166.104 286.453 167.891 286.16 169.944 286.16C171.464 286.16 172.971 286.333 174.464 286.68C175.984 287 177.237 287.453 178.224 288.04L176.144 292.48C174.251 291.413 172.184 290.88 169.944 290.88C168.611 290.88 167.611 291.067 166.944 291.44C166.277 291.813 165.944 292.293 165.944 292.88C165.944 293.547 166.304 294.013 167.024 294.28C167.744 294.547 168.891 294.8 170.464 295.04C172.224 295.333 173.664 295.653 174.784 296C175.904 296.32 176.877 296.92 177.704 297.8C178.531 298.68 178.944 299.907 178.944 301.48C178.944 302.813 178.544 304 177.744 305.04C176.944 306.08 175.771 306.893 174.224 307.48C172.704 308.04 170.891 308.32 168.784 308.32ZM194.122 286.48H200.362V308H194.122V286.48ZM197.242 283.48C196.096 283.48 195.162 283.147 194.442 282.48C193.722 281.813 193.362 280.987 193.362 280C193.362 279.013 193.722 278.187 194.442 277.52C195.162 276.853 196.096 276.52 197.242 276.52C198.389 276.52 199.322 276.84 200.042 277.48C200.762 278.12 201.122 278.92 201.122 279.88C201.122 280.92 200.762 281.787 200.042 282.48C199.322 283.147 198.389 283.48 197.242 283.48ZM228.073 278.32V308H222.113V305.52C220.567 307.387 218.327 308.32 215.393 308.32C213.367 308.32 211.527 307.867 209.873 306.96C208.247 306.053 206.967 304.76 206.033 303.08C205.1 301.4 204.633 299.453 204.633 297.24C204.633 295.027 205.1 293.08 206.033 291.4C206.967 289.72 208.247 288.427 209.873 287.52C211.527 286.613 213.367 286.16 215.393 286.16C218.14 286.16 220.287 287.027 221.833 288.76V278.32H228.073ZM216.473 303.2C218.047 303.2 219.353 302.667 220.393 301.6C221.433 300.507 221.953 299.053 221.953 297.24C221.953 295.427 221.433 293.987 220.393 292.92C219.353 291.827 218.047 291.28 216.473 291.28C214.873 291.28 213.553 291.827 212.513 292.92C211.473 293.987 210.953 295.427 210.953 297.24C210.953 299.053 211.473 300.507 212.513 301.6C213.553 302.667 214.873 303.2 216.473 303.2ZM254.929 297.32C254.929 297.4 254.889 297.96 254.809 299H238.529C238.822 300.333 239.515 301.387 240.609 302.16C241.702 302.933 243.062 303.32 244.689 303.32C245.809 303.32 246.795 303.16 247.649 302.84C248.529 302.493 249.342 301.96 250.089 301.24L253.409 304.84C251.382 307.16 248.422 308.32 244.529 308.32C242.102 308.32 239.955 307.853 238.089 306.92C236.222 305.96 234.782 304.64 233.769 302.96C232.755 301.28 232.249 299.373 232.249 297.24C232.249 295.133 232.742 293.24 233.729 291.56C234.742 289.853 236.115 288.533 237.849 287.6C239.609 286.64 241.569 286.16 243.729 286.16C245.835 286.16 247.742 286.613 249.449 287.52C251.155 288.427 252.489 289.733 253.449 291.44C254.435 293.12 254.929 295.08 254.929 297.32ZM243.769 290.88C242.355 290.88 241.169 291.28 240.209 292.08C239.249 292.88 238.662 293.973 238.449 295.36H249.049C248.835 294 248.249 292.92 247.289 292.12C246.329 291.293 245.155 290.88 243.769 290.88ZM272.163 286.16C274.83 286.16 276.976 286.96 278.603 288.56C280.256 290.16 281.083 292.533 281.083 295.68V308H274.843V296.64C274.843 294.933 274.47 293.667 273.723 292.84C272.976 291.987 271.896 291.56 270.483 291.56C268.91 291.56 267.656 292.053 266.723 293.04C265.79 294 265.323 295.44 265.323 297.36V308H259.083V286.48H265.043V289C265.87 288.093 266.896 287.4 268.123 286.92C269.35 286.413 270.696 286.16 272.163 286.16ZM300.619 306.96C300.006 307.413 299.246 307.76 298.339 308C297.459 308.213 296.526 308.32 295.539 308.32C292.979 308.32 290.993 307.667 289.579 306.36C288.193 305.053 287.499 303.133 287.499 300.6V291.76H284.179V286.96H287.499V281.72H293.739V286.96H299.099V291.76H293.739V300.52C293.739 301.427 293.966 302.133 294.419 302.64C294.899 303.12 295.566 303.36 296.419 303.36C297.406 303.36 298.246 303.093 298.939 302.56L300.619 306.96ZM304.122 286.48H310.362V308H304.122V286.48ZM307.242 283.48C306.096 283.48 305.162 283.147 304.442 282.48C303.722 281.813 303.362 280.987 303.362 280C303.362 279.013 303.722 278.187 304.442 277.52C305.162 276.853 306.096 276.52 307.242 276.52C308.389 276.52 309.322 276.84 310.042 277.48C310.762 278.12 311.122 278.92 311.122 279.88C311.122 280.92 310.762 281.787 310.042 282.48C309.322 283.147 308.389 283.48 307.242 283.48ZM322.993 286.96H328.513V291.76H323.153V308H316.913V291.76H313.593V286.96H316.913V286C316.913 283.547 317.633 281.6 319.073 280.16C320.54 278.72 322.593 278 325.233 278C326.167 278 327.047 278.107 327.873 278.32C328.727 278.507 329.433 278.787 329.993 279.16L328.353 283.68C327.633 283.173 326.793 282.92 325.833 282.92C323.94 282.92 322.993 283.96 322.993 286.04V286.96ZM334.833 286.48H341.073V308H334.833V286.48ZM337.953 283.48C336.807 283.48 335.873 283.147 335.153 282.48C334.433 281.813 334.073 280.987 334.073 280C334.073 279.013 334.433 278.187 335.153 277.52C335.873 276.853 336.807 276.52 337.953 276.52C339.1 276.52 340.033 276.84 340.753 277.48C341.473 278.12 341.833 278.92 341.833 279.88C341.833 280.92 341.473 281.787 340.753 282.48C340.033 283.147 339.1 283.48 337.953 283.48ZM357.257 308.32C354.963 308.32 352.897 307.853 351.057 306.92C349.243 305.96 347.817 304.64 346.777 302.96C345.763 301.28 345.257 299.373 345.257 297.24C345.257 295.107 345.763 293.2 346.777 291.52C347.817 289.84 349.243 288.533 351.057 287.6C352.897 286.64 354.963 286.16 357.257 286.16C359.523 286.16 361.497 286.64 363.177 287.6C364.883 288.533 366.123 289.88 366.897 291.64L362.057 294.24C360.937 292.267 359.323 291.28 357.217 291.28C355.59 291.28 354.243 291.813 353.177 292.88C352.11 293.947 351.577 295.4 351.577 297.24C351.577 299.08 352.11 300.533 353.177 301.6C354.243 302.667 355.59 303.2 357.217 303.2C359.35 303.2 360.963 302.213 362.057 300.24L366.897 302.88C366.123 304.587 364.883 305.92 363.177 306.88C361.497 307.84 359.523 308.32 357.257 308.32ZM379.169 286.16C382.503 286.16 385.063 286.96 386.849 288.56C388.636 290.133 389.529 292.52 389.529 295.72V308H383.689V305.32C382.516 307.32 380.329 308.32 377.129 308.32C375.476 308.32 374.036 308.04 372.809 307.48C371.609 306.92 370.689 306.147 370.049 305.16C369.409 304.173 369.089 303.053 369.089 301.8C369.089 299.8 369.836 298.227 371.329 297.08C372.849 295.933 375.183 295.36 378.329 295.36H383.289C383.289 294 382.876 292.96 382.049 292.24C381.223 291.493 379.983 291.12 378.329 291.12C377.183 291.12 376.049 291.307 374.929 291.68C373.836 292.027 372.903 292.507 372.129 293.12L369.889 288.76C371.063 287.933 372.463 287.293 374.089 286.84C375.743 286.387 377.436 286.16 379.169 286.16ZM378.689 304.12C379.756 304.12 380.703 303.88 381.529 303.4C382.356 302.893 382.943 302.16 383.289 301.2V299H379.009C376.449 299 375.169 299.84 375.169 301.52C375.169 302.32 375.476 302.96 376.089 303.44C376.729 303.893 377.596 304.12 378.689 304.12ZM409.057 306.96C408.444 307.413 407.684 307.76 406.777 308C405.897 308.213 404.964 308.32 403.977 308.32C401.417 308.32 399.43 307.667 398.017 306.36C396.63 305.053 395.937 303.133 395.937 300.6V291.76H392.617V286.96H395.937V281.72H402.177V286.96H407.537V291.76H402.177V300.52C402.177 301.427 402.404 302.133 402.857 302.64C403.337 303.12 404.004 303.36 404.857 303.36C405.844 303.36 406.684 303.093 407.377 302.56L409.057 306.96ZM412.56 286.48H418.8V308H412.56V286.48ZM415.68 283.48C414.533 283.48 413.6 283.147 412.88 282.48C412.16 281.813 411.8 280.987 411.8 280C411.8 279.013 412.16 278.187 412.88 277.52C413.6 276.853 414.533 276.52 415.68 276.52C416.826 276.52 417.76 276.84 418.48 277.48C419.2 278.12 419.56 278.92 419.56 279.88C419.56 280.92 419.2 281.787 418.48 282.48C417.76 283.147 416.826 283.48 415.68 283.48ZM445.951 286.48L436.871 308H430.431L421.391 286.48H427.831L433.791 301.12L439.951 286.48H445.951ZM458.151 308.32C455.885 308.32 453.845 307.853 452.031 306.92C450.245 305.96 448.845 304.64 447.831 302.96C446.818 301.28 446.311 299.373 446.311 297.24C446.311 295.107 446.818 293.2 447.831 291.52C448.845 289.84 450.245 288.533 452.031 287.6C453.845 286.64 455.885 286.16 458.151 286.16C460.418 286.16 462.445 286.64 464.231 287.6C466.018 288.533 467.418 289.84 468.431 291.52C469.445 293.2 469.951 295.107 469.951 297.24C469.951 299.373 469.445 301.28 468.431 302.96C467.418 304.64 466.018 305.96 464.231 306.92C462.445 307.853 460.418 308.32 458.151 308.32ZM458.151 303.2C459.751 303.2 461.058 302.667 462.071 301.6C463.111 300.507 463.631 299.053 463.631 297.24C463.631 295.427 463.111 293.987 462.071 292.92C461.058 291.827 459.751 291.28 458.151 291.28C456.551 291.28 455.231 291.827 454.191 292.92C453.151 293.987 452.631 295.427 452.631 297.24C452.631 299.053 453.151 300.507 454.191 301.6C455.231 302.667 456.551 303.2 458.151 303.2ZM481.362 308.32C479.576 308.32 477.829 308.107 476.122 307.68C474.416 307.227 473.056 306.667 472.042 306L474.122 301.52C475.082 302.133 476.242 302.64 477.602 303.04C478.962 303.413 480.296 303.6 481.602 303.6C484.242 303.6 485.562 302.947 485.562 301.64C485.562 301.027 485.202 300.587 484.482 300.32C483.762 300.053 482.656 299.827 481.162 299.64C479.402 299.373 477.949 299.067 476.802 298.72C475.656 298.373 474.656 297.76 473.802 296.88C472.976 296 472.562 294.747 472.562 293.12C472.562 291.76 472.949 290.56 473.722 289.52C474.522 288.453 475.669 287.627 477.162 287.04C478.682 286.453 480.469 286.16 482.522 286.16C484.042 286.16 485.549 286.333 487.042 286.68C488.562 287 489.816 287.453 490.802 288.04L488.722 292.48C486.829 291.413 484.762 290.88 482.522 290.88C481.189 290.88 480.189 291.067 479.522 291.44C478.856 291.813 478.522 292.293 478.522 292.88C478.522 293.547 478.882 294.013 479.602 294.28C480.322 294.547 481.469 294.8 483.042 295.04C484.802 295.333 486.242 295.653 487.362 296C488.482 296.32 489.456 296.92 490.282 297.8C491.109 298.68 491.522 299.907 491.522 301.48C491.522 302.813 491.122 304 490.322 305.04C489.522 306.08 488.349 306.893 486.802 307.48C485.282 308.04 483.469 308.32 481.362 308.32Z" fill="#3059D6"/>
</svg>
