<svg width="1229" height="393" viewBox="0 0 1229 393" fill="none" xmlns="https://www.w3.org/2000/svg">
<line x1="798.75" y1="166" x2="798.75" y2="259" stroke="#E18B4D" stroke-width="1.5"/>
<line x1="798.75" y1="14" x2="798.75" y2="78" stroke="#0697FF" stroke-width="1.5"/>
<line x1="783.75" y1="166" x2="783.75" y2="259" stroke="#E18B4D" stroke-width="1.5"/>
<line x1="783.75" y1="-3.27835e-08" x2="783.75" y2="78" stroke="#E18B4D" stroke-width="1.5"/>
<line x1="353" y1="90.75" x2="172" y2="90.75" stroke="#E18B4D" stroke-width="1.5"/>
<line x1="570" y1="359.75" x2="173" y2="359.75" stroke="#0697FF" stroke-width="1.5"/>
<line x1="569" y1="224.75" x2="525" y2="224.75" stroke="#E18B4D" stroke-width="1.5"/>
<line x1="705" y1="290.75" x2="569" y2="290.75" stroke="#E18B4D" stroke-width="1.5"/>
<line x1="705" y1="305.75" x2="569" y2="305.75" stroke="#0697FF" stroke-width="1.5"/>
<line x1="949" y1="130.75" x2="870" y2="130.75" stroke="#E18B4D" stroke-width="1.5"/>
<line x1="963" y1="115.75" x2="870" y2="115.75" stroke="#0697FF" stroke-width="1.5"/>
<line x1="963.25" y1="306" x2="963.25" y2="115" stroke="#0697FF" stroke-width="1.5"/>
<line x1="948.25" y1="170" x2="948.25" y2="131" stroke="#E18B4D" stroke-width="1.5"/>
<line x1="948.25" y1="290" x2="948.25" y2="234" stroke="#E18B4D" stroke-width="1.5"/>
<line x1="1139" y1="14.75" x2="798" y2="14.75" stroke="#0697FF" stroke-width="1.5"/>
<line x1="1154" y1="0.75" x2="783" y2="0.75" stroke="#E18B4D" stroke-width="1.5"/>
<line x1="84.75" y1="125" x2="84.75" y2="323" stroke="#0697FF" stroke-width="1.5"/>
<line x1="569.75" y1="224" x2="569.75" y2="290" stroke="#E18B4D" stroke-width="1.5"/>
<line x1="569.75" y1="305" x2="569.75" y2="359" stroke="#0697FF" stroke-width="1.5"/>
<line x1="439.75" y1="125" x2="439.75" y2="189" stroke="#E18B4D" stroke-width="1.5"/>
<path d="M1137.47 235.53C1137.76 235.823 1138.24 235.823 1138.53 235.53L1143.3 230.757C1143.6 230.464 1143.6 229.99 1143.3 229.697C1143.01 229.404 1142.54 229.404 1142.24 229.697L1138 233.939L1133.76 229.697C1133.46 229.404 1132.99 229.404 1132.7 229.697C1132.4 229.99 1132.4 230.464 1132.7 230.757L1137.47 235.53ZM1137.25 15L1137.25 235L1138.75 235L1138.75 15L1137.25 15Z" fill="#0697FF"/>
<path d="M1152.47 235.53C1152.76 235.823 1153.24 235.823 1153.53 235.53L1158.3 230.757C1158.6 230.464 1158.6 229.99 1158.3 229.697C1158.01 229.404 1157.54 229.404 1157.24 229.697L1153 233.939L1148.76 229.697C1148.46 229.404 1147.99 229.404 1147.7 229.697C1147.4 229.99 1147.4 230.464 1147.7 230.757L1152.47 235.53ZM1152.25 1L1152.25 235L1153.75 235L1153.75 1L1152.25 1Z" fill="#E18B4D"/>
<path d="M889.47 289.47C889.177 289.763 889.177 290.237 889.47 290.53L894.243 295.303C894.536 295.596 895.01 295.596 895.303 295.303C895.596 295.01 895.596 294.536 895.303 294.243L891.061 290L895.303 285.757C895.596 285.464 895.596 284.99 895.303 284.697C895.01 284.404 894.536 284.404 894.243 284.697L889.47 289.47ZM949 289.25L890 289.25L890 290.75L949 290.75L949 289.25Z" fill="#E18B4D"/>
<path d="M889.47 304.47C889.177 304.763 889.177 305.237 889.47 305.53L894.243 310.303C894.536 310.596 895.01 310.596 895.303 310.303C895.596 310.01 895.596 309.536 895.303 309.243L891.061 305L895.303 300.757C895.596 300.464 895.596 299.99 895.303 299.697C895.01 299.404 894.536 299.404 894.243 299.697L889.47 304.47ZM964 304.25H890V305.75H964V304.25Z" fill="#0697FF"/>
<rect x="353.5" y="55.5" width="171" height="69" rx="6.5" fill="#F9F4F0" stroke="#E18B4D"/>
<path d="M417.579 97V86.8182H421.019C421.818 86.8182 422.471 86.9624 422.978 87.2507C423.488 87.5357 423.866 87.9219 424.111 88.4091C424.357 88.8963 424.479 89.4399 424.479 90.0398C424.479 90.6397 424.357 91.1849 424.111 91.6754C423.869 92.166 423.495 92.5571 422.988 92.8487C422.481 93.1371 421.831 93.2812 421.039 93.2812H418.573V92.1875H420.999C421.546 92.1875 421.985 92.093 422.317 91.9041C422.648 91.7152 422.888 91.46 423.037 91.1385C423.19 90.8137 423.266 90.4474 423.266 90.0398C423.266 89.6321 423.19 89.2675 423.037 88.946C422.888 88.6245 422.646 88.3726 422.312 88.1903C421.977 88.0047 421.533 87.9119 420.979 87.9119H418.812V97H417.579ZM429.426 97.1591C428.69 97.1591 428.055 96.9967 427.522 96.6719C426.992 96.3438 426.582 95.8864 426.294 95.2997C426.009 94.7098 425.866 94.0237 425.866 93.2415C425.866 92.4593 426.009 91.7699 426.294 91.1733C426.582 90.5734 426.983 90.1061 427.497 89.7713C428.014 89.4332 428.617 89.2642 429.307 89.2642C429.704 89.2642 430.097 89.3305 430.485 89.4631C430.873 89.5956 431.226 89.8111 431.544 90.1094C431.862 90.4044 432.116 90.7955 432.305 91.2827C432.493 91.7699 432.588 92.3698 432.588 93.0824V93.5795H426.702V92.5653H431.395C431.395 92.1345 431.309 91.75 431.136 91.4119C430.967 91.0739 430.725 90.8071 430.41 90.6115C430.099 90.416 429.731 90.3182 429.307 90.3182C428.839 90.3182 428.435 90.4342 428.094 90.6662C427.756 90.8949 427.495 91.1932 427.313 91.5611C427.131 91.929 427.04 92.3234 427.04 92.7443V93.4205C427.04 93.9972 427.139 94.486 427.338 94.8871C427.54 95.2848 427.82 95.5881 428.178 95.7969C428.536 96.0024 428.952 96.1051 429.426 96.1051C429.734 96.1051 430.013 96.062 430.261 95.9759C430.513 95.8864 430.73 95.7538 430.912 95.5781C431.095 95.3991 431.236 95.1771 431.335 94.9119L432.469 95.2301C432.349 95.6146 432.149 95.9527 431.867 96.2443C431.585 96.5327 431.237 96.758 430.823 96.9205C430.409 97.0795 429.943 97.1591 429.426 97.1591ZM437.475 97.1591C436.786 97.1591 436.181 96.995 435.66 96.6669C435.143 96.3388 434.739 95.8797 434.447 95.2898C434.159 94.6998 434.015 94.0104 434.015 93.2216C434.015 92.4261 434.159 91.7318 434.447 91.1385C434.739 90.5452 435.143 90.0845 435.66 89.7564C436.181 89.4283 436.786 89.2642 437.475 89.2642C438.164 89.2642 438.768 89.4283 439.285 89.7564C439.805 90.0845 440.209 90.5452 440.498 91.1385C440.789 91.7318 440.935 92.4261 440.935 93.2216C440.935 94.0104 440.789 94.6998 440.498 95.2898C440.209 95.8797 439.805 96.3388 439.285 96.6669C438.768 96.995 438.164 97.1591 437.475 97.1591ZM437.475 96.1051C437.999 96.1051 438.43 95.9709 438.768 95.7024C439.106 95.4339 439.356 95.081 439.518 94.6435C439.681 94.206 439.762 93.732 439.762 93.2216C439.762 92.7112 439.681 92.2356 439.518 91.7947C439.356 91.3539 439.106 90.9976 438.768 90.7259C438.43 90.4541 437.999 90.3182 437.475 90.3182C436.951 90.3182 436.52 90.4541 436.182 90.7259C435.844 90.9976 435.594 91.3539 435.432 91.7947C435.269 92.2356 435.188 92.7112 435.188 93.2216C435.188 93.732 435.269 94.206 435.432 94.6435C435.594 95.081 435.844 95.4339 436.182 95.7024C436.52 95.9709 436.951 96.1051 437.475 96.1051ZM442.726 99.8636V89.3636H443.86V90.5767H443.999C444.085 90.4441 444.204 90.2751 444.357 90.0696C444.513 89.8608 444.735 89.6752 445.023 89.5128C445.315 89.3471 445.709 89.2642 446.206 89.2642C446.849 89.2642 447.416 89.425 447.907 89.7464C448.397 90.0679 448.78 90.5237 449.055 91.1136C449.33 91.7036 449.468 92.3996 449.468 93.2017C449.468 94.0104 449.33 94.7114 449.055 95.3047C448.78 95.8946 448.399 96.352 447.912 96.6768C447.424 96.9983 446.863 97.1591 446.226 97.1591C445.736 97.1591 445.343 97.0779 445.048 96.9155C444.753 96.7498 444.526 96.5625 444.367 96.3537C444.208 96.1416 444.085 95.9659 443.999 95.8267H443.9V99.8636H442.726ZM443.88 93.1818C443.88 93.7585 443.964 94.2673 444.133 94.7081C444.302 95.1456 444.549 95.4886 444.874 95.7372C445.199 95.9825 445.596 96.1051 446.067 96.1051C446.558 96.1051 446.967 95.9759 447.295 95.7173C447.627 95.4555 447.875 95.1042 448.041 94.6634C448.21 94.2192 448.294 93.7254 448.294 93.1818C448.294 92.6449 448.212 92.161 448.046 91.7301C447.883 91.2959 447.636 90.9529 447.305 90.701C446.977 90.4458 446.564 90.3182 446.067 90.3182C445.59 90.3182 445.189 90.4392 444.864 90.6811C444.539 90.9197 444.294 91.2545 444.128 91.6854C443.962 92.1129 443.88 92.6117 443.88 93.1818ZM452.431 86.8182V97H451.257V86.8182H452.431ZM457.781 97.1591C457.046 97.1591 456.411 96.9967 455.877 96.6719C455.347 96.3438 454.938 95.8864 454.649 95.2997C454.364 94.7098 454.222 94.0237 454.222 93.2415C454.222 92.4593 454.364 91.7699 454.649 91.1733C454.938 90.5734 455.339 90.1061 455.852 89.7713C456.369 89.4332 456.973 89.2642 457.662 89.2642C458.06 89.2642 458.453 89.3305 458.84 89.4631C459.228 89.5956 459.581 89.8111 459.899 90.1094C460.218 90.4044 460.471 90.7955 460.66 91.2827C460.849 91.7699 460.943 92.3698 460.943 93.0824V93.5795H455.057V92.5653H459.75C459.75 92.1345 459.664 91.75 459.492 91.4119C459.323 91.0739 459.081 90.8071 458.766 90.6115C458.454 90.416 458.086 90.3182 457.662 90.3182C457.195 90.3182 456.79 90.4342 456.449 90.6662C456.111 90.8949 455.851 91.1932 455.669 91.5611C455.486 91.929 455.395 92.3234 455.395 92.7443V93.4205C455.395 93.9972 455.494 94.486 455.693 94.8871C455.896 95.2848 456.176 95.5881 456.534 95.7969C456.892 96.0024 457.307 96.1051 457.781 96.1051C458.09 96.1051 458.368 96.062 458.617 95.9759C458.869 95.8864 459.086 95.7538 459.268 95.5781C459.45 95.3991 459.591 95.1771 459.691 94.9119L460.824 95.2301C460.705 95.6146 460.504 95.9527 460.222 96.2443C459.941 96.5327 459.593 96.758 459.178 96.9205C458.764 97.0795 458.298 97.1591 457.781 97.1591Z" fill="#444444"/>
<rect x="353.5" y="189.5" width="171" height="69" rx="6.5" fill="white" stroke="#E7E7E7"/>
<path d="M387.663 221.364C387.604 220.86 387.362 220.469 386.938 220.19C386.513 219.912 385.993 219.773 385.377 219.773C384.926 219.773 384.531 219.846 384.193 219.991C383.859 220.137 383.597 220.338 383.408 220.593C383.222 220.848 383.129 221.138 383.129 221.463C383.129 221.735 383.194 221.969 383.323 222.164C383.456 222.356 383.625 222.517 383.83 222.646C384.036 222.772 384.251 222.877 384.477 222.96C384.702 223.039 384.909 223.104 385.098 223.153L386.132 223.432C386.397 223.501 386.692 223.598 387.017 223.72C387.345 223.843 387.658 224.01 387.957 224.222C388.258 224.431 388.507 224.7 388.703 225.028C388.898 225.356 388.996 225.759 388.996 226.236C388.996 226.786 388.852 227.283 388.563 227.727C388.278 228.171 387.861 228.524 387.31 228.786C386.764 229.048 386.099 229.179 385.317 229.179C384.588 229.179 383.956 229.061 383.423 228.826C382.892 228.591 382.475 228.263 382.17 227.842C381.868 227.421 381.698 226.932 381.658 226.375H382.93C382.964 226.759 383.093 227.078 383.318 227.33C383.547 227.578 383.835 227.764 384.183 227.886C384.535 228.006 384.912 228.065 385.317 228.065C385.787 228.065 386.21 227.989 386.585 227.837C386.959 227.681 387.256 227.465 387.475 227.19C387.693 226.912 387.803 226.587 387.803 226.216C387.803 225.878 387.708 225.603 387.519 225.391C387.33 225.179 387.082 225.006 386.774 224.874C386.465 224.741 386.132 224.625 385.774 224.526L384.521 224.168C383.726 223.939 383.096 223.612 382.632 223.188C382.168 222.764 381.936 222.209 381.936 221.523C381.936 220.953 382.09 220.455 382.399 220.031C382.71 219.604 383.128 219.272 383.651 219.037C384.178 218.798 384.767 218.679 385.416 218.679C386.073 218.679 386.656 218.797 387.166 219.032C387.677 219.264 388.081 219.582 388.379 219.987C388.681 220.391 388.84 220.85 388.857 221.364H387.663ZM394.066 229.159C393.33 229.159 392.695 228.997 392.161 228.672C391.631 228.344 391.222 227.886 390.934 227.3C390.648 226.71 390.506 226.024 390.506 225.241C390.506 224.459 390.648 223.77 390.934 223.173C391.222 222.573 391.623 222.106 392.137 221.771C392.654 221.433 393.257 221.264 393.946 221.264C394.344 221.264 394.737 221.33 395.125 221.463C395.512 221.596 395.865 221.811 396.184 222.109C396.502 222.404 396.755 222.795 396.944 223.283C397.133 223.77 397.228 224.37 397.228 225.082V225.58H391.341V224.565H396.034C396.034 224.134 395.948 223.75 395.776 223.412C395.607 223.074 395.365 222.807 395.05 222.612C394.738 222.416 394.371 222.318 393.946 222.318C393.479 222.318 393.075 222.434 392.733 222.666C392.395 222.895 392.135 223.193 391.953 223.561C391.77 223.929 391.679 224.323 391.679 224.744V225.42C391.679 225.997 391.779 226.486 391.978 226.887C392.18 227.285 392.46 227.588 392.818 227.797C393.176 228.002 393.592 228.105 394.066 228.105C394.374 228.105 394.652 228.062 394.901 227.976C395.153 227.886 395.37 227.754 395.552 227.578C395.734 227.399 395.875 227.177 395.975 226.912L397.108 227.23C396.989 227.615 396.788 227.953 396.507 228.244C396.225 228.533 395.877 228.758 395.463 228.92C395.048 229.08 394.583 229.159 394.066 229.159ZM402.333 221.364V222.358H398.376V221.364H402.333ZM399.529 219.534H400.703V226.812C400.703 227.144 400.751 227.393 400.847 227.558C400.946 227.721 401.072 227.83 401.225 227.886C401.38 227.939 401.545 227.966 401.717 227.966C401.846 227.966 401.952 227.959 402.035 227.946C402.118 227.929 402.184 227.916 402.234 227.906L402.473 228.96C402.393 228.99 402.282 229.02 402.139 229.05C401.997 229.083 401.816 229.099 401.598 229.099C401.266 229.099 400.941 229.028 400.623 228.886C400.308 228.743 400.046 228.526 399.838 228.234C399.632 227.943 399.529 227.575 399.529 227.131V219.534ZM411.138 229.159C410.449 229.159 409.844 228.995 409.323 228.667C408.806 228.339 408.402 227.88 408.11 227.29C407.822 226.7 407.678 226.01 407.678 225.222C407.678 224.426 407.822 223.732 408.11 223.138C408.402 222.545 408.806 222.085 409.323 221.756C409.844 221.428 410.449 221.264 411.138 221.264C411.827 221.264 412.431 221.428 412.948 221.756C413.468 222.085 413.872 222.545 414.161 223.138C414.452 223.732 414.598 224.426 414.598 225.222C414.598 226.01 414.452 226.7 414.161 227.29C413.872 227.88 413.468 228.339 412.948 228.667C412.431 228.995 411.827 229.159 411.138 229.159ZM411.138 228.105C411.662 228.105 412.093 227.971 412.431 227.702C412.769 227.434 413.019 227.081 413.181 226.643C413.344 226.206 413.425 225.732 413.425 225.222C413.425 224.711 413.344 224.236 413.181 223.795C413.019 223.354 412.769 222.998 412.431 222.726C412.093 222.454 411.662 222.318 411.138 222.318C410.614 222.318 410.184 222.454 409.845 222.726C409.507 222.998 409.257 223.354 409.095 223.795C408.932 224.236 408.851 224.711 408.851 225.222C408.851 225.732 408.932 226.206 409.095 226.643C409.257 227.081 409.507 227.434 409.845 227.702C410.184 227.971 410.614 228.105 411.138 228.105ZM419.79 221.364V222.358H415.673V221.364H419.79ZM416.906 229V220.31C416.906 219.872 417.009 219.508 417.215 219.216C417.42 218.924 417.687 218.705 418.015 218.56C418.343 218.414 418.689 218.341 419.054 218.341C419.342 218.341 419.578 218.364 419.76 218.411C419.942 218.457 420.078 218.5 420.168 218.54L419.83 219.554C419.77 219.534 419.687 219.509 419.581 219.479C419.478 219.45 419.342 219.435 419.173 219.435C418.786 219.435 418.506 219.532 418.333 219.728C418.164 219.924 418.08 220.21 418.08 220.588V229H416.906ZM430.582 231.864V227.827H430.483C430.396 227.966 430.274 228.142 430.115 228.354C429.956 228.562 429.728 228.75 429.434 228.915C429.139 229.078 428.746 229.159 428.255 229.159C427.619 229.159 427.057 228.998 426.57 228.677C426.083 228.352 425.701 227.895 425.426 227.305C425.151 226.711 425.014 226.01 425.014 225.202C425.014 224.4 425.151 223.704 425.426 223.114C425.701 222.524 426.084 222.068 426.575 221.746C427.065 221.425 427.632 221.264 428.275 221.264C428.772 221.264 429.165 221.347 429.453 221.513C429.745 221.675 429.967 221.861 430.12 222.07C430.275 222.275 430.396 222.444 430.483 222.577H430.622V221.364H431.755V231.864H430.582ZM428.414 228.105C428.885 228.105 429.283 227.982 429.608 227.737C429.932 227.489 430.179 227.146 430.348 226.708C430.517 226.267 430.602 225.759 430.602 225.182C430.602 224.612 430.519 224.113 430.353 223.685C430.188 223.254 429.942 222.92 429.617 222.681C429.293 222.439 428.892 222.318 428.414 222.318C427.917 222.318 427.503 222.446 427.171 222.701C426.843 222.953 426.596 223.296 426.431 223.73C426.268 224.161 426.187 224.645 426.187 225.182C426.187 225.725 426.27 226.219 426.436 226.663C426.605 227.104 426.853 227.455 427.181 227.717C427.513 227.976 427.924 228.105 428.414 228.105ZM438.715 225.878V221.364H439.889V229H438.715V227.707H438.636C438.457 228.095 438.179 228.425 437.801 228.697C437.423 228.965 436.946 229.099 436.369 229.099C435.892 229.099 435.467 228.995 435.096 228.786C434.725 228.574 434.433 228.256 434.221 227.832C434.009 227.404 433.903 226.866 433.903 226.216V221.364H435.076V226.136C435.076 226.693 435.232 227.137 435.544 227.469C435.858 227.8 436.259 227.966 436.747 227.966C437.038 227.966 437.335 227.891 437.637 227.742C437.942 227.593 438.197 227.364 438.402 227.056C438.611 226.748 438.715 226.355 438.715 225.878ZM445.239 229.159C444.504 229.159 443.869 228.997 443.335 228.672C442.805 228.344 442.396 227.886 442.107 227.3C441.822 226.71 441.68 226.024 441.68 225.241C441.68 224.459 441.822 223.77 442.107 223.173C442.396 222.573 442.797 222.106 443.31 221.771C443.828 221.433 444.431 221.264 445.12 221.264C445.518 221.264 445.911 221.33 446.298 221.463C446.686 221.596 447.039 221.811 447.357 222.109C447.676 222.404 447.929 222.795 448.118 223.283C448.307 223.77 448.401 224.37 448.401 225.082V225.58H442.515V224.565H447.208C447.208 224.134 447.122 223.75 446.95 223.412C446.781 223.074 446.539 222.807 446.224 222.612C445.912 222.416 445.544 222.318 445.12 222.318C444.653 222.318 444.248 222.434 443.907 222.666C443.569 222.895 443.309 223.193 443.127 223.561C442.944 223.929 442.853 224.323 442.853 224.744V225.42C442.853 225.997 442.953 226.486 443.151 226.887C443.354 227.285 443.634 227.588 443.992 227.797C444.35 228.002 444.765 228.105 445.239 228.105C445.548 228.105 445.826 228.062 446.075 227.976C446.327 227.886 446.544 227.754 446.726 227.578C446.908 227.399 447.049 227.177 447.149 226.912L448.282 227.23C448.163 227.615 447.962 227.953 447.68 228.244C447.399 228.533 447.051 228.758 446.636 228.92C446.222 229.08 445.756 229.159 445.239 229.159ZM455.595 223.074L454.541 223.372C454.475 223.196 454.377 223.026 454.248 222.86C454.122 222.691 453.95 222.552 453.731 222.442C453.512 222.333 453.232 222.278 452.891 222.278C452.423 222.278 452.034 222.386 451.722 222.602C451.414 222.814 451.26 223.084 451.26 223.412C451.26 223.704 451.366 223.934 451.578 224.103C451.79 224.272 452.122 224.413 452.573 224.526L453.706 224.804C454.389 224.97 454.898 225.223 455.232 225.565C455.567 225.903 455.734 226.339 455.734 226.872C455.734 227.31 455.609 227.701 455.357 228.045C455.108 228.39 454.76 228.662 454.313 228.861C453.865 229.06 453.345 229.159 452.752 229.159C451.973 229.159 451.328 228.99 450.818 228.652C450.307 228.314 449.984 227.82 449.848 227.17L450.962 226.892C451.068 227.303 451.268 227.611 451.563 227.817C451.862 228.022 452.251 228.125 452.732 228.125C453.278 228.125 453.713 228.009 454.034 227.777C454.359 227.542 454.521 227.26 454.521 226.932C454.521 226.667 454.429 226.445 454.243 226.266C454.057 226.083 453.772 225.947 453.388 225.858L452.115 225.56C451.416 225.394 450.902 225.137 450.574 224.789C450.249 224.438 450.087 223.999 450.087 223.472C450.087 223.041 450.208 222.66 450.45 222.328C450.695 221.997 451.028 221.737 451.449 221.548C451.873 221.359 452.354 221.264 452.891 221.264C453.646 221.264 454.24 221.43 454.671 221.761C455.105 222.093 455.413 222.53 455.595 223.074ZM460.822 221.364V222.358H456.864V221.364H460.822ZM458.018 219.534H459.191V226.812C459.191 227.144 459.239 227.393 459.335 227.558C459.435 227.721 459.561 227.83 459.713 227.886C459.869 227.939 460.033 227.966 460.205 227.966C460.334 227.966 460.44 227.959 460.523 227.946C460.606 227.929 460.672 227.916 460.722 227.906L460.961 228.96C460.881 228.99 460.77 229.02 460.628 229.05C460.485 229.083 460.305 229.099 460.086 229.099C459.754 229.099 459.43 229.028 459.111 228.886C458.797 228.743 458.535 228.526 458.326 228.234C458.12 227.943 458.018 227.575 458.018 227.131V219.534ZM462.587 229V221.364H463.76V229H462.587ZM463.183 220.091C462.954 220.091 462.757 220.013 462.592 219.857C462.429 219.701 462.348 219.514 462.348 219.295C462.348 219.077 462.429 218.889 462.592 218.734C462.757 218.578 462.954 218.5 463.183 218.5C463.412 218.5 463.607 218.578 463.77 218.734C463.936 218.889 464.018 219.077 464.018 219.295C464.018 219.514 463.936 219.701 463.77 219.857C463.607 220.013 463.412 220.091 463.183 220.091ZM469.011 229.159C468.322 229.159 467.717 228.995 467.196 228.667C466.679 228.339 466.275 227.88 465.983 227.29C465.695 226.7 465.551 226.01 465.551 225.222C465.551 224.426 465.695 223.732 465.983 223.138C466.275 222.545 466.679 222.085 467.196 221.756C467.717 221.428 468.322 221.264 469.011 221.264C469.7 221.264 470.304 221.428 470.821 221.756C471.341 222.085 471.745 222.545 472.034 223.138C472.325 223.732 472.471 224.426 472.471 225.222C472.471 226.01 472.325 226.7 472.034 227.29C471.745 227.88 471.341 228.339 470.821 228.667C470.304 228.995 469.7 229.159 469.011 229.159ZM469.011 228.105C469.535 228.105 469.966 227.971 470.304 227.702C470.642 227.434 470.892 227.081 471.054 226.643C471.217 226.206 471.298 225.732 471.298 225.222C471.298 224.711 471.217 224.236 471.054 223.795C470.892 223.354 470.642 222.998 470.304 222.726C469.966 222.454 469.535 222.318 469.011 222.318C468.487 222.318 468.057 222.454 467.718 222.726C467.38 222.998 467.13 223.354 466.968 223.795C466.805 224.236 466.724 224.711 466.724 225.222C466.724 225.732 466.805 226.206 466.968 226.643C467.13 227.081 467.38 227.434 467.718 227.702C468.057 227.971 468.487 228.105 469.011 228.105ZM475.436 224.406V229H474.262V221.364H475.396V222.557H475.495C475.674 222.169 475.946 221.857 476.311 221.622C476.675 221.384 477.146 221.264 477.723 221.264C478.24 221.264 478.692 221.37 479.08 221.582C479.468 221.791 479.769 222.109 479.985 222.537C480.2 222.961 480.308 223.498 480.308 224.148V229H479.134V224.227C479.134 223.627 478.979 223.16 478.667 222.825C478.356 222.487 477.928 222.318 477.384 222.318C477.01 222.318 476.675 222.399 476.38 222.562C476.089 222.724 475.858 222.961 475.689 223.273C475.52 223.584 475.436 223.962 475.436 224.406ZM487.861 223.074L486.807 223.372C486.741 223.196 486.643 223.026 486.514 222.86C486.388 222.691 486.215 222.552 485.997 222.442C485.778 222.333 485.498 222.278 485.156 222.278C484.689 222.278 484.3 222.386 483.988 222.602C483.68 222.814 483.526 223.084 483.526 223.412C483.526 223.704 483.632 223.934 483.844 224.103C484.056 224.272 484.387 224.413 484.838 224.526L485.972 224.804C486.654 224.97 487.163 225.223 487.498 225.565C487.833 225.903 488 226.339 488 226.872C488 227.31 487.874 227.701 487.622 228.045C487.374 228.39 487.026 228.662 486.578 228.861C486.131 229.06 485.61 229.159 485.017 229.159C484.238 229.159 483.594 228.99 483.083 228.652C482.573 228.314 482.25 227.82 482.114 227.17L483.227 226.892C483.333 227.303 483.534 227.611 483.829 227.817C484.127 228.022 484.517 228.125 484.997 228.125C485.544 228.125 485.978 228.009 486.3 227.777C486.625 227.542 486.787 227.26 486.787 226.932C486.787 226.667 486.694 226.445 486.509 226.266C486.323 226.083 486.038 225.947 485.653 225.858L484.381 225.56C483.681 225.394 483.168 225.137 482.84 224.789C482.515 224.438 482.352 223.999 482.352 223.472C482.352 223.041 482.473 222.66 482.715 222.328C482.961 221.997 483.294 221.737 483.715 221.548C484.139 221.359 484.619 221.264 485.156 221.264C485.912 221.264 486.505 221.43 486.936 221.761C487.37 222.093 487.679 222.53 487.861 223.074ZM497.263 218.818V229H496.03V220.111H495.971L493.485 221.761V220.509L496.03 218.818H497.263Z" fill="#444444"/>
<rect x="353.5" y="323.5" width="171" height="69" rx="6.5" fill="white" stroke="#E7E7E7"/>
<path d="M395.347 355.364C395.287 354.86 395.045 354.469 394.621 354.19C394.197 353.912 393.677 353.773 393.06 353.773C392.609 353.773 392.215 353.846 391.877 353.991C391.542 354.137 391.28 354.338 391.091 354.593C390.906 354.848 390.813 355.138 390.813 355.463C390.813 355.735 390.878 355.969 391.007 356.164C391.139 356.356 391.308 356.517 391.514 356.646C391.719 356.772 391.935 356.877 392.16 356.96C392.386 357.039 392.593 357.104 392.782 357.153L393.816 357.432C394.081 357.501 394.376 357.598 394.701 357.72C395.029 357.843 395.342 358.01 395.64 358.222C395.942 358.431 396.191 358.7 396.386 359.028C396.582 359.356 396.679 359.759 396.679 360.236C396.679 360.786 396.535 361.283 396.247 361.727C395.962 362.171 395.544 362.524 394.994 362.786C394.447 363.048 393.783 363.179 393 363.179C392.271 363.179 391.64 363.061 391.106 362.826C390.576 362.591 390.158 362.263 389.853 361.842C389.552 361.421 389.381 360.932 389.341 360.375H390.614C390.647 360.759 390.776 361.078 391.002 361.33C391.231 361.578 391.519 361.764 391.867 361.886C392.218 362.006 392.596 362.065 393 362.065C393.471 362.065 393.894 361.989 394.268 361.837C394.643 361.681 394.939 361.465 395.158 361.19C395.377 360.912 395.486 360.587 395.486 360.216C395.486 359.878 395.392 359.603 395.203 359.391C395.014 359.179 394.765 359.006 394.457 358.874C394.149 358.741 393.816 358.625 393.458 358.526L392.205 358.168C391.41 357.939 390.78 357.612 390.316 357.188C389.852 356.764 389.62 356.209 389.62 355.523C389.62 354.953 389.774 354.455 390.082 354.031C390.394 353.604 390.811 353.272 391.335 353.037C391.862 352.798 392.45 352.679 393.1 352.679C393.756 352.679 394.339 352.797 394.85 353.032C395.36 353.264 395.765 353.582 396.063 353.987C396.365 354.391 396.524 354.85 396.54 355.364H395.347ZM401.749 363.159C401.013 363.159 400.379 362.997 399.845 362.672C399.315 362.344 398.905 361.886 398.617 361.3C398.332 360.71 398.19 360.024 398.19 359.241C398.19 358.459 398.332 357.77 398.617 357.173C398.905 356.573 399.306 356.106 399.82 355.771C400.337 355.433 400.94 355.264 401.63 355.264C402.028 355.264 402.42 355.33 402.808 355.463C403.196 355.596 403.549 355.811 403.867 356.109C404.185 356.404 404.439 356.795 404.628 357.283C404.817 357.77 404.911 358.37 404.911 359.082V359.58H399.025V358.565H403.718C403.718 358.134 403.632 357.75 403.459 357.412C403.29 357.074 403.048 356.807 402.734 356.612C402.422 356.416 402.054 356.318 401.63 356.318C401.163 356.318 400.758 356.434 400.417 356.666C400.079 356.895 399.819 357.193 399.636 357.561C399.454 357.929 399.363 358.323 399.363 358.744V359.42C399.363 359.997 399.462 360.486 399.661 360.887C399.863 361.285 400.143 361.588 400.501 361.797C400.859 362.002 401.275 362.105 401.749 362.105C402.057 362.105 402.336 362.062 402.584 361.976C402.836 361.886 403.053 361.754 403.236 361.578C403.418 361.399 403.559 361.177 403.658 360.912L404.792 361.23C404.672 361.615 404.472 361.953 404.19 362.244C403.909 362.533 403.561 362.758 403.146 362.92C402.732 363.08 402.266 363.159 401.749 363.159ZM410.017 355.364V356.358H406.06V355.364H410.017ZM407.213 353.534H408.386V360.812C408.386 361.144 408.434 361.393 408.53 361.558C408.63 361.721 408.756 361.83 408.908 361.886C409.064 361.939 409.228 361.966 409.4 361.966C409.53 361.966 409.636 361.959 409.719 361.946C409.802 361.929 409.868 361.916 409.918 361.906L410.156 362.96C410.077 362.99 409.966 363.02 409.823 363.05C409.681 363.083 409.5 363.099 409.281 363.099C408.95 363.099 408.625 363.028 408.307 362.886C407.992 362.743 407.73 362.526 407.521 362.234C407.316 361.943 407.213 361.575 407.213 361.131V353.534ZM420.93 365.864V361.827H420.83C420.744 361.966 420.621 362.142 420.462 362.354C420.303 362.562 420.076 362.75 419.781 362.915C419.486 363.078 419.093 363.159 418.603 363.159C417.967 363.159 417.405 362.998 416.918 362.677C416.43 362.352 416.049 361.895 415.774 361.305C415.499 360.711 415.361 360.01 415.361 359.202C415.361 358.4 415.499 357.704 415.774 357.114C416.049 356.524 416.432 356.068 416.922 355.746C417.413 355.425 417.98 355.264 418.623 355.264C419.12 355.264 419.513 355.347 419.801 355.513C420.093 355.675 420.315 355.861 420.467 356.07C420.623 356.275 420.744 356.444 420.83 356.577H420.969V355.364H422.103V365.864H420.93ZM418.762 362.105C419.233 362.105 419.63 361.982 419.955 361.737C420.28 361.489 420.527 361.146 420.696 360.708C420.865 360.267 420.949 359.759 420.949 359.182C420.949 358.612 420.867 358.113 420.701 357.685C420.535 357.254 420.29 356.92 419.965 356.681C419.64 356.439 419.239 356.318 418.762 356.318C418.265 356.318 417.851 356.446 417.519 356.701C417.191 356.953 416.944 357.296 416.778 357.73C416.616 358.161 416.535 358.645 416.535 359.182C416.535 359.725 416.618 360.219 416.783 360.663C416.952 361.104 417.201 361.455 417.529 361.717C417.86 361.976 418.271 362.105 418.762 362.105ZM429.063 359.878V355.364H430.236V363H429.063V361.707H428.984C428.805 362.095 428.526 362.425 428.148 362.697C427.771 362.965 427.293 363.099 426.717 363.099C426.239 363.099 425.815 362.995 425.444 362.786C425.073 362.574 424.781 362.256 424.569 361.832C424.357 361.404 424.251 360.866 424.251 360.216V355.364H425.424V360.136C425.424 360.693 425.58 361.137 425.891 361.469C426.206 361.8 426.607 361.966 427.094 361.966C427.386 361.966 427.683 361.891 427.984 361.742C428.289 361.593 428.544 361.364 428.75 361.056C428.959 360.748 429.063 360.355 429.063 359.878ZM435.587 363.159C434.851 363.159 434.217 362.997 433.683 362.672C433.153 362.344 432.743 361.886 432.455 361.3C432.17 360.71 432.027 360.024 432.027 359.241C432.027 358.459 432.17 357.77 432.455 357.173C432.743 356.573 433.144 356.106 433.658 355.771C434.175 355.433 434.778 355.264 435.468 355.264C435.866 355.264 436.258 355.33 436.646 355.463C437.034 355.596 437.387 355.811 437.705 356.109C438.023 356.404 438.277 356.795 438.466 357.283C438.655 357.77 438.749 358.37 438.749 359.082V359.58H432.863V358.565H437.556C437.556 358.134 437.47 357.75 437.297 357.412C437.128 357.074 436.886 356.807 436.571 356.612C436.26 356.416 435.892 356.318 435.468 356.318C435 356.318 434.596 356.434 434.255 356.666C433.917 356.895 433.656 357.193 433.474 357.561C433.292 357.929 433.201 358.323 433.201 358.744V359.42C433.201 359.997 433.3 360.486 433.499 360.887C433.701 361.285 433.981 361.588 434.339 361.797C434.697 362.002 435.113 362.105 435.587 362.105C435.895 362.105 436.174 362.062 436.422 361.976C436.674 361.886 436.891 361.754 437.074 361.578C437.256 361.399 437.397 361.177 437.496 360.912L438.63 361.23C438.51 361.615 438.31 361.953 438.028 362.244C437.746 362.533 437.398 362.758 436.984 362.92C436.57 363.08 436.104 363.159 435.587 363.159ZM445.943 357.074L444.889 357.372C444.823 357.196 444.725 357.026 444.596 356.86C444.47 356.691 444.297 356.552 444.079 356.442C443.86 356.333 443.58 356.278 443.238 356.278C442.771 356.278 442.382 356.386 442.07 356.602C441.762 356.814 441.608 357.084 441.608 357.412C441.608 357.704 441.714 357.934 441.926 358.103C442.138 358.272 442.469 358.413 442.92 358.526L444.054 358.804C444.736 358.97 445.245 359.223 445.58 359.565C445.915 359.903 446.082 360.339 446.082 360.872C446.082 361.31 445.956 361.701 445.704 362.045C445.456 362.39 445.108 362.662 444.66 362.861C444.213 363.06 443.692 363.159 443.099 363.159C442.32 363.159 441.676 362.99 441.165 362.652C440.655 362.314 440.332 361.82 440.196 361.17L441.309 360.892C441.415 361.303 441.616 361.611 441.911 361.817C442.209 362.022 442.599 362.125 443.079 362.125C443.626 362.125 444.06 362.009 444.382 361.777C444.707 361.542 444.869 361.26 444.869 360.932C444.869 360.667 444.776 360.445 444.591 360.266C444.405 360.083 444.12 359.947 443.736 359.858L442.463 359.56C441.763 359.394 441.25 359.137 440.922 358.789C440.597 358.438 440.434 357.999 440.434 357.472C440.434 357.041 440.555 356.66 440.797 356.328C441.043 355.997 441.376 355.737 441.797 355.548C442.221 355.359 442.701 355.264 443.238 355.264C443.994 355.264 444.587 355.43 445.018 355.761C445.452 356.093 445.761 356.53 445.943 357.074ZM451.169 355.364V356.358H447.212V355.364H451.169ZM448.365 353.534H449.539V360.812C449.539 361.144 449.587 361.393 449.683 361.558C449.782 361.721 449.908 361.83 450.061 361.886C450.216 361.939 450.38 361.966 450.553 361.966C450.682 361.966 450.788 361.959 450.871 361.946C450.954 361.929 451.02 361.916 451.07 361.906L451.309 362.96C451.229 362.99 451.118 363.02 450.975 363.05C450.833 363.083 450.652 363.099 450.434 363.099C450.102 363.099 449.777 363.028 449.459 362.886C449.144 362.743 448.882 362.526 448.674 362.234C448.468 361.943 448.365 361.575 448.365 361.131V353.534ZM452.934 363V355.364H454.108V363H452.934ZM453.531 354.091C453.302 354.091 453.105 354.013 452.939 353.857C452.777 353.701 452.696 353.514 452.696 353.295C452.696 353.077 452.777 352.889 452.939 352.734C453.105 352.578 453.302 352.5 453.531 352.5C453.759 352.5 453.955 352.578 454.117 352.734C454.283 352.889 454.366 353.077 454.366 353.295C454.366 353.514 454.283 353.701 454.117 353.857C453.955 354.013 453.759 354.091 453.531 354.091ZM459.359 363.159C458.669 363.159 458.064 362.995 457.544 362.667C457.027 362.339 456.623 361.88 456.331 361.29C456.043 360.7 455.899 360.01 455.899 359.222C455.899 358.426 456.043 357.732 456.331 357.138C456.623 356.545 457.027 356.085 457.544 355.756C458.064 355.428 458.669 355.264 459.359 355.264C460.048 355.264 460.651 355.428 461.168 355.756C461.689 356.085 462.093 356.545 462.381 357.138C462.673 357.732 462.819 358.426 462.819 359.222C462.819 360.01 462.673 360.7 462.381 361.29C462.093 361.88 461.689 362.339 461.168 362.667C460.651 362.995 460.048 363.159 459.359 363.159ZM459.359 362.105C459.882 362.105 460.313 361.971 460.651 361.702C460.989 361.434 461.24 361.081 461.402 360.643C461.564 360.206 461.646 359.732 461.646 359.222C461.646 358.711 461.564 358.236 461.402 357.795C461.24 357.354 460.989 356.998 460.651 356.726C460.313 356.454 459.882 356.318 459.359 356.318C458.835 356.318 458.404 356.454 458.066 356.726C457.728 356.998 457.478 357.354 457.315 357.795C457.153 358.236 457.072 358.711 457.072 359.222C457.072 359.732 457.153 360.206 457.315 360.643C457.478 361.081 457.728 361.434 458.066 361.702C458.404 361.971 458.835 362.105 459.359 362.105ZM465.783 358.406V363H464.61V355.364H465.744V356.557H465.843C466.022 356.169 466.294 355.857 466.658 355.622C467.023 355.384 467.494 355.264 468.07 355.264C468.587 355.264 469.04 355.37 469.427 355.582C469.815 355.791 470.117 356.109 470.332 356.537C470.548 356.961 470.655 357.498 470.655 358.148V363H469.482V358.227C469.482 357.627 469.326 357.16 469.015 356.825C468.703 356.487 468.276 356.318 467.732 356.318C467.358 356.318 467.023 356.399 466.728 356.562C466.436 356.724 466.206 356.961 466.037 357.273C465.868 357.584 465.783 357.962 465.783 358.406ZM478.209 357.074L477.155 357.372C477.088 357.196 476.991 357.026 476.861 356.86C476.735 356.691 476.563 356.552 476.344 356.442C476.125 356.333 475.845 356.278 475.504 356.278C475.037 356.278 474.647 356.386 474.336 356.602C474.027 356.814 473.873 357.084 473.873 357.412C473.873 357.704 473.979 357.934 474.191 358.103C474.404 358.272 474.735 358.413 475.186 358.526L476.319 358.804C477.002 358.97 477.511 359.223 477.846 359.565C478.18 359.903 478.348 360.339 478.348 360.872C478.348 361.31 478.222 361.701 477.97 362.045C477.721 362.39 477.373 362.662 476.926 362.861C476.478 363.06 475.958 363.159 475.365 363.159C474.586 363.159 473.941 362.99 473.431 362.652C472.92 362.314 472.597 361.82 472.461 361.17L473.575 360.892C473.681 361.303 473.882 361.611 474.177 361.817C474.475 362.022 474.864 362.125 475.345 362.125C475.892 362.125 476.326 362.009 476.647 361.777C476.972 361.542 477.135 361.26 477.135 360.932C477.135 360.667 477.042 360.445 476.856 360.266C476.671 360.083 476.386 359.947 476.001 359.858L474.728 359.56C474.029 359.394 473.515 359.137 473.187 358.789C472.862 358.438 472.7 357.999 472.7 357.472C472.7 357.041 472.821 356.66 473.063 356.328C473.308 355.997 473.641 355.737 474.062 355.548C474.486 355.359 474.967 355.264 475.504 355.264C476.26 355.264 476.853 355.43 477.284 355.761C477.718 356.093 478.026 356.53 478.209 357.074ZM484.032 363V362.105L487.392 358.426C487.787 357.995 488.112 357.621 488.367 357.303C488.622 356.981 488.811 356.679 488.934 356.398C489.059 356.113 489.122 355.814 489.122 355.503C489.122 355.145 489.036 354.835 488.864 354.573C488.695 354.311 488.463 354.109 488.168 353.967C487.873 353.824 487.541 353.753 487.174 353.753C486.782 353.753 486.441 353.834 486.149 353.996C485.861 354.156 485.637 354.379 485.478 354.668C485.322 354.956 485.245 355.294 485.245 355.682H484.071C484.071 355.085 484.209 354.562 484.484 354.111C484.759 353.66 485.134 353.309 485.608 353.057C486.085 352.805 486.62 352.679 487.213 352.679C487.81 352.679 488.339 352.805 488.799 353.057C489.26 353.309 489.621 353.648 489.883 354.076C490.145 354.504 490.276 354.979 490.276 355.503C490.276 355.877 490.208 356.244 490.072 356.602C489.939 356.956 489.707 357.352 489.376 357.79C489.048 358.224 488.592 358.754 488.009 359.381L485.722 361.827V361.906H490.455V363H484.032Z" fill="#444444"/>
<rect y="55" width="172" height="70" rx="35" fill="#73CE8D"/>
<path d="M49.2308 89.3636C49.1712 88.8598 48.9292 88.4688 48.505 88.1903C48.0807 87.9119 47.5604 87.7727 46.9439 87.7727C46.4931 87.7727 46.0987 87.8456 45.7607 87.9915C45.4259 88.1373 45.1641 88.3378 44.9751 88.593C44.7895 88.8482 44.6967 89.1383 44.6967 89.4631C44.6967 89.7348 44.7614 89.9685 44.8906 90.1641C45.0232 90.3563 45.1922 90.517 45.3977 90.6463C45.6032 90.7723 45.8187 90.8767 46.044 90.9595C46.2694 91.0391 46.4766 91.1037 46.6655 91.1534L47.6996 91.4318C47.9647 91.5014 48.2597 91.5975 48.5845 91.7202C48.9126 91.8428 49.2259 92.0102 49.5241 92.2223C49.8258 92.4311 50.0743 92.6996 50.2699 93.0277C50.4654 93.3558 50.5632 93.7585 50.5632 94.2358C50.5632 94.786 50.419 95.2831 50.1307 95.7273C49.8456 96.1714 49.428 96.5244 48.8778 96.7862C48.331 97.0481 47.6664 97.179 46.8842 97.179C46.1551 97.179 45.5237 97.0613 44.9901 96.826C44.4598 96.5907 44.0421 96.2625 43.7372 95.8416C43.4356 95.4207 43.2649 94.9318 43.2251 94.375H44.4979C44.531 94.7595 44.6603 95.0777 44.8857 95.3295C45.1143 95.5781 45.4027 95.7637 45.7507 95.8864C46.102 96.0057 46.4799 96.0653 46.8842 96.0653C47.3549 96.0653 47.7775 95.9891 48.152 95.8366C48.5265 95.6809 48.8232 95.4654 49.0419 95.1903C49.2607 94.9119 49.37 94.5871 49.37 94.2159C49.37 93.8778 49.2756 93.6027 49.0866 93.3906C48.8977 93.1785 48.6491 93.0062 48.3409 92.8736C48.0327 92.741 47.6996 92.625 47.3416 92.5256L46.0888 92.1676C45.2933 91.9389 44.6636 91.6125 44.1996 91.1882C43.7356 90.764 43.5036 90.2088 43.5036 89.5227C43.5036 88.9527 43.6577 88.4555 43.9659 88.0312C44.2775 87.6037 44.6951 87.2723 45.2188 87.0369C45.7457 86.7983 46.334 86.679 46.9837 86.679C47.6399 86.679 48.2232 86.7966 48.7337 87.032C49.2441 87.264 49.6484 87.5821 49.9467 87.9865C50.2483 88.3909 50.4074 88.8499 50.424 89.3636H49.2308ZM52.4313 97V89.3636H53.6046V97H52.4313ZM53.0279 88.0909C52.7992 88.0909 52.602 88.013 52.4363 87.8572C52.2739 87.7015 52.1926 87.5142 52.1926 87.2955C52.1926 87.0767 52.2739 86.8894 52.4363 86.7337C52.602 86.5779 52.7992 86.5 53.0279 86.5C53.2566 86.5 53.4521 86.5779 53.6145 86.7337C53.7802 86.8894 53.8631 87.0767 53.8631 87.2955C53.8631 87.5142 53.7802 87.7015 53.6145 87.8572C53.4521 88.013 53.2566 88.0909 53.0279 88.0909ZM58.8359 100.023C58.2692 100.023 57.782 99.9498 57.3743 99.804C56.9666 99.6615 56.6269 99.4725 56.3551 99.2372C56.0866 99.0052 55.8729 98.7566 55.7138 98.4915L56.6484 97.8352C56.7545 97.9744 56.8887 98.1335 57.0511 98.3125C57.2135 98.4948 57.4356 98.6522 57.7173 98.7848C58.0024 98.9207 58.3752 98.9886 58.8359 98.9886C59.4524 98.9886 59.9612 98.8395 60.3622 98.5412C60.7633 98.2429 60.9638 97.7756 60.9638 97.1392V95.5881H60.8643C60.7782 95.7273 60.6555 95.8996 60.4964 96.1051C60.3407 96.3073 60.1153 96.4879 59.8203 96.647C59.5286 96.8028 59.1342 96.8807 58.6371 96.8807C58.0206 96.8807 57.4671 96.7348 56.9766 96.4432C56.4893 96.1515 56.1032 95.7273 55.8182 95.1705C55.5365 94.6136 55.3956 93.9375 55.3956 93.142C55.3956 92.3598 55.5331 91.6787 55.8082 91.0987C56.0833 90.5154 56.4661 90.0646 56.9567 89.7464C57.4472 89.425 58.014 89.2642 58.657 89.2642C59.1541 89.2642 59.5485 89.3471 59.8402 89.5128C60.1352 89.6752 60.3606 89.8608 60.5163 90.0696C60.6754 90.2751 60.7981 90.4441 60.8842 90.5767H61.0036V89.3636H62.1371V97.2188C62.1371 97.875 61.9879 98.4086 61.6896 98.8196C61.3946 99.2339 60.9969 99.5372 60.4964 99.7294C59.9993 99.925 59.4458 100.023 58.8359 100.023ZM58.7962 95.8267C59.2668 95.8267 59.6645 95.719 59.9893 95.5036C60.3142 95.2881 60.5611 94.9782 60.7301 94.5739C60.8991 94.1695 60.9837 93.6856 60.9837 93.1222C60.9837 92.572 60.9008 92.0864 60.7351 91.6655C60.5694 91.2446 60.3241 90.9148 59.9993 90.6761C59.6745 90.4375 59.2734 90.3182 58.7962 90.3182C58.299 90.3182 57.8847 90.4441 57.5533 90.696C57.2251 90.9479 56.9782 91.286 56.8125 91.7102C56.6501 92.1345 56.5689 92.6051 56.5689 93.1222C56.5689 93.6525 56.6518 94.1214 56.8175 94.5291C56.9865 94.9335 57.2351 95.2517 57.5632 95.4837C57.8946 95.7124 58.3056 95.8267 58.7962 95.8267ZM65.4581 92.4062V97H64.2848V89.3636H65.4183V90.5568H65.5178C65.6967 90.169 65.9685 89.8575 66.3331 89.6222C66.6977 89.3835 67.1683 89.2642 67.745 89.2642C68.2621 89.2642 68.7145 89.3703 69.1023 89.5824C69.4901 89.7912 69.7917 90.1094 70.0071 90.5369C70.2225 90.9612 70.3303 91.4981 70.3303 92.1477V97H69.157V92.2273C69.157 91.6274 69.0012 91.16 68.6896 90.8253C68.3781 90.4872 67.9505 90.3182 67.407 90.3182C67.0324 90.3182 66.6977 90.3994 66.4027 90.5618C66.111 90.7242 65.8807 90.9612 65.7116 91.2727C65.5426 91.5843 65.4581 91.9621 65.4581 92.4062ZM83.2527 86.8182H84.4856V93.5597C84.4856 94.2557 84.3216 94.8771 83.9934 95.424C83.6686 95.9676 83.2096 96.3968 82.6163 96.7116C82.023 97.0232 81.327 97.179 80.5282 97.179C79.7295 97.179 79.0334 97.0232 78.4402 96.7116C77.8469 96.3968 77.3862 95.9676 77.0581 95.424C76.7333 94.8771 76.5708 94.2557 76.5708 93.5597V86.8182H77.8038V93.4602C77.8038 93.9574 77.9132 94.3999 78.1319 94.7876C78.3507 95.1721 78.6622 95.4754 79.0666 95.6974C79.4743 95.9162 79.9615 96.0256 80.5282 96.0256C81.095 96.0256 81.5822 95.9162 81.9899 95.6974C82.3976 95.4754 82.7091 95.1721 82.9245 94.7876C83.1433 94.3999 83.2527 93.9574 83.2527 93.4602V86.8182ZM86.7887 99.8636V89.3636H87.9222V90.5767H88.0614C88.1476 90.4441 88.2669 90.2751 88.4194 90.0696C88.5752 89.8608 88.7972 89.6752 89.0856 89.5128C89.3772 89.3471 89.7717 89.2642 90.2688 89.2642C90.9118 89.2642 91.4786 89.425 91.9691 89.7464C92.4596 90.0679 92.8424 90.5237 93.1175 91.1136C93.3926 91.7036 93.5302 92.3996 93.5302 93.2017C93.5302 94.0104 93.3926 94.7114 93.1175 95.3047C92.8424 95.8946 92.4613 96.352 91.9741 96.6768C91.4869 96.9983 90.9251 97.1591 90.2887 97.1591C89.7982 97.1591 89.4054 97.0779 89.1104 96.9155C88.8155 96.7498 88.5884 96.5625 88.4293 96.3537C88.2702 96.1416 88.1476 95.9659 88.0614 95.8267H87.962V99.8636H86.7887ZM87.9421 93.1818C87.9421 93.7585 88.0266 94.2673 88.1957 94.7081C88.3647 95.1456 88.6116 95.4886 88.9364 95.7372C89.2612 95.9825 89.659 96.1051 90.1296 96.1051C90.6201 96.1051 91.0295 95.9759 91.3576 95.7173C91.689 95.4555 91.9376 95.1042 92.1033 94.6634C92.2724 94.2192 92.3569 93.7254 92.3569 93.1818C92.3569 92.6449 92.274 92.161 92.1083 91.7301C91.9459 91.2959 91.699 90.9529 91.3675 90.701C91.0394 90.4458 90.6268 90.3182 90.1296 90.3182C89.6523 90.3182 89.2513 90.4392 88.9265 90.6811C88.6017 90.9197 88.3564 91.2545 88.1907 91.6854C88.025 92.1129 87.9421 92.6117 87.9421 93.1818ZM99.4165 97V86.8182H105.522V87.9119H100.65V91.3523H105.064V92.446H100.65V97H99.4165ZM110.016 97.1591C109.327 97.1591 108.722 96.995 108.201 96.6669C107.684 96.3388 107.28 95.8797 106.988 95.2898C106.7 94.6998 106.556 94.0104 106.556 93.2216C106.556 92.4261 106.7 91.7318 106.988 91.1385C107.28 90.5452 107.684 90.0845 108.201 89.7564C108.722 89.4283 109.327 89.2642 110.016 89.2642C110.705 89.2642 111.309 89.4283 111.826 89.7564C112.346 90.0845 112.75 90.5452 113.039 91.1385C113.33 91.7318 113.476 92.4261 113.476 93.2216C113.476 94.0104 113.33 94.6998 113.039 95.2898C112.75 95.8797 112.346 96.3388 111.826 96.6669C111.309 96.995 110.705 97.1591 110.016 97.1591ZM110.016 96.1051C110.54 96.1051 110.971 95.9709 111.309 95.7024C111.647 95.4339 111.897 95.081 112.059 94.6435C112.222 94.206 112.303 93.732 112.303 93.2216C112.303 92.7112 112.222 92.2356 112.059 91.7947C111.897 91.3539 111.647 90.9976 111.309 90.7259C110.971 90.4541 110.54 90.3182 110.016 90.3182C109.492 90.3182 109.061 90.4541 108.723 90.7259C108.385 90.9976 108.135 91.3539 107.973 91.7947C107.81 92.2356 107.729 92.7112 107.729 93.2216C107.729 93.732 107.81 94.206 107.973 94.6435C108.135 95.081 108.385 95.4339 108.723 95.7024C109.061 95.9709 109.492 96.1051 110.016 96.1051ZM115.267 97V89.3636H116.401V90.517H116.48C116.619 90.1392 116.871 89.8326 117.236 89.5973C117.601 89.362 118.012 89.2443 118.469 89.2443C118.555 89.2443 118.663 89.246 118.792 89.2493C118.921 89.2526 119.019 89.2576 119.085 89.2642V90.4574C119.046 90.4474 118.954 90.4325 118.812 90.4126C118.673 90.3894 118.525 90.3778 118.369 90.3778C117.998 90.3778 117.667 90.4557 117.375 90.6115C117.087 90.764 116.858 90.9761 116.689 91.2479C116.523 91.5163 116.441 91.8229 116.441 92.1676V97H115.267ZM120.476 97V89.3636H121.61V90.5568H121.709C121.868 90.1491 122.125 89.8326 122.48 89.6072C122.834 89.3786 123.26 89.2642 123.757 89.2642C124.261 89.2642 124.681 89.3786 125.015 89.6072C125.353 89.8326 125.617 90.1491 125.806 90.5568H125.885C126.081 90.1624 126.374 89.8492 126.765 89.6172C127.156 89.3819 127.625 89.2642 128.172 89.2642C128.855 89.2642 129.413 89.478 129.848 89.9055C130.282 90.3298 130.499 90.991 130.499 91.8892V97H129.326V91.8892C129.326 91.3258 129.172 90.9231 128.863 90.6811C128.555 90.4392 128.192 90.3182 127.775 90.3182C127.238 90.3182 126.822 90.4806 126.527 90.8054C126.232 91.1269 126.084 91.5346 126.084 92.0284V97H124.891V91.7699C124.891 91.3357 124.75 90.986 124.468 90.7209C124.187 90.4524 123.824 90.3182 123.38 90.3182C123.075 90.3182 122.79 90.3994 122.525 90.5618C122.263 90.7242 122.051 90.9496 121.888 91.2379C121.729 91.523 121.65 91.8527 121.65 92.2273V97H120.476Z" fill="white"/>
<rect x="1.5" y="323.5" width="171" height="69" rx="6.5" fill="#EBF3F9" stroke="#0697FF"/>
<path d="M59.4261 358H58.1932C58.1203 357.645 57.9927 357.334 57.8104 357.065C57.6314 356.797 57.4126 356.571 57.1541 356.389C56.8989 356.204 56.6155 356.064 56.304 355.972C55.9924 355.879 55.6676 355.832 55.3295 355.832C54.7131 355.832 54.1546 355.988 53.6541 356.3C53.157 356.611 52.7609 357.07 52.4659 357.677C52.1742 358.283 52.0284 359.027 52.0284 359.909C52.0284 360.791 52.1742 361.535 52.4659 362.141C52.7609 362.748 53.157 363.207 53.6541 363.518C54.1546 363.83 54.7131 363.986 55.3295 363.986C55.6676 363.986 55.9924 363.939 56.304 363.847C56.6155 363.754 56.8989 363.616 57.1541 363.434C57.4126 363.248 57.6314 363.021 57.8104 362.753C57.9927 362.481 58.1203 362.17 58.1932 361.818H59.4261C59.3333 362.339 59.1643 362.804 58.919 363.215C58.6738 363.626 58.3688 363.976 58.0043 364.264C57.6397 364.549 57.2304 364.766 56.7763 364.915C56.3255 365.065 55.8433 365.139 55.3295 365.139C54.4612 365.139 53.6889 364.927 53.0128 364.503C52.3366 364.079 51.8047 363.475 51.4169 362.693C51.0291 361.911 50.8352 360.983 50.8352 359.909C50.8352 358.835 51.0291 357.907 51.4169 357.125C51.8047 356.343 52.3366 355.74 53.0128 355.315C53.6889 354.891 54.4612 354.679 55.3295 354.679C55.8433 354.679 56.3255 354.754 56.7763 354.903C57.2304 355.052 57.6397 355.271 58.0043 355.559C58.3688 355.844 58.6738 356.192 58.919 356.603C59.1643 357.011 59.3333 357.476 59.4261 358ZM64.3617 365.159C63.6723 365.159 63.0674 364.995 62.5471 364.667C62.03 364.339 61.6257 363.88 61.334 363.29C61.0456 362.7 60.9015 362.01 60.9015 361.222C60.9015 360.426 61.0456 359.732 61.334 359.138C61.6257 358.545 62.03 358.085 62.5471 357.756C63.0674 357.428 63.6723 357.264 64.3617 357.264C65.0511 357.264 65.6543 357.428 66.1713 357.756C66.6917 358.085 67.0961 358.545 67.3844 359.138C67.6761 359.732 67.8219 360.426 67.8219 361.222C67.8219 362.01 67.6761 362.7 67.3844 363.29C67.0961 363.88 66.6917 364.339 66.1713 364.667C65.6543 364.995 65.0511 365.159 64.3617 365.159ZM64.3617 364.105C64.8854 364.105 65.3162 363.971 65.6543 363.702C65.9924 363.434 66.2426 363.081 66.405 362.643C66.5674 362.206 66.6486 361.732 66.6486 361.222C66.6486 360.711 66.5674 360.236 66.405 359.795C66.2426 359.354 65.9924 358.998 65.6543 358.726C65.3162 358.454 64.8854 358.318 64.3617 358.318C63.838 358.318 63.4071 358.454 63.0691 358.726C62.731 358.998 62.4808 359.354 62.3184 359.795C62.156 360.236 62.0748 360.711 62.0748 361.222C62.0748 361.732 62.156 362.206 62.3184 362.643C62.4808 363.081 62.731 363.434 63.0691 363.702C63.4071 363.971 63.838 364.105 64.3617 364.105ZM69.6129 365V357.364H70.7464V358.557H70.8459C71.005 358.149 71.2618 357.833 71.6165 357.607C71.9711 357.379 72.397 357.264 72.8942 357.264C73.398 357.264 73.8172 357.379 74.152 357.607C74.4901 357.833 74.7536 358.149 74.9425 358.557H75.022C75.2176 358.162 75.5109 357.849 75.902 357.617C76.2931 357.382 76.7621 357.264 77.3089 357.264C77.9917 357.264 78.5502 357.478 78.9844 357.906C79.4186 358.33 79.6357 358.991 79.6357 359.889V365H78.4624V359.889C78.4624 359.326 78.3082 358.923 78 358.681C77.6918 358.439 77.3288 358.318 76.9112 358.318C76.3743 358.318 75.9583 358.481 75.6634 358.805C75.3684 359.127 75.2209 359.535 75.2209 360.028V365H74.0277V359.77C74.0277 359.336 73.8868 358.986 73.6051 358.721C73.3234 358.452 72.9605 358.318 72.5163 358.318C72.2114 358.318 71.9264 358.399 71.6612 358.562C71.3994 358.724 71.1873 358.95 71.0249 359.238C70.8658 359.523 70.7862 359.853 70.7862 360.227V365H69.6129ZM81.7809 367.864V357.364H82.9144V358.577H83.0536C83.1398 358.444 83.2591 358.275 83.4116 358.07C83.5674 357.861 83.7894 357.675 84.0778 357.513C84.3694 357.347 84.7638 357.264 85.261 357.264C85.904 357.264 86.4708 357.425 86.9613 357.746C87.4518 358.068 87.8346 358.524 88.1097 359.114C88.3848 359.704 88.5224 360.4 88.5224 361.202C88.5224 362.01 88.3848 362.711 88.1097 363.305C87.8346 363.895 87.4535 364.352 86.9663 364.677C86.479 364.998 85.9173 365.159 85.2809 365.159C84.7904 365.159 84.3976 365.078 84.1026 364.915C83.8076 364.75 83.5806 364.562 83.4215 364.354C83.2624 364.142 83.1398 363.966 83.0536 363.827H82.9542V367.864H81.7809ZM82.9343 361.182C82.9343 361.759 83.0188 362.267 83.1879 362.708C83.3569 363.146 83.6038 363.489 83.9286 363.737C84.2534 363.982 84.6512 364.105 85.1218 364.105C85.6123 364.105 86.0217 363.976 86.3498 363.717C86.6812 363.455 86.9298 363.104 87.0955 362.663C87.2646 362.219 87.3491 361.725 87.3491 361.182C87.3491 360.645 87.2662 360.161 87.1005 359.73C86.9381 359.296 86.6912 358.953 86.3597 358.701C86.0316 358.446 85.619 358.318 85.1218 358.318C84.6445 358.318 84.2435 358.439 83.9187 358.681C83.5939 358.92 83.3486 359.254 83.1829 359.685C83.0172 360.113 82.9343 360.612 82.9343 361.182ZM92.5593 365.179C92.0754 365.179 91.6362 365.088 91.2418 364.906C90.8474 364.72 90.5342 364.453 90.3022 364.105C90.0702 363.754 89.9542 363.33 89.9542 362.832C89.9542 362.395 90.0404 362.04 90.2127 361.768C90.3851 361.493 90.6154 361.278 90.9038 361.122C91.1921 360.966 91.5103 360.85 91.8583 360.774C92.2096 360.695 92.5626 360.632 92.9173 360.585C93.3813 360.526 93.7575 360.481 94.0458 360.451C94.3375 360.418 94.5496 360.363 94.6822 360.287C94.8181 360.211 94.886 360.078 94.886 359.889V359.849C94.886 359.359 94.7518 358.978 94.4833 358.706C94.2182 358.434 93.8155 358.298 93.2752 358.298C92.7151 358.298 92.2759 358.421 91.9577 358.666C91.6396 358.911 91.4158 359.173 91.2866 359.452L90.1729 359.054C90.3718 358.59 90.637 358.229 90.9684 357.97C91.3031 357.708 91.6677 357.526 92.0621 357.423C92.4599 357.317 92.851 357.264 93.2354 357.264C93.4807 357.264 93.7624 357.294 94.0806 357.354C94.4021 357.41 94.712 357.528 95.0103 357.707C95.3119 357.886 95.5621 358.156 95.761 358.517C95.9599 358.878 96.0593 359.362 96.0593 359.969V365H94.886V363.966H94.8263C94.7468 364.132 94.6142 364.309 94.4286 364.498C94.243 364.687 93.9961 364.848 93.6879 364.98C93.3796 365.113 93.0034 365.179 92.5593 365.179ZM92.7383 364.125C93.2023 364.125 93.5934 364.034 93.9116 363.852C94.2331 363.669 94.475 363.434 94.6374 363.146C94.8031 362.857 94.886 362.554 94.886 362.236V361.162C94.8363 361.222 94.7269 361.276 94.5579 361.326C94.3922 361.372 94.1999 361.414 93.9812 361.45C93.7657 361.483 93.5553 361.513 93.3498 361.54C93.1476 361.563 92.9835 361.583 92.8576 361.599C92.5527 361.639 92.2676 361.704 92.0025 361.793C91.7406 361.879 91.5285 362.01 91.3661 362.186C91.207 362.358 91.1275 362.594 91.1275 362.892C91.1275 363.3 91.2783 363.608 91.5799 363.817C91.8848 364.022 92.271 364.125 92.7383 364.125ZM99.3741 360.406V365H98.2008V357.364H99.3343V358.557H99.4338C99.6127 358.169 99.8845 357.857 100.249 357.622C100.614 357.384 101.084 357.264 101.661 357.264C102.178 357.264 102.631 357.37 103.018 357.582C103.406 357.791 103.708 358.109 103.923 358.537C104.139 358.961 104.246 359.498 104.246 360.148V365H103.073V360.227C103.073 359.627 102.917 359.16 102.606 358.825C102.294 358.487 101.867 358.318 101.323 358.318C100.948 358.318 100.614 358.399 100.319 358.562C100.027 358.724 99.7967 358.961 99.6277 359.273C99.4586 359.584 99.3741 359.962 99.3741 360.406ZM106.39 365V357.364H107.564V365H106.39ZM106.987 356.091C106.758 356.091 106.561 356.013 106.395 355.857C106.233 355.701 106.152 355.514 106.152 355.295C106.152 355.077 106.233 354.889 106.395 354.734C106.561 354.578 106.758 354.5 106.987 354.5C107.216 354.5 107.411 354.578 107.574 354.734C107.739 354.889 107.822 355.077 107.822 355.295C107.822 355.514 107.739 355.701 107.574 355.857C107.411 356.013 107.216 356.091 106.987 356.091ZM112.914 365.159C112.178 365.159 111.544 364.997 111.01 364.672C110.48 364.344 110.07 363.886 109.782 363.3C109.497 362.71 109.355 362.024 109.355 361.241C109.355 360.459 109.497 359.77 109.782 359.173C110.07 358.573 110.472 358.106 110.985 357.771C111.502 357.433 112.106 357.264 112.795 357.264C113.193 357.264 113.585 357.33 113.973 357.463C114.361 357.596 114.714 357.811 115.032 358.109C115.35 358.404 115.604 358.795 115.793 359.283C115.982 359.77 116.076 360.37 116.076 361.082V361.58H110.19V360.565H114.883C114.883 360.134 114.797 359.75 114.624 359.412C114.455 359.074 114.213 358.807 113.899 358.612C113.587 358.416 113.219 358.318 112.795 358.318C112.328 358.318 111.923 358.434 111.582 358.666C111.244 358.895 110.984 359.193 110.801 359.561C110.619 359.929 110.528 360.323 110.528 360.744V361.42C110.528 361.997 110.627 362.486 110.826 362.887C111.028 363.285 111.308 363.588 111.666 363.797C112.024 364.002 112.44 364.105 112.914 364.105C113.222 364.105 113.501 364.062 113.749 363.976C114.001 363.886 114.218 363.754 114.401 363.578C114.583 363.399 114.724 363.177 114.823 362.912L115.957 363.23C115.838 363.615 115.637 363.953 115.355 364.244C115.074 364.533 114.726 364.758 114.311 364.92C113.897 365.08 113.431 365.159 112.914 365.159ZM123.27 359.074L122.216 359.372C122.15 359.196 122.052 359.026 121.923 358.86C121.797 358.691 121.624 358.552 121.406 358.442C121.187 358.333 120.907 358.278 120.566 358.278C120.098 358.278 119.709 358.386 119.397 358.602C119.089 358.814 118.935 359.084 118.935 359.412C118.935 359.704 119.041 359.934 119.253 360.103C119.465 360.272 119.797 360.413 120.247 360.526L121.381 360.804C122.064 360.97 122.572 361.223 122.907 361.565C123.242 361.903 123.409 362.339 123.409 362.872C123.409 363.31 123.283 363.701 123.031 364.045C122.783 364.39 122.435 364.662 121.987 364.861C121.54 365.06 121.02 365.159 120.426 365.159C119.647 365.159 119.003 364.99 118.492 364.652C117.982 364.314 117.659 363.82 117.523 363.17L118.637 362.892C118.743 363.303 118.943 363.611 119.238 363.817C119.536 364.022 119.926 364.125 120.406 364.125C120.953 364.125 121.387 364.009 121.709 363.777C122.034 363.542 122.196 363.26 122.196 362.932C122.196 362.667 122.103 362.445 121.918 362.266C121.732 362.083 121.447 361.947 121.063 361.858L119.79 361.56C119.091 361.394 118.577 361.137 118.249 360.789C117.924 360.438 117.762 359.999 117.762 359.472C117.762 359.041 117.883 358.66 118.124 358.328C118.37 357.997 118.703 357.737 119.124 357.548C119.548 357.359 120.029 357.264 120.566 357.264C121.321 357.264 121.914 357.43 122.345 357.761C122.78 358.093 123.088 358.53 123.27 359.074Z" fill="#444444"/>
<path d="M709.44 116.706L783.166 78.8481C787.927 76.4034 793.577 76.4197 798.324 78.8918L872.591 117.57C877.3 120.022 877.241 126.781 872.49 129.151L798.658 165.984C793.989 168.314 788.493 168.297 783.838 165.94L709.473 128.287C704.737 125.889 704.718 119.131 709.44 116.706Z" fill="white" stroke="#E7E7E7"/>
<path d="M759.375 130H756.233V119.818H759.514C760.502 119.818 761.347 120.022 762.05 120.43C762.752 120.834 763.291 121.416 763.665 122.175C764.04 122.93 764.227 123.835 764.227 124.889C764.227 125.95 764.038 126.863 763.661 127.629C763.283 128.391 762.732 128.978 762.01 129.388C761.287 129.796 760.409 130 759.375 130ZM757.466 128.906H759.295C760.137 128.906 760.835 128.744 761.388 128.419C761.942 128.094 762.355 127.632 762.626 127.032C762.898 126.432 763.034 125.718 763.034 124.889C763.034 124.067 762.9 123.36 762.631 122.766C762.363 122.17 761.962 121.712 761.428 121.394C760.895 121.073 760.23 120.912 759.435 120.912H757.466V128.906ZM768.384 130.179C767.9 130.179 767.46 130.088 767.066 129.906C766.672 129.72 766.358 129.453 766.126 129.105C765.894 128.754 765.778 128.33 765.778 127.832C765.778 127.395 765.865 127.04 766.037 126.768C766.209 126.493 766.44 126.278 766.728 126.122C767.016 125.966 767.335 125.85 767.683 125.774C768.034 125.695 768.387 125.632 768.741 125.585C769.205 125.526 769.582 125.481 769.87 125.451C770.162 125.418 770.374 125.363 770.506 125.287C770.642 125.211 770.71 125.078 770.71 124.889V124.849C770.71 124.359 770.576 123.978 770.308 123.706C770.042 123.434 769.64 123.298 769.099 123.298C768.539 123.298 768.1 123.421 767.782 123.666C767.464 123.911 767.24 124.173 767.111 124.452L765.997 124.054C766.196 123.59 766.461 123.229 766.793 122.97C767.127 122.708 767.492 122.526 767.886 122.423C768.284 122.317 768.675 122.264 769.06 122.264C769.305 122.264 769.587 122.294 769.905 122.354C770.226 122.41 770.536 122.528 770.835 122.707C771.136 122.886 771.386 123.156 771.585 123.517C771.784 123.878 771.884 124.362 771.884 124.969V130H770.71V128.966H770.651C770.571 129.132 770.438 129.309 770.253 129.498C770.067 129.687 769.82 129.848 769.512 129.98C769.204 130.113 768.828 130.179 768.384 130.179ZM768.562 129.125C769.027 129.125 769.418 129.034 769.736 128.852C770.057 128.669 770.299 128.434 770.462 128.146C770.627 127.857 770.71 127.554 770.71 127.236V126.162C770.661 126.222 770.551 126.276 770.382 126.326C770.216 126.372 770.024 126.414 769.805 126.45C769.59 126.483 769.379 126.513 769.174 126.54C768.972 126.563 768.808 126.583 768.682 126.599C768.377 126.639 768.092 126.704 767.827 126.793C767.565 126.879 767.353 127.01 767.19 127.186C767.031 127.358 766.952 127.594 766.952 127.892C766.952 128.3 767.103 128.608 767.404 128.817C767.709 129.022 768.095 129.125 768.562 129.125ZM777.346 122.364V123.358H773.389V122.364H777.346ZM774.542 120.534H775.715V127.812C775.715 128.144 775.763 128.393 775.86 128.558C775.959 128.721 776.085 128.83 776.237 128.886C776.393 128.939 776.557 128.966 776.73 128.966C776.859 128.966 776.965 128.959 777.048 128.946C777.131 128.929 777.197 128.916 777.247 128.906L777.485 129.96C777.406 129.99 777.295 130.02 777.152 130.05C777.01 130.083 776.829 130.099 776.61 130.099C776.279 130.099 775.954 130.028 775.636 129.886C775.321 129.743 775.059 129.526 774.85 129.234C774.645 128.943 774.542 128.575 774.542 128.131V120.534ZM781.358 130.179C780.874 130.179 780.435 130.088 780.041 129.906C779.646 129.72 779.333 129.453 779.101 129.105C778.869 128.754 778.753 128.33 778.753 127.832C778.753 127.395 778.839 127.04 779.012 126.768C779.184 126.493 779.414 126.278 779.703 126.122C779.991 125.966 780.309 125.85 780.657 125.774C781.008 125.695 781.361 125.632 781.716 125.585C782.18 125.526 782.556 125.481 782.845 125.451C783.136 125.418 783.348 125.363 783.481 125.287C783.617 125.211 783.685 125.078 783.685 124.889V124.849C783.685 124.359 783.551 123.978 783.282 123.706C783.017 123.434 782.614 123.298 782.074 123.298C781.514 123.298 781.075 123.421 780.757 123.666C780.438 123.911 780.215 124.173 780.085 124.452L778.972 124.054C779.171 123.59 779.436 123.229 779.767 122.97C780.102 122.708 780.467 122.526 780.861 122.423C781.259 122.317 781.65 122.264 782.034 122.264C782.28 122.264 782.561 122.294 782.879 122.354C783.201 122.41 783.511 122.528 783.809 122.707C784.111 122.886 784.361 123.156 784.56 123.517C784.759 123.878 784.858 124.362 784.858 124.969V130H783.685V128.966H783.625C783.546 129.132 783.413 129.309 783.227 129.498C783.042 129.687 782.795 129.848 782.487 129.98C782.178 130.113 781.802 130.179 781.358 130.179ZM781.537 129.125C782.001 129.125 782.392 129.034 782.71 128.852C783.032 128.669 783.274 128.434 783.436 128.146C783.602 127.857 783.685 127.554 783.685 127.236V126.162C783.635 126.222 783.526 126.276 783.357 126.326C783.191 126.372 782.999 126.414 782.78 126.45C782.565 126.483 782.354 126.513 782.149 126.54C781.946 126.563 781.782 126.583 781.656 126.599C781.352 126.639 781.066 126.704 780.801 126.793C780.539 126.879 780.327 127.01 780.165 127.186C780.006 127.358 779.926 127.594 779.926 127.892C779.926 128.3 780.077 128.608 780.379 128.817C780.684 129.022 781.07 129.125 781.537 129.125ZM794.039 130.159C793.35 130.159 792.745 129.995 792.225 129.667C791.708 129.339 791.303 128.88 791.012 128.29C790.723 127.7 790.579 127.01 790.579 126.222C790.579 125.426 790.723 124.732 791.012 124.138C791.303 123.545 791.708 123.085 792.225 122.756C792.745 122.428 793.35 122.264 794.039 122.264C794.729 122.264 795.332 122.428 795.849 122.756C796.369 123.085 796.774 123.545 797.062 124.138C797.354 124.732 797.5 125.426 797.5 126.222C797.5 127.01 797.354 127.7 797.062 128.29C796.774 128.88 796.369 129.339 795.849 129.667C795.332 129.995 794.729 130.159 794.039 130.159ZM794.039 129.105C794.563 129.105 794.994 128.971 795.332 128.702C795.67 128.434 795.92 128.081 796.083 127.643C796.245 127.206 796.326 126.732 796.326 126.222C796.326 125.711 796.245 125.236 796.083 124.795C795.92 124.354 795.67 123.998 795.332 123.726C794.994 123.454 794.563 123.318 794.039 123.318C793.516 123.318 793.085 123.454 792.747 123.726C792.409 123.998 792.158 124.354 791.996 124.795C791.834 125.236 791.752 125.711 791.752 126.222C791.752 126.732 791.834 127.206 791.996 127.643C792.158 128.081 792.409 128.434 792.747 128.702C793.085 128.971 793.516 129.105 794.039 129.105ZM800.384 127.216L800.365 125.764H800.603L803.944 122.364H805.396L801.836 125.963H801.737L800.384 127.216ZM799.291 130V119.818H800.464V130H799.291ZM804.143 130L801.16 126.222L801.995 125.406L805.634 130H804.143ZM809.153 130.179C808.669 130.179 808.23 130.088 807.836 129.906C807.441 129.72 807.128 129.453 806.896 129.105C806.664 128.754 806.548 128.33 806.548 127.832C806.548 127.395 806.634 127.04 806.806 126.768C806.979 126.493 807.209 126.278 807.498 126.122C807.786 125.966 808.104 125.85 808.452 125.774C808.803 125.695 809.156 125.632 809.511 125.585C809.975 125.526 810.351 125.481 810.64 125.451C810.931 125.418 811.143 125.363 811.276 125.287C811.412 125.211 811.48 125.078 811.48 124.889V124.849C811.48 124.359 811.346 123.978 811.077 123.706C810.812 123.434 810.409 123.298 809.869 123.298C809.309 123.298 808.87 123.421 808.551 123.666C808.233 123.911 808.01 124.173 807.88 124.452L806.767 124.054C806.966 123.59 807.231 123.229 807.562 122.97C807.897 122.708 808.261 122.526 808.656 122.423C809.054 122.317 809.445 122.264 809.829 122.264C810.074 122.264 810.356 122.294 810.674 122.354C810.996 122.41 811.306 122.528 811.604 122.707C811.906 122.886 812.156 123.156 812.355 123.517C812.554 123.878 812.653 124.362 812.653 124.969V130H811.48V128.966H811.42C811.341 129.132 811.208 129.309 811.022 129.498C810.837 129.687 810.59 129.848 810.282 129.98C809.973 130.113 809.597 130.179 809.153 130.179ZM809.332 129.125C809.796 129.125 810.187 129.034 810.505 128.852C810.827 128.669 811.069 128.434 811.231 128.146C811.397 127.857 811.48 127.554 811.48 127.236V126.162C811.43 126.222 811.321 126.276 811.152 126.326C810.986 126.372 810.794 126.414 810.575 126.45C810.359 126.483 810.149 126.513 809.944 126.54C809.741 126.563 809.577 126.583 809.451 126.599C809.146 126.639 808.861 126.704 808.596 126.793C808.334 126.879 808.122 127.01 807.96 127.186C807.801 127.358 807.721 127.594 807.721 127.892C807.721 128.3 807.872 128.608 808.174 128.817C808.479 129.022 808.865 129.125 809.332 129.125ZM815.277 132.864C815.078 132.864 814.901 132.847 814.745 132.814C814.589 132.784 814.481 132.754 814.422 132.724L814.72 131.69C815.005 131.763 815.257 131.79 815.476 131.77C815.694 131.75 815.888 131.652 816.057 131.477C816.23 131.304 816.387 131.024 816.53 130.636L816.748 130.04L813.925 122.364H815.197L817.305 128.449H817.385L819.493 122.364H820.765L817.524 131.114C817.378 131.508 817.198 131.835 816.982 132.093C816.767 132.355 816.516 132.549 816.231 132.675C815.95 132.801 815.631 132.864 815.277 132.864ZM823.845 127.136V127.077C823.852 126.444 823.918 125.94 824.044 125.565C824.17 125.191 824.349 124.888 824.581 124.656C824.813 124.424 825.092 124.21 825.416 124.014C825.612 123.895 825.788 123.754 825.943 123.592C826.099 123.426 826.222 123.235 826.311 123.02C826.404 122.804 826.45 122.566 826.45 122.304C826.45 121.979 826.374 121.697 826.222 121.459C826.069 121.22 825.865 121.036 825.61 120.907C825.355 120.778 825.072 120.713 824.76 120.713C824.488 120.713 824.227 120.769 823.975 120.882C823.723 120.995 823.512 121.172 823.343 121.414C823.174 121.656 823.076 121.973 823.05 122.364H821.797C821.824 121.8 821.969 121.318 822.235 120.917C822.503 120.516 822.856 120.209 823.294 119.997C823.734 119.785 824.223 119.679 824.76 119.679C825.343 119.679 825.851 119.795 826.281 120.027C826.716 120.259 827.05 120.577 827.286 120.982C827.524 121.386 827.644 121.847 827.644 122.364C827.644 122.728 827.587 123.058 827.475 123.353C827.365 123.648 827.206 123.911 826.997 124.143C826.792 124.375 826.543 124.581 826.252 124.76C825.96 124.942 825.726 125.134 825.551 125.337C825.375 125.536 825.247 125.772 825.168 126.048C825.088 126.323 825.045 126.666 825.039 127.077V127.136H823.845ZM824.482 130.08C824.236 130.08 824.026 129.992 823.85 129.816C823.675 129.64 823.587 129.43 823.587 129.185C823.587 128.939 823.675 128.729 823.85 128.553C824.026 128.378 824.236 128.29 824.482 128.29C824.727 128.29 824.937 128.378 825.113 128.553C825.289 128.729 825.377 128.939 825.377 129.185C825.377 129.347 825.335 129.496 825.252 129.632C825.173 129.768 825.065 129.877 824.929 129.96C824.797 130.04 824.647 130.08 824.482 130.08Z" fill="#444444"/>
<rect x="705.5" y="259.5" width="171" height="69" rx="6.5" fill="white" stroke="#E7E7E7"/>
<path d="M756.915 288.818H758.148V295.56C758.148 296.256 757.984 296.877 757.656 297.424C757.331 297.968 756.872 298.397 756.278 298.712C755.685 299.023 754.989 299.179 754.19 299.179C753.392 299.179 752.696 299.023 752.102 298.712C751.509 298.397 751.048 297.968 750.72 297.424C750.395 296.877 750.233 296.256 750.233 295.56V288.818H751.466V295.46C751.466 295.957 751.575 296.4 751.794 296.788C752.013 297.172 752.324 297.475 752.729 297.697C753.136 297.916 753.624 298.026 754.19 298.026C754.757 298.026 755.244 297.916 755.652 297.697C756.06 297.475 756.371 297.172 756.587 296.788C756.805 296.4 756.915 295.957 756.915 295.46V288.818ZM765.86 293.074L764.806 293.372C764.74 293.196 764.642 293.026 764.513 292.86C764.387 292.691 764.214 292.552 763.996 292.442C763.777 292.333 763.497 292.278 763.155 292.278C762.688 292.278 762.299 292.386 761.987 292.602C761.679 292.814 761.525 293.084 761.525 293.412C761.525 293.704 761.631 293.934 761.843 294.103C762.055 294.272 762.386 294.413 762.837 294.526L763.971 294.804C764.653 294.97 765.162 295.223 765.497 295.565C765.832 295.903 765.999 296.339 765.999 296.872C765.999 297.31 765.873 297.701 765.621 298.045C765.373 298.39 765.025 298.662 764.577 298.861C764.13 299.06 763.609 299.159 763.016 299.159C762.237 299.159 761.593 298.99 761.082 298.652C760.572 298.314 760.249 297.82 760.113 297.17L761.226 296.892C761.332 297.303 761.533 297.611 761.828 297.817C762.126 298.022 762.516 298.125 762.996 298.125C763.543 298.125 763.977 298.009 764.299 297.777C764.624 297.542 764.786 297.26 764.786 296.932C764.786 296.667 764.693 296.445 764.508 296.266C764.322 296.083 764.037 295.947 763.653 295.858L762.38 295.56C761.68 295.394 761.167 295.137 760.839 294.789C760.514 294.438 760.351 293.999 760.351 293.472C760.351 293.041 760.472 292.66 760.714 292.328C760.96 291.997 761.293 291.737 761.714 291.548C762.138 291.359 762.618 291.264 763.155 291.264C763.911 291.264 764.504 291.43 764.935 291.761C765.369 292.093 765.678 292.53 765.86 293.074ZM770.967 299.159C770.231 299.159 769.596 298.997 769.063 298.672C768.533 298.344 768.123 297.886 767.835 297.3C767.55 296.71 767.407 296.024 767.407 295.241C767.407 294.459 767.55 293.77 767.835 293.173C768.123 292.573 768.524 292.106 769.038 291.771C769.555 291.433 770.158 291.264 770.848 291.264C771.245 291.264 771.638 291.33 772.026 291.463C772.414 291.596 772.767 291.811 773.085 292.109C773.403 292.404 773.657 292.795 773.846 293.283C774.034 293.77 774.129 294.37 774.129 295.082V295.58H768.243V294.565H772.936C772.936 294.134 772.85 293.75 772.677 293.412C772.508 293.074 772.266 292.807 771.951 292.612C771.64 292.416 771.272 292.318 770.848 292.318C770.38 292.318 769.976 292.434 769.635 292.666C769.297 292.895 769.036 293.193 768.854 293.561C768.672 293.929 768.581 294.323 768.581 294.744V295.42C768.581 295.997 768.68 296.486 768.879 296.887C769.081 297.285 769.361 297.588 769.719 297.797C770.077 298.002 770.493 298.105 770.967 298.105C771.275 298.105 771.554 298.062 771.802 297.976C772.054 297.886 772.271 297.754 772.453 297.578C772.636 297.399 772.777 297.177 772.876 296.912L774.01 297.23C773.89 297.615 773.69 297.953 773.408 298.244C773.126 298.533 772.778 298.758 772.364 298.92C771.95 299.08 771.484 299.159 770.967 299.159ZM775.914 299V291.364H777.047V292.517H777.127C777.266 292.139 777.518 291.833 777.882 291.597C778.247 291.362 778.658 291.244 779.115 291.244C779.202 291.244 779.309 291.246 779.439 291.249C779.568 291.253 779.666 291.258 779.732 291.264V292.457C779.692 292.447 779.601 292.433 779.458 292.413C779.319 292.389 779.172 292.378 779.016 292.378C778.645 292.378 778.313 292.456 778.022 292.612C777.733 292.764 777.505 292.976 777.336 293.248C777.17 293.516 777.087 293.823 777.087 294.168V299H775.914ZM786.532 293.074L785.478 293.372C785.412 293.196 785.314 293.026 785.184 292.86C785.059 292.691 784.886 292.552 784.667 292.442C784.449 292.333 784.169 292.278 783.827 292.278C783.36 292.278 782.97 292.386 782.659 292.602C782.351 292.814 782.197 293.084 782.197 293.412C782.197 293.704 782.303 293.934 782.515 294.103C782.727 294.272 783.058 294.413 783.509 294.526L784.643 294.804C785.325 294.97 785.834 295.223 786.169 295.565C786.504 295.903 786.671 296.339 786.671 296.872C786.671 297.31 786.545 297.701 786.293 298.045C786.045 298.39 785.697 298.662 785.249 298.861C784.802 299.06 784.281 299.159 783.688 299.159C782.909 299.159 782.265 298.99 781.754 298.652C781.244 298.314 780.921 297.82 780.785 297.17L781.898 296.892C782.004 297.303 782.205 297.611 782.5 297.817C782.798 298.022 783.188 298.125 783.668 298.125C784.215 298.125 784.649 298.009 784.971 297.777C785.296 297.542 785.458 297.26 785.458 296.932C785.458 296.667 785.365 296.445 785.18 296.266C784.994 296.083 784.709 295.947 784.324 295.858L783.052 295.56C782.352 295.394 781.839 295.137 781.51 294.789C781.186 294.438 781.023 293.999 781.023 293.472C781.023 293.041 781.144 292.66 781.386 292.328C781.631 291.997 781.965 291.737 782.385 291.548C782.81 291.359 783.29 291.264 783.827 291.264C784.583 291.264 785.176 291.43 785.607 291.761C786.041 292.093 786.349 292.53 786.532 293.074ZM795.775 291.364V292.358H791.659V291.364H795.775ZM792.892 299V290.31C792.892 289.872 792.994 289.508 793.2 289.216C793.405 288.924 793.672 288.705 794 288.56C794.328 288.414 794.675 288.341 795.039 288.341C795.328 288.341 795.563 288.364 795.745 288.411C795.928 288.457 796.064 288.5 796.153 288.54L795.815 289.554C795.755 289.534 795.672 289.509 795.566 289.479C795.464 289.45 795.328 289.435 795.159 289.435C794.771 289.435 794.491 289.532 794.319 289.728C794.15 289.924 794.065 290.21 794.065 290.588V299H792.892ZM797.42 299V291.364H798.593V299H797.42ZM798.016 290.091C797.787 290.091 797.59 290.013 797.425 289.857C797.262 289.701 797.181 289.514 797.181 289.295C797.181 289.077 797.262 288.889 797.425 288.734C797.59 288.578 797.787 288.5 798.016 288.5C798.245 288.5 798.44 288.578 798.603 288.734C798.769 288.889 798.851 289.077 798.851 289.295C798.851 289.514 798.769 289.701 798.603 289.857C798.44 290.013 798.245 290.091 798.016 290.091ZM801.915 294.406V299H800.742V291.364H801.875V292.557H801.975C802.154 292.169 802.426 291.857 802.79 291.622C803.155 291.384 803.625 291.264 804.202 291.264C804.719 291.264 805.172 291.37 805.559 291.582C805.947 291.791 806.249 292.109 806.464 292.537C806.68 292.961 806.787 293.498 806.787 294.148V299H805.614V294.227C805.614 293.627 805.458 293.16 805.147 292.825C804.835 292.487 804.408 292.318 803.864 292.318C803.489 292.318 803.155 292.399 802.86 292.562C802.568 292.724 802.338 292.961 802.169 293.273C802 293.584 801.915 293.962 801.915 294.406ZM808.931 299V291.364H810.105V299H808.931ZM809.528 290.091C809.299 290.091 809.102 290.013 808.936 289.857C808.774 289.701 808.693 289.514 808.693 289.295C808.693 289.077 808.774 288.889 808.936 288.734C809.102 288.578 809.299 288.5 809.528 288.5C809.757 288.5 809.952 288.578 810.115 288.734C810.28 288.889 810.363 289.077 810.363 289.295C810.363 289.514 810.28 289.701 810.115 289.857C809.952 290.013 809.757 290.091 809.528 290.091ZM817.663 293.074L816.609 293.372C816.542 293.196 816.445 293.026 816.315 292.86C816.189 292.691 816.017 292.552 815.798 292.442C815.58 292.333 815.299 292.278 814.958 292.278C814.491 292.278 814.101 292.386 813.79 292.602C813.482 292.814 813.327 293.084 813.327 293.412C813.327 293.704 813.433 293.934 813.646 294.103C813.858 294.272 814.189 294.413 814.64 294.526L815.773 294.804C816.456 294.97 816.965 295.223 817.3 295.565C817.634 295.903 817.802 296.339 817.802 296.872C817.802 297.31 817.676 297.701 817.424 298.045C817.175 298.39 816.827 298.662 816.38 298.861C815.933 299.06 815.412 299.159 814.819 299.159C814.04 299.159 813.395 298.99 812.885 298.652C812.375 298.314 812.051 297.82 811.915 297.17L813.029 296.892C813.135 297.303 813.336 297.611 813.631 297.817C813.929 298.022 814.318 298.125 814.799 298.125C815.346 298.125 815.78 298.009 816.102 297.777C816.426 297.542 816.589 297.26 816.589 296.932C816.589 296.667 816.496 296.445 816.31 296.266C816.125 296.083 815.84 295.947 815.455 295.858L814.183 295.56C813.483 295.394 812.969 295.137 812.641 294.789C812.317 294.438 812.154 293.999 812.154 293.472C812.154 293.041 812.275 292.66 812.517 292.328C812.762 291.997 813.095 291.737 813.516 291.548C813.941 291.359 814.421 291.264 814.958 291.264C815.714 291.264 816.307 291.43 816.738 291.761C817.172 292.093 817.48 292.53 817.663 293.074ZM820.741 294.406V299H819.568V288.818H820.741V292.557H820.841C821.02 292.162 821.288 291.849 821.646 291.617C822.007 291.382 822.488 291.264 823.088 291.264C823.608 291.264 824.064 291.369 824.455 291.577C824.846 291.783 825.149 292.099 825.365 292.527C825.584 292.951 825.693 293.491 825.693 294.148V299H824.52V294.227C824.52 293.621 824.362 293.152 824.047 292.82C823.736 292.486 823.303 292.318 822.75 292.318C822.365 292.318 822.021 292.399 821.716 292.562C821.414 292.724 821.175 292.961 821 293.273C820.827 293.584 820.741 293.962 820.741 294.406Z" fill="#444444"/>
<circle cx="956.5" cy="211.5" r="42" fill="white" stroke="#E7E7E7"/>
<path d="M942.233 218V207.818H948.378V208.912H943.466V212.352H948.06V213.446H943.466V216.906H948.457V218H942.233ZM950.441 218V210.364H951.575V211.517H951.654C951.793 211.139 952.045 210.833 952.41 210.597C952.774 210.362 953.185 210.244 953.643 210.244C953.729 210.244 953.837 210.246 953.966 210.249C954.095 210.253 954.193 210.258 954.259 210.264V211.457C954.219 211.447 954.128 211.433 953.986 211.413C953.847 211.389 953.699 211.378 953.543 211.378C953.172 211.378 952.841 211.456 952.549 211.612C952.261 211.764 952.032 211.976 951.863 212.248C951.697 212.516 951.614 212.823 951.614 213.168V218H950.441ZM955.65 218V210.364H956.784V211.517H956.863C957.002 211.139 957.254 210.833 957.619 210.597C957.983 210.362 958.394 210.244 958.852 210.244C958.938 210.244 959.046 210.246 959.175 210.249C959.304 210.253 959.402 210.258 959.468 210.264V211.457C959.428 211.447 959.337 211.433 959.195 211.413C959.056 211.389 958.908 211.378 958.752 211.378C958.381 211.378 958.05 211.456 957.758 211.612C957.47 211.764 957.241 211.976 957.072 212.248C956.906 212.516 956.823 212.823 956.823 213.168V218H955.65ZM963.729 218.159C963.039 218.159 962.435 217.995 961.914 217.667C961.397 217.339 960.993 216.88 960.701 216.29C960.413 215.7 960.269 215.01 960.269 214.222C960.269 213.426 960.413 212.732 960.701 212.138C960.993 211.545 961.397 211.085 961.914 210.756C962.435 210.428 963.039 210.264 963.729 210.264C964.418 210.264 965.021 210.428 965.539 210.756C966.059 211.085 966.463 211.545 966.752 212.138C967.043 212.732 967.189 213.426 967.189 214.222C967.189 215.01 967.043 215.7 966.752 216.29C966.463 216.88 966.059 217.339 965.539 217.667C965.021 217.995 964.418 218.159 963.729 218.159ZM963.729 217.105C964.253 217.105 964.683 216.971 965.021 216.702C965.36 216.434 965.61 216.081 965.772 215.643C965.935 215.206 966.016 214.732 966.016 214.222C966.016 213.711 965.935 213.236 965.772 212.795C965.61 212.354 965.36 211.998 965.021 211.726C964.683 211.454 964.253 211.318 963.729 211.318C963.205 211.318 962.774 211.454 962.436 211.726C962.098 211.998 961.848 212.354 961.686 212.795C961.523 213.236 961.442 213.711 961.442 214.222C961.442 214.732 961.523 215.206 961.686 215.643C961.848 216.081 962.098 216.434 962.436 216.702C962.774 216.971 963.205 217.105 963.729 217.105ZM968.98 218V210.364H970.114V211.517H970.193C970.332 211.139 970.584 210.833 970.949 210.597C971.313 210.362 971.724 210.244 972.182 210.244C972.268 210.244 972.376 210.246 972.505 210.249C972.634 210.253 972.732 210.258 972.798 210.264V211.457C972.759 211.447 972.667 211.433 972.525 211.413C972.386 211.389 972.238 211.378 972.082 211.378C971.711 211.378 971.38 211.456 971.088 211.612C970.8 211.764 970.571 211.976 970.402 212.248C970.236 212.516 970.153 212.823 970.153 213.168V218H968.98Z" fill="#444444"/>
<rect x="1057" y="259" width="172" height="70" rx="7" fill="#73CE8D"/>
<path d="M1111.91 290.818H1113.15V297.56C1113.15 298.256 1112.98 298.877 1112.66 299.424C1112.33 299.968 1111.87 300.397 1111.28 300.712C1110.69 301.023 1109.99 301.179 1109.19 301.179C1108.39 301.179 1107.7 301.023 1107.1 300.712C1106.51 300.397 1106.05 299.968 1105.72 299.424C1105.4 298.877 1105.23 298.256 1105.23 297.56V290.818H1106.47V297.46C1106.47 297.957 1106.58 298.4 1106.79 298.788C1107.01 299.172 1107.32 299.475 1107.73 299.697C1108.14 299.916 1108.62 300.026 1109.19 300.026C1109.76 300.026 1110.24 299.916 1110.65 299.697C1111.06 299.475 1111.37 299.172 1111.59 298.788C1111.81 298.4 1111.91 297.957 1111.91 297.46V290.818ZM1120.86 295.074L1119.81 295.372C1119.74 295.196 1119.64 295.026 1119.51 294.86C1119.39 294.691 1119.21 294.552 1119 294.442C1118.78 294.333 1118.5 294.278 1118.16 294.278C1117.69 294.278 1117.3 294.386 1116.99 294.602C1116.68 294.814 1116.52 295.084 1116.52 295.412C1116.52 295.704 1116.63 295.934 1116.84 296.103C1117.05 296.272 1117.39 296.413 1117.84 296.526L1118.97 296.804C1119.65 296.97 1120.16 297.223 1120.5 297.565C1120.83 297.903 1121 298.339 1121 298.872C1121 299.31 1120.87 299.701 1120.62 300.045C1120.37 300.39 1120.02 300.662 1119.58 300.861C1119.13 301.06 1118.61 301.159 1118.02 301.159C1117.24 301.159 1116.59 300.99 1116.08 300.652C1115.57 300.314 1115.25 299.82 1115.11 299.17L1116.23 298.892C1116.33 299.303 1116.53 299.611 1116.83 299.817C1117.13 300.022 1117.52 300.125 1118 300.125C1118.54 300.125 1118.98 300.009 1119.3 299.777C1119.62 299.542 1119.79 299.26 1119.79 298.932C1119.79 298.667 1119.69 298.445 1119.51 298.266C1119.32 298.083 1119.04 297.947 1118.65 297.858L1117.38 297.56C1116.68 297.394 1116.17 297.137 1115.84 296.789C1115.51 296.438 1115.35 295.999 1115.35 295.472C1115.35 295.041 1115.47 294.66 1115.71 294.328C1115.96 293.997 1116.29 293.737 1116.71 293.548C1117.14 293.359 1117.62 293.264 1118.16 293.264C1118.91 293.264 1119.5 293.43 1119.94 293.761C1120.37 294.093 1120.68 294.53 1120.86 295.074ZM1125.97 301.159C1125.23 301.159 1124.6 300.997 1124.06 300.672C1123.53 300.344 1123.12 299.886 1122.83 299.3C1122.55 298.71 1122.41 298.024 1122.41 297.241C1122.41 296.459 1122.55 295.77 1122.83 295.173C1123.12 294.573 1123.52 294.106 1124.04 293.771C1124.56 293.433 1125.16 293.264 1125.85 293.264C1126.25 293.264 1126.64 293.33 1127.03 293.463C1127.41 293.596 1127.77 293.811 1128.08 294.109C1128.4 294.404 1128.66 294.795 1128.85 295.283C1129.03 295.77 1129.13 296.37 1129.13 297.082V297.58H1123.24V296.565H1127.94C1127.94 296.134 1127.85 295.75 1127.68 295.412C1127.51 295.074 1127.27 294.807 1126.95 294.612C1126.64 294.416 1126.27 294.318 1125.85 294.318C1125.38 294.318 1124.98 294.434 1124.63 294.666C1124.3 294.895 1124.04 295.193 1123.85 295.561C1123.67 295.929 1123.58 296.323 1123.58 296.744V297.42C1123.58 297.997 1123.68 298.486 1123.88 298.887C1124.08 299.285 1124.36 299.588 1124.72 299.797C1125.08 300.002 1125.49 300.105 1125.97 300.105C1126.28 300.105 1126.55 300.062 1126.8 299.976C1127.05 299.886 1127.27 299.754 1127.45 299.578C1127.64 299.399 1127.78 299.177 1127.88 298.912L1129.01 299.23C1128.89 299.615 1128.69 299.953 1128.41 300.244C1128.13 300.533 1127.78 300.758 1127.36 300.92C1126.95 301.08 1126.48 301.159 1125.97 301.159ZM1130.91 301V293.364H1132.05V294.517H1132.13C1132.27 294.139 1132.52 293.833 1132.88 293.597C1133.25 293.362 1133.66 293.244 1134.12 293.244C1134.2 293.244 1134.31 293.246 1134.44 293.249C1134.57 293.253 1134.67 293.258 1134.73 293.264V294.457C1134.69 294.447 1134.6 294.433 1134.46 294.413C1134.32 294.389 1134.17 294.378 1134.02 294.378C1133.64 294.378 1133.31 294.456 1133.02 294.612C1132.73 294.764 1132.5 294.976 1132.34 295.248C1132.17 295.516 1132.09 295.823 1132.09 296.168V301H1130.91ZM1140.22 301V290.818H1143.66C1144.46 290.818 1145.11 290.962 1145.62 291.251C1146.13 291.536 1146.51 291.922 1146.75 292.409C1147 292.896 1147.12 293.44 1147.12 294.04C1147.12 294.64 1147 295.185 1146.75 295.675C1146.51 296.166 1146.14 296.557 1145.63 296.849C1145.12 297.137 1144.47 297.281 1143.68 297.281H1141.21V296.188H1143.64C1144.19 296.188 1144.63 296.093 1144.96 295.904C1145.29 295.715 1145.53 295.46 1145.68 295.138C1145.83 294.814 1145.91 294.447 1145.91 294.04C1145.91 293.632 1145.83 293.268 1145.68 292.946C1145.53 292.625 1145.29 292.373 1144.95 292.19C1144.62 292.005 1144.17 291.912 1143.62 291.912H1141.45V301H1140.22ZM1148.95 301V293.364H1150.08V294.517H1150.16C1150.3 294.139 1150.55 293.833 1150.92 293.597C1151.28 293.362 1151.69 293.244 1152.15 293.244C1152.23 293.244 1152.34 293.246 1152.47 293.249C1152.6 293.253 1152.7 293.258 1152.77 293.264V294.457C1152.73 294.447 1152.63 294.433 1152.49 294.413C1152.35 294.389 1152.2 294.378 1152.05 294.378C1151.68 294.378 1151.35 294.456 1151.05 294.612C1150.77 294.764 1150.54 294.976 1150.37 295.248C1150.2 295.516 1150.12 295.823 1150.12 296.168V301H1148.95ZM1157.03 301.159C1156.34 301.159 1155.73 300.995 1155.21 300.667C1154.69 300.339 1154.29 299.88 1154 299.29C1153.71 298.7 1153.57 298.01 1153.57 297.222C1153.57 296.426 1153.71 295.732 1154 295.138C1154.29 294.545 1154.69 294.085 1155.21 293.756C1155.73 293.428 1156.34 293.264 1157.03 293.264C1157.72 293.264 1158.32 293.428 1158.84 293.756C1159.36 294.085 1159.76 294.545 1160.05 295.138C1160.34 295.732 1160.49 296.426 1160.49 297.222C1160.49 298.01 1160.34 298.7 1160.05 299.29C1159.76 299.88 1159.36 300.339 1158.84 300.667C1158.32 300.995 1157.72 301.159 1157.03 301.159ZM1157.03 300.105C1157.55 300.105 1157.98 299.971 1158.32 299.702C1158.66 299.434 1158.91 299.081 1159.07 298.643C1159.23 298.206 1159.31 297.732 1159.31 297.222C1159.31 296.711 1159.23 296.236 1159.07 295.795C1158.91 295.354 1158.66 294.998 1158.32 294.726C1157.98 294.454 1157.55 294.318 1157.03 294.318C1156.5 294.318 1156.07 294.454 1155.73 294.726C1155.4 294.998 1155.14 295.354 1154.98 295.795C1154.82 296.236 1154.74 296.711 1154.74 297.222C1154.74 297.732 1154.82 298.206 1154.98 298.643C1155.14 299.081 1155.4 299.434 1155.73 299.702C1156.07 299.971 1156.5 300.105 1157.03 300.105ZM1165.68 293.364V294.358H1161.56V293.364H1165.68ZM1162.79 301V292.31C1162.79 291.872 1162.9 291.508 1163.1 291.216C1163.31 290.924 1163.57 290.705 1163.9 290.56C1164.23 290.414 1164.58 290.341 1164.94 290.341C1165.23 290.341 1165.47 290.364 1165.65 290.411C1165.83 290.457 1165.97 290.5 1166.06 290.54L1165.72 291.554C1165.66 291.534 1165.57 291.509 1165.47 291.479C1165.37 291.45 1165.23 291.435 1165.06 291.435C1164.67 291.435 1164.39 291.532 1164.22 291.728C1164.05 291.924 1163.97 292.21 1163.97 292.588V301H1162.79ZM1167.32 301V293.364H1168.5V301H1167.32ZM1167.92 292.091C1167.69 292.091 1167.49 292.013 1167.33 291.857C1167.16 291.701 1167.08 291.514 1167.08 291.295C1167.08 291.077 1167.16 290.889 1167.33 290.734C1167.49 290.578 1167.69 290.5 1167.92 290.5C1168.15 290.5 1168.34 290.578 1168.51 290.734C1168.67 290.889 1168.75 291.077 1168.75 291.295C1168.75 291.514 1168.67 291.701 1168.51 291.857C1168.34 292.013 1168.15 292.091 1167.92 292.091ZM1171.82 290.818V301H1170.64V290.818H1171.82ZM1177.17 301.159C1176.43 301.159 1175.8 300.997 1175.26 300.672C1174.73 300.344 1174.32 299.886 1174.04 299.3C1173.75 298.71 1173.61 298.024 1173.61 297.241C1173.61 296.459 1173.75 295.77 1174.04 295.173C1174.32 294.573 1174.73 294.106 1175.24 293.771C1175.76 293.433 1176.36 293.264 1177.05 293.264C1177.45 293.264 1177.84 293.33 1178.23 293.463C1178.61 293.596 1178.97 293.811 1179.29 294.109C1179.6 294.404 1179.86 294.795 1180.05 295.283C1180.24 295.77 1180.33 296.37 1180.33 297.082V297.58H1174.44V296.565H1179.14C1179.14 296.134 1179.05 295.75 1178.88 295.412C1178.71 295.074 1178.47 294.807 1178.15 294.612C1177.84 294.416 1177.47 294.318 1177.05 294.318C1176.58 294.318 1176.18 294.434 1175.84 294.666C1175.5 294.895 1175.24 295.193 1175.06 295.561C1174.87 295.929 1174.78 296.323 1174.78 296.744V297.42C1174.78 297.997 1174.88 298.486 1175.08 298.887C1175.28 299.285 1175.56 299.588 1175.92 299.797C1176.28 300.002 1176.69 300.105 1177.17 300.105C1177.48 300.105 1177.75 300.062 1178 299.976C1178.26 299.886 1178.47 299.754 1178.65 299.578C1178.84 299.399 1178.98 299.177 1179.08 298.912L1180.21 299.23C1180.09 299.615 1179.89 299.953 1179.61 300.244C1179.33 300.533 1178.98 300.758 1178.57 300.92C1178.15 301.08 1177.69 301.159 1177.17 301.159Z" fill="white"/>
</svg>
